G04 #@! TF.GenerationSoftware,KiCad,Pcbnew,7.0.5-unknown-202306101748~6fbdf8f0e2~ubuntu22.04.1*
G04 #@! TF.CreationDate,2023-07-16T12:42:56+01:00*
G04 #@! TF.ProjectId,back_panel,6261636b-5f70-4616-9e65-6c2e6b696361,rev?*
G04 #@! TF.SameCoordinates,Original*
G04 #@! TF.FileFunction,Copper,L1,Top*
G04 #@! TF.FilePolarity,Positive*
%FSLAX46Y46*%
G04 Gerber Fmt 4.6, Leading zero omitted, Abs format (unit mm)*
G04 Created by KiCad (PCBNEW 7.0.5-unknown-202306101748~6fbdf8f0e2~ubuntu22.04.1) date 2023-07-16 12:42:56*
%MOMM*%
%LPD*%
G01*
G04 APERTURE LIST*
G04 #@! TA.AperFunction,ComponentPad*
%ADD10C,6.400000*%
G04 #@! TD*
G04 APERTURE END LIST*
D10*
X129417834Y-133227834D03*
X129417834Y-53852834D03*
X173867834Y-133227834D03*
X173867834Y-53852834D03*
G04 #@! TA.AperFunction,Conductor*
G36*
X172089918Y-48896801D02*
G01*
X172328282Y-48937900D01*
X172331794Y-48938613D01*
X172371015Y-48947758D01*
X172616691Y-49005042D01*
X172865122Y-49065584D01*
X172868384Y-49066475D01*
X173146254Y-49150766D01*
X173392211Y-49228830D01*
X173395227Y-49229876D01*
X173665758Y-49331697D01*
X173802774Y-49385729D01*
X173907152Y-49426891D01*
X173909982Y-49428089D01*
X174172465Y-49547018D01*
X174407754Y-49658918D01*
X174410333Y-49660220D01*
X174663930Y-49795770D01*
X174892853Y-49924487D01*
X175137921Y-50076880D01*
X175276299Y-50167642D01*
X175321558Y-50220868D01*
X175330857Y-50290116D01*
X175301242Y-50353399D01*
X175242114Y-50390624D01*
X175172248Y-50389974D01*
X175163851Y-50387091D01*
X175012770Y-50329096D01*
X174638164Y-50228721D01*
X174638157Y-50228720D01*
X174255121Y-50168053D01*
X173867835Y-50147756D01*
X173867833Y-50147756D01*
X173480546Y-50168053D01*
X173097510Y-50228720D01*
X173097503Y-50228721D01*
X172722897Y-50329096D01*
X172360839Y-50468078D01*
X172015290Y-50644144D01*
X171690040Y-50855365D01*
X171432482Y-51063929D01*
X171432482Y-51063930D01*
X172923653Y-52555100D01*
X172732964Y-52717964D01*
X172570101Y-52908652D01*
X171078930Y-51417482D01*
X171078929Y-51417482D01*
X170870365Y-51675040D01*
X170659144Y-52000290D01*
X170483078Y-52345839D01*
X170344096Y-52707897D01*
X170243721Y-53082503D01*
X170243720Y-53082510D01*
X170183053Y-53465546D01*
X170162756Y-53852833D01*
X170162756Y-53852834D01*
X170183053Y-54240121D01*
X170243720Y-54623157D01*
X170243721Y-54623164D01*
X170344096Y-54997770D01*
X170483078Y-55359828D01*
X170659144Y-55705377D01*
X170870365Y-56030627D01*
X171078929Y-56288184D01*
X171078930Y-56288184D01*
X172570100Y-54797014D01*
X172732964Y-54987704D01*
X172923653Y-55150567D01*
X171432482Y-56641737D01*
X171432483Y-56641738D01*
X171690040Y-56850302D01*
X172015290Y-57061523D01*
X172360839Y-57237589D01*
X172722897Y-57376571D01*
X173097503Y-57476946D01*
X173097510Y-57476947D01*
X173480546Y-57537614D01*
X173867833Y-57557912D01*
X173867835Y-57557912D01*
X174255121Y-57537614D01*
X174638157Y-57476947D01*
X174638164Y-57476946D01*
X175012770Y-57376571D01*
X175374828Y-57237589D01*
X175720377Y-57061523D01*
X176045617Y-56850310D01*
X176045619Y-56850309D01*
X176303183Y-56641736D01*
X174812014Y-55150567D01*
X175002704Y-54987704D01*
X175165567Y-54797014D01*
X176656736Y-56288183D01*
X176865309Y-56030619D01*
X176865310Y-56030617D01*
X177076523Y-55705377D01*
X177252589Y-55359828D01*
X177391571Y-54997770D01*
X177491946Y-54623164D01*
X177491947Y-54623157D01*
X177552614Y-54240121D01*
X177572912Y-53852834D01*
X177572912Y-53852833D01*
X177552614Y-53465546D01*
X177491947Y-53082510D01*
X177491946Y-53082503D01*
X177391571Y-52707897D01*
X177333562Y-52556779D01*
X177327914Y-52487138D01*
X177360814Y-52425499D01*
X177421815Y-52391431D01*
X177491551Y-52395752D01*
X177547881Y-52437089D01*
X177553009Y-52444327D01*
X177575439Y-52478524D01*
X177643807Y-52582760D01*
X177796197Y-52827820D01*
X177924898Y-53056712D01*
X178060478Y-53310362D01*
X178061780Y-53312942D01*
X178150400Y-53499281D01*
X178173661Y-53548191D01*
X178292593Y-53810678D01*
X178293797Y-53813521D01*
X178389001Y-54054939D01*
X178490795Y-54325395D01*
X178491864Y-54328479D01*
X178569927Y-54574428D01*
X178654208Y-54852258D01*
X178655115Y-54855577D01*
X178715640Y-55103939D01*
X178782083Y-55388891D01*
X178782802Y-55392436D01*
X178825509Y-55640122D01*
X178873843Y-55932865D01*
X178874346Y-55936624D01*
X178899037Y-56176778D01*
X178929079Y-56481787D01*
X178929341Y-56485752D01*
X178936155Y-56685468D01*
X178947334Y-57026888D01*
X178947334Y-130052834D01*
X178935842Y-130403811D01*
X178929312Y-130594904D01*
X178929049Y-130598865D01*
X178899011Y-130903858D01*
X178874318Y-131144042D01*
X178873815Y-131147802D01*
X178825489Y-131440503D01*
X178782775Y-131688233D01*
X178782056Y-131691777D01*
X178715625Y-131976690D01*
X178655094Y-132225076D01*
X178654187Y-132228395D01*
X178569904Y-132506240D01*
X178491845Y-132752178D01*
X178490776Y-132755262D01*
X178388976Y-133025738D01*
X178293776Y-133267146D01*
X178292572Y-133269989D01*
X178173646Y-133532464D01*
X178061766Y-133767711D01*
X178060455Y-133770309D01*
X177966265Y-133946528D01*
X177924877Y-134023961D01*
X177924868Y-134023977D01*
X177796193Y-134252823D01*
X177643765Y-134497945D01*
X177553036Y-134636273D01*
X177499808Y-134681534D01*
X177430560Y-134690833D01*
X177367277Y-134661218D01*
X177330052Y-134602090D01*
X177330702Y-134532224D01*
X177333585Y-134523827D01*
X177391571Y-134372770D01*
X177491946Y-133998164D01*
X177491947Y-133998157D01*
X177552614Y-133615121D01*
X177572912Y-133227834D01*
X177572912Y-133227833D01*
X177552614Y-132840546D01*
X177491947Y-132457510D01*
X177491946Y-132457503D01*
X177391571Y-132082897D01*
X177252589Y-131720839D01*
X177076523Y-131375290D01*
X176865302Y-131050040D01*
X176656738Y-130792483D01*
X176656737Y-130792482D01*
X175165567Y-132283652D01*
X175002704Y-132092964D01*
X174812014Y-131930100D01*
X176303184Y-130438930D01*
X176303184Y-130438929D01*
X176045627Y-130230365D01*
X175720377Y-130019144D01*
X175374828Y-129843078D01*
X175012770Y-129704096D01*
X174638164Y-129603721D01*
X174638157Y-129603720D01*
X174255121Y-129543053D01*
X173867835Y-129522756D01*
X173867833Y-129522756D01*
X173480546Y-129543053D01*
X173097510Y-129603720D01*
X173097503Y-129603721D01*
X172722897Y-129704096D01*
X172360839Y-129843078D01*
X172015290Y-130019144D01*
X171690040Y-130230365D01*
X171432482Y-130438929D01*
X171432482Y-130438930D01*
X172923653Y-131930100D01*
X172732964Y-132092964D01*
X172570100Y-132283652D01*
X171078930Y-130792482D01*
X171078929Y-130792482D01*
X170870365Y-131050040D01*
X170659144Y-131375290D01*
X170483078Y-131720839D01*
X170344096Y-132082897D01*
X170243721Y-132457503D01*
X170243720Y-132457510D01*
X170183053Y-132840546D01*
X170162756Y-133227833D01*
X170162756Y-133227834D01*
X170183053Y-133615121D01*
X170243720Y-133998157D01*
X170243721Y-133998164D01*
X170344096Y-134372770D01*
X170483078Y-134734828D01*
X170659144Y-135080377D01*
X170870365Y-135405627D01*
X171078929Y-135663184D01*
X171078930Y-135663184D01*
X172570100Y-134172014D01*
X172732964Y-134362704D01*
X172923653Y-134525567D01*
X171432482Y-136016737D01*
X171432483Y-136016738D01*
X171690040Y-136225302D01*
X172015290Y-136436523D01*
X172360839Y-136612589D01*
X172722897Y-136751571D01*
X173097503Y-136851946D01*
X173097510Y-136851947D01*
X173480546Y-136912614D01*
X173867833Y-136932912D01*
X173867835Y-136932912D01*
X174255121Y-136912614D01*
X174638157Y-136851947D01*
X174638164Y-136851946D01*
X175012770Y-136751571D01*
X175163827Y-136693585D01*
X175233468Y-136687937D01*
X175295107Y-136720836D01*
X175329175Y-136781838D01*
X175324854Y-136851574D01*
X175283518Y-136907904D01*
X175276273Y-136913036D01*
X175137945Y-137003765D01*
X174892823Y-137156193D01*
X174892802Y-137156205D01*
X174663962Y-137284875D01*
X174410309Y-137420455D01*
X174407711Y-137421766D01*
X174172464Y-137533646D01*
X173909989Y-137652572D01*
X173907146Y-137653776D01*
X173665738Y-137748976D01*
X173395262Y-137850776D01*
X173392178Y-137851845D01*
X173146240Y-137929904D01*
X172868395Y-138014187D01*
X172865076Y-138015094D01*
X172616690Y-138075625D01*
X172331777Y-138142056D01*
X172328233Y-138142775D01*
X172080503Y-138185489D01*
X171787802Y-138233815D01*
X171784042Y-138234318D01*
X171543858Y-138259011D01*
X171238865Y-138289049D01*
X171234904Y-138289312D01*
X171043811Y-138295842D01*
X170692834Y-138307334D01*
X132592834Y-138307334D01*
X132241951Y-138295848D01*
X132050758Y-138289317D01*
X132046797Y-138289055D01*
X131741723Y-138259009D01*
X131501635Y-138234328D01*
X131497875Y-138233825D01*
X131205139Y-138185495D01*
X130957426Y-138142786D01*
X130953881Y-138142067D01*
X130668939Y-138075629D01*
X130420596Y-138015109D01*
X130417278Y-138014202D01*
X130139361Y-137929899D01*
X129893504Y-137851868D01*
X129890420Y-137850799D01*
X129619891Y-137748980D01*
X129378521Y-137653796D01*
X129375678Y-137652592D01*
X129113185Y-137533659D01*
X128877950Y-137421786D01*
X128875351Y-137420474D01*
X128621694Y-137284892D01*
X128392825Y-137156205D01*
X128147740Y-137003802D01*
X128009303Y-136913000D01*
X127964042Y-136859772D01*
X127954743Y-136790524D01*
X127984359Y-136727242D01*
X128043486Y-136690017D01*
X128113353Y-136690667D01*
X128121749Y-136693550D01*
X128272897Y-136751571D01*
X128647503Y-136851946D01*
X128647510Y-136851947D01*
X129030546Y-136912614D01*
X129417833Y-136932912D01*
X129417835Y-136932912D01*
X129805121Y-136912614D01*
X130188157Y-136851947D01*
X130188164Y-136851946D01*
X130562770Y-136751571D01*
X130924828Y-136612589D01*
X131270377Y-136436523D01*
X131595617Y-136225310D01*
X131595619Y-136225309D01*
X131853183Y-136016736D01*
X130362014Y-134525567D01*
X130552704Y-134362704D01*
X130715567Y-134172014D01*
X132206736Y-135663183D01*
X132415309Y-135405619D01*
X132415310Y-135405617D01*
X132626523Y-135080377D01*
X132802589Y-134734828D01*
X132941571Y-134372770D01*
X133041946Y-133998164D01*
X133041947Y-133998157D01*
X133102614Y-133615121D01*
X133122912Y-133227834D01*
X133122912Y-133227833D01*
X133102614Y-132840546D01*
X133041947Y-132457510D01*
X133041946Y-132457503D01*
X132941571Y-132082897D01*
X132802589Y-131720839D01*
X132626523Y-131375290D01*
X132415302Y-131050040D01*
X132206738Y-130792483D01*
X132206737Y-130792482D01*
X130715566Y-132283652D01*
X130552704Y-132092964D01*
X130362014Y-131930100D01*
X131853184Y-130438930D01*
X131853184Y-130438929D01*
X131595627Y-130230365D01*
X131270377Y-130019144D01*
X130924828Y-129843078D01*
X130562770Y-129704096D01*
X130188164Y-129603721D01*
X130188157Y-129603720D01*
X129805121Y-129543053D01*
X129417835Y-129522756D01*
X129417833Y-129522756D01*
X129030546Y-129543053D01*
X128647510Y-129603720D01*
X128647503Y-129603721D01*
X128272897Y-129704096D01*
X127910839Y-129843078D01*
X127565290Y-130019144D01*
X127240040Y-130230365D01*
X126982482Y-130438929D01*
X126982482Y-130438930D01*
X128473653Y-131930100D01*
X128282964Y-132092964D01*
X128120100Y-132283653D01*
X126628930Y-130792482D01*
X126628929Y-130792482D01*
X126420365Y-131050040D01*
X126209144Y-131375290D01*
X126033078Y-131720839D01*
X125894096Y-132082897D01*
X125793721Y-132457503D01*
X125793720Y-132457510D01*
X125733053Y-132840546D01*
X125712756Y-133227833D01*
X125712756Y-133227834D01*
X125733053Y-133615121D01*
X125793720Y-133998157D01*
X125793721Y-133998164D01*
X125894096Y-134372770D01*
X125952102Y-134523880D01*
X125957750Y-134593521D01*
X125924850Y-134655161D01*
X125863848Y-134689228D01*
X125794112Y-134684907D01*
X125737783Y-134643570D01*
X125732651Y-134636325D01*
X125641883Y-134497936D01*
X125489482Y-134252855D01*
X125360783Y-134023961D01*
X125319394Y-133946528D01*
X125225202Y-133770304D01*
X125223908Y-133767739D01*
X125112029Y-133532489D01*
X125079981Y-133461756D01*
X124993088Y-133269977D01*
X124991892Y-133267152D01*
X124896709Y-133025782D01*
X124794875Y-132755211D01*
X124793840Y-132752225D01*
X124715793Y-132506319D01*
X124631488Y-132228395D01*
X124630587Y-132225098D01*
X124570069Y-131976756D01*
X124503623Y-131691777D01*
X124502909Y-131688250D01*
X124461803Y-131449828D01*
X124460000Y-131428760D01*
X124460000Y-83185002D01*
X147314647Y-83185002D01*
X147334021Y-83406457D01*
X147334022Y-83406465D01*
X147391558Y-83621191D01*
X147391559Y-83621193D01*
X147391560Y-83621196D01*
X147427701Y-83698700D01*
X147485511Y-83822676D01*
X147485513Y-83822679D01*
X147613023Y-84004781D01*
X147770219Y-84161977D01*
X147952323Y-84289488D01*
X148153804Y-84383440D01*
X148153811Y-84383442D01*
X148153814Y-84383443D01*
X148189313Y-84392955D01*
X148192422Y-84393875D01*
X148196745Y-84395279D01*
X148196755Y-84395283D01*
X148205158Y-84397200D01*
X148368537Y-84440978D01*
X148410378Y-84444638D01*
X148418778Y-84445957D01*
X148419179Y-84446049D01*
X148421917Y-84446674D01*
X148421939Y-84446678D01*
X148455563Y-84454351D01*
X148487475Y-84451383D01*
X148590000Y-84460353D01*
X148636024Y-84456326D01*
X148644186Y-84456154D01*
X148647093Y-84456285D01*
X148647098Y-84456284D01*
X148648448Y-84456345D01*
X148648461Y-84456345D01*
X148682036Y-84457853D01*
X148711627Y-84449712D01*
X148811463Y-84440978D01*
X148860183Y-84427923D01*
X148867886Y-84426377D01*
X148873173Y-84425661D01*
X148873175Y-84425660D01*
X148875724Y-84425315D01*
X148875742Y-84425312D01*
X148905510Y-84421279D01*
X148931954Y-84408692D01*
X149008600Y-84388154D01*
X149026186Y-84383443D01*
X149026188Y-84383442D01*
X149026196Y-84383440D01*
X149075821Y-84360299D01*
X149082841Y-84357534D01*
X149090150Y-84355160D01*
X149090156Y-84355156D01*
X149095442Y-84353439D01*
X149095454Y-84353435D01*
X149118940Y-84345803D01*
X149141599Y-84329626D01*
X149227677Y-84289488D01*
X149276124Y-84255564D01*
X149282284Y-84251768D01*
X149291053Y-84247050D01*
X149291056Y-84247047D01*
X149315587Y-84233847D01*
X149334028Y-84215019D01*
X149409781Y-84161977D01*
X149454779Y-84116978D01*
X149459935Y-84112370D01*
X149469423Y-84104805D01*
X149469424Y-84104802D01*
X149474636Y-84100647D01*
X149475654Y-84100231D01*
X149478146Y-84097849D01*
X149489298Y-84088955D01*
X149503294Y-84068463D01*
X149566977Y-84004781D01*
X149606105Y-83948901D01*
X149610196Y-83943676D01*
X149619528Y-83932996D01*
X149619531Y-83932990D01*
X149619709Y-83932787D01*
X149621954Y-83931356D01*
X149626873Y-83924586D01*
X149634621Y-83915717D01*
X149644165Y-83894544D01*
X149694488Y-83822677D01*
X149725324Y-83756548D01*
X149728270Y-83750991D01*
X149733608Y-83742057D01*
X149736634Y-83739257D01*
X149742270Y-83727556D01*
X149747005Y-83719630D01*
X149752296Y-83698706D01*
X149788440Y-83621196D01*
X149788440Y-83621194D01*
X149788442Y-83621191D01*
X149788442Y-83621190D01*
X149792272Y-83606892D01*
X149808583Y-83546021D01*
X149810406Y-83540337D01*
X149812697Y-83534233D01*
X149816010Y-83529827D01*
X149820628Y-83513097D01*
X149822953Y-83506902D01*
X149824384Y-83487051D01*
X149845976Y-83406469D01*
X149845977Y-83406465D01*
X149845978Y-83406463D01*
X149853198Y-83323930D01*
X149853951Y-83318317D01*
X149857444Y-83299072D01*
X149857444Y-83299067D01*
X149858311Y-83294291D01*
X149858314Y-83294269D01*
X149859694Y-83286660D01*
X149857998Y-83274304D01*
X149858112Y-83269216D01*
X149858326Y-83265314D01*
X149865353Y-83185002D01*
X150489647Y-83185002D01*
X150509021Y-83406457D01*
X150509022Y-83406465D01*
X150566558Y-83621191D01*
X150566559Y-83621193D01*
X150566560Y-83621196D01*
X150602701Y-83698700D01*
X150660511Y-83822676D01*
X150660513Y-83822679D01*
X150788023Y-84004781D01*
X150945219Y-84161977D01*
X151127323Y-84289488D01*
X151328804Y-84383440D01*
X151328811Y-84383442D01*
X151328814Y-84383443D01*
X151364313Y-84392955D01*
X151367422Y-84393875D01*
X151371745Y-84395279D01*
X151371755Y-84395283D01*
X151380158Y-84397200D01*
X151543537Y-84440978D01*
X151585378Y-84444638D01*
X151593778Y-84445957D01*
X151594179Y-84446049D01*
X151596917Y-84446674D01*
X151596939Y-84446678D01*
X151630563Y-84454351D01*
X151662475Y-84451383D01*
X151765000Y-84460353D01*
X151811024Y-84456326D01*
X151819186Y-84456154D01*
X151822093Y-84456285D01*
X151822098Y-84456284D01*
X151823448Y-84456345D01*
X151823461Y-84456345D01*
X151857036Y-84457853D01*
X151886627Y-84449712D01*
X151986463Y-84440978D01*
X152035183Y-84427923D01*
X152042886Y-84426377D01*
X152048173Y-84425661D01*
X152048175Y-84425660D01*
X152050724Y-84425315D01*
X152050742Y-84425312D01*
X152080510Y-84421279D01*
X152106954Y-84408692D01*
X152183600Y-84388154D01*
X152201186Y-84383443D01*
X152201188Y-84383442D01*
X152201196Y-84383440D01*
X152250821Y-84360299D01*
X152257841Y-84357534D01*
X152265150Y-84355160D01*
X152265156Y-84355156D01*
X152270442Y-84353439D01*
X152270454Y-84353435D01*
X152293940Y-84345803D01*
X152316599Y-84329626D01*
X152402677Y-84289488D01*
X152451124Y-84255564D01*
X152457284Y-84251768D01*
X152466053Y-84247050D01*
X152466056Y-84247047D01*
X152490587Y-84233847D01*
X152509028Y-84215019D01*
X152584781Y-84161977D01*
X152629779Y-84116978D01*
X152634935Y-84112370D01*
X152644423Y-84104805D01*
X152644424Y-84104802D01*
X152649636Y-84100647D01*
X152650654Y-84100231D01*
X152653146Y-84097849D01*
X152664298Y-84088955D01*
X152678294Y-84068463D01*
X152741977Y-84004781D01*
X152781105Y-83948901D01*
X152785196Y-83943676D01*
X152794528Y-83932996D01*
X152794531Y-83932990D01*
X152794709Y-83932787D01*
X152796954Y-83931356D01*
X152801873Y-83924586D01*
X152809621Y-83915717D01*
X152819165Y-83894544D01*
X152869488Y-83822677D01*
X152900324Y-83756548D01*
X152903270Y-83750991D01*
X152908608Y-83742057D01*
X152911634Y-83739257D01*
X152917270Y-83727556D01*
X152922005Y-83719630D01*
X152927296Y-83698706D01*
X152963440Y-83621196D01*
X152963440Y-83621194D01*
X152963442Y-83621191D01*
X152963442Y-83621190D01*
X152967272Y-83606892D01*
X152983583Y-83546021D01*
X152985406Y-83540337D01*
X152987697Y-83534233D01*
X152991010Y-83529827D01*
X152995628Y-83513097D01*
X152997953Y-83506902D01*
X152999384Y-83487051D01*
X153020976Y-83406469D01*
X153020977Y-83406465D01*
X153020978Y-83406463D01*
X153028198Y-83323930D01*
X153028951Y-83318317D01*
X153032444Y-83299072D01*
X153032444Y-83299067D01*
X153033311Y-83294291D01*
X153033314Y-83294269D01*
X153034694Y-83286660D01*
X153032998Y-83274304D01*
X153033112Y-83269216D01*
X153033326Y-83265314D01*
X153040353Y-83185002D01*
X153664647Y-83185002D01*
X153684021Y-83406457D01*
X153684022Y-83406465D01*
X153741558Y-83621191D01*
X153741559Y-83621193D01*
X153741560Y-83621196D01*
X153777701Y-83698700D01*
X153835511Y-83822676D01*
X153835513Y-83822679D01*
X153963023Y-84004781D01*
X154120219Y-84161977D01*
X154302323Y-84289488D01*
X154503804Y-84383440D01*
X154503811Y-84383442D01*
X154503814Y-84383443D01*
X154539313Y-84392955D01*
X154542422Y-84393875D01*
X154546745Y-84395279D01*
X154546755Y-84395283D01*
X154555158Y-84397200D01*
X154718537Y-84440978D01*
X154760378Y-84444638D01*
X154768778Y-84445957D01*
X154769179Y-84446049D01*
X154771917Y-84446674D01*
X154771939Y-84446678D01*
X154805563Y-84454351D01*
X154837475Y-84451383D01*
X154940000Y-84460353D01*
X154986024Y-84456326D01*
X154994186Y-84456154D01*
X154997093Y-84456285D01*
X154997098Y-84456284D01*
X154998448Y-84456345D01*
X154998461Y-84456345D01*
X155032036Y-84457853D01*
X155061627Y-84449712D01*
X155161463Y-84440978D01*
X155210183Y-84427923D01*
X155217886Y-84426377D01*
X155223173Y-84425661D01*
X155223175Y-84425660D01*
X155225724Y-84425315D01*
X155225742Y-84425312D01*
X155255510Y-84421279D01*
X155281954Y-84408692D01*
X155358600Y-84388154D01*
X155376186Y-84383443D01*
X155376188Y-84383442D01*
X155376196Y-84383440D01*
X155425821Y-84360299D01*
X155432841Y-84357534D01*
X155440150Y-84355160D01*
X155440156Y-84355156D01*
X155445442Y-84353439D01*
X155445454Y-84353435D01*
X155468940Y-84345803D01*
X155491599Y-84329626D01*
X155577677Y-84289488D01*
X155626124Y-84255564D01*
X155632284Y-84251768D01*
X155641053Y-84247050D01*
X155641056Y-84247047D01*
X155665587Y-84233847D01*
X155684028Y-84215019D01*
X155759781Y-84161977D01*
X155804779Y-84116978D01*
X155809935Y-84112370D01*
X155819423Y-84104805D01*
X155819424Y-84104802D01*
X155824636Y-84100647D01*
X155825654Y-84100231D01*
X155828146Y-84097849D01*
X155839298Y-84088955D01*
X155853294Y-84068463D01*
X155916977Y-84004781D01*
X155956105Y-83948901D01*
X155960196Y-83943676D01*
X155969528Y-83932996D01*
X155969531Y-83932990D01*
X155969709Y-83932787D01*
X155971954Y-83931356D01*
X155976873Y-83924586D01*
X155984621Y-83915717D01*
X155994165Y-83894544D01*
X156044488Y-83822677D01*
X156075324Y-83756548D01*
X156078270Y-83750991D01*
X156083608Y-83742057D01*
X156086634Y-83739257D01*
X156092270Y-83727556D01*
X156097005Y-83719630D01*
X156102296Y-83698706D01*
X156138440Y-83621196D01*
X156138440Y-83621194D01*
X156138442Y-83621191D01*
X156138442Y-83621190D01*
X156142272Y-83606892D01*
X156158583Y-83546021D01*
X156160406Y-83540337D01*
X156162697Y-83534233D01*
X156166010Y-83529827D01*
X156170628Y-83513097D01*
X156172953Y-83506902D01*
X156174384Y-83487051D01*
X156195976Y-83406469D01*
X156195977Y-83406465D01*
X156195978Y-83406463D01*
X156203198Y-83323930D01*
X156203951Y-83318317D01*
X156207444Y-83299072D01*
X156207444Y-83299067D01*
X156208311Y-83294291D01*
X156208314Y-83294269D01*
X156209694Y-83286660D01*
X156207998Y-83274304D01*
X156208112Y-83269216D01*
X156208326Y-83265314D01*
X156215353Y-83185000D01*
X156208326Y-83104690D01*
X156208112Y-83100780D01*
X156207999Y-83095697D01*
X156210353Y-83086969D01*
X156207746Y-83072600D01*
X156207741Y-83072568D01*
X156207444Y-83070932D01*
X156207444Y-83070928D01*
X156203951Y-83051682D01*
X156203198Y-83046069D01*
X156195978Y-82963537D01*
X156174383Y-82882944D01*
X156174742Y-82867863D01*
X156170629Y-82856905D01*
X156166892Y-82843363D01*
X156162686Y-82835736D01*
X156160410Y-82829671D01*
X156158572Y-82823938D01*
X156138442Y-82748811D01*
X156138439Y-82748802D01*
X156138438Y-82748800D01*
X156102296Y-82671294D01*
X156099838Y-82655109D01*
X156092267Y-82642437D01*
X156087728Y-82633013D01*
X156083606Y-82627938D01*
X156078279Y-82619022D01*
X156075309Y-82613419D01*
X156044488Y-82547324D01*
X156044487Y-82547322D01*
X155994166Y-82475456D01*
X155988534Y-82458757D01*
X155976872Y-82445409D01*
X155972927Y-82439979D01*
X155969715Y-82437217D01*
X155960193Y-82426318D01*
X155956100Y-82421093D01*
X155916977Y-82365219D01*
X155853295Y-82301537D01*
X155844268Y-82285005D01*
X155828145Y-82272148D01*
X155826158Y-82270248D01*
X155824641Y-82269354D01*
X155809944Y-82257634D01*
X155804754Y-82252996D01*
X155759782Y-82208023D01*
X155684029Y-82154981D01*
X155671536Y-82139352D01*
X155632297Y-82118237D01*
X155626110Y-82114424D01*
X155577682Y-82080515D01*
X155577680Y-82080514D01*
X155577679Y-82080513D01*
X155577677Y-82080512D01*
X155491599Y-82040373D01*
X155475732Y-82026402D01*
X155445007Y-82016418D01*
X155444998Y-82016416D01*
X155432844Y-82012465D01*
X155425801Y-82009690D01*
X155376195Y-81986559D01*
X155281952Y-81961307D01*
X155262955Y-81949728D01*
X155224197Y-81944477D01*
X155217891Y-81943622D01*
X155210165Y-81942070D01*
X155161467Y-81929023D01*
X155161465Y-81929022D01*
X155161463Y-81929022D01*
X155161461Y-81929021D01*
X155161457Y-81929021D01*
X155061623Y-81920287D01*
X155039904Y-81911791D01*
X154994190Y-81913844D01*
X154985998Y-81913670D01*
X154940004Y-81909647D01*
X154939998Y-81909647D01*
X154837463Y-81918617D01*
X154813582Y-81913817D01*
X154769180Y-81923950D01*
X154769179Y-81923951D01*
X154768786Y-81924040D01*
X154760391Y-81925359D01*
X154718540Y-81929021D01*
X154718534Y-81929022D01*
X154555172Y-81972796D01*
X154546744Y-81974719D01*
X154542408Y-81976127D01*
X154539315Y-81977043D01*
X154503806Y-81986558D01*
X154503803Y-81986559D01*
X154302323Y-82080512D01*
X154302319Y-82080514D01*
X154120217Y-82208023D01*
X153963023Y-82365217D01*
X153835514Y-82547319D01*
X153835512Y-82547323D01*
X153741561Y-82748800D01*
X153684022Y-82963535D01*
X153684021Y-82963542D01*
X153664647Y-83184997D01*
X153664647Y-83185002D01*
X153040353Y-83185002D01*
X153040353Y-83185000D01*
X153033326Y-83104690D01*
X153033112Y-83100780D01*
X153032999Y-83095697D01*
X153035353Y-83086969D01*
X153032746Y-83072600D01*
X153032741Y-83072568D01*
X153032444Y-83070932D01*
X153032444Y-83070928D01*
X153028951Y-83051682D01*
X153028198Y-83046069D01*
X153020978Y-82963537D01*
X152999383Y-82882944D01*
X152999742Y-82867863D01*
X152995629Y-82856905D01*
X152991892Y-82843363D01*
X152987686Y-82835736D01*
X152985410Y-82829671D01*
X152983572Y-82823938D01*
X152963442Y-82748811D01*
X152963439Y-82748802D01*
X152963438Y-82748800D01*
X152927296Y-82671294D01*
X152924838Y-82655109D01*
X152917267Y-82642437D01*
X152912728Y-82633013D01*
X152908606Y-82627938D01*
X152903279Y-82619022D01*
X152900309Y-82613419D01*
X152869488Y-82547324D01*
X152869487Y-82547322D01*
X152819166Y-82475456D01*
X152813534Y-82458757D01*
X152801872Y-82445409D01*
X152797927Y-82439979D01*
X152794715Y-82437217D01*
X152785193Y-82426318D01*
X152781100Y-82421093D01*
X152741977Y-82365219D01*
X152678295Y-82301537D01*
X152669268Y-82285005D01*
X152653145Y-82272148D01*
X152651158Y-82270248D01*
X152649641Y-82269354D01*
X152634944Y-82257634D01*
X152629754Y-82252996D01*
X152584782Y-82208023D01*
X152509029Y-82154981D01*
X152496536Y-82139352D01*
X152457297Y-82118237D01*
X152451110Y-82114424D01*
X152402682Y-82080515D01*
X152402680Y-82080514D01*
X152402679Y-82080513D01*
X152402677Y-82080512D01*
X152316599Y-82040373D01*
X152300732Y-82026402D01*
X152270007Y-82016418D01*
X152269998Y-82016416D01*
X152257844Y-82012465D01*
X152250801Y-82009690D01*
X152201195Y-81986559D01*
X152106952Y-81961307D01*
X152087955Y-81949728D01*
X152049197Y-81944477D01*
X152042891Y-81943622D01*
X152035165Y-81942070D01*
X151986467Y-81929023D01*
X151986465Y-81929022D01*
X151986463Y-81929022D01*
X151986461Y-81929021D01*
X151986457Y-81929021D01*
X151886623Y-81920287D01*
X151864904Y-81911791D01*
X151819190Y-81913844D01*
X151810998Y-81913670D01*
X151765004Y-81909647D01*
X151764998Y-81909647D01*
X151662463Y-81918617D01*
X151638582Y-81913817D01*
X151594180Y-81923950D01*
X151594179Y-81923951D01*
X151593786Y-81924040D01*
X151585391Y-81925359D01*
X151543540Y-81929021D01*
X151543534Y-81929022D01*
X151380172Y-81972796D01*
X151371744Y-81974719D01*
X151367408Y-81976127D01*
X151364315Y-81977043D01*
X151328806Y-81986558D01*
X151328803Y-81986559D01*
X151127323Y-82080512D01*
X151127319Y-82080514D01*
X150945217Y-82208023D01*
X150788023Y-82365217D01*
X150660514Y-82547319D01*
X150660512Y-82547323D01*
X150566561Y-82748800D01*
X150509022Y-82963535D01*
X150509021Y-82963542D01*
X150489647Y-83184997D01*
X150489647Y-83185002D01*
X149865353Y-83185002D01*
X149865353Y-83185000D01*
X149858326Y-83104690D01*
X149858112Y-83100780D01*
X149857999Y-83095697D01*
X149860353Y-83086969D01*
X149857746Y-83072600D01*
X149857741Y-83072568D01*
X149857444Y-83070932D01*
X149857444Y-83070928D01*
X149853951Y-83051682D01*
X149853198Y-83046069D01*
X149845978Y-82963537D01*
X149824383Y-82882944D01*
X149824742Y-82867863D01*
X149820629Y-82856905D01*
X149816892Y-82843363D01*
X149812686Y-82835736D01*
X149810410Y-82829671D01*
X149808572Y-82823938D01*
X149788442Y-82748811D01*
X149788439Y-82748802D01*
X149788438Y-82748800D01*
X149752296Y-82671294D01*
X149749838Y-82655109D01*
X149742267Y-82642437D01*
X149737728Y-82633013D01*
X149733606Y-82627938D01*
X149728279Y-82619022D01*
X149725309Y-82613419D01*
X149694488Y-82547324D01*
X149694487Y-82547322D01*
X149644166Y-82475456D01*
X149638534Y-82458757D01*
X149626872Y-82445409D01*
X149622927Y-82439979D01*
X149619715Y-82437217D01*
X149610193Y-82426318D01*
X149606100Y-82421093D01*
X149566977Y-82365219D01*
X149503295Y-82301537D01*
X149494268Y-82285005D01*
X149478145Y-82272148D01*
X149476158Y-82270248D01*
X149474641Y-82269354D01*
X149459944Y-82257634D01*
X149454754Y-82252996D01*
X149409782Y-82208023D01*
X149334029Y-82154981D01*
X149321536Y-82139352D01*
X149282297Y-82118237D01*
X149276110Y-82114424D01*
X149227682Y-82080515D01*
X149227680Y-82080514D01*
X149227679Y-82080513D01*
X149227677Y-82080512D01*
X149141599Y-82040373D01*
X149125732Y-82026402D01*
X149095007Y-82016418D01*
X149094998Y-82016416D01*
X149082844Y-82012465D01*
X149075801Y-82009690D01*
X149026195Y-81986559D01*
X148931952Y-81961307D01*
X148912955Y-81949728D01*
X148874197Y-81944477D01*
X148867891Y-81943622D01*
X148860165Y-81942070D01*
X148811467Y-81929023D01*
X148811465Y-81929022D01*
X148811463Y-81929022D01*
X148811461Y-81929021D01*
X148811457Y-81929021D01*
X148711623Y-81920287D01*
X148689904Y-81911791D01*
X148644190Y-81913844D01*
X148635998Y-81913670D01*
X148590004Y-81909647D01*
X148589998Y-81909647D01*
X148487463Y-81918617D01*
X148463582Y-81913817D01*
X148419180Y-81923950D01*
X148419179Y-81923951D01*
X148418786Y-81924040D01*
X148410391Y-81925359D01*
X148368540Y-81929021D01*
X148368534Y-81929022D01*
X148205172Y-81972796D01*
X148196744Y-81974719D01*
X148192408Y-81976127D01*
X148189315Y-81977043D01*
X148153806Y-81986558D01*
X148153803Y-81986559D01*
X147952323Y-82080512D01*
X147952319Y-82080514D01*
X147770217Y-82208023D01*
X147613023Y-82365217D01*
X147485514Y-82547319D01*
X147485512Y-82547323D01*
X147391561Y-82748800D01*
X147334022Y-82963535D01*
X147334021Y-82963542D01*
X147314647Y-83184997D01*
X147314647Y-83185002D01*
X124460000Y-83185002D01*
X124460000Y-80010002D01*
X147314647Y-80010002D01*
X147334021Y-80231457D01*
X147334022Y-80231465D01*
X147391558Y-80446191D01*
X147391559Y-80446193D01*
X147391560Y-80446196D01*
X147427701Y-80523700D01*
X147485511Y-80647676D01*
X147485513Y-80647679D01*
X147613023Y-80829781D01*
X147770219Y-80986977D01*
X147952323Y-81114488D01*
X148153804Y-81208440D01*
X148153811Y-81208442D01*
X148153814Y-81208443D01*
X148189313Y-81217955D01*
X148192422Y-81218875D01*
X148196745Y-81220279D01*
X148196755Y-81220283D01*
X148205158Y-81222200D01*
X148368537Y-81265978D01*
X148410378Y-81269638D01*
X148418778Y-81270957D01*
X148419179Y-81271049D01*
X148421917Y-81271674D01*
X148421939Y-81271678D01*
X148455563Y-81279351D01*
X148487475Y-81276383D01*
X148590000Y-81285353D01*
X148636024Y-81281326D01*
X148644186Y-81281154D01*
X148647093Y-81281285D01*
X148647098Y-81281284D01*
X148648448Y-81281345D01*
X148648461Y-81281345D01*
X148682036Y-81282853D01*
X148711627Y-81274712D01*
X148811463Y-81265978D01*
X148860183Y-81252923D01*
X148867886Y-81251377D01*
X148873173Y-81250661D01*
X148873175Y-81250660D01*
X148875724Y-81250315D01*
X148875742Y-81250312D01*
X148905510Y-81246279D01*
X148931954Y-81233692D01*
X149008600Y-81213154D01*
X149026186Y-81208443D01*
X149026188Y-81208442D01*
X149026196Y-81208440D01*
X149075821Y-81185299D01*
X149082841Y-81182534D01*
X149090150Y-81180160D01*
X149090156Y-81180156D01*
X149095442Y-81178439D01*
X149095454Y-81178435D01*
X149118940Y-81170803D01*
X149141599Y-81154626D01*
X149227677Y-81114488D01*
X149276124Y-81080564D01*
X149282284Y-81076768D01*
X149291053Y-81072050D01*
X149291056Y-81072047D01*
X149315587Y-81058847D01*
X149334028Y-81040019D01*
X149409781Y-80986977D01*
X149454779Y-80941978D01*
X149459935Y-80937370D01*
X149469423Y-80929805D01*
X149469424Y-80929802D01*
X149474636Y-80925647D01*
X149475654Y-80925231D01*
X149478146Y-80922849D01*
X149489298Y-80913955D01*
X149503294Y-80893463D01*
X149566977Y-80829781D01*
X149606105Y-80773901D01*
X149610196Y-80768676D01*
X149619528Y-80757996D01*
X149619531Y-80757990D01*
X149619709Y-80757787D01*
X149621954Y-80756356D01*
X149626873Y-80749586D01*
X149634621Y-80740717D01*
X149644165Y-80719544D01*
X149694488Y-80647677D01*
X149725324Y-80581548D01*
X149728270Y-80575991D01*
X149733608Y-80567057D01*
X149736634Y-80564257D01*
X149742270Y-80552556D01*
X149747005Y-80544630D01*
X149752296Y-80523706D01*
X149788440Y-80446196D01*
X149788440Y-80446194D01*
X149788442Y-80446191D01*
X149788442Y-80446190D01*
X149792272Y-80431892D01*
X149808583Y-80371021D01*
X149810406Y-80365337D01*
X149812697Y-80359233D01*
X149816010Y-80354827D01*
X149820628Y-80338097D01*
X149822953Y-80331902D01*
X149824384Y-80312051D01*
X149845976Y-80231469D01*
X149845977Y-80231465D01*
X149845978Y-80231463D01*
X149853198Y-80148930D01*
X149853951Y-80143317D01*
X149857444Y-80124072D01*
X149857444Y-80124067D01*
X149858311Y-80119291D01*
X149858314Y-80119269D01*
X149859694Y-80111660D01*
X149857998Y-80099304D01*
X149858112Y-80094216D01*
X149858326Y-80090314D01*
X149865353Y-80010002D01*
X150489647Y-80010002D01*
X150509021Y-80231457D01*
X150509022Y-80231465D01*
X150566558Y-80446191D01*
X150566559Y-80446193D01*
X150566560Y-80446196D01*
X150602701Y-80523700D01*
X150660511Y-80647676D01*
X150660513Y-80647679D01*
X150788023Y-80829781D01*
X150945219Y-80986977D01*
X151127323Y-81114488D01*
X151328804Y-81208440D01*
X151328811Y-81208442D01*
X151328814Y-81208443D01*
X151364313Y-81217955D01*
X151367422Y-81218875D01*
X151371745Y-81220279D01*
X151371755Y-81220283D01*
X151380158Y-81222200D01*
X151543537Y-81265978D01*
X151585378Y-81269638D01*
X151593778Y-81270957D01*
X151594179Y-81271049D01*
X151596917Y-81271674D01*
X151596939Y-81271678D01*
X151630563Y-81279351D01*
X151662475Y-81276383D01*
X151765000Y-81285353D01*
X151811024Y-81281326D01*
X151819186Y-81281154D01*
X151822093Y-81281285D01*
X151822098Y-81281284D01*
X151823448Y-81281345D01*
X151823461Y-81281345D01*
X151857036Y-81282853D01*
X151886627Y-81274712D01*
X151986463Y-81265978D01*
X152035183Y-81252923D01*
X152042886Y-81251377D01*
X152048173Y-81250661D01*
X152048175Y-81250660D01*
X152050724Y-81250315D01*
X152050742Y-81250312D01*
X152080510Y-81246279D01*
X152106954Y-81233692D01*
X152183600Y-81213154D01*
X152201186Y-81208443D01*
X152201188Y-81208442D01*
X152201196Y-81208440D01*
X152250821Y-81185299D01*
X152257841Y-81182534D01*
X152265150Y-81180160D01*
X152265156Y-81180156D01*
X152270442Y-81178439D01*
X152270454Y-81178435D01*
X152293940Y-81170803D01*
X152316599Y-81154626D01*
X152402677Y-81114488D01*
X152451124Y-81080564D01*
X152457284Y-81076768D01*
X152466053Y-81072050D01*
X152466056Y-81072047D01*
X152490587Y-81058847D01*
X152509028Y-81040019D01*
X152584781Y-80986977D01*
X152629779Y-80941978D01*
X152634935Y-80937370D01*
X152644423Y-80929805D01*
X152644424Y-80929802D01*
X152649636Y-80925647D01*
X152650654Y-80925231D01*
X152653146Y-80922849D01*
X152664298Y-80913955D01*
X152678294Y-80893463D01*
X152741977Y-80829781D01*
X152781105Y-80773901D01*
X152785196Y-80768676D01*
X152794528Y-80757996D01*
X152794531Y-80757990D01*
X152794709Y-80757787D01*
X152796954Y-80756356D01*
X152801873Y-80749586D01*
X152809621Y-80740717D01*
X152819165Y-80719544D01*
X152869488Y-80647677D01*
X152900324Y-80581548D01*
X152903270Y-80575991D01*
X152908608Y-80567057D01*
X152911634Y-80564257D01*
X152917270Y-80552556D01*
X152922005Y-80544630D01*
X152927296Y-80523706D01*
X152963440Y-80446196D01*
X152963440Y-80446194D01*
X152963442Y-80446191D01*
X152963442Y-80446190D01*
X152967272Y-80431892D01*
X152983583Y-80371021D01*
X152985406Y-80365337D01*
X152987697Y-80359233D01*
X152991010Y-80354827D01*
X152995628Y-80338097D01*
X152997953Y-80331902D01*
X152999384Y-80312051D01*
X153020976Y-80231469D01*
X153020977Y-80231465D01*
X153020978Y-80231463D01*
X153028198Y-80148930D01*
X153028951Y-80143317D01*
X153032444Y-80124072D01*
X153032444Y-80124067D01*
X153033311Y-80119291D01*
X153033314Y-80119269D01*
X153034694Y-80111660D01*
X153032998Y-80099304D01*
X153033112Y-80094216D01*
X153033326Y-80090314D01*
X153040353Y-80010002D01*
X153664647Y-80010002D01*
X153684021Y-80231457D01*
X153684022Y-80231465D01*
X153741558Y-80446191D01*
X153741559Y-80446193D01*
X153741560Y-80446196D01*
X153777701Y-80523700D01*
X153835511Y-80647676D01*
X153835513Y-80647679D01*
X153963023Y-80829781D01*
X154120219Y-80986977D01*
X154302323Y-81114488D01*
X154503804Y-81208440D01*
X154503811Y-81208442D01*
X154503814Y-81208443D01*
X154539313Y-81217955D01*
X154542422Y-81218875D01*
X154546745Y-81220279D01*
X154546755Y-81220283D01*
X154555158Y-81222200D01*
X154718537Y-81265978D01*
X154760378Y-81269638D01*
X154768778Y-81270957D01*
X154769179Y-81271049D01*
X154771917Y-81271674D01*
X154771939Y-81271678D01*
X154805563Y-81279351D01*
X154837475Y-81276383D01*
X154940000Y-81285353D01*
X154986024Y-81281326D01*
X154994186Y-81281154D01*
X154997093Y-81281285D01*
X154997098Y-81281284D01*
X154998448Y-81281345D01*
X154998461Y-81281345D01*
X155032036Y-81282853D01*
X155061627Y-81274712D01*
X155161463Y-81265978D01*
X155210183Y-81252923D01*
X155217886Y-81251377D01*
X155223173Y-81250661D01*
X155223175Y-81250660D01*
X155225724Y-81250315D01*
X155225742Y-81250312D01*
X155255510Y-81246279D01*
X155281954Y-81233692D01*
X155358600Y-81213154D01*
X155376186Y-81208443D01*
X155376188Y-81208442D01*
X155376196Y-81208440D01*
X155425821Y-81185299D01*
X155432841Y-81182534D01*
X155440150Y-81180160D01*
X155440156Y-81180156D01*
X155445442Y-81178439D01*
X155445454Y-81178435D01*
X155468940Y-81170803D01*
X155491599Y-81154626D01*
X155577677Y-81114488D01*
X155626124Y-81080564D01*
X155632284Y-81076768D01*
X155641053Y-81072050D01*
X155641056Y-81072047D01*
X155665587Y-81058847D01*
X155684028Y-81040019D01*
X155759781Y-80986977D01*
X155804779Y-80941978D01*
X155809935Y-80937370D01*
X155819423Y-80929805D01*
X155819424Y-80929802D01*
X155824636Y-80925647D01*
X155825654Y-80925231D01*
X155828146Y-80922849D01*
X155839298Y-80913955D01*
X155853294Y-80893463D01*
X155916977Y-80829781D01*
X155956105Y-80773901D01*
X155960196Y-80768676D01*
X155969528Y-80757996D01*
X155969531Y-80757990D01*
X155969709Y-80757787D01*
X155971954Y-80756356D01*
X155976873Y-80749586D01*
X155984621Y-80740717D01*
X155994165Y-80719544D01*
X156044488Y-80647677D01*
X156075324Y-80581548D01*
X156078270Y-80575991D01*
X156083608Y-80567057D01*
X156086634Y-80564257D01*
X156092270Y-80552556D01*
X156097005Y-80544630D01*
X156102296Y-80523706D01*
X156138440Y-80446196D01*
X156138440Y-80446194D01*
X156138442Y-80446191D01*
X156138442Y-80446190D01*
X156142272Y-80431892D01*
X156158583Y-80371021D01*
X156160406Y-80365337D01*
X156162697Y-80359233D01*
X156166010Y-80354827D01*
X156170628Y-80338097D01*
X156172953Y-80331902D01*
X156174384Y-80312051D01*
X156195976Y-80231469D01*
X156195977Y-80231465D01*
X156195978Y-80231463D01*
X156203198Y-80148930D01*
X156203951Y-80143317D01*
X156207444Y-80124072D01*
X156207444Y-80124067D01*
X156208311Y-80119291D01*
X156208314Y-80119269D01*
X156209694Y-80111660D01*
X156207998Y-80099304D01*
X156208112Y-80094216D01*
X156208326Y-80090314D01*
X156215353Y-80010000D01*
X156208326Y-79929690D01*
X156208112Y-79925780D01*
X156207999Y-79920697D01*
X156210353Y-79911969D01*
X156207746Y-79897600D01*
X156207741Y-79897568D01*
X156207444Y-79895932D01*
X156207444Y-79895928D01*
X156203951Y-79876682D01*
X156203198Y-79871069D01*
X156195978Y-79788537D01*
X156174383Y-79707944D01*
X156174742Y-79692863D01*
X156170629Y-79681905D01*
X156166892Y-79668363D01*
X156162686Y-79660736D01*
X156160410Y-79654671D01*
X156158572Y-79648938D01*
X156138442Y-79573811D01*
X156138439Y-79573802D01*
X156138438Y-79573800D01*
X156102296Y-79496294D01*
X156099838Y-79480109D01*
X156092267Y-79467437D01*
X156087728Y-79458013D01*
X156083606Y-79452938D01*
X156078279Y-79444022D01*
X156075309Y-79438419D01*
X156044488Y-79372324D01*
X156044487Y-79372322D01*
X155994166Y-79300456D01*
X155988534Y-79283757D01*
X155976872Y-79270409D01*
X155972927Y-79264979D01*
X155969715Y-79262217D01*
X155960193Y-79251318D01*
X155956100Y-79246093D01*
X155916977Y-79190219D01*
X155853295Y-79126537D01*
X155844268Y-79110005D01*
X155828145Y-79097148D01*
X155826158Y-79095248D01*
X155824641Y-79094354D01*
X155809944Y-79082634D01*
X155804754Y-79077996D01*
X155759782Y-79033023D01*
X155684029Y-78979981D01*
X155671536Y-78964352D01*
X155632297Y-78943237D01*
X155626110Y-78939424D01*
X155577682Y-78905515D01*
X155577680Y-78905514D01*
X155577679Y-78905513D01*
X155577677Y-78905512D01*
X155491599Y-78865373D01*
X155475732Y-78851402D01*
X155445007Y-78841418D01*
X155444998Y-78841416D01*
X155432844Y-78837465D01*
X155425801Y-78834690D01*
X155376195Y-78811559D01*
X155281952Y-78786307D01*
X155262955Y-78774728D01*
X155224197Y-78769477D01*
X155217891Y-78768622D01*
X155210165Y-78767070D01*
X155161467Y-78754023D01*
X155161465Y-78754022D01*
X155161463Y-78754022D01*
X155161461Y-78754021D01*
X155161457Y-78754021D01*
X155061623Y-78745287D01*
X155039904Y-78736791D01*
X154994190Y-78738844D01*
X154985998Y-78738670D01*
X154940004Y-78734647D01*
X154939998Y-78734647D01*
X154837463Y-78743617D01*
X154813582Y-78738817D01*
X154769180Y-78748950D01*
X154769179Y-78748951D01*
X154768786Y-78749040D01*
X154760391Y-78750359D01*
X154718540Y-78754021D01*
X154718534Y-78754022D01*
X154555172Y-78797796D01*
X154546744Y-78799719D01*
X154542408Y-78801127D01*
X154539315Y-78802043D01*
X154503806Y-78811558D01*
X154503803Y-78811559D01*
X154302323Y-78905512D01*
X154302319Y-78905514D01*
X154120217Y-79033023D01*
X153963023Y-79190217D01*
X153835514Y-79372319D01*
X153835512Y-79372323D01*
X153741561Y-79573800D01*
X153684022Y-79788535D01*
X153684021Y-79788542D01*
X153664647Y-80009997D01*
X153664647Y-80010002D01*
X153040353Y-80010002D01*
X153040353Y-80010000D01*
X153033326Y-79929690D01*
X153033112Y-79925780D01*
X153032999Y-79920697D01*
X153035353Y-79911969D01*
X153032746Y-79897600D01*
X153032741Y-79897568D01*
X153032444Y-79895932D01*
X153032444Y-79895928D01*
X153028951Y-79876682D01*
X153028198Y-79871069D01*
X153020978Y-79788537D01*
X152999383Y-79707944D01*
X152999742Y-79692863D01*
X152995629Y-79681905D01*
X152991892Y-79668363D01*
X152987686Y-79660736D01*
X152985410Y-79654671D01*
X152983572Y-79648938D01*
X152963442Y-79573811D01*
X152963439Y-79573802D01*
X152963438Y-79573800D01*
X152927296Y-79496294D01*
X152924838Y-79480109D01*
X152917267Y-79467437D01*
X152912728Y-79458013D01*
X152908606Y-79452938D01*
X152903279Y-79444022D01*
X152900309Y-79438419D01*
X152869488Y-79372324D01*
X152869487Y-79372322D01*
X152819166Y-79300456D01*
X152813534Y-79283757D01*
X152801872Y-79270409D01*
X152797927Y-79264979D01*
X152794715Y-79262217D01*
X152785193Y-79251318D01*
X152781100Y-79246093D01*
X152741977Y-79190219D01*
X152678295Y-79126537D01*
X152669268Y-79110005D01*
X152653145Y-79097148D01*
X152651158Y-79095248D01*
X152649641Y-79094354D01*
X152634944Y-79082634D01*
X152629754Y-79077996D01*
X152584782Y-79033023D01*
X152509029Y-78979981D01*
X152496536Y-78964352D01*
X152457297Y-78943237D01*
X152451110Y-78939424D01*
X152402682Y-78905515D01*
X152402680Y-78905514D01*
X152402679Y-78905513D01*
X152402677Y-78905512D01*
X152316599Y-78865373D01*
X152300732Y-78851402D01*
X152270007Y-78841418D01*
X152269998Y-78841416D01*
X152257844Y-78837465D01*
X152250801Y-78834690D01*
X152201195Y-78811559D01*
X152106952Y-78786307D01*
X152087955Y-78774728D01*
X152049197Y-78769477D01*
X152042891Y-78768622D01*
X152035165Y-78767070D01*
X151986467Y-78754023D01*
X151986465Y-78754022D01*
X151986463Y-78754022D01*
X151986461Y-78754021D01*
X151986457Y-78754021D01*
X151886623Y-78745287D01*
X151864904Y-78736791D01*
X151819190Y-78738844D01*
X151810998Y-78738670D01*
X151765004Y-78734647D01*
X151764998Y-78734647D01*
X151662463Y-78743617D01*
X151638582Y-78738817D01*
X151594180Y-78748950D01*
X151594179Y-78748951D01*
X151593786Y-78749040D01*
X151585391Y-78750359D01*
X151543540Y-78754021D01*
X151543534Y-78754022D01*
X151380172Y-78797796D01*
X151371744Y-78799719D01*
X151367408Y-78801127D01*
X151364315Y-78802043D01*
X151328806Y-78811558D01*
X151328803Y-78811559D01*
X151127323Y-78905512D01*
X151127319Y-78905514D01*
X150945217Y-79033023D01*
X150788023Y-79190217D01*
X150660514Y-79372319D01*
X150660512Y-79372323D01*
X150566561Y-79573800D01*
X150509022Y-79788535D01*
X150509021Y-79788542D01*
X150489647Y-80009997D01*
X150489647Y-80010002D01*
X149865353Y-80010002D01*
X149865353Y-80010000D01*
X149858326Y-79929690D01*
X149858112Y-79925780D01*
X149857999Y-79920697D01*
X149860353Y-79911969D01*
X149857746Y-79897600D01*
X149857741Y-79897568D01*
X149857444Y-79895932D01*
X149857444Y-79895928D01*
X149853951Y-79876682D01*
X149853198Y-79871069D01*
X149845978Y-79788537D01*
X149824383Y-79707944D01*
X149824742Y-79692863D01*
X149820629Y-79681905D01*
X149816892Y-79668363D01*
X149812686Y-79660736D01*
X149810410Y-79654671D01*
X149808572Y-79648938D01*
X149788442Y-79573811D01*
X149788439Y-79573802D01*
X149788438Y-79573800D01*
X149752296Y-79496294D01*
X149749838Y-79480109D01*
X149742267Y-79467437D01*
X149737728Y-79458013D01*
X149733606Y-79452938D01*
X149728279Y-79444022D01*
X149725309Y-79438419D01*
X149694488Y-79372324D01*
X149694487Y-79372322D01*
X149644166Y-79300456D01*
X149638534Y-79283757D01*
X149626872Y-79270409D01*
X149622927Y-79264979D01*
X149619715Y-79262217D01*
X149610193Y-79251318D01*
X149606100Y-79246093D01*
X149566977Y-79190219D01*
X149503295Y-79126537D01*
X149494268Y-79110005D01*
X149478145Y-79097148D01*
X149476158Y-79095248D01*
X149474641Y-79094354D01*
X149459944Y-79082634D01*
X149454754Y-79077996D01*
X149409782Y-79033023D01*
X149334029Y-78979981D01*
X149321536Y-78964352D01*
X149282297Y-78943237D01*
X149276110Y-78939424D01*
X149227682Y-78905515D01*
X149227680Y-78905514D01*
X149227679Y-78905513D01*
X149227677Y-78905512D01*
X149141599Y-78865373D01*
X149125732Y-78851402D01*
X149095007Y-78841418D01*
X149094998Y-78841416D01*
X149082844Y-78837465D01*
X149075801Y-78834690D01*
X149026195Y-78811559D01*
X148931952Y-78786307D01*
X148912955Y-78774728D01*
X148874197Y-78769477D01*
X148867891Y-78768622D01*
X148860165Y-78767070D01*
X148811467Y-78754023D01*
X148811465Y-78754022D01*
X148811463Y-78754022D01*
X148811461Y-78754021D01*
X148811457Y-78754021D01*
X148711623Y-78745287D01*
X148689904Y-78736791D01*
X148644190Y-78738844D01*
X148635998Y-78738670D01*
X148590004Y-78734647D01*
X148589998Y-78734647D01*
X148487463Y-78743617D01*
X148463582Y-78738817D01*
X148419180Y-78748950D01*
X148419179Y-78748951D01*
X148418786Y-78749040D01*
X148410391Y-78750359D01*
X148368540Y-78754021D01*
X148368534Y-78754022D01*
X148205172Y-78797796D01*
X148196744Y-78799719D01*
X148192408Y-78801127D01*
X148189315Y-78802043D01*
X148153806Y-78811558D01*
X148153803Y-78811559D01*
X147952323Y-78905512D01*
X147952319Y-78905514D01*
X147770217Y-79033023D01*
X147613023Y-79190217D01*
X147485514Y-79372319D01*
X147485512Y-79372323D01*
X147391561Y-79573800D01*
X147334022Y-79788535D01*
X147334021Y-79788542D01*
X147314647Y-80009997D01*
X147314647Y-80010002D01*
X124460000Y-80010002D01*
X124460000Y-76835002D01*
X147314647Y-76835002D01*
X147334021Y-77056457D01*
X147334022Y-77056465D01*
X147391558Y-77271191D01*
X147391559Y-77271193D01*
X147391560Y-77271196D01*
X147427701Y-77348700D01*
X147485511Y-77472676D01*
X147485513Y-77472679D01*
X147613023Y-77654781D01*
X147770219Y-77811977D01*
X147952323Y-77939488D01*
X148153804Y-78033440D01*
X148153811Y-78033442D01*
X148153814Y-78033443D01*
X148189313Y-78042955D01*
X148192422Y-78043875D01*
X148196745Y-78045279D01*
X148196755Y-78045283D01*
X148205158Y-78047200D01*
X148368537Y-78090978D01*
X148410378Y-78094638D01*
X148418778Y-78095957D01*
X148419179Y-78096049D01*
X148421917Y-78096674D01*
X148421939Y-78096678D01*
X148455563Y-78104351D01*
X148487475Y-78101383D01*
X148590000Y-78110353D01*
X148636024Y-78106326D01*
X148644186Y-78106154D01*
X148647093Y-78106285D01*
X148647098Y-78106284D01*
X148648448Y-78106345D01*
X148648461Y-78106345D01*
X148682036Y-78107853D01*
X148711627Y-78099712D01*
X148811463Y-78090978D01*
X148860183Y-78077923D01*
X148867886Y-78076377D01*
X148873173Y-78075661D01*
X148873175Y-78075660D01*
X148875724Y-78075315D01*
X148875742Y-78075312D01*
X148905510Y-78071279D01*
X148931954Y-78058692D01*
X149008600Y-78038154D01*
X149026186Y-78033443D01*
X149026188Y-78033442D01*
X149026196Y-78033440D01*
X149075821Y-78010299D01*
X149082841Y-78007534D01*
X149090150Y-78005160D01*
X149090156Y-78005156D01*
X149095442Y-78003439D01*
X149095454Y-78003435D01*
X149118940Y-77995803D01*
X149141599Y-77979626D01*
X149227677Y-77939488D01*
X149276124Y-77905564D01*
X149282284Y-77901768D01*
X149291053Y-77897050D01*
X149291056Y-77897047D01*
X149315587Y-77883847D01*
X149334028Y-77865019D01*
X149409781Y-77811977D01*
X149454779Y-77766978D01*
X149459935Y-77762370D01*
X149469423Y-77754805D01*
X149469424Y-77754802D01*
X149474636Y-77750647D01*
X149475654Y-77750231D01*
X149478146Y-77747849D01*
X149489298Y-77738955D01*
X149503294Y-77718463D01*
X149566977Y-77654781D01*
X149606105Y-77598901D01*
X149610196Y-77593676D01*
X149619528Y-77582996D01*
X149619531Y-77582990D01*
X149619709Y-77582787D01*
X149621954Y-77581356D01*
X149626873Y-77574586D01*
X149634621Y-77565717D01*
X149644165Y-77544544D01*
X149694488Y-77472677D01*
X149725324Y-77406548D01*
X149728270Y-77400991D01*
X149733608Y-77392057D01*
X149736634Y-77389257D01*
X149742270Y-77377556D01*
X149747005Y-77369630D01*
X149752296Y-77348706D01*
X149788440Y-77271196D01*
X149788440Y-77271194D01*
X149788442Y-77271191D01*
X149788442Y-77271190D01*
X149792272Y-77256892D01*
X149808583Y-77196021D01*
X149810406Y-77190337D01*
X149812697Y-77184233D01*
X149816010Y-77179827D01*
X149820628Y-77163097D01*
X149822953Y-77156902D01*
X149824384Y-77137051D01*
X149845976Y-77056469D01*
X149845977Y-77056465D01*
X149845978Y-77056463D01*
X149853198Y-76973930D01*
X149853951Y-76968317D01*
X149857444Y-76949072D01*
X149857444Y-76949067D01*
X149858311Y-76944291D01*
X149858314Y-76944269D01*
X149859694Y-76936660D01*
X149857998Y-76924304D01*
X149858112Y-76919216D01*
X149858326Y-76915314D01*
X149865353Y-76835002D01*
X150489647Y-76835002D01*
X150509021Y-77056457D01*
X150509022Y-77056465D01*
X150566558Y-77271191D01*
X150566559Y-77271193D01*
X150566560Y-77271196D01*
X150602701Y-77348700D01*
X150660511Y-77472676D01*
X150660513Y-77472679D01*
X150788023Y-77654781D01*
X150945219Y-77811977D01*
X151127323Y-77939488D01*
X151328804Y-78033440D01*
X151328811Y-78033442D01*
X151328814Y-78033443D01*
X151364313Y-78042955D01*
X151367422Y-78043875D01*
X151371745Y-78045279D01*
X151371755Y-78045283D01*
X151380158Y-78047200D01*
X151543537Y-78090978D01*
X151585378Y-78094638D01*
X151593778Y-78095957D01*
X151594179Y-78096049D01*
X151596917Y-78096674D01*
X151596939Y-78096678D01*
X151630563Y-78104351D01*
X151662475Y-78101383D01*
X151765000Y-78110353D01*
X151811024Y-78106326D01*
X151819186Y-78106154D01*
X151822093Y-78106285D01*
X151822098Y-78106284D01*
X151823448Y-78106345D01*
X151823461Y-78106345D01*
X151857036Y-78107853D01*
X151886627Y-78099712D01*
X151986463Y-78090978D01*
X152035183Y-78077923D01*
X152042886Y-78076377D01*
X152048173Y-78075661D01*
X152048175Y-78075660D01*
X152050724Y-78075315D01*
X152050742Y-78075312D01*
X152080510Y-78071279D01*
X152106954Y-78058692D01*
X152183600Y-78038154D01*
X152201186Y-78033443D01*
X152201188Y-78033442D01*
X152201196Y-78033440D01*
X152250821Y-78010299D01*
X152257841Y-78007534D01*
X152265150Y-78005160D01*
X152265156Y-78005156D01*
X152270442Y-78003439D01*
X152270454Y-78003435D01*
X152293940Y-77995803D01*
X152316599Y-77979626D01*
X152402677Y-77939488D01*
X152451124Y-77905564D01*
X152457284Y-77901768D01*
X152466053Y-77897050D01*
X152466056Y-77897047D01*
X152490587Y-77883847D01*
X152509028Y-77865019D01*
X152584781Y-77811977D01*
X152629779Y-77766978D01*
X152634935Y-77762370D01*
X152644423Y-77754805D01*
X152644424Y-77754802D01*
X152649636Y-77750647D01*
X152650654Y-77750231D01*
X152653146Y-77747849D01*
X152664298Y-77738955D01*
X152678294Y-77718463D01*
X152741977Y-77654781D01*
X152781105Y-77598901D01*
X152785196Y-77593676D01*
X152794528Y-77582996D01*
X152794531Y-77582990D01*
X152794709Y-77582787D01*
X152796954Y-77581356D01*
X152801873Y-77574586D01*
X152809621Y-77565717D01*
X152819165Y-77544544D01*
X152869488Y-77472677D01*
X152900324Y-77406548D01*
X152903270Y-77400991D01*
X152908608Y-77392057D01*
X152911634Y-77389257D01*
X152917270Y-77377556D01*
X152922005Y-77369630D01*
X152927296Y-77348706D01*
X152963440Y-77271196D01*
X152963440Y-77271194D01*
X152963442Y-77271191D01*
X152963442Y-77271190D01*
X152967272Y-77256892D01*
X152983583Y-77196021D01*
X152985406Y-77190337D01*
X152987697Y-77184233D01*
X152991010Y-77179827D01*
X152995628Y-77163097D01*
X152997953Y-77156902D01*
X152999384Y-77137051D01*
X153020976Y-77056469D01*
X153020977Y-77056465D01*
X153020978Y-77056463D01*
X153028198Y-76973930D01*
X153028951Y-76968317D01*
X153032444Y-76949072D01*
X153032444Y-76949067D01*
X153033311Y-76944291D01*
X153033314Y-76944269D01*
X153034694Y-76936660D01*
X153032998Y-76924304D01*
X153033112Y-76919216D01*
X153033326Y-76915314D01*
X153040353Y-76835002D01*
X153664647Y-76835002D01*
X153684021Y-77056457D01*
X153684022Y-77056465D01*
X153741558Y-77271191D01*
X153741559Y-77271193D01*
X153741560Y-77271196D01*
X153777701Y-77348700D01*
X153835511Y-77472676D01*
X153835513Y-77472679D01*
X153963023Y-77654781D01*
X154120219Y-77811977D01*
X154302323Y-77939488D01*
X154503804Y-78033440D01*
X154503811Y-78033442D01*
X154503814Y-78033443D01*
X154539313Y-78042955D01*
X154542422Y-78043875D01*
X154546745Y-78045279D01*
X154546755Y-78045283D01*
X154555158Y-78047200D01*
X154718537Y-78090978D01*
X154760378Y-78094638D01*
X154768778Y-78095957D01*
X154769179Y-78096049D01*
X154771917Y-78096674D01*
X154771939Y-78096678D01*
X154805563Y-78104351D01*
X154837475Y-78101383D01*
X154940000Y-78110353D01*
X154986024Y-78106326D01*
X154994186Y-78106154D01*
X154997093Y-78106285D01*
X154997098Y-78106284D01*
X154998448Y-78106345D01*
X154998461Y-78106345D01*
X155032036Y-78107853D01*
X155061627Y-78099712D01*
X155161463Y-78090978D01*
X155210183Y-78077923D01*
X155217886Y-78076377D01*
X155223173Y-78075661D01*
X155223175Y-78075660D01*
X155225724Y-78075315D01*
X155225742Y-78075312D01*
X155255510Y-78071279D01*
X155281954Y-78058692D01*
X155358600Y-78038154D01*
X155376186Y-78033443D01*
X155376188Y-78033442D01*
X155376196Y-78033440D01*
X155425821Y-78010299D01*
X155432841Y-78007534D01*
X155440150Y-78005160D01*
X155440156Y-78005156D01*
X155445442Y-78003439D01*
X155445454Y-78003435D01*
X155468940Y-77995803D01*
X155491599Y-77979626D01*
X155577677Y-77939488D01*
X155626124Y-77905564D01*
X155632284Y-77901768D01*
X155641053Y-77897050D01*
X155641056Y-77897047D01*
X155665587Y-77883847D01*
X155684028Y-77865019D01*
X155759781Y-77811977D01*
X155804779Y-77766978D01*
X155809935Y-77762370D01*
X155819423Y-77754805D01*
X155819424Y-77754802D01*
X155824636Y-77750647D01*
X155825654Y-77750231D01*
X155828146Y-77747849D01*
X155839298Y-77738955D01*
X155853294Y-77718463D01*
X155916977Y-77654781D01*
X155956105Y-77598901D01*
X155960196Y-77593676D01*
X155969528Y-77582996D01*
X155969531Y-77582990D01*
X155969709Y-77582787D01*
X155971954Y-77581356D01*
X155976873Y-77574586D01*
X155984621Y-77565717D01*
X155994165Y-77544544D01*
X156044488Y-77472677D01*
X156075324Y-77406548D01*
X156078270Y-77400991D01*
X156083608Y-77392057D01*
X156086634Y-77389257D01*
X156092270Y-77377556D01*
X156097005Y-77369630D01*
X156102296Y-77348706D01*
X156138440Y-77271196D01*
X156138440Y-77271194D01*
X156138442Y-77271191D01*
X156138442Y-77271190D01*
X156142272Y-77256892D01*
X156158583Y-77196021D01*
X156160406Y-77190337D01*
X156162697Y-77184233D01*
X156166010Y-77179827D01*
X156170628Y-77163097D01*
X156172953Y-77156902D01*
X156174384Y-77137051D01*
X156195976Y-77056469D01*
X156195977Y-77056465D01*
X156195978Y-77056463D01*
X156203198Y-76973930D01*
X156203951Y-76968317D01*
X156207444Y-76949072D01*
X156207444Y-76949067D01*
X156208311Y-76944291D01*
X156208314Y-76944269D01*
X156209694Y-76936660D01*
X156207998Y-76924304D01*
X156208112Y-76919216D01*
X156208326Y-76915314D01*
X156215353Y-76835000D01*
X156208326Y-76754690D01*
X156208112Y-76750780D01*
X156207999Y-76745697D01*
X156210353Y-76736969D01*
X156207746Y-76722600D01*
X156207741Y-76722568D01*
X156207444Y-76720932D01*
X156207444Y-76720928D01*
X156203951Y-76701682D01*
X156203198Y-76696069D01*
X156195978Y-76613537D01*
X156174383Y-76532944D01*
X156174742Y-76517863D01*
X156170629Y-76506905D01*
X156166892Y-76493363D01*
X156162686Y-76485736D01*
X156160410Y-76479671D01*
X156158572Y-76473938D01*
X156138442Y-76398811D01*
X156138439Y-76398802D01*
X156138438Y-76398800D01*
X156102296Y-76321294D01*
X156099838Y-76305109D01*
X156092267Y-76292437D01*
X156087728Y-76283013D01*
X156083606Y-76277938D01*
X156078279Y-76269022D01*
X156075309Y-76263419D01*
X156044488Y-76197324D01*
X156044487Y-76197322D01*
X155994166Y-76125456D01*
X155988534Y-76108757D01*
X155976872Y-76095409D01*
X155972927Y-76089979D01*
X155969715Y-76087217D01*
X155960193Y-76076318D01*
X155956100Y-76071093D01*
X155916977Y-76015219D01*
X155853295Y-75951537D01*
X155844268Y-75935005D01*
X155828145Y-75922148D01*
X155826158Y-75920248D01*
X155824641Y-75919354D01*
X155809944Y-75907634D01*
X155804754Y-75902996D01*
X155759782Y-75858023D01*
X155684029Y-75804981D01*
X155671536Y-75789352D01*
X155632297Y-75768237D01*
X155626110Y-75764424D01*
X155577682Y-75730515D01*
X155577680Y-75730514D01*
X155577679Y-75730513D01*
X155577677Y-75730512D01*
X155491599Y-75690373D01*
X155475732Y-75676402D01*
X155445007Y-75666418D01*
X155444998Y-75666416D01*
X155432844Y-75662465D01*
X155425801Y-75659690D01*
X155376195Y-75636559D01*
X155281952Y-75611307D01*
X155262955Y-75599728D01*
X155224197Y-75594477D01*
X155217891Y-75593622D01*
X155210165Y-75592070D01*
X155161467Y-75579023D01*
X155161465Y-75579022D01*
X155161463Y-75579022D01*
X155161461Y-75579021D01*
X155161457Y-75579021D01*
X155061623Y-75570287D01*
X155039904Y-75561791D01*
X154994190Y-75563844D01*
X154985998Y-75563670D01*
X154940004Y-75559647D01*
X154939998Y-75559647D01*
X154837463Y-75568617D01*
X154813582Y-75563817D01*
X154769180Y-75573950D01*
X154769179Y-75573951D01*
X154768786Y-75574040D01*
X154760391Y-75575359D01*
X154718540Y-75579021D01*
X154718534Y-75579022D01*
X154555172Y-75622796D01*
X154546744Y-75624719D01*
X154542408Y-75626127D01*
X154539315Y-75627043D01*
X154503806Y-75636558D01*
X154503803Y-75636559D01*
X154302323Y-75730512D01*
X154302319Y-75730514D01*
X154120217Y-75858023D01*
X153963023Y-76015217D01*
X153835514Y-76197319D01*
X153835512Y-76197323D01*
X153741561Y-76398800D01*
X153684022Y-76613535D01*
X153684021Y-76613542D01*
X153664647Y-76834997D01*
X153664647Y-76835002D01*
X153040353Y-76835002D01*
X153040353Y-76835000D01*
X153033326Y-76754690D01*
X153033112Y-76750780D01*
X153032999Y-76745697D01*
X153035353Y-76736969D01*
X153032746Y-76722600D01*
X153032741Y-76722568D01*
X153032444Y-76720932D01*
X153032444Y-76720928D01*
X153028951Y-76701682D01*
X153028198Y-76696069D01*
X153020978Y-76613537D01*
X152999383Y-76532944D01*
X152999742Y-76517863D01*
X152995629Y-76506905D01*
X152991892Y-76493363D01*
X152987686Y-76485736D01*
X152985410Y-76479671D01*
X152983572Y-76473938D01*
X152963442Y-76398811D01*
X152963439Y-76398802D01*
X152963438Y-76398800D01*
X152927296Y-76321294D01*
X152924838Y-76305109D01*
X152917267Y-76292437D01*
X152912728Y-76283013D01*
X152908606Y-76277938D01*
X152903279Y-76269022D01*
X152900309Y-76263419D01*
X152869488Y-76197324D01*
X152869487Y-76197322D01*
X152819166Y-76125456D01*
X152813534Y-76108757D01*
X152801872Y-76095409D01*
X152797927Y-76089979D01*
X152794715Y-76087217D01*
X152785193Y-76076318D01*
X152781100Y-76071093D01*
X152741977Y-76015219D01*
X152678295Y-75951537D01*
X152669268Y-75935005D01*
X152653145Y-75922148D01*
X152651158Y-75920248D01*
X152649641Y-75919354D01*
X152634944Y-75907634D01*
X152629754Y-75902996D01*
X152584782Y-75858023D01*
X152509029Y-75804981D01*
X152496536Y-75789352D01*
X152457297Y-75768237D01*
X152451110Y-75764424D01*
X152402682Y-75730515D01*
X152402680Y-75730514D01*
X152402679Y-75730513D01*
X152402677Y-75730512D01*
X152316599Y-75690373D01*
X152300732Y-75676402D01*
X152270007Y-75666418D01*
X152269998Y-75666416D01*
X152257844Y-75662465D01*
X152250801Y-75659690D01*
X152201195Y-75636559D01*
X152106952Y-75611307D01*
X152087955Y-75599728D01*
X152049197Y-75594477D01*
X152042891Y-75593622D01*
X152035165Y-75592070D01*
X151986467Y-75579023D01*
X151986465Y-75579022D01*
X151986463Y-75579022D01*
X151986461Y-75579021D01*
X151986457Y-75579021D01*
X151886623Y-75570287D01*
X151864904Y-75561791D01*
X151819190Y-75563844D01*
X151810998Y-75563670D01*
X151765004Y-75559647D01*
X151764998Y-75559647D01*
X151662463Y-75568617D01*
X151638582Y-75563817D01*
X151594180Y-75573950D01*
X151594179Y-75573951D01*
X151593786Y-75574040D01*
X151585391Y-75575359D01*
X151543540Y-75579021D01*
X151543534Y-75579022D01*
X151380172Y-75622796D01*
X151371744Y-75624719D01*
X151367408Y-75626127D01*
X151364315Y-75627043D01*
X151328806Y-75636558D01*
X151328803Y-75636559D01*
X151127323Y-75730512D01*
X151127319Y-75730514D01*
X150945217Y-75858023D01*
X150788023Y-76015217D01*
X150660514Y-76197319D01*
X150660512Y-76197323D01*
X150566561Y-76398800D01*
X150509022Y-76613535D01*
X150509021Y-76613542D01*
X150489647Y-76834997D01*
X150489647Y-76835002D01*
X149865353Y-76835002D01*
X149865353Y-76835000D01*
X149858326Y-76754690D01*
X149858112Y-76750780D01*
X149857999Y-76745697D01*
X149860353Y-76736969D01*
X149857746Y-76722600D01*
X149857741Y-76722568D01*
X149857444Y-76720932D01*
X149857444Y-76720928D01*
X149853951Y-76701682D01*
X149853198Y-76696069D01*
X149845978Y-76613537D01*
X149824383Y-76532944D01*
X149824742Y-76517863D01*
X149820629Y-76506905D01*
X149816892Y-76493363D01*
X149812686Y-76485736D01*
X149810410Y-76479671D01*
X149808572Y-76473938D01*
X149788442Y-76398811D01*
X149788439Y-76398802D01*
X149788438Y-76398800D01*
X149752296Y-76321294D01*
X149749838Y-76305109D01*
X149742267Y-76292437D01*
X149737728Y-76283013D01*
X149733606Y-76277938D01*
X149728279Y-76269022D01*
X149725309Y-76263419D01*
X149694488Y-76197324D01*
X149694487Y-76197322D01*
X149644166Y-76125456D01*
X149638534Y-76108757D01*
X149626872Y-76095409D01*
X149622927Y-76089979D01*
X149619715Y-76087217D01*
X149610193Y-76076318D01*
X149606100Y-76071093D01*
X149566977Y-76015219D01*
X149503295Y-75951537D01*
X149494268Y-75935005D01*
X149478145Y-75922148D01*
X149476158Y-75920248D01*
X149474641Y-75919354D01*
X149459944Y-75907634D01*
X149454754Y-75902996D01*
X149409782Y-75858023D01*
X149334029Y-75804981D01*
X149321536Y-75789352D01*
X149282297Y-75768237D01*
X149276110Y-75764424D01*
X149227682Y-75730515D01*
X149227680Y-75730514D01*
X149227679Y-75730513D01*
X149227677Y-75730512D01*
X149141599Y-75690373D01*
X149125732Y-75676402D01*
X149095007Y-75666418D01*
X149094998Y-75666416D01*
X149082844Y-75662465D01*
X149075801Y-75659690D01*
X149026195Y-75636559D01*
X148931952Y-75611307D01*
X148912955Y-75599728D01*
X148874197Y-75594477D01*
X148867891Y-75593622D01*
X148860165Y-75592070D01*
X148811467Y-75579023D01*
X148811465Y-75579022D01*
X148811463Y-75579022D01*
X148811461Y-75579021D01*
X148811457Y-75579021D01*
X148711623Y-75570287D01*
X148689904Y-75561791D01*
X148644190Y-75563844D01*
X148635998Y-75563670D01*
X148590004Y-75559647D01*
X148589998Y-75559647D01*
X148487463Y-75568617D01*
X148463582Y-75563817D01*
X148419180Y-75573950D01*
X148419179Y-75573951D01*
X148418786Y-75574040D01*
X148410391Y-75575359D01*
X148368540Y-75579021D01*
X148368534Y-75579022D01*
X148205172Y-75622796D01*
X148196744Y-75624719D01*
X148192408Y-75626127D01*
X148189315Y-75627043D01*
X148153806Y-75636558D01*
X148153803Y-75636559D01*
X147952323Y-75730512D01*
X147952319Y-75730514D01*
X147770217Y-75858023D01*
X147613023Y-76015217D01*
X147485514Y-76197319D01*
X147485512Y-76197323D01*
X147391561Y-76398800D01*
X147334022Y-76613535D01*
X147334021Y-76613542D01*
X147314647Y-76834997D01*
X147314647Y-76835002D01*
X124460000Y-76835002D01*
X124460000Y-56515000D01*
X124460000Y-56176778D01*
X124460000Y-55651776D01*
X124461802Y-55630719D01*
X124502893Y-55392396D01*
X124503606Y-55388885D01*
X124558793Y-55152202D01*
X124570058Y-55103885D01*
X124630570Y-54855576D01*
X124631471Y-54852282D01*
X124715773Y-54574376D01*
X124793835Y-54328423D01*
X124794853Y-54325484D01*
X124896708Y-54054862D01*
X124991884Y-53813514D01*
X124993086Y-53810678D01*
X125112036Y-53548149D01*
X125223904Y-53312925D01*
X125225190Y-53310377D01*
X125360786Y-53056694D01*
X125489466Y-52827838D01*
X125641877Y-52582740D01*
X125732654Y-52444340D01*
X125785879Y-52399081D01*
X125855127Y-52389782D01*
X125918409Y-52419397D01*
X125955635Y-52478524D01*
X125954985Y-52548391D01*
X125952102Y-52556788D01*
X125894096Y-52707897D01*
X125793721Y-53082503D01*
X125793720Y-53082510D01*
X125733053Y-53465546D01*
X125712756Y-53852833D01*
X125712756Y-53852834D01*
X125733053Y-54240121D01*
X125793720Y-54623157D01*
X125793721Y-54623164D01*
X125894096Y-54997770D01*
X126033078Y-55359828D01*
X126209144Y-55705377D01*
X126420365Y-56030627D01*
X126628929Y-56288184D01*
X126628930Y-56288184D01*
X128120100Y-54797013D01*
X128282964Y-54987704D01*
X128473653Y-55150567D01*
X126982482Y-56641737D01*
X126982483Y-56641738D01*
X127240040Y-56850302D01*
X127565290Y-57061523D01*
X127910839Y-57237589D01*
X128272897Y-57376571D01*
X128647503Y-57476946D01*
X128647510Y-57476947D01*
X129030546Y-57537614D01*
X129417833Y-57557912D01*
X129417835Y-57557912D01*
X129805121Y-57537614D01*
X130188157Y-57476947D01*
X130188164Y-57476946D01*
X130562770Y-57376571D01*
X130924828Y-57237589D01*
X131270377Y-57061523D01*
X131595617Y-56850310D01*
X131595619Y-56850309D01*
X131853183Y-56641736D01*
X130362014Y-55150567D01*
X130552704Y-54987704D01*
X130715567Y-54797014D01*
X132206736Y-56288183D01*
X132415309Y-56030619D01*
X132415310Y-56030617D01*
X132626523Y-55705377D01*
X132802589Y-55359828D01*
X132941571Y-54997770D01*
X133041946Y-54623164D01*
X133041947Y-54623157D01*
X133102614Y-54240121D01*
X133122912Y-53852834D01*
X133122912Y-53852833D01*
X133102614Y-53465546D01*
X133041947Y-53082510D01*
X133041946Y-53082503D01*
X132941571Y-52707897D01*
X132802589Y-52345839D01*
X132626523Y-52000290D01*
X132415302Y-51675040D01*
X132206738Y-51417483D01*
X132206737Y-51417482D01*
X130715566Y-52908652D01*
X130552704Y-52717964D01*
X130362013Y-52555100D01*
X131853184Y-51063930D01*
X131853184Y-51063929D01*
X131595627Y-50855365D01*
X131270377Y-50644144D01*
X130924828Y-50468078D01*
X130562770Y-50329096D01*
X130188164Y-50228721D01*
X130188157Y-50228720D01*
X129805121Y-50168053D01*
X129417835Y-50147756D01*
X129417833Y-50147756D01*
X129030546Y-50168053D01*
X128647510Y-50228720D01*
X128647503Y-50228721D01*
X128272897Y-50329096D01*
X128121788Y-50387102D01*
X128052147Y-50392750D01*
X127990507Y-50359850D01*
X127956440Y-50298848D01*
X127960761Y-50229112D01*
X128002098Y-50172783D01*
X128009315Y-50167670D01*
X128147709Y-50076896D01*
X128392824Y-49924474D01*
X128621667Y-49795801D01*
X128875377Y-49660190D01*
X128877925Y-49658904D01*
X129113109Y-49547054D01*
X129375692Y-49428079D01*
X129378514Y-49426885D01*
X129378885Y-49426738D01*
X129619862Y-49331708D01*
X129890484Y-49229853D01*
X129893423Y-49228835D01*
X130139376Y-49150773D01*
X130417290Y-49066468D01*
X130420576Y-49065570D01*
X130668889Y-49005058D01*
X130953886Y-48938605D01*
X130957395Y-48937893D01*
X131195720Y-48896802D01*
X131216782Y-48895000D01*
X172068864Y-48895000D01*
X172089918Y-48896801D01*
G37*
G04 #@! TD.AperFunction*
M02*
