G04 #@! TF.GenerationSoftware,KiCad,Pcbnew,7.0.5-unknown-202306101748~6fbdf8f0e2~ubuntu22.04.1*
G04 #@! TF.CreationDate,2024-07-28T12:56:51+01:00*
G04 #@! TF.ProjectId,pico_rx,7069636f-5f72-4782-9e6b-696361645f70,rev?*
G04 #@! TF.SameCoordinates,Original*
G04 #@! TF.FileFunction,Soldermask,Top*
G04 #@! TF.FilePolarity,Negative*
%FSLAX46Y46*%
G04 Gerber Fmt 4.6, Leading zero omitted, Abs format (unit mm)*
G04 Created by KiCad (PCBNEW 7.0.5-unknown-202306101748~6fbdf8f0e2~ubuntu22.04.1) date 2024-07-28 12:56:51*
%MOMM*%
%LPD*%
G01*
G04 APERTURE LIST*
G04 Aperture macros list*
%AMRoundRect*
0 Rectangle with rounded corners*
0 $1 Rounding radius*
0 $2 $3 $4 $5 $6 $7 $8 $9 X,Y pos of 4 corners*
0 Add a 4 corners polygon primitive as box body*
4,1,4,$2,$3,$4,$5,$6,$7,$8,$9,$2,$3,0*
0 Add four circle primitives for the rounded corners*
1,1,$1+$1,$2,$3*
1,1,$1+$1,$4,$5*
1,1,$1+$1,$6,$7*
1,1,$1+$1,$8,$9*
0 Add four rect primitives between the rounded corners*
20,1,$1+$1,$2,$3,$4,$5,0*
20,1,$1+$1,$4,$5,$6,$7,0*
20,1,$1+$1,$6,$7,$8,$9,0*
20,1,$1+$1,$8,$9,$2,$3,0*%
G04 Aperture macros list end*
%ADD10RoundRect,0.250000X-0.250000X-0.475000X0.250000X-0.475000X0.250000X0.475000X-0.250000X0.475000X0*%
%ADD11RoundRect,0.250000X0.262500X0.450000X-0.262500X0.450000X-0.262500X-0.450000X0.262500X-0.450000X0*%
%ADD12RoundRect,0.250000X0.475000X-0.250000X0.475000X0.250000X-0.475000X0.250000X-0.475000X-0.250000X0*%
%ADD13RoundRect,0.250000X0.350000X-0.275000X0.350000X0.275000X-0.350000X0.275000X-0.350000X-0.275000X0*%
%ADD14RoundRect,0.250000X-0.262500X-0.450000X0.262500X-0.450000X0.262500X0.450000X-0.262500X0.450000X0*%
%ADD15C,6.400000*%
%ADD16RoundRect,0.250000X-0.475000X0.250000X-0.475000X-0.250000X0.475000X-0.250000X0.475000X0.250000X0*%
%ADD17C,2.100000*%
%ADD18C,1.750000*%
%ADD19RoundRect,0.100000X-0.100000X0.625000X-0.100000X-0.625000X0.100000X-0.625000X0.100000X0.625000X0*%
%ADD20R,1.880000X1.680000*%
%ADD21RoundRect,0.250000X-0.450000X0.262500X-0.450000X-0.262500X0.450000X-0.262500X0.450000X0.262500X0*%
%ADD22O,1.800000X1.800000*%
%ADD23O,1.500000X1.500000*%
%ADD24O,1.700000X1.700000*%
%ADD25R,1.700000X3.500000*%
%ADD26R,1.700000X1.700000*%
%ADD27R,3.500000X1.700000*%
%ADD28RoundRect,0.250000X-0.350000X0.275000X-0.350000X-0.275000X0.350000X-0.275000X0.350000X0.275000X0*%
%ADD29RoundRect,0.250000X0.925000X-0.412500X0.925000X0.412500X-0.925000X0.412500X-0.925000X-0.412500X0*%
%ADD30RoundRect,0.250000X0.450000X-0.262500X0.450000X0.262500X-0.450000X0.262500X-0.450000X-0.262500X0*%
%ADD31RoundRect,0.250000X0.250000X0.475000X-0.250000X0.475000X-0.250000X-0.475000X0.250000X-0.475000X0*%
%ADD32R,2.000000X2.000000*%
%ADD33C,2.000000*%
%ADD34R,3.200000X2.000000*%
%ADD35RoundRect,0.150000X-0.725000X-0.150000X0.725000X-0.150000X0.725000X0.150000X-0.725000X0.150000X0*%
%ADD36RoundRect,0.150000X0.825000X0.150000X-0.825000X0.150000X-0.825000X-0.150000X0.825000X-0.150000X0*%
%ADD37RoundRect,0.218750X-0.218750X-0.381250X0.218750X-0.381250X0.218750X0.381250X-0.218750X0.381250X0*%
%ADD38R,1.270000X3.600000*%
%ADD39R,1.350000X4.200000*%
%ADD40O,3.500000X2.200000*%
%ADD41R,2.500000X1.500000*%
%ADD42O,2.500000X1.500000*%
G04 APERTURE END LIST*
D10*
X121026000Y-109220000D03*
X119126000Y-109220000D03*
D11*
X113307500Y-114300000D03*
X111482500Y-114300000D03*
D12*
X129600000Y-140550000D03*
X129600000Y-138650000D03*
X121920000Y-130490000D03*
X121920000Y-128590000D03*
D13*
X124460000Y-135770000D03*
X124460000Y-133470000D03*
D14*
X103227500Y-152400000D03*
X105052500Y-152400000D03*
D15*
X105410000Y-105410000D03*
D12*
X121920000Y-120330000D03*
X121920000Y-118430000D03*
D16*
X104140000Y-146050000D03*
X104140000Y-147950000D03*
D17*
X105992500Y-119095000D03*
X105992500Y-112085000D03*
D18*
X103502500Y-117845000D03*
X103502500Y-113345000D03*
D12*
X132080000Y-135570000D03*
X132080000Y-133670000D03*
D19*
X110995000Y-141775000D03*
X110345000Y-141775000D03*
X109695000Y-141775000D03*
X109045000Y-141775000D03*
X109045000Y-146075000D03*
X109695000Y-146075000D03*
X110345000Y-146075000D03*
X110995000Y-146075000D03*
D20*
X110020000Y-143925000D03*
D21*
X114300000Y-146125000D03*
X114300000Y-147950000D03*
D22*
X103635000Y-171635000D03*
D23*
X106665000Y-171335000D03*
X106665000Y-166485000D03*
D22*
X103635000Y-166185000D03*
D24*
X103505000Y-177800000D03*
D25*
X103505000Y-178700000D03*
D24*
X106045000Y-177800000D03*
D25*
X106045000Y-178700000D03*
D26*
X108585000Y-177800000D03*
D25*
X108585000Y-178700000D03*
D24*
X111125000Y-177800000D03*
D25*
X111125000Y-178700000D03*
D24*
X113665000Y-177800000D03*
D25*
X113665000Y-178700000D03*
D24*
X116205000Y-177800000D03*
D25*
X116205000Y-178700000D03*
D24*
X118745000Y-177800000D03*
D25*
X118745000Y-178700000D03*
D26*
X121285000Y-177800000D03*
D25*
X121285000Y-178700000D03*
D24*
X123825000Y-177800000D03*
D25*
X123825000Y-178700000D03*
D24*
X126365000Y-177800000D03*
D25*
X126365000Y-178700000D03*
D24*
X128905000Y-177800000D03*
D25*
X128905000Y-178700000D03*
D24*
X131445000Y-177800000D03*
D25*
X131445000Y-178700000D03*
D26*
X133985000Y-177800000D03*
D25*
X133985000Y-178700000D03*
D24*
X136525000Y-177800000D03*
D25*
X136525000Y-178700000D03*
D24*
X139065000Y-177800000D03*
D25*
X139065000Y-178700000D03*
D24*
X141605000Y-177800000D03*
D25*
X141605000Y-178700000D03*
D24*
X144145000Y-177800000D03*
D25*
X144145000Y-178700000D03*
D26*
X146685000Y-177800000D03*
D25*
X146685000Y-178700000D03*
D24*
X149225000Y-177800000D03*
D25*
X149225000Y-178700000D03*
D24*
X151765000Y-177800000D03*
D25*
X151765000Y-178700000D03*
D24*
X151765000Y-160020000D03*
D25*
X151765000Y-159120000D03*
D24*
X149225000Y-160020000D03*
D25*
X149225000Y-159120000D03*
D26*
X146685000Y-160020000D03*
D25*
X146685000Y-159120000D03*
D24*
X144145000Y-160020000D03*
D25*
X144145000Y-159120000D03*
D24*
X141605000Y-160020000D03*
D25*
X141605000Y-159120000D03*
D24*
X139065000Y-160020000D03*
D25*
X139065000Y-159120000D03*
D24*
X136525000Y-160020000D03*
D25*
X136525000Y-159120000D03*
D26*
X133985000Y-160020000D03*
D25*
X133985000Y-159120000D03*
D24*
X131445000Y-160020000D03*
D25*
X131445000Y-159120000D03*
D24*
X128905000Y-160020000D03*
D25*
X128905000Y-159120000D03*
D24*
X126365000Y-160020000D03*
D25*
X126365000Y-159120000D03*
D24*
X123825000Y-160020000D03*
D25*
X123825000Y-159120000D03*
D26*
X121285000Y-160020000D03*
D25*
X121285000Y-159120000D03*
D24*
X118745000Y-160020000D03*
D25*
X118745000Y-159120000D03*
D24*
X116205000Y-160020000D03*
D25*
X116205000Y-159120000D03*
D24*
X113665000Y-160020000D03*
D25*
X113665000Y-159120000D03*
D24*
X111125000Y-160020000D03*
D25*
X111125000Y-159120000D03*
D26*
X108585000Y-160020000D03*
D25*
X108585000Y-159120000D03*
D24*
X106045000Y-160020000D03*
D25*
X106045000Y-159120000D03*
D24*
X103505000Y-160020000D03*
D25*
X103505000Y-159120000D03*
D24*
X151535000Y-171450000D03*
D27*
X152435000Y-171450000D03*
D26*
X151535000Y-168910000D03*
D27*
X152435000Y-168910000D03*
D24*
X151535000Y-166370000D03*
D27*
X152435000Y-166370000D03*
D28*
X127065000Y-123310000D03*
X127065000Y-125610000D03*
D16*
X116840000Y-138430000D03*
X116840000Y-140330000D03*
D15*
X149860000Y-184785000D03*
D29*
X125095000Y-107582500D03*
X125095000Y-104507500D03*
D12*
X132080000Y-120330000D03*
X132080000Y-118430000D03*
D15*
X105410000Y-184785000D03*
D14*
X103227500Y-150140000D03*
X105052500Y-150140000D03*
D28*
X127065000Y-133470000D03*
X127065000Y-135770000D03*
D14*
X107037500Y-152400000D03*
X108862500Y-152400000D03*
D30*
X104140000Y-144102500D03*
X104140000Y-142277500D03*
D21*
X106680000Y-146082500D03*
X106680000Y-147907500D03*
D31*
X113345000Y-111760000D03*
X111445000Y-111760000D03*
D32*
X135128000Y-151725000D03*
D33*
X135128000Y-146725000D03*
X135128000Y-149225000D03*
D34*
X127628000Y-154825000D03*
X127628000Y-143625000D03*
D33*
X120628000Y-146725000D03*
X120628000Y-151725000D03*
D13*
X124460000Y-120530000D03*
X124460000Y-118230000D03*
D16*
X116840000Y-146050000D03*
X116840000Y-147950000D03*
D35*
X109825000Y-116695000D03*
X109825000Y-117965000D03*
X109825000Y-119235000D03*
X109825000Y-120505000D03*
X114975000Y-120505000D03*
X114975000Y-119235000D03*
X114975000Y-117965000D03*
X114975000Y-116695000D03*
D28*
X127100000Y-138550000D03*
X127100000Y-140850000D03*
D14*
X128627500Y-103505000D03*
X130452500Y-103505000D03*
D33*
X139065000Y-104830000D03*
X144065000Y-109830000D03*
X141065000Y-109830000D03*
X134065000Y-109830000D03*
X137065000Y-109830000D03*
D14*
X119102500Y-111760000D03*
X120927500Y-111760000D03*
D36*
X118045000Y-133985000D03*
X118045000Y-132715000D03*
X118045000Y-131445000D03*
X118045000Y-130175000D03*
X118045000Y-128905000D03*
X118045000Y-127635000D03*
X118045000Y-126365000D03*
X118045000Y-125095000D03*
X113095000Y-125095000D03*
X113095000Y-126365000D03*
X113095000Y-127635000D03*
X113095000Y-128905000D03*
X113095000Y-130175000D03*
X113095000Y-131445000D03*
X113095000Y-132715000D03*
X113095000Y-133985000D03*
D12*
X132200000Y-140550000D03*
X132200000Y-138650000D03*
X121920000Y-135570000D03*
X121920000Y-133670000D03*
D13*
X124500000Y-140850000D03*
X124500000Y-138550000D03*
D16*
X114300000Y-138425000D03*
X114300000Y-140325000D03*
D26*
X123825000Y-114935000D03*
D24*
X126365000Y-114935000D03*
X128905000Y-114935000D03*
X131445000Y-114935000D03*
D26*
X151765000Y-134620000D03*
D24*
X151765000Y-137160000D03*
D37*
X113445000Y-154940000D03*
X115570000Y-154940000D03*
D12*
X129540000Y-125410000D03*
X129540000Y-123510000D03*
D31*
X117155000Y-109220000D03*
X115255000Y-109220000D03*
D13*
X124460000Y-130690000D03*
X124460000Y-128390000D03*
D38*
X115824000Y-102616000D03*
D39*
X118649000Y-102816000D03*
X112999000Y-102816000D03*
D30*
X114300000Y-144097500D03*
X114300000Y-142272500D03*
D17*
X149277500Y-112045000D03*
X149277500Y-119055000D03*
D18*
X151767500Y-113295000D03*
X151767500Y-117795000D03*
D12*
X132080000Y-130490000D03*
X132080000Y-128590000D03*
D15*
X149860000Y-105410000D03*
D12*
X129540000Y-130490000D03*
X129540000Y-128590000D03*
X121900000Y-140550000D03*
X121900000Y-138650000D03*
D36*
X140950000Y-133985000D03*
X140950000Y-132715000D03*
X140950000Y-131445000D03*
X140950000Y-130175000D03*
X140950000Y-128905000D03*
X140950000Y-127635000D03*
X140950000Y-126365000D03*
X140950000Y-125095000D03*
X136000000Y-125095000D03*
X136000000Y-126365000D03*
X136000000Y-127635000D03*
X136000000Y-128905000D03*
X136000000Y-130175000D03*
X136000000Y-131445000D03*
X136000000Y-132715000D03*
X136000000Y-133985000D03*
D28*
X127000000Y-118230000D03*
X127000000Y-120530000D03*
X127065000Y-128390000D03*
X127065000Y-130690000D03*
D12*
X129540000Y-135570000D03*
X129540000Y-133670000D03*
D10*
X136210000Y-135890000D03*
X138110000Y-135890000D03*
D37*
X106887500Y-154940000D03*
X109012500Y-154940000D03*
D30*
X106680000Y-144097500D03*
X106680000Y-142272500D03*
D11*
X105052500Y-154940000D03*
X103227500Y-154940000D03*
D12*
X121920000Y-125410000D03*
X121920000Y-123510000D03*
D40*
X151765000Y-122805000D03*
X151765000Y-131005000D03*
D41*
X151765000Y-124905000D03*
D42*
X151765000Y-126905000D03*
X151765000Y-128905000D03*
D12*
X109474000Y-137275000D03*
X109474000Y-139175000D03*
D16*
X104140000Y-138430000D03*
X104140000Y-140330000D03*
D30*
X116840000Y-144102500D03*
X116840000Y-142277500D03*
D13*
X124460000Y-125610000D03*
X124460000Y-123310000D03*
D26*
X144780000Y-115565000D03*
D24*
X144780000Y-118105000D03*
D16*
X106680000Y-138425000D03*
X106680000Y-140325000D03*
D11*
X117117500Y-111760000D03*
X115292500Y-111760000D03*
D31*
X112202000Y-148971000D03*
X110302000Y-148971000D03*
D36*
X108585000Y-133985000D03*
X108585000Y-132715000D03*
X108585000Y-131445000D03*
X108585000Y-130175000D03*
X108585000Y-128905000D03*
X108585000Y-127635000D03*
X108585000Y-126365000D03*
X108585000Y-125095000D03*
X103635000Y-125095000D03*
X103635000Y-126365000D03*
X103635000Y-127635000D03*
X103635000Y-128905000D03*
X103635000Y-130175000D03*
X103635000Y-131445000D03*
X103635000Y-132715000D03*
X103635000Y-133985000D03*
D10*
X128590000Y-107315000D03*
X130490000Y-107315000D03*
X113980000Y-135800000D03*
X115880000Y-135800000D03*
X103825000Y-135890000D03*
X105725000Y-135890000D03*
D12*
X129540000Y-120330000D03*
X129540000Y-118430000D03*
X111790000Y-139200000D03*
X111790000Y-137300000D03*
X132080000Y-125410000D03*
X132080000Y-123510000D03*
D14*
X115292500Y-114300000D03*
X117117500Y-114300000D03*
D31*
X111440000Y-122555000D03*
X109540000Y-122555000D03*
D11*
X120927500Y-114300000D03*
X119102500Y-114300000D03*
M02*
