M48
; DRILL file {KiCad 7.0.5-unknown-202306101748~6fbdf8f0e2~ubuntu22.04.1} date Sun 28 Jul 2024 12:56:58 BST
; FORMAT={-:-/ absolute / metric / decimal}
; #@! TF.CreationDate,2024-07-28T12:56:58+01:00
; #@! TF.GenerationSoftware,Kicad,Pcbnew,7.0.5-unknown-202306101748~6fbdf8f0e2~ubuntu22.04.1
; #@! TF.FileFunction,Plated,1,2,PTH
FMAT,2
METRIC
; #@! TA.AperFunction,Plated,PTH,ViaDrill
T1C0.400
; #@! TA.AperFunction,Plated,PTH,ComponentDrill
T2C0.800
; #@! TA.AperFunction,Plated,PTH,ComponentDrill
T3C0.990
; #@! TA.AperFunction,Plated,PTH,ComponentDrill
T4C1.000
; #@! TA.AperFunction,Plated,PTH,ComponentDrill
T5C1.020
; #@! TA.AperFunction,Plated,PTH,ComponentDrill
T6C1.200
; #@! TA.AperFunction,Plated,PTH,ComponentDrill
T7C1.300
; #@! TA.AperFunction,Plated,PTH,ComponentDrill
T8C1.500
; #@! TA.AperFunction,Plated,PTH,ComponentDrill
T9C3.200
%
G90
G05
T1
X101.6Y-106.68
X101.6Y-109.22
X101.6Y-111.76
X102.67Y-145.08
X104.14Y-109.22
X104.14Y-119.38
X104.14Y-121.92
X104.14Y-162.56
X104.14Y-164.465
X105.66Y-132.73
X106.045Y-153.67
X106.426Y-125.222
X106.68Y-101.6
X106.68Y-109.22
X106.68Y-114.3
X106.68Y-116.84
X106.68Y-121.92
X106.68Y-175.26
X107.76Y-135.37
X109.18Y-140.274
X109.22Y-101.6
X109.22Y-104.14
X109.22Y-106.68
X109.22Y-109.22
X109.22Y-149.86
X109.22Y-162.56
X109.22Y-164.465
X109.22Y-167.64
X109.22Y-169.545
X109.22Y-175.26
X109.22Y-182.88
X109.22Y-187.96
X109.855Y-111.76
X109.855Y-114.3
X110.744Y-125.222
X111.29Y-150.58
X111.76Y-106.68
X111.76Y-109.22
X111.76Y-162.56
X111.76Y-164.465
X111.76Y-167.64
X111.76Y-169.545
X111.76Y-182.88
X111.76Y-185.42
X111.76Y-187.96
X112.294Y-144.289
X113.665Y-121.92
X113.7Y-150.0
X114.3Y-162.56
X114.3Y-164.465
X114.3Y-167.64
X114.3Y-169.545
X114.3Y-182.88
X114.3Y-185.42
X114.3Y-187.96
X114.71Y-107.07
X115.27Y-151.57
X115.57Y-139.319
X116.041Y-125.862
X116.84Y-116.84
X116.84Y-119.38
X116.84Y-162.56
X116.84Y-164.465
X116.84Y-167.64
X116.84Y-169.545
X116.84Y-182.88
X116.84Y-185.42
X116.84Y-187.96
X116.846Y-136.135
X116.88Y-107.04
X117.475Y-156.21
X119.38Y-116.84
X119.38Y-162.56
X119.38Y-164.465
X119.38Y-172.72
X119.38Y-182.88
X119.38Y-185.42
X119.38Y-187.96
X121.285Y-101.6
X121.285Y-104.14
X121.285Y-106.68
X121.285Y-121.92
X121.285Y-127.0
X121.285Y-132.08
X121.344Y-137.069
X121.793Y-110.363
X121.92Y-170.18
X121.92Y-182.88
X121.92Y-185.42
X121.92Y-187.96
X123.52Y-142.33
X123.825Y-101.6
X124.46Y-149.86
X124.46Y-167.64
X124.46Y-175.26
X124.46Y-182.88
X124.46Y-185.42
X124.46Y-187.96
X127.0Y-101.6
X127.0Y-111.76
X127.0Y-165.1
X127.0Y-172.72
X127.0Y-175.26
X127.0Y-182.88
X127.0Y-185.42
X127.0Y-187.96
X127.635Y-149.225
X129.356Y-153.035
X129.54Y-162.56
X129.54Y-167.64
X129.54Y-170.18
X129.54Y-172.72
X129.54Y-175.26
X129.54Y-182.88
X129.54Y-185.42
X129.54Y-187.96
X130.175Y-101.6
X131.2Y-109.2
X132.08Y-153.035
X132.08Y-165.1
X132.08Y-167.64
X132.08Y-170.18
X132.08Y-172.72
X132.08Y-175.26
X132.08Y-182.88
X132.08Y-185.42
X132.08Y-187.96
X134.62Y-101.6
X134.62Y-104.14
X134.62Y-165.1
X134.62Y-167.64
X134.62Y-170.18
X134.62Y-172.72
X134.62Y-175.26
X134.62Y-182.88
X134.62Y-185.42
X134.62Y-187.96
X135.255Y-139.065
X135.255Y-140.97
X135.89Y-119.38
X135.89Y-121.92
X137.16Y-101.6
X137.16Y-104.14
X137.16Y-111.76
X137.16Y-162.56
X137.16Y-165.1
X137.16Y-167.64
X137.16Y-170.18
X137.16Y-172.72
X137.16Y-175.26
X137.16Y-182.88
X137.16Y-185.42
X137.16Y-187.96
X137.548Y-114.746
X137.795Y-139.065
X137.795Y-140.97
X137.795Y-149.86
X137.795Y-152.4
X137.795Y-154.94
X137.795Y-155.94
X138.401Y-122.025
X138.43Y-123.825
X138.43Y-126.275
X138.43Y-144.145
X139.7Y-101.6
X139.7Y-114.3
X139.7Y-135.345
X139.7Y-162.56
X139.7Y-165.1
X139.7Y-167.64
X139.7Y-170.18
X139.7Y-172.72
X139.7Y-175.26
X139.7Y-182.88
X139.7Y-185.42
X139.7Y-187.96
X139.821Y-116.719
X140.335Y-137.16
X140.335Y-139.065
X140.335Y-140.97
X142.24Y-101.6
X142.24Y-104.14
X142.24Y-111.76
X142.24Y-116.84
X142.24Y-165.1
X142.24Y-167.64
X142.24Y-170.18
X142.24Y-172.72
X142.24Y-175.26
X142.24Y-182.88
X142.24Y-185.42
X142.24Y-187.96
X142.362Y-118.525
X142.792Y-142.272
X142.9Y-143.4
X144.78Y-101.6
X144.78Y-104.14
X144.78Y-106.68
X144.78Y-111.76
X144.78Y-147.32
X144.78Y-149.86
X144.78Y-152.4
X144.78Y-154.94
X144.78Y-162.56
X144.78Y-165.1
X144.78Y-167.64
X144.78Y-170.18
X144.78Y-172.72
X144.78Y-175.26
X144.78Y-182.88
X144.78Y-185.42
X144.78Y-187.96
X145.712Y-120.988
X146.4Y-143.4
X146.685Y-147.32
X146.685Y-149.86
X146.685Y-152.4
X146.685Y-154.94
X147.32Y-101.6
X147.32Y-109.22
X147.32Y-114.3
X147.32Y-116.84
X147.32Y-121.92
X147.32Y-162.56
X147.32Y-165.1
X147.32Y-167.64
X147.32Y-170.18
X147.32Y-172.72
X147.32Y-175.26
X148.9Y-142.3
X149.86Y-114.3
X149.86Y-116.84
X149.86Y-144.78
X149.86Y-147.32
X149.86Y-149.86
X149.86Y-152.4
X149.86Y-154.94
X149.86Y-162.56
X149.86Y-165.1
X149.86Y-167.64
X149.86Y-170.18
X149.86Y-172.72
X149.86Y-175.26
X152.4Y-109.22
X152.4Y-142.24
X152.4Y-144.78
X152.4Y-147.32
X152.4Y-149.86
X152.4Y-152.4
X152.4Y-154.94
X152.4Y-162.56
X152.4Y-175.26
T2
X151.765Y-124.905
X151.765Y-126.905
X151.765Y-128.905
T3
X103.502Y-113.345
X103.502Y-117.845
X151.767Y-113.295
X151.767Y-117.795
T4
X120.628Y-146.725
X120.628Y-151.725
X123.825Y-114.935
X126.365Y-114.935
X128.905Y-114.935
X131.445Y-114.935
X135.128Y-146.725
X135.128Y-149.225
X135.128Y-151.725
X144.78Y-115.565
X144.78Y-118.105
X151.765Y-134.62
X151.765Y-137.16
T5
X103.505Y-160.02
X103.505Y-177.8
X106.045Y-160.02
X106.045Y-177.8
X108.585Y-160.02
X108.585Y-177.8
X111.125Y-160.02
X111.125Y-177.8
X113.665Y-160.02
X113.665Y-177.8
X116.205Y-160.02
X116.205Y-177.8
X118.745Y-160.02
X118.745Y-177.8
X121.285Y-160.02
X121.285Y-177.8
X123.825Y-160.02
X123.825Y-177.8
X126.365Y-160.02
X126.365Y-177.8
X128.905Y-160.02
X128.905Y-177.8
X131.445Y-160.02
X131.445Y-177.8
X133.985Y-160.02
X133.985Y-177.8
X136.525Y-160.02
X136.525Y-177.8
X139.065Y-160.02
X139.065Y-177.8
X141.605Y-160.02
X141.605Y-177.8
X144.145Y-160.02
X144.145Y-177.8
X146.685Y-160.02
X146.685Y-177.8
X149.225Y-160.02
X149.225Y-177.8
X151.535Y-166.37
X151.535Y-168.91
X151.535Y-171.45
X151.765Y-160.02
X151.765Y-177.8
T6
X134.065Y-109.83
X137.065Y-109.83
X139.065Y-104.83
X141.065Y-109.83
X144.065Y-109.83
T7
X105.992Y-112.085
X105.992Y-119.095
X149.278Y-112.045
X149.278Y-119.055
T8
X151.765Y-122.805
X151.765Y-131.005
T9
X105.41Y-105.41
X105.41Y-184.785
X149.86Y-105.41
X149.86Y-184.785
T8
G00X128.278Y-143.625
M15
G01X126.978Y-143.625
M16
G05
G00X128.278Y-154.825
M15
G01X126.978Y-154.825
M16
G05
T0
M30
