M48
INCH,TZ
T1C0.0157
T2C0.0315
T3C0.0390
T4C0.0394
T5C0.0402
T6C0.0472
T7C0.0512
T8C0.0591
T9C0.1260
%
G90
G05
T1
X40000Y-42000
X40000Y-43000
X40000Y-44000
X40421Y-57118
X41000Y-43000
X41000Y-47000
X41000Y-48000
X41000Y-64000
X41000Y-64750
X41598Y-52256
X41750Y-60500
X41900Y-49300
X42000Y-40000
X42000Y-43000
X42000Y-45000
X42000Y-46000
X42000Y-48000
X42000Y-69000
X42500Y-55750
X43000Y-40000
X43000Y-41000
X43000Y-42000
X43000Y-43000
X43000Y-59000
X43000Y-64000
X43000Y-64750
X43000Y-66000
X43000Y-66750
X43000Y-69000
X43000Y-72000
X43000Y-74000
X43250Y-44000
X43250Y-45000
X43600Y-49300
X43815Y-59283
X44000Y-42000
X44000Y-43000
X44000Y-64000
X44000Y-64750
X44000Y-66000
X44000Y-66750
X44000Y-72000
X44000Y-73000
X44000Y-74000
X44142Y-54118
X44250Y-56750
X44750Y-48000
X44764Y-59055
X45000Y-64000
X45000Y-64750
X45000Y-66000
X45000Y-66750
X45000Y-72000
X45000Y-73000
X45000Y-74000
X45161Y-42154
X45382Y-59673
X45685Y-49552
X46000Y-46000
X46000Y-47000
X46000Y-64000
X46000Y-64750
X46000Y-66000
X46000Y-66750
X46000Y-72000
X46000Y-73000
X46000Y-74000
X46016Y-42142
X46073Y-53736
X46250Y-61500
X47000Y-46000
X47000Y-64000
X47000Y-64750
X47000Y-68000
X47000Y-72000
X47000Y-73000
X47000Y-74000
X47750Y-40000
X47750Y-41000
X47750Y-42000
X47750Y-48000
X47750Y-50000
X47750Y-52000
X47773Y-53964
X48000Y-67000
X48000Y-72000
X48000Y-73000
X48000Y-74000
X48630Y-56035
X48750Y-40000
X49000Y-44000
X49000Y-59000
X49000Y-66000
X49000Y-69000
X49000Y-72000
X49000Y-73000
X49000Y-74000
X50000Y-40000
X50000Y-44000
X50000Y-65000
X50000Y-68000
X50000Y-69000
X50000Y-72000
X50000Y-73000
X50000Y-74000
X50250Y-58750
X50927Y-60250
X51000Y-64000
X51000Y-66000
X51000Y-67000
X51000Y-68000
X51000Y-69000
X51000Y-72000
X51000Y-73000
X51000Y-74000
X51250Y-40000
X51654Y-42992
X52000Y-60250
X52000Y-65000
X52000Y-66000
X52000Y-67000
X52000Y-68000
X52000Y-69000
X52000Y-72000
X52000Y-73000
X52000Y-74000
X53000Y-40000
X53000Y-41000
X53000Y-65000
X53000Y-66000
X53000Y-67000
X53000Y-68000
X53000Y-69000
X53000Y-72000
X53000Y-73000
X53000Y-74000
X53250Y-54750
X53250Y-55500
X53500Y-47000
X53500Y-48000
X54000Y-40000
X54000Y-41000
X54000Y-44000
X54000Y-64000
X54000Y-65000
X54000Y-66000
X54000Y-67000
X54000Y-68000
X54000Y-69000
X54000Y-72000
X54000Y-73000
X54000Y-74000
X54153Y-45176
X54250Y-54750
X54250Y-55500
X54250Y-59000
X54250Y-60000
X54250Y-61000
X54250Y-61394
X54489Y-48041
X54500Y-48750
X54500Y-49715
X54500Y-56750
X55000Y-40000
X55000Y-45000
X55000Y-53285
X55000Y-64000
X55000Y-65000
X55000Y-66000
X55000Y-67000
X55000Y-68000
X55000Y-69000
X55000Y-72000
X55000Y-73000
X55000Y-74000
X55048Y-45952
X55250Y-54000
X55250Y-54750
X55250Y-55500
X56000Y-40000
X56000Y-41000
X56000Y-44000
X56000Y-46000
X56000Y-65000
X56000Y-66000
X56000Y-67000
X56000Y-68000
X56000Y-69000
X56000Y-72000
X56000Y-73000
X56000Y-74000
X56048Y-46663
X56217Y-56013
X56260Y-56457
X57000Y-40000
X57000Y-41000
X57000Y-42000
X57000Y-44000
X57000Y-58000
X57000Y-59000
X57000Y-60000
X57000Y-61000
X57000Y-64000
X57000Y-65000
X57000Y-66000
X57000Y-67000
X57000Y-68000
X57000Y-69000
X57000Y-72000
X57000Y-73000
X57000Y-74000
X57367Y-47633
X57638Y-56457
X57750Y-58000
X57750Y-59000
X57750Y-60000
X57750Y-61000
X58000Y-40000
X58000Y-43000
X58000Y-45000
X58000Y-46000
X58000Y-48000
X58000Y-64000
X58000Y-65000
X58000Y-66000
X58000Y-67000
X58000Y-68000
X58000Y-69000
X58622Y-56024
X59000Y-45000
X59000Y-46000
X59000Y-57000
X59000Y-58000
X59000Y-59000
X59000Y-60000
X59000Y-61000
X59000Y-64000
X59000Y-65000
X59000Y-66000
X59000Y-67000
X59000Y-68000
X59000Y-69000
X60000Y-43000
X60000Y-56000
X60000Y-57000
X60000Y-58000
X60000Y-59000
X60000Y-60000
X60000Y-61000
X60000Y-64000
X60000Y-69000
T2
X59750Y-49175
X59750Y-49963
X59750Y-50750
T3
X40749Y-44624
X40749Y-46396
X59751Y-44604
X59751Y-46376
T4
X47491Y-57766
X47491Y-59734
X48750Y-45250
X49750Y-45250
X50750Y-45250
X51750Y-45250
X53200Y-57766
X53200Y-58750
X53200Y-59734
X57000Y-45498
X57000Y-46498
X59750Y-53000
X59750Y-54000
T5
X40750Y-63000
X40750Y-70000
X41750Y-63000
X41750Y-70000
X42750Y-63000
X42750Y-70000
X43750Y-63000
X43750Y-70000
X44750Y-63000
X44750Y-70000
X45750Y-63000
X45750Y-70000
X46750Y-63000
X46750Y-70000
X47750Y-63000
X47750Y-70000
X48750Y-63000
X48750Y-70000
X49750Y-63000
X49750Y-70000
X50750Y-63000
X50750Y-70000
X51750Y-63000
X51750Y-70000
X52750Y-63000
X52750Y-70000
X53750Y-63000
X53750Y-70000
X54750Y-63000
X54750Y-70000
X55750Y-63000
X55750Y-70000
X56750Y-63000
X56750Y-70000
X57750Y-63000
X57750Y-70000
X58750Y-63000
X58750Y-70000
X59659Y-65500
X59659Y-66500
X59659Y-67500
X59750Y-63000
X59750Y-70000
T6
X52781Y-43240
X53963Y-43240
X54750Y-41272
X55537Y-43240
X56719Y-43240
T7
X41729Y-44128
X41729Y-46888
X58771Y-44112
X58771Y-46872
T8
X59750Y-48348
X59750Y-51577
T9
X41500Y-41500
X41500Y-72750
X59000Y-41500
X59000Y-72750
T8
G00X50503Y-56545
M15
G01X49991Y-56545
M16
G05
G00X50503Y-60955
M15
G01X49991Y-60955
M16
G05
T0
M30
