G04 #@! TF.GenerationSoftware,KiCad,Pcbnew,7.0.5-unknown-202306101748~6fbdf8f0e2~ubuntu22.04.1*
G04 #@! TF.CreationDate,2023-07-16T13:46:18+01:00*
G04 #@! TF.ProjectId,pico_rx,7069636f-5f72-4782-9e6b-696361645f70,rev?*
G04 #@! TF.SameCoordinates,Original*
G04 #@! TF.FileFunction,Legend,Top*
G04 #@! TF.FilePolarity,Positive*
%FSLAX46Y46*%
G04 Gerber Fmt 4.6, Leading zero omitted, Abs format (unit mm)*
G04 Created by KiCad (PCBNEW 7.0.5-unknown-202306101748~6fbdf8f0e2~ubuntu22.04.1) date 2023-07-16 13:46:18*
%MOMM*%
%LPD*%
G01*
G04 APERTURE LIST*
%ADD10C,0.250000*%
%ADD11C,0.100000*%
%ADD12C,0.150000*%
%ADD13C,0.120000*%
G04 APERTURE END LIST*
D10*
X121920000Y-116332000D02*
X119380000Y-116332000D01*
X119380000Y-123698000D01*
X109220000Y-123698000D01*
X108204000Y-123698000D01*
X108204000Y-110236000D01*
X114300000Y-110236000D01*
X114300000Y-108204000D01*
X121920000Y-108204000D01*
X121920000Y-116332000D01*
D11*
X119888000Y-121920000D02*
X134112000Y-121920000D01*
X134112000Y-127000000D01*
X119888000Y-127000000D01*
X119888000Y-121920000D01*
D10*
X110490000Y-137668000D02*
X119380000Y-137668000D01*
X119410000Y-151162000D01*
X101630000Y-151162000D01*
X101600000Y-124206000D01*
X110490000Y-124206000D01*
X110490000Y-137668000D01*
D11*
X119888000Y-127000000D02*
X134112000Y-127000000D01*
X134112000Y-132080000D01*
X119888000Y-132080000D01*
X119888000Y-127000000D01*
D10*
X134112000Y-121920000D02*
X142875000Y-121920000D01*
X142875000Y-137160000D01*
X134112000Y-137160000D01*
X134112000Y-142240000D01*
X119888000Y-142240000D01*
X119888000Y-137160000D01*
X111125000Y-137160000D01*
X111125000Y-124206000D01*
X119888000Y-124206000D01*
X119888000Y-116840000D01*
X134112000Y-116840000D01*
X134112000Y-121920000D01*
D11*
X119888000Y-132080000D02*
X134112000Y-132080000D01*
X134112000Y-137160000D01*
X119888000Y-137160000D01*
X119888000Y-132080000D01*
D12*
X114636779Y-174399580D02*
X114684398Y-174447200D01*
X114684398Y-174447200D02*
X114636779Y-174494819D01*
X114636779Y-174494819D02*
X114589160Y-174447200D01*
X114589160Y-174447200D02*
X114636779Y-174399580D01*
X114636779Y-174399580D02*
X114636779Y-174494819D01*
X114636779Y-174113866D02*
X114589160Y-173542438D01*
X114589160Y-173542438D02*
X114636779Y-173494819D01*
X114636779Y-173494819D02*
X114684398Y-173542438D01*
X114684398Y-173542438D02*
X114636779Y-174113866D01*
X114636779Y-174113866D02*
X114636779Y-173494819D01*
X115112969Y-174399580D02*
X115160588Y-174447200D01*
X115160588Y-174447200D02*
X115112969Y-174494819D01*
X115112969Y-174494819D02*
X115065350Y-174447200D01*
X115065350Y-174447200D02*
X115112969Y-174399580D01*
X115112969Y-174399580D02*
X115112969Y-174494819D01*
X115112969Y-174113866D02*
X115065350Y-173542438D01*
X115065350Y-173542438D02*
X115112969Y-173494819D01*
X115112969Y-173494819D02*
X115160588Y-173542438D01*
X115160588Y-173542438D02*
X115112969Y-174113866D01*
X115112969Y-174113866D02*
X115112969Y-173494819D01*
X115589159Y-174494819D02*
X115589159Y-173494819D01*
X115589159Y-173494819D02*
X115827254Y-173494819D01*
X115827254Y-173494819D02*
X115970111Y-173542438D01*
X115970111Y-173542438D02*
X116065349Y-173637676D01*
X116065349Y-173637676D02*
X116112968Y-173732914D01*
X116112968Y-173732914D02*
X116160587Y-173923390D01*
X116160587Y-173923390D02*
X116160587Y-174066247D01*
X116160587Y-174066247D02*
X116112968Y-174256723D01*
X116112968Y-174256723D02*
X116065349Y-174351961D01*
X116065349Y-174351961D02*
X115970111Y-174447200D01*
X115970111Y-174447200D02*
X115827254Y-174494819D01*
X115827254Y-174494819D02*
X115589159Y-174494819D01*
X117112968Y-174494819D02*
X116541540Y-174494819D01*
X116827254Y-174494819D02*
X116827254Y-173494819D01*
X116827254Y-173494819D02*
X116732016Y-173637676D01*
X116732016Y-173637676D02*
X116636778Y-173732914D01*
X116636778Y-173732914D02*
X116541540Y-173780533D01*
X118303445Y-174494819D02*
X118303445Y-173494819D01*
X118303445Y-173494819D02*
X118636778Y-174209104D01*
X118636778Y-174209104D02*
X118970111Y-173494819D01*
X118970111Y-173494819D02*
X118970111Y-174494819D01*
X119874873Y-173828152D02*
X119874873Y-174494819D01*
X119446302Y-173828152D02*
X119446302Y-174351961D01*
X119446302Y-174351961D02*
X119493921Y-174447200D01*
X119493921Y-174447200D02*
X119589159Y-174494819D01*
X119589159Y-174494819D02*
X119732016Y-174494819D01*
X119732016Y-174494819D02*
X119827254Y-174447200D01*
X119827254Y-174447200D02*
X119874873Y-174399580D01*
X120303445Y-174447200D02*
X120398683Y-174494819D01*
X120398683Y-174494819D02*
X120589159Y-174494819D01*
X120589159Y-174494819D02*
X120684397Y-174447200D01*
X120684397Y-174447200D02*
X120732016Y-174351961D01*
X120732016Y-174351961D02*
X120732016Y-174304342D01*
X120732016Y-174304342D02*
X120684397Y-174209104D01*
X120684397Y-174209104D02*
X120589159Y-174161485D01*
X120589159Y-174161485D02*
X120446302Y-174161485D01*
X120446302Y-174161485D02*
X120351064Y-174113866D01*
X120351064Y-174113866D02*
X120303445Y-174018628D01*
X120303445Y-174018628D02*
X120303445Y-173971009D01*
X120303445Y-173971009D02*
X120351064Y-173875771D01*
X120351064Y-173875771D02*
X120446302Y-173828152D01*
X120446302Y-173828152D02*
X120589159Y-173828152D01*
X120589159Y-173828152D02*
X120684397Y-173875771D01*
X121017731Y-173828152D02*
X121398683Y-173828152D01*
X121160588Y-173494819D02*
X121160588Y-174351961D01*
X121160588Y-174351961D02*
X121208207Y-174447200D01*
X121208207Y-174447200D02*
X121303445Y-174494819D01*
X121303445Y-174494819D02*
X121398683Y-174494819D01*
X122493922Y-174494819D02*
X122493922Y-173494819D01*
X122493922Y-173875771D02*
X122589160Y-173828152D01*
X122589160Y-173828152D02*
X122779636Y-173828152D01*
X122779636Y-173828152D02*
X122874874Y-173875771D01*
X122874874Y-173875771D02*
X122922493Y-173923390D01*
X122922493Y-173923390D02*
X122970112Y-174018628D01*
X122970112Y-174018628D02*
X122970112Y-174304342D01*
X122970112Y-174304342D02*
X122922493Y-174399580D01*
X122922493Y-174399580D02*
X122874874Y-174447200D01*
X122874874Y-174447200D02*
X122779636Y-174494819D01*
X122779636Y-174494819D02*
X122589160Y-174494819D01*
X122589160Y-174494819D02*
X122493922Y-174447200D01*
X123779636Y-174447200D02*
X123684398Y-174494819D01*
X123684398Y-174494819D02*
X123493922Y-174494819D01*
X123493922Y-174494819D02*
X123398684Y-174447200D01*
X123398684Y-174447200D02*
X123351065Y-174351961D01*
X123351065Y-174351961D02*
X123351065Y-173971009D01*
X123351065Y-173971009D02*
X123398684Y-173875771D01*
X123398684Y-173875771D02*
X123493922Y-173828152D01*
X123493922Y-173828152D02*
X123684398Y-173828152D01*
X123684398Y-173828152D02*
X123779636Y-173875771D01*
X123779636Y-173875771D02*
X123827255Y-173971009D01*
X123827255Y-173971009D02*
X123827255Y-174066247D01*
X123827255Y-174066247D02*
X123351065Y-174161485D01*
X125017732Y-174494819D02*
X125017732Y-173828152D01*
X125017732Y-174018628D02*
X125065351Y-173923390D01*
X125065351Y-173923390D02*
X125112970Y-173875771D01*
X125112970Y-173875771D02*
X125208208Y-173828152D01*
X125208208Y-173828152D02*
X125303446Y-173828152D01*
X126017732Y-174447200D02*
X125922494Y-174494819D01*
X125922494Y-174494819D02*
X125732018Y-174494819D01*
X125732018Y-174494819D02*
X125636780Y-174447200D01*
X125636780Y-174447200D02*
X125589161Y-174351961D01*
X125589161Y-174351961D02*
X125589161Y-173971009D01*
X125589161Y-173971009D02*
X125636780Y-173875771D01*
X125636780Y-173875771D02*
X125732018Y-173828152D01*
X125732018Y-173828152D02*
X125922494Y-173828152D01*
X125922494Y-173828152D02*
X126017732Y-173875771D01*
X126017732Y-173875771D02*
X126065351Y-173971009D01*
X126065351Y-173971009D02*
X126065351Y-174066247D01*
X126065351Y-174066247D02*
X125589161Y-174161485D01*
X126493923Y-174494819D02*
X126493923Y-173828152D01*
X126493923Y-173923390D02*
X126541542Y-173875771D01*
X126541542Y-173875771D02*
X126636780Y-173828152D01*
X126636780Y-173828152D02*
X126779637Y-173828152D01*
X126779637Y-173828152D02*
X126874875Y-173875771D01*
X126874875Y-173875771D02*
X126922494Y-173971009D01*
X126922494Y-173971009D02*
X126922494Y-174494819D01*
X126922494Y-173971009D02*
X126970113Y-173875771D01*
X126970113Y-173875771D02*
X127065351Y-173828152D01*
X127065351Y-173828152D02*
X127208208Y-173828152D01*
X127208208Y-173828152D02*
X127303447Y-173875771D01*
X127303447Y-173875771D02*
X127351066Y-173971009D01*
X127351066Y-173971009D02*
X127351066Y-174494819D01*
X127970113Y-174494819D02*
X127874875Y-174447200D01*
X127874875Y-174447200D02*
X127827256Y-174399580D01*
X127827256Y-174399580D02*
X127779637Y-174304342D01*
X127779637Y-174304342D02*
X127779637Y-174018628D01*
X127779637Y-174018628D02*
X127827256Y-173923390D01*
X127827256Y-173923390D02*
X127874875Y-173875771D01*
X127874875Y-173875771D02*
X127970113Y-173828152D01*
X127970113Y-173828152D02*
X128112970Y-173828152D01*
X128112970Y-173828152D02*
X128208208Y-173875771D01*
X128208208Y-173875771D02*
X128255827Y-173923390D01*
X128255827Y-173923390D02*
X128303446Y-174018628D01*
X128303446Y-174018628D02*
X128303446Y-174304342D01*
X128303446Y-174304342D02*
X128255827Y-174399580D01*
X128255827Y-174399580D02*
X128208208Y-174447200D01*
X128208208Y-174447200D02*
X128112970Y-174494819D01*
X128112970Y-174494819D02*
X127970113Y-174494819D01*
X128636780Y-173828152D02*
X128874875Y-174494819D01*
X128874875Y-174494819D02*
X129112970Y-173828152D01*
X129874875Y-174447200D02*
X129779637Y-174494819D01*
X129779637Y-174494819D02*
X129589161Y-174494819D01*
X129589161Y-174494819D02*
X129493923Y-174447200D01*
X129493923Y-174447200D02*
X129446304Y-174351961D01*
X129446304Y-174351961D02*
X129446304Y-173971009D01*
X129446304Y-173971009D02*
X129493923Y-173875771D01*
X129493923Y-173875771D02*
X129589161Y-173828152D01*
X129589161Y-173828152D02*
X129779637Y-173828152D01*
X129779637Y-173828152D02*
X129874875Y-173875771D01*
X129874875Y-173875771D02*
X129922494Y-173971009D01*
X129922494Y-173971009D02*
X129922494Y-174066247D01*
X129922494Y-174066247D02*
X129446304Y-174161485D01*
X130779637Y-174494819D02*
X130779637Y-173494819D01*
X130779637Y-174447200D02*
X130684399Y-174494819D01*
X130684399Y-174494819D02*
X130493923Y-174494819D01*
X130493923Y-174494819D02*
X130398685Y-174447200D01*
X130398685Y-174447200D02*
X130351066Y-174399580D01*
X130351066Y-174399580D02*
X130303447Y-174304342D01*
X130303447Y-174304342D02*
X130303447Y-174018628D01*
X130303447Y-174018628D02*
X130351066Y-173923390D01*
X130351066Y-173923390D02*
X130398685Y-173875771D01*
X130398685Y-173875771D02*
X130493923Y-173828152D01*
X130493923Y-173828152D02*
X130684399Y-173828152D01*
X130684399Y-173828152D02*
X130779637Y-173875771D01*
X131874876Y-173828152D02*
X132255828Y-173828152D01*
X132017733Y-174494819D02*
X132017733Y-173637676D01*
X132017733Y-173637676D02*
X132065352Y-173542438D01*
X132065352Y-173542438D02*
X132160590Y-173494819D01*
X132160590Y-173494819D02*
X132255828Y-173494819D01*
X132589162Y-174494819D02*
X132589162Y-173828152D01*
X132589162Y-174018628D02*
X132636781Y-173923390D01*
X132636781Y-173923390D02*
X132684400Y-173875771D01*
X132684400Y-173875771D02*
X132779638Y-173828152D01*
X132779638Y-173828152D02*
X132874876Y-173828152D01*
X133351067Y-174494819D02*
X133255829Y-174447200D01*
X133255829Y-174447200D02*
X133208210Y-174399580D01*
X133208210Y-174399580D02*
X133160591Y-174304342D01*
X133160591Y-174304342D02*
X133160591Y-174018628D01*
X133160591Y-174018628D02*
X133208210Y-173923390D01*
X133208210Y-173923390D02*
X133255829Y-173875771D01*
X133255829Y-173875771D02*
X133351067Y-173828152D01*
X133351067Y-173828152D02*
X133493924Y-173828152D01*
X133493924Y-173828152D02*
X133589162Y-173875771D01*
X133589162Y-173875771D02*
X133636781Y-173923390D01*
X133636781Y-173923390D02*
X133684400Y-174018628D01*
X133684400Y-174018628D02*
X133684400Y-174304342D01*
X133684400Y-174304342D02*
X133636781Y-174399580D01*
X133636781Y-174399580D02*
X133589162Y-174447200D01*
X133589162Y-174447200D02*
X133493924Y-174494819D01*
X133493924Y-174494819D02*
X133351067Y-174494819D01*
X134112972Y-174494819D02*
X134112972Y-173828152D01*
X134112972Y-173923390D02*
X134160591Y-173875771D01*
X134160591Y-173875771D02*
X134255829Y-173828152D01*
X134255829Y-173828152D02*
X134398686Y-173828152D01*
X134398686Y-173828152D02*
X134493924Y-173875771D01*
X134493924Y-173875771D02*
X134541543Y-173971009D01*
X134541543Y-173971009D02*
X134541543Y-174494819D01*
X134541543Y-173971009D02*
X134589162Y-173875771D01*
X134589162Y-173875771D02*
X134684400Y-173828152D01*
X134684400Y-173828152D02*
X134827257Y-173828152D01*
X134827257Y-173828152D02*
X134922496Y-173875771D01*
X134922496Y-173875771D02*
X134970115Y-173971009D01*
X134970115Y-173971009D02*
X134970115Y-174494819D01*
X136208210Y-174494819D02*
X136208210Y-173494819D01*
X136208210Y-173494819D02*
X136589162Y-173494819D01*
X136589162Y-173494819D02*
X136684400Y-173542438D01*
X136684400Y-173542438D02*
X136732019Y-173590057D01*
X136732019Y-173590057D02*
X136779638Y-173685295D01*
X136779638Y-173685295D02*
X136779638Y-173828152D01*
X136779638Y-173828152D02*
X136732019Y-173923390D01*
X136732019Y-173923390D02*
X136684400Y-173971009D01*
X136684400Y-173971009D02*
X136589162Y-174018628D01*
X136589162Y-174018628D02*
X136208210Y-174018628D01*
X137208210Y-174494819D02*
X137208210Y-173828152D01*
X137208210Y-173494819D02*
X137160591Y-173542438D01*
X137160591Y-173542438D02*
X137208210Y-173590057D01*
X137208210Y-173590057D02*
X137255829Y-173542438D01*
X137255829Y-173542438D02*
X137208210Y-173494819D01*
X137208210Y-173494819D02*
X137208210Y-173590057D01*
X138446305Y-174494819D02*
X138446305Y-173494819D01*
X138446305Y-173494819D02*
X138827257Y-173494819D01*
X138827257Y-173494819D02*
X138922495Y-173542438D01*
X138922495Y-173542438D02*
X138970114Y-173590057D01*
X138970114Y-173590057D02*
X139017733Y-173685295D01*
X139017733Y-173685295D02*
X139017733Y-173828152D01*
X139017733Y-173828152D02*
X138970114Y-173923390D01*
X138970114Y-173923390D02*
X138922495Y-173971009D01*
X138922495Y-173971009D02*
X138827257Y-174018628D01*
X138827257Y-174018628D02*
X138446305Y-174018628D01*
X139446305Y-174494819D02*
X139446305Y-173828152D01*
X139446305Y-173494819D02*
X139398686Y-173542438D01*
X139398686Y-173542438D02*
X139446305Y-173590057D01*
X139446305Y-173590057D02*
X139493924Y-173542438D01*
X139493924Y-173542438D02*
X139446305Y-173494819D01*
X139446305Y-173494819D02*
X139446305Y-173590057D01*
X140351066Y-174447200D02*
X140255828Y-174494819D01*
X140255828Y-174494819D02*
X140065352Y-174494819D01*
X140065352Y-174494819D02*
X139970114Y-174447200D01*
X139970114Y-174447200D02*
X139922495Y-174399580D01*
X139922495Y-174399580D02*
X139874876Y-174304342D01*
X139874876Y-174304342D02*
X139874876Y-174018628D01*
X139874876Y-174018628D02*
X139922495Y-173923390D01*
X139922495Y-173923390D02*
X139970114Y-173875771D01*
X139970114Y-173875771D02*
X140065352Y-173828152D01*
X140065352Y-173828152D02*
X140255828Y-173828152D01*
X140255828Y-173828152D02*
X140351066Y-173875771D01*
X140922495Y-174494819D02*
X140827257Y-174447200D01*
X140827257Y-174447200D02*
X140779638Y-174399580D01*
X140779638Y-174399580D02*
X140732019Y-174304342D01*
X140732019Y-174304342D02*
X140732019Y-174018628D01*
X140732019Y-174018628D02*
X140779638Y-173923390D01*
X140779638Y-173923390D02*
X140827257Y-173875771D01*
X140827257Y-173875771D02*
X140922495Y-173828152D01*
X140922495Y-173828152D02*
X141065352Y-173828152D01*
X141065352Y-173828152D02*
X141160590Y-173875771D01*
X141160590Y-173875771D02*
X141208209Y-173923390D01*
X141208209Y-173923390D02*
X141255828Y-174018628D01*
X141255828Y-174018628D02*
X141255828Y-174304342D01*
X141255828Y-174304342D02*
X141208209Y-174399580D01*
X141208209Y-174399580D02*
X141160590Y-174447200D01*
X141160590Y-174447200D02*
X141065352Y-174494819D01*
X141065352Y-174494819D02*
X140922495Y-174494819D01*
X141684400Y-174399580D02*
X141732019Y-174447200D01*
X141732019Y-174447200D02*
X141684400Y-174494819D01*
X141684400Y-174494819D02*
X141636781Y-174447200D01*
X141636781Y-174447200D02*
X141684400Y-174399580D01*
X141684400Y-174399580D02*
X141684400Y-174494819D01*
X141684400Y-174113866D02*
X141636781Y-173542438D01*
X141636781Y-173542438D02*
X141684400Y-173494819D01*
X141684400Y-173494819D02*
X141732019Y-173542438D01*
X141732019Y-173542438D02*
X141684400Y-174113866D01*
X141684400Y-174113866D02*
X141684400Y-173494819D01*
X142160590Y-174399580D02*
X142208209Y-174447200D01*
X142208209Y-174447200D02*
X142160590Y-174494819D01*
X142160590Y-174494819D02*
X142112971Y-174447200D01*
X142112971Y-174447200D02*
X142160590Y-174399580D01*
X142160590Y-174399580D02*
X142160590Y-174494819D01*
X142160590Y-174113866D02*
X142112971Y-173542438D01*
X142112971Y-173542438D02*
X142160590Y-173494819D01*
X142160590Y-173494819D02*
X142208209Y-173542438D01*
X142208209Y-173542438D02*
X142160590Y-174113866D01*
X142160590Y-174113866D02*
X142160590Y-173494819D01*
X116636969Y-122805819D02*
X116160779Y-122805819D01*
X116160779Y-122805819D02*
X116160779Y-121805819D01*
X116970303Y-122805819D02*
X116970303Y-121805819D01*
X116970303Y-121805819D02*
X117541731Y-122805819D01*
X117541731Y-122805819D02*
X117541731Y-121805819D01*
X117970303Y-122520104D02*
X118446493Y-122520104D01*
X117875065Y-122805819D02*
X118208398Y-121805819D01*
X118208398Y-121805819D02*
X118541731Y-122805819D01*
X148672779Y-134616866D02*
X149434684Y-134616866D01*
X149053731Y-134997819D02*
X149053731Y-134235914D01*
X140512969Y-123313819D02*
X140036779Y-123313819D01*
X140036779Y-123313819D02*
X140036779Y-122313819D01*
X140846303Y-123313819D02*
X140846303Y-122313819D01*
X140846303Y-122313819D02*
X141227255Y-122313819D01*
X141227255Y-122313819D02*
X141322493Y-122361438D01*
X141322493Y-122361438D02*
X141370112Y-122409057D01*
X141370112Y-122409057D02*
X141417731Y-122504295D01*
X141417731Y-122504295D02*
X141417731Y-122647152D01*
X141417731Y-122647152D02*
X141370112Y-122742390D01*
X141370112Y-122742390D02*
X141322493Y-122790009D01*
X141322493Y-122790009D02*
X141227255Y-122837628D01*
X141227255Y-122837628D02*
X140846303Y-122837628D01*
X142179636Y-122790009D02*
X141846303Y-122790009D01*
X141846303Y-123313819D02*
X141846303Y-122313819D01*
X141846303Y-122313819D02*
X142322493Y-122313819D01*
X120986779Y-183339819D02*
X120986779Y-182339819D01*
X120986779Y-182339819D02*
X121367731Y-182339819D01*
X121367731Y-182339819D02*
X121462969Y-182387438D01*
X121462969Y-182387438D02*
X121510588Y-182435057D01*
X121510588Y-182435057D02*
X121558207Y-182530295D01*
X121558207Y-182530295D02*
X121558207Y-182673152D01*
X121558207Y-182673152D02*
X121510588Y-182768390D01*
X121510588Y-182768390D02*
X121462969Y-182816009D01*
X121462969Y-182816009D02*
X121367731Y-182863628D01*
X121367731Y-182863628D02*
X120986779Y-182863628D01*
X121986779Y-183339819D02*
X121986779Y-182673152D01*
X121986779Y-182339819D02*
X121939160Y-182387438D01*
X121939160Y-182387438D02*
X121986779Y-182435057D01*
X121986779Y-182435057D02*
X122034398Y-182387438D01*
X122034398Y-182387438D02*
X121986779Y-182339819D01*
X121986779Y-182339819D02*
X121986779Y-182435057D01*
X123224874Y-183339819D02*
X123224874Y-182339819D01*
X123224874Y-182339819D02*
X123605826Y-182339819D01*
X123605826Y-182339819D02*
X123701064Y-182387438D01*
X123701064Y-182387438D02*
X123748683Y-182435057D01*
X123748683Y-182435057D02*
X123796302Y-182530295D01*
X123796302Y-182530295D02*
X123796302Y-182673152D01*
X123796302Y-182673152D02*
X123748683Y-182768390D01*
X123748683Y-182768390D02*
X123701064Y-182816009D01*
X123701064Y-182816009D02*
X123605826Y-182863628D01*
X123605826Y-182863628D02*
X123224874Y-182863628D01*
X124224874Y-183339819D02*
X124224874Y-182673152D01*
X124224874Y-182339819D02*
X124177255Y-182387438D01*
X124177255Y-182387438D02*
X124224874Y-182435057D01*
X124224874Y-182435057D02*
X124272493Y-182387438D01*
X124272493Y-182387438D02*
X124224874Y-182339819D01*
X124224874Y-182339819D02*
X124224874Y-182435057D01*
X125129635Y-183292200D02*
X125034397Y-183339819D01*
X125034397Y-183339819D02*
X124843921Y-183339819D01*
X124843921Y-183339819D02*
X124748683Y-183292200D01*
X124748683Y-183292200D02*
X124701064Y-183244580D01*
X124701064Y-183244580D02*
X124653445Y-183149342D01*
X124653445Y-183149342D02*
X124653445Y-182863628D01*
X124653445Y-182863628D02*
X124701064Y-182768390D01*
X124701064Y-182768390D02*
X124748683Y-182720771D01*
X124748683Y-182720771D02*
X124843921Y-182673152D01*
X124843921Y-182673152D02*
X125034397Y-182673152D01*
X125034397Y-182673152D02*
X125129635Y-182720771D01*
X125701064Y-183339819D02*
X125605826Y-183292200D01*
X125605826Y-183292200D02*
X125558207Y-183244580D01*
X125558207Y-183244580D02*
X125510588Y-183149342D01*
X125510588Y-183149342D02*
X125510588Y-182863628D01*
X125510588Y-182863628D02*
X125558207Y-182768390D01*
X125558207Y-182768390D02*
X125605826Y-182720771D01*
X125605826Y-182720771D02*
X125701064Y-182673152D01*
X125701064Y-182673152D02*
X125843921Y-182673152D01*
X125843921Y-182673152D02*
X125939159Y-182720771D01*
X125939159Y-182720771D02*
X125986778Y-182768390D01*
X125986778Y-182768390D02*
X126034397Y-182863628D01*
X126034397Y-182863628D02*
X126034397Y-183149342D01*
X126034397Y-183149342D02*
X125986778Y-183244580D01*
X125986778Y-183244580D02*
X125939159Y-183292200D01*
X125939159Y-183292200D02*
X125843921Y-183339819D01*
X125843921Y-183339819D02*
X125701064Y-183339819D01*
X127796302Y-183339819D02*
X127462969Y-182863628D01*
X127224874Y-183339819D02*
X127224874Y-182339819D01*
X127224874Y-182339819D02*
X127605826Y-182339819D01*
X127605826Y-182339819D02*
X127701064Y-182387438D01*
X127701064Y-182387438D02*
X127748683Y-182435057D01*
X127748683Y-182435057D02*
X127796302Y-182530295D01*
X127796302Y-182530295D02*
X127796302Y-182673152D01*
X127796302Y-182673152D02*
X127748683Y-182768390D01*
X127748683Y-182768390D02*
X127701064Y-182816009D01*
X127701064Y-182816009D02*
X127605826Y-182863628D01*
X127605826Y-182863628D02*
X127224874Y-182863628D01*
X128129636Y-183339819D02*
X128653445Y-182673152D01*
X128129636Y-182673152D02*
X128653445Y-183339819D01*
X121558207Y-184854580D02*
X121510588Y-184902200D01*
X121510588Y-184902200D02*
X121367731Y-184949819D01*
X121367731Y-184949819D02*
X121272493Y-184949819D01*
X121272493Y-184949819D02*
X121129636Y-184902200D01*
X121129636Y-184902200D02*
X121034398Y-184806961D01*
X121034398Y-184806961D02*
X120986779Y-184711723D01*
X120986779Y-184711723D02*
X120939160Y-184521247D01*
X120939160Y-184521247D02*
X120939160Y-184378390D01*
X120939160Y-184378390D02*
X120986779Y-184187914D01*
X120986779Y-184187914D02*
X121034398Y-184092676D01*
X121034398Y-184092676D02*
X121129636Y-183997438D01*
X121129636Y-183997438D02*
X121272493Y-183949819D01*
X121272493Y-183949819D02*
X121367731Y-183949819D01*
X121367731Y-183949819D02*
X121510588Y-183997438D01*
X121510588Y-183997438D02*
X121558207Y-184045057D01*
X122129636Y-184949819D02*
X122034398Y-184902200D01*
X122034398Y-184902200D02*
X121986779Y-184854580D01*
X121986779Y-184854580D02*
X121939160Y-184759342D01*
X121939160Y-184759342D02*
X121939160Y-184473628D01*
X121939160Y-184473628D02*
X121986779Y-184378390D01*
X121986779Y-184378390D02*
X122034398Y-184330771D01*
X122034398Y-184330771D02*
X122129636Y-184283152D01*
X122129636Y-184283152D02*
X122272493Y-184283152D01*
X122272493Y-184283152D02*
X122367731Y-184330771D01*
X122367731Y-184330771D02*
X122415350Y-184378390D01*
X122415350Y-184378390D02*
X122462969Y-184473628D01*
X122462969Y-184473628D02*
X122462969Y-184759342D01*
X122462969Y-184759342D02*
X122415350Y-184854580D01*
X122415350Y-184854580D02*
X122367731Y-184902200D01*
X122367731Y-184902200D02*
X122272493Y-184949819D01*
X122272493Y-184949819D02*
X122129636Y-184949819D01*
X122891541Y-184283152D02*
X122891541Y-185283152D01*
X122891541Y-184330771D02*
X122986779Y-184283152D01*
X122986779Y-184283152D02*
X123177255Y-184283152D01*
X123177255Y-184283152D02*
X123272493Y-184330771D01*
X123272493Y-184330771D02*
X123320112Y-184378390D01*
X123320112Y-184378390D02*
X123367731Y-184473628D01*
X123367731Y-184473628D02*
X123367731Y-184759342D01*
X123367731Y-184759342D02*
X123320112Y-184854580D01*
X123320112Y-184854580D02*
X123272493Y-184902200D01*
X123272493Y-184902200D02*
X123177255Y-184949819D01*
X123177255Y-184949819D02*
X122986779Y-184949819D01*
X122986779Y-184949819D02*
X122891541Y-184902200D01*
X123701065Y-184283152D02*
X123939160Y-184949819D01*
X124177255Y-184283152D02*
X123939160Y-184949819D01*
X123939160Y-184949819D02*
X123843922Y-185187914D01*
X123843922Y-185187914D02*
X123796303Y-185235533D01*
X123796303Y-185235533D02*
X123701065Y-185283152D01*
X124558208Y-184949819D02*
X124558208Y-184283152D01*
X124558208Y-184473628D02*
X124605827Y-184378390D01*
X124605827Y-184378390D02*
X124653446Y-184330771D01*
X124653446Y-184330771D02*
X124748684Y-184283152D01*
X124748684Y-184283152D02*
X124843922Y-184283152D01*
X125177256Y-184949819D02*
X125177256Y-184283152D01*
X125177256Y-183949819D02*
X125129637Y-183997438D01*
X125129637Y-183997438D02*
X125177256Y-184045057D01*
X125177256Y-184045057D02*
X125224875Y-183997438D01*
X125224875Y-183997438D02*
X125177256Y-183949819D01*
X125177256Y-183949819D02*
X125177256Y-184045057D01*
X126082017Y-184283152D02*
X126082017Y-185092676D01*
X126082017Y-185092676D02*
X126034398Y-185187914D01*
X126034398Y-185187914D02*
X125986779Y-185235533D01*
X125986779Y-185235533D02*
X125891541Y-185283152D01*
X125891541Y-185283152D02*
X125748684Y-185283152D01*
X125748684Y-185283152D02*
X125653446Y-185235533D01*
X126082017Y-184902200D02*
X125986779Y-184949819D01*
X125986779Y-184949819D02*
X125796303Y-184949819D01*
X125796303Y-184949819D02*
X125701065Y-184902200D01*
X125701065Y-184902200D02*
X125653446Y-184854580D01*
X125653446Y-184854580D02*
X125605827Y-184759342D01*
X125605827Y-184759342D02*
X125605827Y-184473628D01*
X125605827Y-184473628D02*
X125653446Y-184378390D01*
X125653446Y-184378390D02*
X125701065Y-184330771D01*
X125701065Y-184330771D02*
X125796303Y-184283152D01*
X125796303Y-184283152D02*
X125986779Y-184283152D01*
X125986779Y-184283152D02*
X126082017Y-184330771D01*
X126558208Y-184949819D02*
X126558208Y-183949819D01*
X126986779Y-184949819D02*
X126986779Y-184426009D01*
X126986779Y-184426009D02*
X126939160Y-184330771D01*
X126939160Y-184330771D02*
X126843922Y-184283152D01*
X126843922Y-184283152D02*
X126701065Y-184283152D01*
X126701065Y-184283152D02*
X126605827Y-184330771D01*
X126605827Y-184330771D02*
X126558208Y-184378390D01*
X127320113Y-184283152D02*
X127701065Y-184283152D01*
X127462970Y-183949819D02*
X127462970Y-184806961D01*
X127462970Y-184806961D02*
X127510589Y-184902200D01*
X127510589Y-184902200D02*
X127605827Y-184949819D01*
X127605827Y-184949819D02*
X127701065Y-184949819D01*
X129082018Y-185330771D02*
X129034399Y-185283152D01*
X129034399Y-185283152D02*
X128939161Y-185140295D01*
X128939161Y-185140295D02*
X128891542Y-185045057D01*
X128891542Y-185045057D02*
X128843923Y-184902200D01*
X128843923Y-184902200D02*
X128796304Y-184664104D01*
X128796304Y-184664104D02*
X128796304Y-184473628D01*
X128796304Y-184473628D02*
X128843923Y-184235533D01*
X128843923Y-184235533D02*
X128891542Y-184092676D01*
X128891542Y-184092676D02*
X128939161Y-183997438D01*
X128939161Y-183997438D02*
X129034399Y-183854580D01*
X129034399Y-183854580D02*
X129082018Y-183806961D01*
X130034399Y-184854580D02*
X129986780Y-184902200D01*
X129986780Y-184902200D02*
X129843923Y-184949819D01*
X129843923Y-184949819D02*
X129748685Y-184949819D01*
X129748685Y-184949819D02*
X129605828Y-184902200D01*
X129605828Y-184902200D02*
X129510590Y-184806961D01*
X129510590Y-184806961D02*
X129462971Y-184711723D01*
X129462971Y-184711723D02*
X129415352Y-184521247D01*
X129415352Y-184521247D02*
X129415352Y-184378390D01*
X129415352Y-184378390D02*
X129462971Y-184187914D01*
X129462971Y-184187914D02*
X129510590Y-184092676D01*
X129510590Y-184092676D02*
X129605828Y-183997438D01*
X129605828Y-183997438D02*
X129748685Y-183949819D01*
X129748685Y-183949819D02*
X129843923Y-183949819D01*
X129843923Y-183949819D02*
X129986780Y-183997438D01*
X129986780Y-183997438D02*
X130034399Y-184045057D01*
X130367733Y-185330771D02*
X130415352Y-185283152D01*
X130415352Y-185283152D02*
X130510590Y-185140295D01*
X130510590Y-185140295D02*
X130558209Y-185045057D01*
X130558209Y-185045057D02*
X130605828Y-184902200D01*
X130605828Y-184902200D02*
X130653447Y-184664104D01*
X130653447Y-184664104D02*
X130653447Y-184473628D01*
X130653447Y-184473628D02*
X130605828Y-184235533D01*
X130605828Y-184235533D02*
X130558209Y-184092676D01*
X130558209Y-184092676D02*
X130510590Y-183997438D01*
X130510590Y-183997438D02*
X130415352Y-183854580D01*
X130415352Y-183854580D02*
X130367733Y-183806961D01*
X121272493Y-185559819D02*
X121272493Y-186274104D01*
X121272493Y-186274104D02*
X121224874Y-186416961D01*
X121224874Y-186416961D02*
X121129636Y-186512200D01*
X121129636Y-186512200D02*
X120986779Y-186559819D01*
X120986779Y-186559819D02*
X120891541Y-186559819D01*
X121891541Y-186559819D02*
X121796303Y-186512200D01*
X121796303Y-186512200D02*
X121748684Y-186464580D01*
X121748684Y-186464580D02*
X121701065Y-186369342D01*
X121701065Y-186369342D02*
X121701065Y-186083628D01*
X121701065Y-186083628D02*
X121748684Y-185988390D01*
X121748684Y-185988390D02*
X121796303Y-185940771D01*
X121796303Y-185940771D02*
X121891541Y-185893152D01*
X121891541Y-185893152D02*
X122034398Y-185893152D01*
X122034398Y-185893152D02*
X122129636Y-185940771D01*
X122129636Y-185940771D02*
X122177255Y-185988390D01*
X122177255Y-185988390D02*
X122224874Y-186083628D01*
X122224874Y-186083628D02*
X122224874Y-186369342D01*
X122224874Y-186369342D02*
X122177255Y-186464580D01*
X122177255Y-186464580D02*
X122129636Y-186512200D01*
X122129636Y-186512200D02*
X122034398Y-186559819D01*
X122034398Y-186559819D02*
X121891541Y-186559819D01*
X122653446Y-185893152D02*
X122653446Y-186559819D01*
X122653446Y-185988390D02*
X122701065Y-185940771D01*
X122701065Y-185940771D02*
X122796303Y-185893152D01*
X122796303Y-185893152D02*
X122939160Y-185893152D01*
X122939160Y-185893152D02*
X123034398Y-185940771D01*
X123034398Y-185940771D02*
X123082017Y-186036009D01*
X123082017Y-186036009D02*
X123082017Y-186559819D01*
X124320113Y-186559819D02*
X124320113Y-185559819D01*
X124320113Y-185559819D02*
X124558208Y-185559819D01*
X124558208Y-185559819D02*
X124701065Y-185607438D01*
X124701065Y-185607438D02*
X124796303Y-185702676D01*
X124796303Y-185702676D02*
X124843922Y-185797914D01*
X124843922Y-185797914D02*
X124891541Y-185988390D01*
X124891541Y-185988390D02*
X124891541Y-186131247D01*
X124891541Y-186131247D02*
X124843922Y-186321723D01*
X124843922Y-186321723D02*
X124796303Y-186416961D01*
X124796303Y-186416961D02*
X124701065Y-186512200D01*
X124701065Y-186512200D02*
X124558208Y-186559819D01*
X124558208Y-186559819D02*
X124320113Y-186559819D01*
X125748684Y-186559819D02*
X125748684Y-186036009D01*
X125748684Y-186036009D02*
X125701065Y-185940771D01*
X125701065Y-185940771D02*
X125605827Y-185893152D01*
X125605827Y-185893152D02*
X125415351Y-185893152D01*
X125415351Y-185893152D02*
X125320113Y-185940771D01*
X125748684Y-186512200D02*
X125653446Y-186559819D01*
X125653446Y-186559819D02*
X125415351Y-186559819D01*
X125415351Y-186559819D02*
X125320113Y-186512200D01*
X125320113Y-186512200D02*
X125272494Y-186416961D01*
X125272494Y-186416961D02*
X125272494Y-186321723D01*
X125272494Y-186321723D02*
X125320113Y-186226485D01*
X125320113Y-186226485D02*
X125415351Y-186178866D01*
X125415351Y-186178866D02*
X125653446Y-186178866D01*
X125653446Y-186178866D02*
X125748684Y-186131247D01*
X126129637Y-185893152D02*
X126320113Y-186559819D01*
X126320113Y-186559819D02*
X126510589Y-186083628D01*
X126510589Y-186083628D02*
X126701065Y-186559819D01*
X126701065Y-186559819D02*
X126891541Y-185893152D01*
X127224875Y-186512200D02*
X127320113Y-186559819D01*
X127320113Y-186559819D02*
X127510589Y-186559819D01*
X127510589Y-186559819D02*
X127605827Y-186512200D01*
X127605827Y-186512200D02*
X127653446Y-186416961D01*
X127653446Y-186416961D02*
X127653446Y-186369342D01*
X127653446Y-186369342D02*
X127605827Y-186274104D01*
X127605827Y-186274104D02*
X127510589Y-186226485D01*
X127510589Y-186226485D02*
X127367732Y-186226485D01*
X127367732Y-186226485D02*
X127272494Y-186178866D01*
X127272494Y-186178866D02*
X127224875Y-186083628D01*
X127224875Y-186083628D02*
X127224875Y-186036009D01*
X127224875Y-186036009D02*
X127272494Y-185940771D01*
X127272494Y-185940771D02*
X127367732Y-185893152D01*
X127367732Y-185893152D02*
X127510589Y-185893152D01*
X127510589Y-185893152D02*
X127605827Y-185940771D01*
X128224875Y-186559819D02*
X128129637Y-186512200D01*
X128129637Y-186512200D02*
X128082018Y-186464580D01*
X128082018Y-186464580D02*
X128034399Y-186369342D01*
X128034399Y-186369342D02*
X128034399Y-186083628D01*
X128034399Y-186083628D02*
X128082018Y-185988390D01*
X128082018Y-185988390D02*
X128129637Y-185940771D01*
X128129637Y-185940771D02*
X128224875Y-185893152D01*
X128224875Y-185893152D02*
X128367732Y-185893152D01*
X128367732Y-185893152D02*
X128462970Y-185940771D01*
X128462970Y-185940771D02*
X128510589Y-185988390D01*
X128510589Y-185988390D02*
X128558208Y-186083628D01*
X128558208Y-186083628D02*
X128558208Y-186369342D01*
X128558208Y-186369342D02*
X128510589Y-186464580D01*
X128510589Y-186464580D02*
X128462970Y-186512200D01*
X128462970Y-186512200D02*
X128367732Y-186559819D01*
X128367732Y-186559819D02*
X128224875Y-186559819D01*
X128986780Y-185893152D02*
X128986780Y-186559819D01*
X128986780Y-185988390D02*
X129034399Y-185940771D01*
X129034399Y-185940771D02*
X129129637Y-185893152D01*
X129129637Y-185893152D02*
X129272494Y-185893152D01*
X129272494Y-185893152D02*
X129367732Y-185940771D01*
X129367732Y-185940771D02*
X129415351Y-186036009D01*
X129415351Y-186036009D02*
X129415351Y-186559819D01*
X130605828Y-185655057D02*
X130653447Y-185607438D01*
X130653447Y-185607438D02*
X130748685Y-185559819D01*
X130748685Y-185559819D02*
X130986780Y-185559819D01*
X130986780Y-185559819D02*
X131082018Y-185607438D01*
X131082018Y-185607438D02*
X131129637Y-185655057D01*
X131129637Y-185655057D02*
X131177256Y-185750295D01*
X131177256Y-185750295D02*
X131177256Y-185845533D01*
X131177256Y-185845533D02*
X131129637Y-185988390D01*
X131129637Y-185988390D02*
X130558209Y-186559819D01*
X130558209Y-186559819D02*
X131177256Y-186559819D01*
X131796304Y-185559819D02*
X131891542Y-185559819D01*
X131891542Y-185559819D02*
X131986780Y-185607438D01*
X131986780Y-185607438D02*
X132034399Y-185655057D01*
X132034399Y-185655057D02*
X132082018Y-185750295D01*
X132082018Y-185750295D02*
X132129637Y-185940771D01*
X132129637Y-185940771D02*
X132129637Y-186178866D01*
X132129637Y-186178866D02*
X132082018Y-186369342D01*
X132082018Y-186369342D02*
X132034399Y-186464580D01*
X132034399Y-186464580D02*
X131986780Y-186512200D01*
X131986780Y-186512200D02*
X131891542Y-186559819D01*
X131891542Y-186559819D02*
X131796304Y-186559819D01*
X131796304Y-186559819D02*
X131701066Y-186512200D01*
X131701066Y-186512200D02*
X131653447Y-186464580D01*
X131653447Y-186464580D02*
X131605828Y-186369342D01*
X131605828Y-186369342D02*
X131558209Y-186178866D01*
X131558209Y-186178866D02*
X131558209Y-185940771D01*
X131558209Y-185940771D02*
X131605828Y-185750295D01*
X131605828Y-185750295D02*
X131653447Y-185655057D01*
X131653447Y-185655057D02*
X131701066Y-185607438D01*
X131701066Y-185607438D02*
X131796304Y-185559819D01*
X132510590Y-185655057D02*
X132558209Y-185607438D01*
X132558209Y-185607438D02*
X132653447Y-185559819D01*
X132653447Y-185559819D02*
X132891542Y-185559819D01*
X132891542Y-185559819D02*
X132986780Y-185607438D01*
X132986780Y-185607438D02*
X133034399Y-185655057D01*
X133034399Y-185655057D02*
X133082018Y-185750295D01*
X133082018Y-185750295D02*
X133082018Y-185845533D01*
X133082018Y-185845533D02*
X133034399Y-185988390D01*
X133034399Y-185988390D02*
X132462971Y-186559819D01*
X132462971Y-186559819D02*
X133082018Y-186559819D01*
X133415352Y-185559819D02*
X134034399Y-185559819D01*
X134034399Y-185559819D02*
X133701066Y-185940771D01*
X133701066Y-185940771D02*
X133843923Y-185940771D01*
X133843923Y-185940771D02*
X133939161Y-185988390D01*
X133939161Y-185988390D02*
X133986780Y-186036009D01*
X133986780Y-186036009D02*
X134034399Y-186131247D01*
X134034399Y-186131247D02*
X134034399Y-186369342D01*
X134034399Y-186369342D02*
X133986780Y-186464580D01*
X133986780Y-186464580D02*
X133939161Y-186512200D01*
X133939161Y-186512200D02*
X133843923Y-186559819D01*
X133843923Y-186559819D02*
X133558209Y-186559819D01*
X133558209Y-186559819D02*
X133462971Y-186512200D01*
X133462971Y-186512200D02*
X133415352Y-186464580D01*
X148672779Y-137410866D02*
X149434684Y-137410866D01*
X109715445Y-139665057D02*
X109620207Y-139617438D01*
X109620207Y-139617438D02*
X109524969Y-139522200D01*
X109524969Y-139522200D02*
X109382112Y-139379342D01*
X109382112Y-139379342D02*
X109286874Y-139331723D01*
X109286874Y-139331723D02*
X109191636Y-139331723D01*
X109239255Y-139569819D02*
X109144017Y-139522200D01*
X109144017Y-139522200D02*
X109048779Y-139426961D01*
X109048779Y-139426961D02*
X109001160Y-139236485D01*
X109001160Y-139236485D02*
X109001160Y-138903152D01*
X109001160Y-138903152D02*
X109048779Y-138712676D01*
X109048779Y-138712676D02*
X109144017Y-138617438D01*
X109144017Y-138617438D02*
X109239255Y-138569819D01*
X109239255Y-138569819D02*
X109429731Y-138569819D01*
X109429731Y-138569819D02*
X109524969Y-138617438D01*
X109524969Y-138617438D02*
X109620207Y-138712676D01*
X109620207Y-138712676D02*
X109667826Y-138903152D01*
X109667826Y-138903152D02*
X109667826Y-139236485D01*
X109667826Y-139236485D02*
X109620207Y-139426961D01*
X109620207Y-139426961D02*
X109524969Y-139522200D01*
X109524969Y-139522200D02*
X109429731Y-139569819D01*
X109429731Y-139569819D02*
X109239255Y-139569819D01*
X110048779Y-139522200D02*
X110191636Y-139569819D01*
X110191636Y-139569819D02*
X110429731Y-139569819D01*
X110429731Y-139569819D02*
X110524969Y-139522200D01*
X110524969Y-139522200D02*
X110572588Y-139474580D01*
X110572588Y-139474580D02*
X110620207Y-139379342D01*
X110620207Y-139379342D02*
X110620207Y-139284104D01*
X110620207Y-139284104D02*
X110572588Y-139188866D01*
X110572588Y-139188866D02*
X110524969Y-139141247D01*
X110524969Y-139141247D02*
X110429731Y-139093628D01*
X110429731Y-139093628D02*
X110239255Y-139046009D01*
X110239255Y-139046009D02*
X110144017Y-138998390D01*
X110144017Y-138998390D02*
X110096398Y-138950771D01*
X110096398Y-138950771D02*
X110048779Y-138855533D01*
X110048779Y-138855533D02*
X110048779Y-138760295D01*
X110048779Y-138760295D02*
X110096398Y-138665057D01*
X110096398Y-138665057D02*
X110144017Y-138617438D01*
X110144017Y-138617438D02*
X110239255Y-138569819D01*
X110239255Y-138569819D02*
X110477350Y-138569819D01*
X110477350Y-138569819D02*
X110620207Y-138617438D01*
X111048779Y-139569819D02*
X111048779Y-138569819D01*
X111048779Y-138569819D02*
X111286874Y-138569819D01*
X111286874Y-138569819D02*
X111429731Y-138617438D01*
X111429731Y-138617438D02*
X111524969Y-138712676D01*
X111524969Y-138712676D02*
X111572588Y-138807914D01*
X111572588Y-138807914D02*
X111620207Y-138998390D01*
X111620207Y-138998390D02*
X111620207Y-139141247D01*
X111620207Y-139141247D02*
X111572588Y-139331723D01*
X111572588Y-139331723D02*
X111524969Y-139426961D01*
X111524969Y-139426961D02*
X111429731Y-139522200D01*
X111429731Y-139522200D02*
X111286874Y-139569819D01*
X111286874Y-139569819D02*
X111048779Y-139569819D01*
X115490666Y-105770819D02*
X115490666Y-106485104D01*
X115490666Y-106485104D02*
X115443047Y-106627961D01*
X115443047Y-106627961D02*
X115347809Y-106723200D01*
X115347809Y-106723200D02*
X115204952Y-106770819D01*
X115204952Y-106770819D02*
X115109714Y-106770819D01*
X116443047Y-105770819D02*
X115966857Y-105770819D01*
X115966857Y-105770819D02*
X115919238Y-106247009D01*
X115919238Y-106247009D02*
X115966857Y-106199390D01*
X115966857Y-106199390D02*
X116062095Y-106151771D01*
X116062095Y-106151771D02*
X116300190Y-106151771D01*
X116300190Y-106151771D02*
X116395428Y-106199390D01*
X116395428Y-106199390D02*
X116443047Y-106247009D01*
X116443047Y-106247009D02*
X116490666Y-106342247D01*
X116490666Y-106342247D02*
X116490666Y-106580342D01*
X116490666Y-106580342D02*
X116443047Y-106675580D01*
X116443047Y-106675580D02*
X116395428Y-106723200D01*
X116395428Y-106723200D02*
X116300190Y-106770819D01*
X116300190Y-106770819D02*
X116062095Y-106770819D01*
X116062095Y-106770819D02*
X115966857Y-106723200D01*
X115966857Y-106723200D02*
X115919238Y-106675580D01*
X105589700Y-116928332D02*
X105637319Y-116785475D01*
X105637319Y-116785475D02*
X105637319Y-116547380D01*
X105637319Y-116547380D02*
X105589700Y-116452142D01*
X105589700Y-116452142D02*
X105542080Y-116404523D01*
X105542080Y-116404523D02*
X105446842Y-116356904D01*
X105446842Y-116356904D02*
X105351604Y-116356904D01*
X105351604Y-116356904D02*
X105256366Y-116404523D01*
X105256366Y-116404523D02*
X105208747Y-116452142D01*
X105208747Y-116452142D02*
X105161128Y-116547380D01*
X105161128Y-116547380D02*
X105113509Y-116737856D01*
X105113509Y-116737856D02*
X105065890Y-116833094D01*
X105065890Y-116833094D02*
X105018271Y-116880713D01*
X105018271Y-116880713D02*
X104923033Y-116928332D01*
X104923033Y-116928332D02*
X104827795Y-116928332D01*
X104827795Y-116928332D02*
X104732557Y-116880713D01*
X104732557Y-116880713D02*
X104684938Y-116833094D01*
X104684938Y-116833094D02*
X104637319Y-116737856D01*
X104637319Y-116737856D02*
X104637319Y-116499761D01*
X104637319Y-116499761D02*
X104684938Y-116356904D01*
X104637319Y-116023570D02*
X105637319Y-115785475D01*
X105637319Y-115785475D02*
X104923033Y-115594999D01*
X104923033Y-115594999D02*
X105637319Y-115404523D01*
X105637319Y-115404523D02*
X104637319Y-115166428D01*
X104732557Y-114833094D02*
X104684938Y-114785475D01*
X104684938Y-114785475D02*
X104637319Y-114690237D01*
X104637319Y-114690237D02*
X104637319Y-114452142D01*
X104637319Y-114452142D02*
X104684938Y-114356904D01*
X104684938Y-114356904D02*
X104732557Y-114309285D01*
X104732557Y-114309285D02*
X104827795Y-114261666D01*
X104827795Y-114261666D02*
X104923033Y-114261666D01*
X104923033Y-114261666D02*
X105065890Y-114309285D01*
X105065890Y-114309285D02*
X105637319Y-114880713D01*
X105637319Y-114880713D02*
X105637319Y-114261666D01*
X128994819Y-169671904D02*
X129804342Y-169671904D01*
X129804342Y-169671904D02*
X129899580Y-169624285D01*
X129899580Y-169624285D02*
X129947200Y-169576666D01*
X129947200Y-169576666D02*
X129994819Y-169481428D01*
X129994819Y-169481428D02*
X129994819Y-169290952D01*
X129994819Y-169290952D02*
X129947200Y-169195714D01*
X129947200Y-169195714D02*
X129899580Y-169148095D01*
X129899580Y-169148095D02*
X129804342Y-169100476D01*
X129804342Y-169100476D02*
X128994819Y-169100476D01*
X128994819Y-168148095D02*
X128994819Y-168624285D01*
X128994819Y-168624285D02*
X129471009Y-168671904D01*
X129471009Y-168671904D02*
X129423390Y-168624285D01*
X129423390Y-168624285D02*
X129375771Y-168529047D01*
X129375771Y-168529047D02*
X129375771Y-168290952D01*
X129375771Y-168290952D02*
X129423390Y-168195714D01*
X129423390Y-168195714D02*
X129471009Y-168148095D01*
X129471009Y-168148095D02*
X129566247Y-168100476D01*
X129566247Y-168100476D02*
X129804342Y-168100476D01*
X129804342Y-168100476D02*
X129899580Y-168148095D01*
X129899580Y-168148095D02*
X129947200Y-168195714D01*
X129947200Y-168195714D02*
X129994819Y-168290952D01*
X129994819Y-168290952D02*
X129994819Y-168529047D01*
X129994819Y-168529047D02*
X129947200Y-168624285D01*
X129947200Y-168624285D02*
X129899580Y-168671904D01*
X130994667Y-156832200D02*
X131137524Y-156879819D01*
X131137524Y-156879819D02*
X131375619Y-156879819D01*
X131375619Y-156879819D02*
X131470857Y-156832200D01*
X131470857Y-156832200D02*
X131518476Y-156784580D01*
X131518476Y-156784580D02*
X131566095Y-156689342D01*
X131566095Y-156689342D02*
X131566095Y-156594104D01*
X131566095Y-156594104D02*
X131518476Y-156498866D01*
X131518476Y-156498866D02*
X131470857Y-156451247D01*
X131470857Y-156451247D02*
X131375619Y-156403628D01*
X131375619Y-156403628D02*
X131185143Y-156356009D01*
X131185143Y-156356009D02*
X131089905Y-156308390D01*
X131089905Y-156308390D02*
X131042286Y-156260771D01*
X131042286Y-156260771D02*
X130994667Y-156165533D01*
X130994667Y-156165533D02*
X130994667Y-156070295D01*
X130994667Y-156070295D02*
X131042286Y-155975057D01*
X131042286Y-155975057D02*
X131089905Y-155927438D01*
X131089905Y-155927438D02*
X131185143Y-155879819D01*
X131185143Y-155879819D02*
X131423238Y-155879819D01*
X131423238Y-155879819D02*
X131566095Y-155927438D01*
X131899429Y-155879819D02*
X132137524Y-156879819D01*
X132137524Y-156879819D02*
X132328000Y-156165533D01*
X132328000Y-156165533D02*
X132518476Y-156879819D01*
X132518476Y-156879819D02*
X132756572Y-155879819D01*
X133661333Y-156879819D02*
X133089905Y-156879819D01*
X133375619Y-156879819D02*
X133375619Y-155879819D01*
X133375619Y-155879819D02*
X133280381Y-156022676D01*
X133280381Y-156022676D02*
X133185143Y-156117914D01*
X133185143Y-156117914D02*
X133089905Y-156165533D01*
X113030095Y-121882819D02*
X113030095Y-122692342D01*
X113030095Y-122692342D02*
X113077714Y-122787580D01*
X113077714Y-122787580D02*
X113125333Y-122835200D01*
X113125333Y-122835200D02*
X113220571Y-122882819D01*
X113220571Y-122882819D02*
X113411047Y-122882819D01*
X113411047Y-122882819D02*
X113506285Y-122835200D01*
X113506285Y-122835200D02*
X113553904Y-122787580D01*
X113553904Y-122787580D02*
X113601523Y-122692342D01*
X113601523Y-122692342D02*
X113601523Y-121882819D01*
X114506285Y-121882819D02*
X114315809Y-121882819D01*
X114315809Y-121882819D02*
X114220571Y-121930438D01*
X114220571Y-121930438D02*
X114172952Y-121978057D01*
X114172952Y-121978057D02*
X114077714Y-122120914D01*
X114077714Y-122120914D02*
X114030095Y-122311390D01*
X114030095Y-122311390D02*
X114030095Y-122692342D01*
X114030095Y-122692342D02*
X114077714Y-122787580D01*
X114077714Y-122787580D02*
X114125333Y-122835200D01*
X114125333Y-122835200D02*
X114220571Y-122882819D01*
X114220571Y-122882819D02*
X114411047Y-122882819D01*
X114411047Y-122882819D02*
X114506285Y-122835200D01*
X114506285Y-122835200D02*
X114553904Y-122787580D01*
X114553904Y-122787580D02*
X114601523Y-122692342D01*
X114601523Y-122692342D02*
X114601523Y-122454247D01*
X114601523Y-122454247D02*
X114553904Y-122359009D01*
X114553904Y-122359009D02*
X114506285Y-122311390D01*
X114506285Y-122311390D02*
X114411047Y-122263771D01*
X114411047Y-122263771D02*
X114220571Y-122263771D01*
X114220571Y-122263771D02*
X114125333Y-122311390D01*
X114125333Y-122311390D02*
X114077714Y-122359009D01*
X114077714Y-122359009D02*
X114030095Y-122454247D01*
X134571666Y-104694819D02*
X134571666Y-105409104D01*
X134571666Y-105409104D02*
X134524047Y-105551961D01*
X134524047Y-105551961D02*
X134428809Y-105647200D01*
X134428809Y-105647200D02*
X134285952Y-105694819D01*
X134285952Y-105694819D02*
X134190714Y-105694819D01*
X135000238Y-104790057D02*
X135047857Y-104742438D01*
X135047857Y-104742438D02*
X135143095Y-104694819D01*
X135143095Y-104694819D02*
X135381190Y-104694819D01*
X135381190Y-104694819D02*
X135476428Y-104742438D01*
X135476428Y-104742438D02*
X135524047Y-104790057D01*
X135524047Y-104790057D02*
X135571666Y-104885295D01*
X135571666Y-104885295D02*
X135571666Y-104980533D01*
X135571666Y-104980533D02*
X135524047Y-105123390D01*
X135524047Y-105123390D02*
X134952619Y-105694819D01*
X134952619Y-105694819D02*
X135571666Y-105694819D01*
X118110095Y-135598819D02*
X118110095Y-136408342D01*
X118110095Y-136408342D02*
X118157714Y-136503580D01*
X118157714Y-136503580D02*
X118205333Y-136551200D01*
X118205333Y-136551200D02*
X118300571Y-136598819D01*
X118300571Y-136598819D02*
X118491047Y-136598819D01*
X118491047Y-136598819D02*
X118586285Y-136551200D01*
X118586285Y-136551200D02*
X118633904Y-136503580D01*
X118633904Y-136503580D02*
X118681523Y-136408342D01*
X118681523Y-136408342D02*
X118681523Y-135598819D01*
X119681523Y-136598819D02*
X119110095Y-136598819D01*
X119395809Y-136598819D02*
X119395809Y-135598819D01*
X119395809Y-135598819D02*
X119300571Y-135741676D01*
X119300571Y-135741676D02*
X119205333Y-135836914D01*
X119205333Y-135836914D02*
X119110095Y-135884533D01*
X123491666Y-112059819D02*
X123491666Y-112774104D01*
X123491666Y-112774104D02*
X123444047Y-112916961D01*
X123444047Y-112916961D02*
X123348809Y-113012200D01*
X123348809Y-113012200D02*
X123205952Y-113059819D01*
X123205952Y-113059819D02*
X123110714Y-113059819D01*
X124396428Y-112393152D02*
X124396428Y-113059819D01*
X124158333Y-112012200D02*
X123920238Y-112726485D01*
X123920238Y-112726485D02*
X124539285Y-112726485D01*
D11*
G36*
X135595208Y-113448739D02*
G01*
X135676361Y-113529892D01*
X135717898Y-113612966D01*
X135762693Y-113792145D01*
X135762693Y-113922692D01*
X135717898Y-114101870D01*
X135676361Y-114184944D01*
X135595207Y-114266098D01*
X135471247Y-114307419D01*
X135291265Y-114307419D01*
X135291265Y-113407419D01*
X135471247Y-113407419D01*
X135595208Y-113448739D01*
G37*
G36*
X136595208Y-113448739D02*
G01*
X136676361Y-113529892D01*
X136717898Y-113612966D01*
X136762693Y-113792145D01*
X136762693Y-113922692D01*
X136717898Y-114101870D01*
X136676361Y-114184944D01*
X136595207Y-114266098D01*
X136471247Y-114307419D01*
X136291265Y-114307419D01*
X136291265Y-113407419D01*
X136471247Y-113407419D01*
X136595208Y-113448739D01*
G37*
G36*
X139497361Y-113446130D02*
G01*
X139533505Y-113482275D01*
X139575041Y-113565347D01*
X139619836Y-113744525D01*
X139619836Y-113970311D01*
X139575041Y-114149489D01*
X139533505Y-114232561D01*
X139497359Y-114268708D01*
X139419938Y-114307419D01*
X139348307Y-114307419D01*
X139270884Y-114268708D01*
X139234738Y-114232561D01*
X139193203Y-114149491D01*
X139148408Y-113970311D01*
X139148408Y-113744526D01*
X139193203Y-113565346D01*
X139234738Y-113482274D01*
X139270883Y-113446130D01*
X139348307Y-113407419D01*
X139419938Y-113407419D01*
X139497361Y-113446130D01*
G37*
G36*
X140497361Y-113827082D02*
G01*
X140533505Y-113863227D01*
X140572217Y-113940650D01*
X140572217Y-114155138D01*
X140533505Y-114232561D01*
X140497359Y-114268708D01*
X140419938Y-114307419D01*
X140253069Y-114307419D01*
X140175646Y-114268708D01*
X140139500Y-114232561D01*
X140100789Y-114155138D01*
X140100789Y-113940650D01*
X140139500Y-113863226D01*
X140175645Y-113827082D01*
X140253069Y-113788371D01*
X140419938Y-113788371D01*
X140497361Y-113827082D01*
G37*
G36*
X140815074Y-114550276D02*
G01*
X134048408Y-114550276D01*
X134048408Y-113643133D01*
X134191265Y-113643133D01*
X134195718Y-113653885D01*
X134196544Y-113665494D01*
X134244162Y-113760731D01*
X134250379Y-113766123D01*
X134253529Y-113773726D01*
X134301147Y-113821345D01*
X134308750Y-113824494D01*
X134314142Y-113830711D01*
X134409380Y-113878330D01*
X134415048Y-113878732D01*
X134419614Y-113882116D01*
X134604766Y-113928404D01*
X134687837Y-113969939D01*
X134723981Y-114006084D01*
X134762693Y-114083507D01*
X134762693Y-114155138D01*
X134723981Y-114232561D01*
X134687835Y-114268708D01*
X134610414Y-114307419D01*
X134392235Y-114307419D01*
X134257076Y-114262366D01*
X134218905Y-114265079D01*
X134193831Y-114293989D01*
X134196544Y-114332160D01*
X134225454Y-114357234D01*
X134368310Y-114404853D01*
X134376518Y-114404269D01*
X134384122Y-114407419D01*
X134622217Y-114407419D01*
X134632969Y-114402965D01*
X134644578Y-114402140D01*
X134734021Y-114357419D01*
X135191265Y-114357419D01*
X135205910Y-114392774D01*
X135241265Y-114407419D01*
X135479360Y-114407419D01*
X135486963Y-114404269D01*
X135495171Y-114404853D01*
X135637473Y-114357419D01*
X136191265Y-114357419D01*
X136205910Y-114392774D01*
X136241265Y-114407419D01*
X136479360Y-114407419D01*
X136486963Y-114404269D01*
X136495171Y-114404853D01*
X136637473Y-114357419D01*
X137143646Y-114357419D01*
X137158291Y-114392774D01*
X137193646Y-114407419D01*
X137479360Y-114407419D01*
X137765074Y-114407419D01*
X137800429Y-114392774D01*
X137815074Y-114357419D01*
X137800429Y-114322064D01*
X137765074Y-114307419D01*
X137529360Y-114307419D01*
X137529360Y-114262179D01*
X138048408Y-114262179D01*
X138063052Y-114297535D01*
X138110671Y-114345155D01*
X138118274Y-114348304D01*
X138123666Y-114354521D01*
X138218904Y-114402140D01*
X138230512Y-114402965D01*
X138241265Y-114407419D01*
X138526979Y-114407419D01*
X138537731Y-114402965D01*
X138549340Y-114402140D01*
X138644577Y-114354522D01*
X138649968Y-114348304D01*
X138657573Y-114345155D01*
X138705192Y-114297535D01*
X138708340Y-114289932D01*
X138714557Y-114284541D01*
X138762176Y-114189303D01*
X138763001Y-114177694D01*
X138767455Y-114166942D01*
X138767455Y-113976466D01*
X139048408Y-113976466D01*
X139050834Y-113982322D01*
X139049901Y-113988593D01*
X139097520Y-114179069D01*
X139100903Y-114183634D01*
X139101306Y-114189303D01*
X139148924Y-114284540D01*
X139155140Y-114289931D01*
X139158290Y-114297535D01*
X139205909Y-114345155D01*
X139213512Y-114348304D01*
X139218904Y-114354521D01*
X139314142Y-114402140D01*
X139325750Y-114402965D01*
X139336503Y-114407419D01*
X139431741Y-114407419D01*
X139442493Y-114402965D01*
X139454102Y-114402140D01*
X139549339Y-114354522D01*
X139554730Y-114348304D01*
X139562335Y-114345155D01*
X139609954Y-114297535D01*
X139613102Y-114289932D01*
X139619319Y-114284541D01*
X139666938Y-114189303D01*
X139667340Y-114183634D01*
X139670724Y-114179069D01*
X139673756Y-114166942D01*
X140000789Y-114166942D01*
X140005242Y-114177694D01*
X140006068Y-114189303D01*
X140053686Y-114284540D01*
X140059902Y-114289931D01*
X140063052Y-114297535D01*
X140110671Y-114345155D01*
X140118274Y-114348304D01*
X140123666Y-114354521D01*
X140218904Y-114402140D01*
X140230512Y-114402965D01*
X140241265Y-114407419D01*
X140431741Y-114407419D01*
X140442493Y-114402965D01*
X140454102Y-114402140D01*
X140549339Y-114354522D01*
X140554730Y-114348304D01*
X140562335Y-114345155D01*
X140609954Y-114297535D01*
X140613102Y-114289932D01*
X140619319Y-114284541D01*
X140666938Y-114189303D01*
X140667763Y-114177694D01*
X140672217Y-114166942D01*
X140672217Y-113928847D01*
X140667763Y-113918094D01*
X140666938Y-113906486D01*
X140619319Y-113811248D01*
X140613102Y-113805856D01*
X140609953Y-113798253D01*
X140562334Y-113750635D01*
X140554731Y-113747485D01*
X140549339Y-113741268D01*
X140454102Y-113693650D01*
X140442493Y-113692824D01*
X140431741Y-113688371D01*
X140241265Y-113688371D01*
X140230512Y-113692824D01*
X140218904Y-113693650D01*
X140123666Y-113741269D01*
X140118274Y-113747485D01*
X140111223Y-113750406D01*
X140144814Y-113616044D01*
X140232504Y-113484508D01*
X140270883Y-113446130D01*
X140348307Y-113407419D01*
X140526979Y-113407419D01*
X140562334Y-113392774D01*
X140576979Y-113357419D01*
X140562334Y-113322064D01*
X140526979Y-113307419D01*
X140336503Y-113307419D01*
X140325750Y-113311872D01*
X140314142Y-113312698D01*
X140218904Y-113360317D01*
X140213512Y-113366533D01*
X140205909Y-113369683D01*
X140158291Y-113417302D01*
X140156321Y-113422057D01*
X140152044Y-113424922D01*
X140056805Y-113567779D01*
X140055107Y-113576360D01*
X140049901Y-113583387D01*
X140002282Y-113773863D01*
X140003215Y-113780133D01*
X140000789Y-113785990D01*
X140000789Y-114166942D01*
X139673756Y-114166942D01*
X139718343Y-113988593D01*
X139717409Y-113982322D01*
X139719836Y-113976466D01*
X139719836Y-113738371D01*
X139717409Y-113732514D01*
X139718343Y-113726244D01*
X139670724Y-113535768D01*
X139667340Y-113531202D01*
X139666938Y-113525534D01*
X139619319Y-113430296D01*
X139613102Y-113424904D01*
X139609953Y-113417301D01*
X139562334Y-113369683D01*
X139554731Y-113366533D01*
X139549339Y-113360316D01*
X139454102Y-113312698D01*
X139442493Y-113311872D01*
X139431741Y-113307419D01*
X139336503Y-113307419D01*
X139325750Y-113311872D01*
X139314142Y-113312698D01*
X139218904Y-113360317D01*
X139213512Y-113366533D01*
X139205909Y-113369683D01*
X139158291Y-113417302D01*
X139155141Y-113424904D01*
X139148924Y-113430297D01*
X139101306Y-113525534D01*
X139100903Y-113531202D01*
X139097520Y-113535768D01*
X139049901Y-113726244D01*
X139050834Y-113732514D01*
X139048408Y-113738371D01*
X139048408Y-113976466D01*
X138767455Y-113976466D01*
X138767455Y-113928847D01*
X138763001Y-113918094D01*
X138762176Y-113906486D01*
X138714557Y-113811248D01*
X138708340Y-113805856D01*
X138705191Y-113798253D01*
X138657572Y-113750635D01*
X138649969Y-113747485D01*
X138644577Y-113741268D01*
X138549340Y-113693650D01*
X138537731Y-113692824D01*
X138526979Y-113688371D01*
X138494310Y-113688371D01*
X138755084Y-113390344D01*
X138760721Y-113373673D01*
X138767455Y-113357419D01*
X138766774Y-113355776D01*
X138767344Y-113354093D01*
X138759543Y-113338319D01*
X138752810Y-113322064D01*
X138751168Y-113321383D01*
X138750380Y-113319790D01*
X138733709Y-113314152D01*
X138717455Y-113307419D01*
X138098408Y-113307419D01*
X138063053Y-113322064D01*
X138048408Y-113357419D01*
X138063053Y-113392774D01*
X138098408Y-113407419D01*
X138607267Y-113407419D01*
X138346493Y-113705446D01*
X138340855Y-113722116D01*
X138334122Y-113738371D01*
X138334802Y-113740013D01*
X138334233Y-113741697D01*
X138342033Y-113757470D01*
X138348767Y-113773726D01*
X138350408Y-113774406D01*
X138351197Y-113776000D01*
X138367867Y-113781637D01*
X138384122Y-113788371D01*
X138515176Y-113788371D01*
X138592599Y-113827082D01*
X138628743Y-113863227D01*
X138667455Y-113940650D01*
X138667455Y-114155138D01*
X138628743Y-114232561D01*
X138592597Y-114268708D01*
X138515176Y-114307419D01*
X138253069Y-114307419D01*
X138175646Y-114268708D01*
X138133764Y-114226825D01*
X138098409Y-114212180D01*
X138063053Y-114226824D01*
X138048408Y-114262179D01*
X137529360Y-114262179D01*
X137529360Y-113357419D01*
X137527390Y-113352663D01*
X137528389Y-113347613D01*
X137520286Y-113335513D01*
X137514715Y-113322064D01*
X137509960Y-113320094D01*
X137507095Y-113315816D01*
X137492809Y-113312990D01*
X137479360Y-113307419D01*
X137474604Y-113309388D01*
X137469554Y-113308390D01*
X137457455Y-113316492D01*
X137444005Y-113322064D01*
X137442035Y-113326819D01*
X137437758Y-113329684D01*
X137345263Y-113468424D01*
X137259267Y-113554421D01*
X137171285Y-113598412D01*
X137146212Y-113627322D01*
X137148925Y-113665494D01*
X137177835Y-113690567D01*
X137216007Y-113687854D01*
X137311244Y-113640236D01*
X137316636Y-113634018D01*
X137324239Y-113630869D01*
X137419477Y-113535631D01*
X137421446Y-113530876D01*
X137425725Y-113528011D01*
X137429360Y-113522558D01*
X137429360Y-114307419D01*
X137193646Y-114307419D01*
X137158291Y-114322064D01*
X137143646Y-114357419D01*
X136637473Y-114357419D01*
X136638028Y-114357234D01*
X136646819Y-114349609D01*
X136657573Y-114345155D01*
X136752811Y-114249916D01*
X136755960Y-114242312D01*
X136762176Y-114236922D01*
X136809795Y-114141684D01*
X136810197Y-114136015D01*
X136813581Y-114131450D01*
X136861200Y-113940974D01*
X136860266Y-113934703D01*
X136862693Y-113928847D01*
X136862693Y-113785990D01*
X136860266Y-113780133D01*
X136861200Y-113773863D01*
X136813581Y-113583387D01*
X136810197Y-113578821D01*
X136809795Y-113573153D01*
X136762176Y-113477915D01*
X136755959Y-113472523D01*
X136752810Y-113464921D01*
X136657572Y-113369683D01*
X136646819Y-113365229D01*
X136638028Y-113357604D01*
X136495171Y-113309985D01*
X136486963Y-113310568D01*
X136479360Y-113307419D01*
X136241265Y-113307419D01*
X136205910Y-113322064D01*
X136191265Y-113357419D01*
X136191265Y-114357419D01*
X135637473Y-114357419D01*
X135638028Y-114357234D01*
X135646819Y-114349609D01*
X135657573Y-114345155D01*
X135752811Y-114249916D01*
X135755960Y-114242312D01*
X135762176Y-114236922D01*
X135809795Y-114141684D01*
X135810197Y-114136015D01*
X135813581Y-114131450D01*
X135861200Y-113940974D01*
X135860266Y-113934703D01*
X135862693Y-113928847D01*
X135862693Y-113785990D01*
X135860266Y-113780133D01*
X135861200Y-113773863D01*
X135813581Y-113583387D01*
X135810197Y-113578821D01*
X135809795Y-113573153D01*
X135762176Y-113477915D01*
X135755959Y-113472523D01*
X135752810Y-113464921D01*
X135657572Y-113369683D01*
X135646819Y-113365229D01*
X135638028Y-113357604D01*
X135495171Y-113309985D01*
X135486963Y-113310568D01*
X135479360Y-113307419D01*
X135241265Y-113307419D01*
X135205910Y-113322064D01*
X135191265Y-113357419D01*
X135191265Y-114357419D01*
X134734021Y-114357419D01*
X134739815Y-114354522D01*
X134745206Y-114348304D01*
X134752811Y-114345155D01*
X134800430Y-114297535D01*
X134803578Y-114289932D01*
X134809795Y-114284541D01*
X134857414Y-114189303D01*
X134858239Y-114177694D01*
X134862693Y-114166942D01*
X134862693Y-114071704D01*
X134858239Y-114060951D01*
X134857414Y-114049343D01*
X134809795Y-113954105D01*
X134803578Y-113948713D01*
X134800429Y-113941110D01*
X134752810Y-113893492D01*
X134745207Y-113890342D01*
X134739815Y-113884125D01*
X134644578Y-113836507D01*
X134638909Y-113836104D01*
X134634344Y-113832721D01*
X134449193Y-113786433D01*
X134366121Y-113744897D01*
X134329976Y-113708753D01*
X134291265Y-113631330D01*
X134291265Y-113559697D01*
X134329976Y-113482274D01*
X134366121Y-113446130D01*
X134443545Y-113407419D01*
X134661723Y-113407419D01*
X134796881Y-113452472D01*
X134835053Y-113449759D01*
X134860127Y-113420849D01*
X134857413Y-113382677D01*
X134828504Y-113357604D01*
X134685647Y-113309985D01*
X134677439Y-113310568D01*
X134669836Y-113307419D01*
X134431741Y-113307419D01*
X134420988Y-113311872D01*
X134409380Y-113312698D01*
X134314142Y-113360317D01*
X134308750Y-113366533D01*
X134301147Y-113369683D01*
X134253529Y-113417302D01*
X134250379Y-113424904D01*
X134244162Y-113430297D01*
X134196544Y-113525534D01*
X134195718Y-113537142D01*
X134191265Y-113547895D01*
X134191265Y-113643133D01*
X134048408Y-113643133D01*
X134048408Y-113164562D01*
X140815074Y-113164562D01*
X140815074Y-114550276D01*
G37*
D12*
X151431666Y-139662819D02*
X151431666Y-140377104D01*
X151431666Y-140377104D02*
X151384047Y-140519961D01*
X151384047Y-140519961D02*
X151288809Y-140615200D01*
X151288809Y-140615200D02*
X151145952Y-140662819D01*
X151145952Y-140662819D02*
X151050714Y-140662819D01*
X152336428Y-139662819D02*
X152145952Y-139662819D01*
X152145952Y-139662819D02*
X152050714Y-139710438D01*
X152050714Y-139710438D02*
X152003095Y-139758057D01*
X152003095Y-139758057D02*
X151907857Y-139900914D01*
X151907857Y-139900914D02*
X151860238Y-140091390D01*
X151860238Y-140091390D02*
X151860238Y-140472342D01*
X151860238Y-140472342D02*
X151907857Y-140567580D01*
X151907857Y-140567580D02*
X151955476Y-140615200D01*
X151955476Y-140615200D02*
X152050714Y-140662819D01*
X152050714Y-140662819D02*
X152241190Y-140662819D01*
X152241190Y-140662819D02*
X152336428Y-140615200D01*
X152336428Y-140615200D02*
X152384047Y-140567580D01*
X152384047Y-140567580D02*
X152431666Y-140472342D01*
X152431666Y-140472342D02*
X152431666Y-140234247D01*
X152431666Y-140234247D02*
X152384047Y-140139009D01*
X152384047Y-140139009D02*
X152336428Y-140091390D01*
X152336428Y-140091390D02*
X152241190Y-140043771D01*
X152241190Y-140043771D02*
X152050714Y-140043771D01*
X152050714Y-140043771D02*
X151955476Y-140091390D01*
X151955476Y-140091390D02*
X151907857Y-140139009D01*
X151907857Y-140139009D02*
X151860238Y-140234247D01*
X150494700Y-116878332D02*
X150542319Y-116735475D01*
X150542319Y-116735475D02*
X150542319Y-116497380D01*
X150542319Y-116497380D02*
X150494700Y-116402142D01*
X150494700Y-116402142D02*
X150447080Y-116354523D01*
X150447080Y-116354523D02*
X150351842Y-116306904D01*
X150351842Y-116306904D02*
X150256604Y-116306904D01*
X150256604Y-116306904D02*
X150161366Y-116354523D01*
X150161366Y-116354523D02*
X150113747Y-116402142D01*
X150113747Y-116402142D02*
X150066128Y-116497380D01*
X150066128Y-116497380D02*
X150018509Y-116687856D01*
X150018509Y-116687856D02*
X149970890Y-116783094D01*
X149970890Y-116783094D02*
X149923271Y-116830713D01*
X149923271Y-116830713D02*
X149828033Y-116878332D01*
X149828033Y-116878332D02*
X149732795Y-116878332D01*
X149732795Y-116878332D02*
X149637557Y-116830713D01*
X149637557Y-116830713D02*
X149589938Y-116783094D01*
X149589938Y-116783094D02*
X149542319Y-116687856D01*
X149542319Y-116687856D02*
X149542319Y-116449761D01*
X149542319Y-116449761D02*
X149589938Y-116306904D01*
X149542319Y-115973570D02*
X150542319Y-115735475D01*
X150542319Y-115735475D02*
X149828033Y-115544999D01*
X149828033Y-115544999D02*
X150542319Y-115354523D01*
X150542319Y-115354523D02*
X149542319Y-115116428D01*
X149542319Y-114830713D02*
X149542319Y-114211666D01*
X149542319Y-114211666D02*
X149923271Y-114544999D01*
X149923271Y-114544999D02*
X149923271Y-114402142D01*
X149923271Y-114402142D02*
X149970890Y-114306904D01*
X149970890Y-114306904D02*
X150018509Y-114259285D01*
X150018509Y-114259285D02*
X150113747Y-114211666D01*
X150113747Y-114211666D02*
X150351842Y-114211666D01*
X150351842Y-114211666D02*
X150447080Y-114259285D01*
X150447080Y-114259285D02*
X150494700Y-114306904D01*
X150494700Y-114306904D02*
X150542319Y-114402142D01*
X150542319Y-114402142D02*
X150542319Y-114687856D01*
X150542319Y-114687856D02*
X150494700Y-114783094D01*
X150494700Y-114783094D02*
X150447080Y-114830713D01*
X135108095Y-122898819D02*
X135108095Y-123708342D01*
X135108095Y-123708342D02*
X135155714Y-123803580D01*
X135155714Y-123803580D02*
X135203333Y-123851200D01*
X135203333Y-123851200D02*
X135298571Y-123898819D01*
X135298571Y-123898819D02*
X135489047Y-123898819D01*
X135489047Y-123898819D02*
X135584285Y-123851200D01*
X135584285Y-123851200D02*
X135631904Y-123803580D01*
X135631904Y-123803580D02*
X135679523Y-123708342D01*
X135679523Y-123708342D02*
X135679523Y-122898819D01*
X136108095Y-122994057D02*
X136155714Y-122946438D01*
X136155714Y-122946438D02*
X136250952Y-122898819D01*
X136250952Y-122898819D02*
X136489047Y-122898819D01*
X136489047Y-122898819D02*
X136584285Y-122946438D01*
X136584285Y-122946438D02*
X136631904Y-122994057D01*
X136631904Y-122994057D02*
X136679523Y-123089295D01*
X136679523Y-123089295D02*
X136679523Y-123184533D01*
X136679523Y-123184533D02*
X136631904Y-123327390D01*
X136631904Y-123327390D02*
X136060476Y-123898819D01*
X136060476Y-123898819D02*
X136679523Y-123898819D01*
X148997200Y-125285332D02*
X149044819Y-125142475D01*
X149044819Y-125142475D02*
X149044819Y-124904380D01*
X149044819Y-124904380D02*
X148997200Y-124809142D01*
X148997200Y-124809142D02*
X148949580Y-124761523D01*
X148949580Y-124761523D02*
X148854342Y-124713904D01*
X148854342Y-124713904D02*
X148759104Y-124713904D01*
X148759104Y-124713904D02*
X148663866Y-124761523D01*
X148663866Y-124761523D02*
X148616247Y-124809142D01*
X148616247Y-124809142D02*
X148568628Y-124904380D01*
X148568628Y-124904380D02*
X148521009Y-125094856D01*
X148521009Y-125094856D02*
X148473390Y-125190094D01*
X148473390Y-125190094D02*
X148425771Y-125237713D01*
X148425771Y-125237713D02*
X148330533Y-125285332D01*
X148330533Y-125285332D02*
X148235295Y-125285332D01*
X148235295Y-125285332D02*
X148140057Y-125237713D01*
X148140057Y-125237713D02*
X148092438Y-125190094D01*
X148092438Y-125190094D02*
X148044819Y-125094856D01*
X148044819Y-125094856D02*
X148044819Y-124856761D01*
X148044819Y-124856761D02*
X148092438Y-124713904D01*
X148044819Y-124380570D02*
X149044819Y-124142475D01*
X149044819Y-124142475D02*
X148330533Y-123951999D01*
X148330533Y-123951999D02*
X149044819Y-123761523D01*
X149044819Y-123761523D02*
X148044819Y-123523428D01*
X148378152Y-122713904D02*
X149044819Y-122713904D01*
X147997200Y-122951999D02*
X148711485Y-123190094D01*
X148711485Y-123190094D02*
X148711485Y-122571047D01*
X144446666Y-120104819D02*
X144446666Y-120819104D01*
X144446666Y-120819104D02*
X144399047Y-120961961D01*
X144399047Y-120961961D02*
X144303809Y-121057200D01*
X144303809Y-121057200D02*
X144160952Y-121104819D01*
X144160952Y-121104819D02*
X144065714Y-121104819D01*
X145446666Y-121104819D02*
X144875238Y-121104819D01*
X145160952Y-121104819D02*
X145160952Y-120104819D01*
X145160952Y-120104819D02*
X145065714Y-120247676D01*
X145065714Y-120247676D02*
X144970476Y-120342914D01*
X144970476Y-120342914D02*
X144875238Y-120390533D01*
X107950095Y-135598819D02*
X107950095Y-136408342D01*
X107950095Y-136408342D02*
X107997714Y-136503580D01*
X107997714Y-136503580D02*
X108045333Y-136551200D01*
X108045333Y-136551200D02*
X108140571Y-136598819D01*
X108140571Y-136598819D02*
X108331047Y-136598819D01*
X108331047Y-136598819D02*
X108426285Y-136551200D01*
X108426285Y-136551200D02*
X108473904Y-136503580D01*
X108473904Y-136503580D02*
X108521523Y-136408342D01*
X108521523Y-136408342D02*
X108521523Y-135598819D01*
X109426285Y-135932152D02*
X109426285Y-136598819D01*
X109188190Y-135551200D02*
X108950095Y-136265485D01*
X108950095Y-136265485D02*
X109569142Y-136265485D01*
D13*
X117774000Y-104526000D02*
X116664000Y-104526000D01*
X115574000Y-105576000D02*
X116074000Y-105576000D01*
X114984000Y-100816000D02*
X113874000Y-100816000D01*
X115824000Y-105076000D02*
X115574000Y-105576000D01*
X116074000Y-105576000D02*
X115824000Y-105076000D01*
X117774000Y-100816000D02*
X116664000Y-100816000D01*
X114984000Y-104526000D02*
X113874000Y-104526000D01*
X112622064Y-115035000D02*
X112167936Y-115035000D01*
X112622064Y-113565000D02*
X112167936Y-113565000D01*
X128865000Y-139861252D02*
X128865000Y-139338748D01*
X130335000Y-139861252D02*
X130335000Y-139338748D01*
X121185000Y-129801252D02*
X121185000Y-129278748D01*
X122655000Y-129801252D02*
X122655000Y-129278748D01*
X123900000Y-135030242D02*
X123900000Y-134209758D01*
X125020000Y-135030242D02*
X125020000Y-134209758D01*
X103912936Y-151665000D02*
X104367064Y-151665000D01*
X103912936Y-153135000D02*
X104367064Y-153135000D01*
X121185000Y-119641252D02*
X121185000Y-119118748D01*
X122655000Y-119641252D02*
X122655000Y-119118748D01*
X104875000Y-146738748D02*
X104875000Y-147261252D01*
X103405000Y-146738748D02*
X103405000Y-147261252D01*
X100802500Y-119455000D02*
X104702500Y-119455000D01*
X100802500Y-119455000D02*
X100802500Y-111735000D01*
X107302500Y-119455000D02*
X107812500Y-119455000D01*
X107812500Y-119455000D02*
X107812500Y-118935000D01*
X104472500Y-118935000D02*
X104702500Y-118935000D01*
X104472500Y-118935000D02*
X104472500Y-118395000D01*
X107302500Y-118935000D02*
X107812500Y-118935000D01*
X104472500Y-117295000D02*
X104472500Y-113895000D01*
X104472500Y-112795000D02*
X104472500Y-112255000D01*
X104472500Y-112255000D02*
X104702500Y-112255000D01*
X107302500Y-112255000D02*
X107812500Y-112255000D01*
X107812500Y-112255000D02*
X107812500Y-111735000D01*
X100802500Y-111735000D02*
X104702500Y-111735000D01*
X107302500Y-111735000D02*
X107812500Y-111735000D01*
X131345000Y-134881252D02*
X131345000Y-134358748D01*
X132815000Y-134881252D02*
X132815000Y-134358748D01*
X111630000Y-143925000D02*
X111630000Y-141050000D01*
X111630000Y-143925000D02*
X111630000Y-145425000D01*
X108410000Y-143925000D02*
X108410000Y-142425000D01*
X108410000Y-143925000D02*
X108410000Y-145425000D01*
X115035000Y-146810436D02*
X115035000Y-147264564D01*
X113565000Y-146810436D02*
X113565000Y-147264564D01*
X102135000Y-179410000D02*
X102435000Y-179410000D01*
X102135000Y-179410000D02*
X102135000Y-158410000D01*
X104535000Y-179410000D02*
X104935000Y-179410000D01*
X104802000Y-179410000D02*
X104802000Y-176403000D01*
X107135000Y-179410000D02*
X107535000Y-179410000D01*
X109635000Y-179410000D02*
X110035000Y-179410000D01*
X112235000Y-179410000D02*
X112635000Y-179410000D01*
X114735000Y-179410000D02*
X115135000Y-179410000D01*
X117235000Y-179410000D02*
X117635000Y-179410000D01*
X119835000Y-179410000D02*
X120235000Y-179410000D01*
X122335000Y-179410000D02*
X122735000Y-179410000D01*
X124935000Y-179410000D02*
X125335000Y-179410000D01*
X127435000Y-179410000D02*
X127835000Y-179410000D01*
X129935000Y-179410000D02*
X130335000Y-179410000D01*
X132535000Y-179410000D02*
X132935000Y-179410000D01*
X135035000Y-179410000D02*
X135435000Y-179410000D01*
X137635000Y-179410000D02*
X138035000Y-179410000D01*
X140135000Y-179410000D02*
X140535000Y-179410000D01*
X142735000Y-179410000D02*
X143135000Y-179410000D01*
X145235000Y-179410000D02*
X145635000Y-179410000D01*
X147735000Y-179410000D02*
X148135000Y-179410000D01*
X150335000Y-179410000D02*
X150735000Y-179410000D01*
X104802000Y-176403000D02*
X102135000Y-176403000D01*
X153135000Y-172610000D02*
X153135000Y-179410000D01*
X153135000Y-170410000D02*
X153135000Y-170010000D01*
X153135000Y-167810000D02*
X153135000Y-167410000D01*
X102135000Y-158410000D02*
X102435000Y-158410000D01*
X104535000Y-158410000D02*
X104935000Y-158410000D01*
X107135000Y-158410000D02*
X107535000Y-158410000D01*
X109635000Y-158410000D02*
X110035000Y-158410000D01*
X112235000Y-158410000D02*
X112635000Y-158410000D01*
X114735000Y-158410000D02*
X115135000Y-158410000D01*
X117235000Y-158410000D02*
X117635000Y-158410000D01*
X119835000Y-158410000D02*
X120235000Y-158410000D01*
X122335000Y-158410000D02*
X122735000Y-158410000D01*
X124935000Y-158410000D02*
X125335000Y-158410000D01*
X127435000Y-158410000D02*
X127835000Y-158410000D01*
X129935000Y-158410000D02*
X130335000Y-158410000D01*
X132535000Y-158410000D02*
X132935000Y-158410000D01*
X135035000Y-158410000D02*
X135435000Y-158410000D01*
X137635000Y-158410000D02*
X138035000Y-158410000D01*
X140135000Y-158410000D02*
X140535000Y-158410000D01*
X142735000Y-158410000D02*
X143135000Y-158410000D01*
X145235000Y-158410000D02*
X145635000Y-158410000D01*
X147735000Y-158410000D02*
X148135000Y-158410000D01*
X150335000Y-158410000D02*
X150735000Y-158410000D01*
X153135000Y-158410000D02*
X153135000Y-165210000D01*
X127625000Y-124049758D02*
X127625000Y-124870242D01*
X126505000Y-124049758D02*
X126505000Y-124870242D01*
X117575000Y-139118748D02*
X117575000Y-139641252D01*
X116105000Y-139118748D02*
X116105000Y-139641252D01*
X123585000Y-108505000D02*
X126605000Y-108505000D01*
X126605000Y-108505000D02*
X126605000Y-104295000D01*
X123585000Y-104295000D02*
X123585000Y-108505000D01*
X131345000Y-119641252D02*
X131345000Y-119118748D01*
X132815000Y-119641252D02*
X132815000Y-119118748D01*
X103912936Y-149405000D02*
X104367064Y-149405000D01*
X103912936Y-150875000D02*
X104367064Y-150875000D01*
X127625000Y-134209758D02*
X127625000Y-135030242D01*
X126505000Y-134209758D02*
X126505000Y-135030242D01*
X107722936Y-151665000D02*
X108177064Y-151665000D01*
X107722936Y-153135000D02*
X108177064Y-153135000D01*
X103405000Y-143417064D02*
X103405000Y-142962936D01*
X104875000Y-143417064D02*
X104875000Y-142962936D01*
X107415000Y-146767936D02*
X107415000Y-147222064D01*
X105945000Y-146767936D02*
X105945000Y-147222064D01*
X112656252Y-112495000D02*
X112133748Y-112495000D01*
X112656252Y-111025000D02*
X112133748Y-111025000D01*
X135428000Y-153325000D02*
X134828000Y-153325000D01*
X135128000Y-153025000D02*
X135428000Y-153325000D01*
X134828000Y-153325000D02*
X135128000Y-153025000D01*
X133728000Y-155125000D02*
X133728000Y-143325000D01*
X129628000Y-155125000D02*
X133728000Y-155125000D01*
X129628000Y-143325000D02*
X133728000Y-143325000D01*
X128128000Y-149225000D02*
X127128000Y-149225000D01*
X127628000Y-149725000D02*
X127628000Y-148725000D01*
X125628000Y-155125000D02*
X121528000Y-155125000D01*
X121528000Y-155125000D02*
X121528000Y-152725000D01*
X121528000Y-150525000D02*
X121528000Y-147925000D01*
X121528000Y-145725000D02*
X121528000Y-143325000D01*
X121528000Y-143325000D02*
X125628000Y-143325000D01*
X130628000Y-149225000D02*
G75*
G03*
X130628000Y-149225000I-3000000J0D01*
G01*
X123900000Y-119790242D02*
X123900000Y-118969758D01*
X125020000Y-119790242D02*
X125020000Y-118969758D01*
X117575000Y-146738748D02*
X117575000Y-147261252D01*
X116105000Y-146738748D02*
X116105000Y-147261252D01*
X112400000Y-116040000D02*
X108950000Y-116040000D01*
X112400000Y-116040000D02*
X114350000Y-116040000D01*
X112400000Y-121160000D02*
X110450000Y-121160000D01*
X112400000Y-121160000D02*
X114350000Y-121160000D01*
X127660000Y-139289758D02*
X127660000Y-140110242D01*
X126540000Y-139289758D02*
X126540000Y-140110242D01*
X129312936Y-102770000D02*
X129767064Y-102770000D01*
X129312936Y-104240000D02*
X129767064Y-104240000D01*
X132565000Y-101330000D02*
X132565000Y-112330000D01*
X132565000Y-112330000D02*
X133065000Y-112330000D01*
X133065000Y-101330000D02*
X132565000Y-101330000D01*
X133065000Y-112330000D02*
X145065000Y-112330000D01*
X145065000Y-101330000D02*
X133065000Y-101330000D01*
X145065000Y-112330000D02*
X145565000Y-112330000D01*
X145565000Y-101330000D02*
X145065000Y-101330000D01*
X145565000Y-112330000D02*
X145565000Y-101330000D01*
X119787936Y-111025000D02*
X120242064Y-111025000D01*
X119787936Y-112495000D02*
X120242064Y-112495000D01*
X115570000Y-134600000D02*
X119020000Y-134600000D01*
X115570000Y-134600000D02*
X113620000Y-134600000D01*
X115570000Y-124480000D02*
X117520000Y-124480000D01*
X115570000Y-124480000D02*
X113620000Y-124480000D01*
X131465000Y-139861252D02*
X131465000Y-139338748D01*
X132935000Y-139861252D02*
X132935000Y-139338748D01*
X121185000Y-134881252D02*
X121185000Y-134358748D01*
X122655000Y-134881252D02*
X122655000Y-134358748D01*
X123940000Y-140110242D02*
X123940000Y-139289758D01*
X125060000Y-140110242D02*
X125060000Y-139289758D01*
X115035000Y-139113748D02*
X115035000Y-139636252D01*
X113565000Y-139113748D02*
X113565000Y-139636252D01*
X150435000Y-133290000D02*
X151765000Y-133290000D01*
X150435000Y-134620000D02*
X150435000Y-133290000D01*
X150435000Y-135890000D02*
X150435000Y-138490000D01*
X150435000Y-135890000D02*
X153095000Y-135890000D01*
X150435000Y-138490000D02*
X153095000Y-138490000D01*
X153095000Y-135890000D02*
X153095000Y-138490000D01*
X114107878Y-154380000D02*
X114907122Y-154380000D01*
X114107878Y-155500000D02*
X114907122Y-155500000D01*
X128805000Y-124721252D02*
X128805000Y-124198748D01*
X130275000Y-124721252D02*
X130275000Y-124198748D01*
X116466252Y-109955000D02*
X115943748Y-109955000D01*
X116466252Y-108485000D02*
X115943748Y-108485000D01*
X123900000Y-129950242D02*
X123900000Y-129129758D01*
X125020000Y-129950242D02*
X125020000Y-129129758D01*
X113565000Y-143412064D02*
X113565000Y-142957936D01*
X115035000Y-143412064D02*
X115035000Y-142957936D01*
X154467500Y-111685000D02*
X150567500Y-111685000D01*
X154467500Y-111685000D02*
X154467500Y-119405000D01*
X147967500Y-111685000D02*
X147457500Y-111685000D01*
X147457500Y-111685000D02*
X147457500Y-112205000D01*
X150797500Y-112205000D02*
X150567500Y-112205000D01*
X150797500Y-112205000D02*
X150797500Y-112745000D01*
X147967500Y-112205000D02*
X147457500Y-112205000D01*
X150797500Y-113845000D02*
X150797500Y-117245000D01*
X150797500Y-118345000D02*
X150797500Y-118885000D01*
X150797500Y-118885000D02*
X150567500Y-118885000D01*
X147967500Y-118885000D02*
X147457500Y-118885000D01*
X147457500Y-118885000D02*
X147457500Y-119405000D01*
X154467500Y-119405000D02*
X150567500Y-119405000D01*
X147967500Y-119405000D02*
X147457500Y-119405000D01*
X131345000Y-129801252D02*
X131345000Y-129278748D01*
X132815000Y-129801252D02*
X132815000Y-129278748D01*
X128805000Y-129801252D02*
X128805000Y-129278748D01*
X130275000Y-129801252D02*
X130275000Y-129278748D01*
X121165000Y-139861252D02*
X121165000Y-139338748D01*
X122635000Y-139861252D02*
X122635000Y-139338748D01*
X138475000Y-134600000D02*
X141925000Y-134600000D01*
X138475000Y-134600000D02*
X136525000Y-134600000D01*
X138475000Y-124480000D02*
X140425000Y-124480000D01*
X138475000Y-124480000D02*
X136525000Y-124480000D01*
X127560000Y-118969758D02*
X127560000Y-119790242D01*
X126440000Y-118969758D02*
X126440000Y-119790242D01*
X127625000Y-129129758D02*
X127625000Y-129950242D01*
X126505000Y-129129758D02*
X126505000Y-129950242D01*
X128805000Y-134881252D02*
X128805000Y-134358748D01*
X130275000Y-134881252D02*
X130275000Y-134358748D01*
X136898748Y-135155000D02*
X137421252Y-135155000D01*
X136898748Y-136625000D02*
X137421252Y-136625000D01*
X107550378Y-154380000D02*
X108349622Y-154380000D01*
X107550378Y-155500000D02*
X108349622Y-155500000D01*
X105945000Y-143412064D02*
X105945000Y-142957936D01*
X107415000Y-143412064D02*
X107415000Y-142957936D01*
X104367064Y-155675000D02*
X103912936Y-155675000D01*
X104367064Y-154205000D02*
X103912936Y-154205000D01*
X121185000Y-124721252D02*
X121185000Y-124198748D01*
X122655000Y-124721252D02*
X122655000Y-124198748D01*
X154025000Y-122495000D02*
X154025000Y-131315000D01*
X153715000Y-122495000D02*
X154025000Y-122495000D01*
X149505000Y-122495000D02*
X149815000Y-122495000D01*
X154725000Y-124405000D02*
X154225000Y-124905000D01*
X154225000Y-124905000D02*
X154725000Y-125405000D01*
X154725000Y-125405000D02*
X154725000Y-124405000D01*
X154025000Y-131315000D02*
X153715000Y-131315000D01*
X149505000Y-131315000D02*
X149505000Y-122495000D01*
X149505000Y-131315000D02*
X149815000Y-131315000D01*
X104875000Y-139118748D02*
X104875000Y-139641252D01*
X103405000Y-139118748D02*
X103405000Y-139641252D01*
X116105000Y-143417064D02*
X116105000Y-142962936D01*
X117575000Y-143417064D02*
X117575000Y-142962936D01*
X123900000Y-124870242D02*
X123900000Y-124049758D01*
X125020000Y-124870242D02*
X125020000Y-124049758D01*
X143450000Y-114235000D02*
X144780000Y-114235000D01*
X143450000Y-115565000D02*
X143450000Y-114235000D01*
X143450000Y-116835000D02*
X143450000Y-119435000D01*
X143450000Y-116835000D02*
X146110000Y-116835000D01*
X143450000Y-119435000D02*
X146110000Y-119435000D01*
X146110000Y-116835000D02*
X146110000Y-119435000D01*
X107415000Y-139113748D02*
X107415000Y-139636252D01*
X105945000Y-139113748D02*
X105945000Y-139636252D01*
X116432064Y-112495000D02*
X115977936Y-112495000D01*
X116432064Y-111025000D02*
X115977936Y-111025000D01*
X111513252Y-149706000D02*
X110990748Y-149706000D01*
X111513252Y-148236000D02*
X110990748Y-148236000D01*
X106110000Y-134600000D02*
X109560000Y-134600000D01*
X106110000Y-134600000D02*
X104160000Y-134600000D01*
X106110000Y-124480000D02*
X108060000Y-124480000D01*
X106110000Y-124480000D02*
X104160000Y-124480000D01*
X129278748Y-106580000D02*
X129801252Y-106580000D01*
X129278748Y-108050000D02*
X129801252Y-108050000D01*
X114673748Y-135155000D02*
X115196252Y-135155000D01*
X114673748Y-136625000D02*
X115196252Y-136625000D01*
X104513748Y-135155000D02*
X105036252Y-135155000D01*
X104513748Y-136625000D02*
X105036252Y-136625000D01*
X128805000Y-119641252D02*
X128805000Y-119118748D01*
X130275000Y-119641252D02*
X130275000Y-119118748D01*
X131345000Y-124721252D02*
X131345000Y-124198748D01*
X132815000Y-124721252D02*
X132815000Y-124198748D01*
X115977936Y-113565000D02*
X116432064Y-113565000D01*
X115977936Y-115035000D02*
X116432064Y-115035000D01*
X110751252Y-123290000D02*
X110228748Y-123290000D01*
X110751252Y-121820000D02*
X110228748Y-121820000D01*
X120242064Y-115035000D02*
X119787936Y-115035000D01*
X120242064Y-113565000D02*
X119787936Y-113565000D01*
M02*
