G04 #@! TF.GenerationSoftware,KiCad,Pcbnew,7.0.5-unknown-202306101748~6fbdf8f0e2~ubuntu22.04.1*
G04 #@! TF.CreationDate,2023-07-24T18:09:27+01:00*
G04 #@! TF.ProjectId,pico_rx,7069636f-5f72-4782-9e6b-696361645f70,rev?*
G04 #@! TF.SameCoordinates,Original*
G04 #@! TF.FileFunction,Other,User*
%FSLAX46Y46*%
G04 Gerber Fmt 4.6, Leading zero omitted, Abs format (unit mm)*
G04 Created by KiCad (PCBNEW 7.0.5-unknown-202306101748~6fbdf8f0e2~ubuntu22.04.1) date 2023-07-24 18:09:27*
%MOMM*%
%LPD*%
G01*
G04 APERTURE LIST*
%ADD10C,0.050000*%
%ADD11C,0.120000*%
G04 APERTURE END LIST*
D10*
X114075000Y-115250000D02*
X110715000Y-115250000D01*
X114075000Y-113350000D02*
X114075000Y-115250000D01*
X110715000Y-115250000D02*
X110715000Y-113350000D01*
X110715000Y-113350000D02*
X114075000Y-113350000D01*
X128620000Y-141300000D02*
X128620000Y-137900000D01*
X130580000Y-141300000D02*
X128620000Y-141300000D01*
X128620000Y-137900000D02*
X130580000Y-137900000D01*
X130580000Y-137900000D02*
X130580000Y-141300000D01*
X120940000Y-131240000D02*
X120940000Y-127840000D01*
X122900000Y-131240000D02*
X120940000Y-131240000D01*
X120940000Y-127840000D02*
X122900000Y-127840000D01*
X122900000Y-127840000D02*
X122900000Y-131240000D01*
X123610000Y-136540000D02*
X123610000Y-132700000D01*
X125310000Y-136540000D02*
X123610000Y-136540000D01*
X123610000Y-132700000D02*
X125310000Y-132700000D01*
X125310000Y-132700000D02*
X125310000Y-136540000D01*
X102460000Y-151450000D02*
X105820000Y-151450000D01*
X102460000Y-153350000D02*
X102460000Y-151450000D01*
X105820000Y-151450000D02*
X105820000Y-153350000D01*
X105820000Y-153350000D02*
X102460000Y-153350000D01*
X108860000Y-105410000D02*
G75*
G03*
X108860000Y-105410000I-3450000J0D01*
G01*
X120940000Y-121080000D02*
X120940000Y-117680000D01*
X122900000Y-121080000D02*
X120940000Y-121080000D01*
X120940000Y-117680000D02*
X122900000Y-117680000D01*
X122900000Y-117680000D02*
X122900000Y-121080000D01*
X105120000Y-145300000D02*
X105120000Y-148700000D01*
X103160000Y-145300000D02*
X105120000Y-145300000D01*
X105120000Y-148700000D02*
X103160000Y-148700000D01*
X103160000Y-148700000D02*
X103160000Y-145300000D01*
X100702500Y-120345000D02*
X100702500Y-110795000D01*
X107952500Y-120345000D02*
X100702500Y-120345000D01*
X100702500Y-110795000D02*
X107952500Y-110795000D01*
X107952500Y-110795000D02*
X107952500Y-120345000D01*
X131100000Y-136320000D02*
X131100000Y-132920000D01*
X133060000Y-136320000D02*
X131100000Y-136320000D01*
X131100000Y-132920000D02*
X133060000Y-132920000D01*
X133060000Y-132920000D02*
X133060000Y-136320000D01*
X111770000Y-140805000D02*
X108270000Y-140805000D01*
X108270000Y-140805000D02*
X108270000Y-147045000D01*
X111770000Y-147045000D02*
X111770000Y-140805000D01*
X108270000Y-147045000D02*
X111770000Y-147045000D01*
X115250000Y-145357500D02*
X115250000Y-148717500D01*
X113350000Y-145357500D02*
X115250000Y-145357500D01*
X115250000Y-148717500D02*
X113350000Y-148717500D01*
X113350000Y-148717500D02*
X113350000Y-145357500D01*
D11*
X101635000Y-179910000D02*
X101635000Y-157910000D01*
X153635000Y-179910000D02*
X101635000Y-179910000D01*
X101635000Y-157910000D02*
X153635000Y-157910000D01*
X153635000Y-157910000D02*
X153635000Y-179910000D01*
D10*
X127915000Y-122540000D02*
X127915000Y-126380000D01*
X126215000Y-122540000D02*
X127915000Y-122540000D01*
X127915000Y-126380000D02*
X126215000Y-126380000D01*
X126215000Y-126380000D02*
X126215000Y-122540000D01*
X117820000Y-137680000D02*
X117820000Y-141080000D01*
X115860000Y-137680000D02*
X117820000Y-137680000D01*
X117820000Y-141080000D02*
X115860000Y-141080000D01*
X115860000Y-141080000D02*
X115860000Y-137680000D01*
X153310000Y-184785000D02*
G75*
G03*
X153310000Y-184785000I-3450000J0D01*
G01*
X123445000Y-108495000D02*
X123445000Y-103595000D01*
X126745000Y-108495000D02*
X123445000Y-108495000D01*
X123445000Y-103595000D02*
X126745000Y-103595000D01*
X126745000Y-103595000D02*
X126745000Y-108495000D01*
X131100000Y-121080000D02*
X131100000Y-117680000D01*
X133060000Y-121080000D02*
X131100000Y-121080000D01*
X131100000Y-117680000D02*
X133060000Y-117680000D01*
X133060000Y-117680000D02*
X133060000Y-121080000D01*
X108860000Y-184785000D02*
G75*
G03*
X108860000Y-184785000I-3450000J0D01*
G01*
X102460000Y-149190000D02*
X105820000Y-149190000D01*
X102460000Y-151090000D02*
X102460000Y-149190000D01*
X105820000Y-149190000D02*
X105820000Y-151090000D01*
X105820000Y-151090000D02*
X102460000Y-151090000D01*
X127915000Y-132700000D02*
X127915000Y-136540000D01*
X126215000Y-132700000D02*
X127915000Y-132700000D01*
X127915000Y-136540000D02*
X126215000Y-136540000D01*
X126215000Y-136540000D02*
X126215000Y-132700000D01*
X106270000Y-151450000D02*
X109630000Y-151450000D01*
X106270000Y-153350000D02*
X106270000Y-151450000D01*
X109630000Y-151450000D02*
X109630000Y-153350000D01*
X109630000Y-153350000D02*
X106270000Y-153350000D01*
X103190000Y-144870000D02*
X103190000Y-141510000D01*
X105090000Y-144870000D02*
X103190000Y-144870000D01*
X103190000Y-141510000D02*
X105090000Y-141510000D01*
X105090000Y-141510000D02*
X105090000Y-144870000D01*
X107630000Y-145315000D02*
X107630000Y-148675000D01*
X105730000Y-145315000D02*
X107630000Y-145315000D01*
X107630000Y-148675000D02*
X105730000Y-148675000D01*
X105730000Y-148675000D02*
X105730000Y-145315000D01*
X114095000Y-112740000D02*
X110695000Y-112740000D01*
X114095000Y-110780000D02*
X114095000Y-112740000D01*
X110695000Y-112740000D02*
X110695000Y-110780000D01*
X110695000Y-110780000D02*
X114095000Y-110780000D01*
X136628000Y-156325000D02*
X136628000Y-142125000D01*
X136628000Y-156325000D02*
X119128000Y-156325000D01*
X119128000Y-142125000D02*
X136628000Y-142125000D01*
X119128000Y-142125000D02*
X119128000Y-156325000D01*
X123610000Y-121300000D02*
X123610000Y-117460000D01*
X125310000Y-121300000D02*
X123610000Y-121300000D01*
X123610000Y-117460000D02*
X125310000Y-117460000D01*
X125310000Y-117460000D02*
X125310000Y-121300000D01*
X117820000Y-145300000D02*
X117820000Y-148700000D01*
X115860000Y-145300000D02*
X117820000Y-145300000D01*
X117820000Y-148700000D02*
X115860000Y-148700000D01*
X115860000Y-148700000D02*
X115860000Y-145300000D01*
X108700000Y-115900000D02*
X108700000Y-121300000D01*
X108700000Y-121300000D02*
X116100000Y-121300000D01*
X116100000Y-115900000D02*
X108700000Y-115900000D01*
X116100000Y-121300000D02*
X116100000Y-115900000D01*
X127950000Y-137780000D02*
X127950000Y-141620000D01*
X126250000Y-137780000D02*
X127950000Y-137780000D01*
X127950000Y-141620000D02*
X126250000Y-141620000D01*
X126250000Y-141620000D02*
X126250000Y-137780000D01*
X127860000Y-102555000D02*
X131220000Y-102555000D01*
X127860000Y-104455000D02*
X127860000Y-102555000D01*
X131220000Y-102555000D02*
X131220000Y-104455000D01*
X131220000Y-104455000D02*
X127860000Y-104455000D01*
D11*
X132315000Y-100330000D02*
X132315000Y-112580000D01*
X132315000Y-112580000D02*
X145815000Y-112580000D01*
X145815000Y-100330000D02*
X132315000Y-100330000D01*
X145815000Y-112580000D02*
X145815000Y-100330000D01*
D10*
X118335000Y-110810000D02*
X121695000Y-110810000D01*
X118335000Y-112710000D02*
X118335000Y-110810000D01*
X121695000Y-110810000D02*
X121695000Y-112710000D01*
X121695000Y-112710000D02*
X118335000Y-112710000D01*
X119270000Y-134740000D02*
X119270000Y-124340000D01*
X119270000Y-124340000D02*
X111870000Y-124340000D01*
X111870000Y-134740000D02*
X119270000Y-134740000D01*
X111870000Y-124340000D02*
X111870000Y-134740000D01*
X131220000Y-141300000D02*
X131220000Y-137900000D01*
X133180000Y-141300000D02*
X131220000Y-141300000D01*
X131220000Y-137900000D02*
X133180000Y-137900000D01*
X133180000Y-137900000D02*
X133180000Y-141300000D01*
X120940000Y-136320000D02*
X120940000Y-132920000D01*
X122900000Y-136320000D02*
X120940000Y-136320000D01*
X120940000Y-132920000D02*
X122900000Y-132920000D01*
X122900000Y-132920000D02*
X122900000Y-136320000D01*
X123650000Y-141620000D02*
X123650000Y-137780000D01*
X125350000Y-141620000D02*
X123650000Y-141620000D01*
X123650000Y-137780000D02*
X125350000Y-137780000D01*
X125350000Y-137780000D02*
X125350000Y-141620000D01*
X115280000Y-137675000D02*
X115280000Y-141075000D01*
X113320000Y-137675000D02*
X115280000Y-137675000D01*
X115280000Y-141075000D02*
X113320000Y-141075000D01*
X113320000Y-141075000D02*
X113320000Y-137675000D01*
X122195000Y-113365000D02*
X122195000Y-116435000D01*
X122195000Y-116435000D02*
X132885000Y-116435000D01*
X132885000Y-113365000D02*
X122195000Y-113365000D01*
X132885000Y-116435000D02*
X132885000Y-113365000D01*
X149965000Y-132820000D02*
X149965000Y-138970000D01*
X149965000Y-138970000D02*
X153565000Y-138970000D01*
X153565000Y-132820000D02*
X149965000Y-132820000D01*
X153565000Y-138970000D02*
X153565000Y-132820000D01*
X112757500Y-154090000D02*
X116257500Y-154090000D01*
X112757500Y-155790000D02*
X112757500Y-154090000D01*
X116257500Y-154090000D02*
X116257500Y-155790000D01*
X116257500Y-155790000D02*
X112757500Y-155790000D01*
X128560000Y-126160000D02*
X128560000Y-122760000D01*
X130520000Y-126160000D02*
X128560000Y-126160000D01*
X128560000Y-122760000D02*
X130520000Y-122760000D01*
X130520000Y-122760000D02*
X130520000Y-126160000D01*
X117905000Y-110200000D02*
X114505000Y-110200000D01*
X117905000Y-108240000D02*
X117905000Y-110200000D01*
X114505000Y-110200000D02*
X114505000Y-108240000D01*
X114505000Y-108240000D02*
X117905000Y-108240000D01*
X123610000Y-131460000D02*
X123610000Y-127620000D01*
X125310000Y-131460000D02*
X123610000Y-131460000D01*
X123610000Y-127620000D02*
X125310000Y-127620000D01*
X125310000Y-127620000D02*
X125310000Y-131460000D01*
X119824000Y-105416000D02*
X111824000Y-105416000D01*
X119824000Y-100216000D02*
X119824000Y-105416000D01*
X119504000Y-100216000D02*
X119824000Y-100216000D01*
X119504000Y-90696000D02*
X119504000Y-100216000D01*
X112144000Y-100216000D02*
X112144000Y-90696000D01*
X112144000Y-100216000D02*
X111824000Y-100216000D01*
X112144000Y-90696000D02*
X119504000Y-90696000D01*
X111824000Y-100216000D02*
X111824000Y-105416000D01*
X113350000Y-144865000D02*
X113350000Y-141505000D01*
X115250000Y-144865000D02*
X113350000Y-144865000D01*
X113350000Y-141505000D02*
X115250000Y-141505000D01*
X115250000Y-141505000D02*
X115250000Y-144865000D01*
X154567500Y-110795000D02*
X154567500Y-120345000D01*
X147317500Y-110795000D02*
X154567500Y-110795000D01*
X154567500Y-120345000D02*
X147317500Y-120345000D01*
X147317500Y-120345000D02*
X147317500Y-110795000D01*
X131100000Y-131240000D02*
X131100000Y-127840000D01*
X133060000Y-131240000D02*
X131100000Y-131240000D01*
X131100000Y-127840000D02*
X133060000Y-127840000D01*
X133060000Y-127840000D02*
X133060000Y-131240000D01*
X153310000Y-105410000D02*
G75*
G03*
X153310000Y-105410000I-3450000J0D01*
G01*
X128560000Y-131240000D02*
X128560000Y-127840000D01*
X130520000Y-131240000D02*
X128560000Y-131240000D01*
X128560000Y-127840000D02*
X130520000Y-127840000D01*
X130520000Y-127840000D02*
X130520000Y-131240000D01*
X120920000Y-141300000D02*
X120920000Y-137900000D01*
X122880000Y-141300000D02*
X120920000Y-141300000D01*
X120920000Y-137900000D02*
X122880000Y-137900000D01*
X122880000Y-137900000D02*
X122880000Y-141300000D01*
X142175000Y-134740000D02*
X142175000Y-124340000D01*
X142175000Y-124340000D02*
X134775000Y-124340000D01*
X134775000Y-134740000D02*
X142175000Y-134740000D01*
X134775000Y-124340000D02*
X134775000Y-134740000D01*
X127850000Y-117460000D02*
X127850000Y-121300000D01*
X126150000Y-117460000D02*
X127850000Y-117460000D01*
X127850000Y-121300000D02*
X126150000Y-121300000D01*
X126150000Y-121300000D02*
X126150000Y-117460000D01*
X127915000Y-127620000D02*
X127915000Y-131460000D01*
X126215000Y-127620000D02*
X127915000Y-127620000D01*
X127915000Y-131460000D02*
X126215000Y-131460000D01*
X126215000Y-131460000D02*
X126215000Y-127620000D01*
X128560000Y-136320000D02*
X128560000Y-132920000D01*
X130520000Y-136320000D02*
X128560000Y-136320000D01*
X128560000Y-132920000D02*
X130520000Y-132920000D01*
X130520000Y-132920000D02*
X130520000Y-136320000D01*
X135460000Y-134910000D02*
X138860000Y-134910000D01*
X135460000Y-136870000D02*
X135460000Y-134910000D01*
X138860000Y-134910000D02*
X138860000Y-136870000D01*
X138860000Y-136870000D02*
X135460000Y-136870000D01*
X106200000Y-154090000D02*
X109700000Y-154090000D01*
X106200000Y-155790000D02*
X106200000Y-154090000D01*
X109700000Y-154090000D02*
X109700000Y-155790000D01*
X109700000Y-155790000D02*
X106200000Y-155790000D01*
X105730000Y-144865000D02*
X105730000Y-141505000D01*
X107630000Y-144865000D02*
X105730000Y-144865000D01*
X105730000Y-141505000D02*
X107630000Y-141505000D01*
X107630000Y-141505000D02*
X107630000Y-144865000D01*
X105820000Y-155890000D02*
X102460000Y-155890000D01*
X105820000Y-153990000D02*
X105820000Y-155890000D01*
X102460000Y-155890000D02*
X102460000Y-153990000D01*
X102460000Y-153990000D02*
X105820000Y-153990000D01*
X120940000Y-126160000D02*
X120940000Y-122760000D01*
X122900000Y-126160000D02*
X120940000Y-126160000D01*
X120940000Y-122760000D02*
X122900000Y-122760000D01*
X122900000Y-122760000D02*
X122900000Y-126160000D01*
X105120000Y-137680000D02*
X105120000Y-141080000D01*
X103160000Y-137680000D02*
X105120000Y-137680000D01*
X105120000Y-141080000D02*
X103160000Y-141080000D01*
X103160000Y-141080000D02*
X103160000Y-137680000D01*
X115890000Y-144870000D02*
X115890000Y-141510000D01*
X117790000Y-144870000D02*
X115890000Y-144870000D01*
X115890000Y-141510000D02*
X117790000Y-141510000D01*
X117790000Y-141510000D02*
X117790000Y-144870000D01*
X123610000Y-126380000D02*
X123610000Y-122540000D01*
X125310000Y-126380000D02*
X123610000Y-126380000D01*
X123610000Y-122540000D02*
X125310000Y-122540000D01*
X125310000Y-122540000D02*
X125310000Y-126380000D01*
X142980000Y-113765000D02*
X142980000Y-119915000D01*
X142980000Y-119915000D02*
X146580000Y-119915000D01*
X146580000Y-113765000D02*
X142980000Y-113765000D01*
X146580000Y-119915000D02*
X146580000Y-113765000D01*
X107660000Y-137675000D02*
X107660000Y-141075000D01*
X105700000Y-137675000D02*
X107660000Y-137675000D01*
X107660000Y-141075000D02*
X105700000Y-141075000D01*
X105700000Y-141075000D02*
X105700000Y-137675000D01*
X117885000Y-112710000D02*
X114525000Y-112710000D01*
X117885000Y-110810000D02*
X117885000Y-112710000D01*
X114525000Y-112710000D02*
X114525000Y-110810000D01*
X114525000Y-110810000D02*
X117885000Y-110810000D01*
X112952000Y-149951000D02*
X109552000Y-149951000D01*
X112952000Y-147991000D02*
X112952000Y-149951000D01*
X109552000Y-149951000D02*
X109552000Y-147991000D01*
X109552000Y-147991000D02*
X112952000Y-147991000D01*
X109810000Y-134740000D02*
X109810000Y-124340000D01*
X109810000Y-124340000D02*
X102410000Y-124340000D01*
X102410000Y-134740000D02*
X109810000Y-134740000D01*
X102410000Y-124340000D02*
X102410000Y-134740000D01*
X127840000Y-106335000D02*
X131240000Y-106335000D01*
X127840000Y-108295000D02*
X127840000Y-106335000D01*
X131240000Y-106335000D02*
X131240000Y-108295000D01*
X131240000Y-108295000D02*
X127840000Y-108295000D01*
X113235000Y-134910000D02*
X116635000Y-134910000D01*
X113235000Y-136870000D02*
X113235000Y-134910000D01*
X116635000Y-134910000D02*
X116635000Y-136870000D01*
X116635000Y-136870000D02*
X113235000Y-136870000D01*
X103075000Y-134910000D02*
X106475000Y-134910000D01*
X103075000Y-136870000D02*
X103075000Y-134910000D01*
X106475000Y-134910000D02*
X106475000Y-136870000D01*
X106475000Y-136870000D02*
X103075000Y-136870000D01*
X128560000Y-121080000D02*
X128560000Y-117680000D01*
X130520000Y-121080000D02*
X128560000Y-121080000D01*
X128560000Y-117680000D02*
X130520000Y-117680000D01*
X130520000Y-117680000D02*
X130520000Y-121080000D01*
X131100000Y-126160000D02*
X131100000Y-122760000D01*
X133060000Y-126160000D02*
X131100000Y-126160000D01*
X131100000Y-122760000D02*
X133060000Y-122760000D01*
X133060000Y-122760000D02*
X133060000Y-126160000D01*
X114525000Y-113350000D02*
X117885000Y-113350000D01*
X114525000Y-115250000D02*
X114525000Y-113350000D01*
X117885000Y-113350000D02*
X117885000Y-115250000D01*
X117885000Y-115250000D02*
X114525000Y-115250000D01*
X112190000Y-123535000D02*
X108790000Y-123535000D01*
X112190000Y-121575000D02*
X112190000Y-123535000D01*
X108790000Y-123535000D02*
X108790000Y-121575000D01*
X108790000Y-121575000D02*
X112190000Y-121575000D01*
X121695000Y-115250000D02*
X118335000Y-115250000D01*
X121695000Y-113350000D02*
X121695000Y-115250000D01*
X118335000Y-115250000D02*
X118335000Y-113350000D01*
X118335000Y-113350000D02*
X121695000Y-113350000D01*
M02*
