G04 #@! TF.GenerationSoftware,KiCad,Pcbnew,7.0.5-unknown-202306101748~6fbdf8f0e2~ubuntu22.04.1*
G04 #@! TF.CreationDate,2023-07-16T13:46:18+01:00*
G04 #@! TF.ProjectId,pico_rx,7069636f-5f72-4782-9e6b-696361645f70,rev?*
G04 #@! TF.SameCoordinates,Original*
G04 #@! TF.FileFunction,Legend,Bot*
G04 #@! TF.FilePolarity,Positive*
%FSLAX46Y46*%
G04 Gerber Fmt 4.6, Leading zero omitted, Abs format (unit mm)*
G04 Created by KiCad (PCBNEW 7.0.5-unknown-202306101748~6fbdf8f0e2~ubuntu22.04.1) date 2023-07-16 13:46:18*
%MOMM*%
%LPD*%
G01*
G04 APERTURE LIST*
%ADD10C,0.150000*%
G04 APERTURE END LIST*
D10*
X125816554Y-162855057D02*
X125911792Y-162807438D01*
X125911792Y-162807438D02*
X126007030Y-162712200D01*
X126007030Y-162712200D02*
X126149887Y-162569342D01*
X126149887Y-162569342D02*
X126245125Y-162521723D01*
X126245125Y-162521723D02*
X126340363Y-162521723D01*
X126292744Y-162759819D02*
X126387982Y-162712200D01*
X126387982Y-162712200D02*
X126483220Y-162616961D01*
X126483220Y-162616961D02*
X126530839Y-162426485D01*
X126530839Y-162426485D02*
X126530839Y-162093152D01*
X126530839Y-162093152D02*
X126483220Y-161902676D01*
X126483220Y-161902676D02*
X126387982Y-161807438D01*
X126387982Y-161807438D02*
X126292744Y-161759819D01*
X126292744Y-161759819D02*
X126102268Y-161759819D01*
X126102268Y-161759819D02*
X126007030Y-161807438D01*
X126007030Y-161807438D02*
X125911792Y-161902676D01*
X125911792Y-161902676D02*
X125864173Y-162093152D01*
X125864173Y-162093152D02*
X125864173Y-162426485D01*
X125864173Y-162426485D02*
X125911792Y-162616961D01*
X125911792Y-162616961D02*
X126007030Y-162712200D01*
X126007030Y-162712200D02*
X126102268Y-162759819D01*
X126102268Y-162759819D02*
X126292744Y-162759819D01*
X123793220Y-162829819D02*
X123793220Y-161829819D01*
M02*
