G04 #@! TF.GenerationSoftware,KiCad,Pcbnew,7.0.5-unknown-202306101748~6fbdf8f0e2~ubuntu22.04.1*
G04 #@! TF.CreationDate,2024-07-28T12:56:51+01:00*
G04 #@! TF.ProjectId,pico_rx,7069636f-5f72-4782-9e6b-696361645f70,rev?*
G04 #@! TF.SameCoordinates,Original*
G04 #@! TF.FileFunction,Soldermask,Bot*
G04 #@! TF.FilePolarity,Negative*
%FSLAX46Y46*%
G04 Gerber Fmt 4.6, Leading zero omitted, Abs format (unit mm)*
G04 Created by KiCad (PCBNEW 7.0.5-unknown-202306101748~6fbdf8f0e2~ubuntu22.04.1) date 2024-07-28 12:56:51*
%MOMM*%
%LPD*%
G01*
G04 APERTURE LIST*
%ADD10C,6.400000*%
%ADD11C,2.100000*%
%ADD12C,1.750000*%
%ADD13O,1.800000X1.800000*%
%ADD14O,1.500000X1.500000*%
%ADD15O,1.700000X1.700000*%
%ADD16R,1.700000X1.700000*%
%ADD17R,2.000000X2.000000*%
%ADD18C,2.000000*%
%ADD19R,3.200000X2.000000*%
%ADD20R,1.350000X4.200000*%
%ADD21O,3.500000X2.200000*%
%ADD22R,2.500000X1.500000*%
%ADD23O,2.500000X1.500000*%
G04 APERTURE END LIST*
D10*
X105410000Y-105410000D03*
D11*
X105992500Y-119095000D03*
X105992500Y-112085000D03*
D12*
X103502500Y-117845000D03*
X103502500Y-113345000D03*
D13*
X103635000Y-171635000D03*
D14*
X106665000Y-171335000D03*
X106665000Y-166485000D03*
D13*
X103635000Y-166185000D03*
D15*
X103505000Y-177800000D03*
X106045000Y-177800000D03*
D16*
X108585000Y-177800000D03*
D15*
X111125000Y-177800000D03*
X113665000Y-177800000D03*
X116205000Y-177800000D03*
X118745000Y-177800000D03*
D16*
X121285000Y-177800000D03*
D15*
X123825000Y-177800000D03*
X126365000Y-177800000D03*
X128905000Y-177800000D03*
X131445000Y-177800000D03*
D16*
X133985000Y-177800000D03*
D15*
X136525000Y-177800000D03*
X139065000Y-177800000D03*
X141605000Y-177800000D03*
X144145000Y-177800000D03*
D16*
X146685000Y-177800000D03*
D15*
X149225000Y-177800000D03*
X151765000Y-177800000D03*
X151765000Y-160020000D03*
X149225000Y-160020000D03*
D16*
X146685000Y-160020000D03*
D15*
X144145000Y-160020000D03*
X141605000Y-160020000D03*
X139065000Y-160020000D03*
X136525000Y-160020000D03*
D16*
X133985000Y-160020000D03*
D15*
X131445000Y-160020000D03*
X128905000Y-160020000D03*
X126365000Y-160020000D03*
X123825000Y-160020000D03*
D16*
X121285000Y-160020000D03*
D15*
X118745000Y-160020000D03*
X116205000Y-160020000D03*
X113665000Y-160020000D03*
X111125000Y-160020000D03*
D16*
X108585000Y-160020000D03*
D15*
X106045000Y-160020000D03*
X103505000Y-160020000D03*
X151535000Y-171450000D03*
D16*
X151535000Y-168910000D03*
D15*
X151535000Y-166370000D03*
D10*
X149860000Y-184785000D03*
X105410000Y-184785000D03*
D17*
X135128000Y-151725000D03*
D18*
X135128000Y-146725000D03*
X135128000Y-149225000D03*
D19*
X127628000Y-154825000D03*
X127628000Y-143625000D03*
D18*
X120628000Y-146725000D03*
X120628000Y-151725000D03*
X139065000Y-104830000D03*
X144065000Y-109830000D03*
X141065000Y-109830000D03*
X134065000Y-109830000D03*
X137065000Y-109830000D03*
D16*
X123825000Y-114935000D03*
D15*
X126365000Y-114935000D03*
X128905000Y-114935000D03*
X131445000Y-114935000D03*
D16*
X151765000Y-134620000D03*
D15*
X151765000Y-137160000D03*
D20*
X118649000Y-102816000D03*
X112999000Y-102816000D03*
D11*
X149277500Y-112045000D03*
X149277500Y-119055000D03*
D12*
X151767500Y-113295000D03*
X151767500Y-117795000D03*
D10*
X149860000Y-105410000D03*
D21*
X151765000Y-122805000D03*
X151765000Y-131005000D03*
D22*
X151765000Y-124905000D03*
D23*
X151765000Y-126905000D03*
X151765000Y-128905000D03*
D16*
X144780000Y-115565000D03*
D15*
X144780000Y-118105000D03*
M02*
