G04 #@! TF.GenerationSoftware,KiCad,Pcbnew,7.0.5-unknown-202306101748~6fbdf8f0e2~ubuntu22.04.1*
G04 #@! TF.CreationDate,2023-07-16T13:46:18+01:00*
G04 #@! TF.ProjectId,pico_rx,7069636f-5f72-4782-9e6b-696361645f70,rev?*
G04 #@! TF.SameCoordinates,Original*
G04 #@! TF.FileFunction,Copper,L2,Bot*
G04 #@! TF.FilePolarity,Positive*
%FSLAX46Y46*%
G04 Gerber Fmt 4.6, Leading zero omitted, Abs format (unit mm)*
G04 Created by KiCad (PCBNEW 7.0.5-unknown-202306101748~6fbdf8f0e2~ubuntu22.04.1) date 2023-07-16 13:46:18*
%MOMM*%
%LPD*%
G01*
G04 APERTURE LIST*
G04 #@! TA.AperFunction,SMDPad,CuDef*
%ADD10R,1.350000X4.200000*%
G04 #@! TD*
G04 #@! TA.AperFunction,ComponentPad*
%ADD11C,6.400000*%
G04 #@! TD*
G04 #@! TA.AperFunction,ComponentPad*
%ADD12C,2.100000*%
G04 #@! TD*
G04 #@! TA.AperFunction,ComponentPad*
%ADD13C,1.750000*%
G04 #@! TD*
G04 #@! TA.AperFunction,ComponentPad*
%ADD14O,1.700000X1.700000*%
G04 #@! TD*
G04 #@! TA.AperFunction,ComponentPad*
%ADD15R,1.700000X1.700000*%
G04 #@! TD*
G04 #@! TA.AperFunction,ComponentPad*
%ADD16R,2.000000X2.000000*%
G04 #@! TD*
G04 #@! TA.AperFunction,ComponentPad*
%ADD17C,2.000000*%
G04 #@! TD*
G04 #@! TA.AperFunction,ComponentPad*
%ADD18R,3.200000X2.000000*%
G04 #@! TD*
G04 #@! TA.AperFunction,ComponentPad*
%ADD19O,3.500000X2.200000*%
G04 #@! TD*
G04 #@! TA.AperFunction,ComponentPad*
%ADD20R,2.500000X1.500000*%
G04 #@! TD*
G04 #@! TA.AperFunction,ComponentPad*
%ADD21O,2.500000X1.500000*%
G04 #@! TD*
G04 #@! TA.AperFunction,ViaPad*
%ADD22C,0.800000*%
G04 #@! TD*
G04 #@! TA.AperFunction,Conductor*
%ADD23C,0.500000*%
G04 #@! TD*
G04 #@! TA.AperFunction,Conductor*
%ADD24C,0.250000*%
G04 #@! TD*
G04 APERTURE END LIST*
D10*
X112999000Y-102816000D03*
X118649000Y-102816000D03*
D11*
X105410000Y-105410000D03*
D12*
X105992500Y-119095000D03*
X105992500Y-112085000D03*
D13*
X103502500Y-117845000D03*
X103502500Y-113345000D03*
D14*
X103505000Y-177800000D03*
X106045000Y-177800000D03*
D15*
X108585000Y-177800000D03*
D14*
X111125000Y-177800000D03*
X113665000Y-177800000D03*
X116205000Y-177800000D03*
X118745000Y-177800000D03*
D15*
X121285000Y-177800000D03*
D14*
X123825000Y-177800000D03*
X126365000Y-177800000D03*
X128905000Y-177800000D03*
X131445000Y-177800000D03*
D15*
X133985000Y-177800000D03*
D14*
X136525000Y-177800000D03*
X139065000Y-177800000D03*
X141605000Y-177800000D03*
X144145000Y-177800000D03*
D15*
X146685000Y-177800000D03*
D14*
X149225000Y-177800000D03*
X151765000Y-177800000D03*
X151765000Y-160020000D03*
X149225000Y-160020000D03*
D15*
X146685000Y-160020000D03*
D14*
X144145000Y-160020000D03*
X141605000Y-160020000D03*
X139065000Y-160020000D03*
X136525000Y-160020000D03*
D15*
X133985000Y-160020000D03*
D14*
X131445000Y-160020000D03*
X128905000Y-160020000D03*
X126365000Y-160020000D03*
X123825000Y-160020000D03*
D15*
X121285000Y-160020000D03*
D14*
X118745000Y-160020000D03*
X116205000Y-160020000D03*
X113665000Y-160020000D03*
X111125000Y-160020000D03*
D15*
X108585000Y-160020000D03*
D14*
X106045000Y-160020000D03*
X103505000Y-160020000D03*
X151535000Y-171450000D03*
D15*
X151535000Y-168910000D03*
D14*
X151535000Y-166370000D03*
D11*
X149860000Y-184785000D03*
X105410000Y-184785000D03*
D16*
X135128000Y-151725000D03*
D17*
X135128000Y-146725000D03*
X135128000Y-149225000D03*
D18*
X127628000Y-154825000D03*
X127628000Y-143625000D03*
D17*
X120628000Y-146725000D03*
X120628000Y-151725000D03*
X139065000Y-104830000D03*
X144065000Y-109830000D03*
X141065000Y-109830000D03*
X134065000Y-109830000D03*
X137065000Y-109830000D03*
D15*
X123825000Y-114935000D03*
D14*
X126365000Y-114935000D03*
X128905000Y-114935000D03*
X131445000Y-114935000D03*
D15*
X151765000Y-134620000D03*
D14*
X151765000Y-137160000D03*
D12*
X149277500Y-112045000D03*
X149277500Y-119055000D03*
D13*
X151767500Y-113295000D03*
X151767500Y-117795000D03*
D11*
X149860000Y-105410000D03*
D19*
X151765000Y-122805000D03*
X151765000Y-131005000D03*
D20*
X151765000Y-124905000D03*
D21*
X151765000Y-126905000D03*
X151765000Y-128905000D03*
D15*
X144780000Y-115565000D03*
D14*
X144780000Y-118105000D03*
D22*
X111760000Y-106680000D03*
X121285000Y-106680000D03*
X121285000Y-104140000D03*
X130175000Y-101600000D03*
X127000000Y-101600000D03*
X123825000Y-101600000D03*
X121285000Y-101600000D03*
X115269623Y-151569623D03*
X148900000Y-142300000D03*
X113700000Y-150000000D03*
X142792000Y-142271968D03*
X119380000Y-162560000D03*
X116041000Y-125861653D03*
X144780000Y-162560000D03*
X109220000Y-109220000D03*
X121343885Y-137068578D03*
X114300000Y-162560000D03*
X132080000Y-172720000D03*
X137160000Y-170180000D03*
X137160000Y-167640000D03*
X111760000Y-187960000D03*
X111760000Y-164465000D03*
X127000000Y-182880000D03*
X147320000Y-121920000D03*
X132080000Y-175260000D03*
X111760000Y-169545000D03*
X119380000Y-172720000D03*
X127635000Y-149225000D03*
X134620000Y-187960000D03*
X137160000Y-162560000D03*
X138430000Y-126275500D03*
X147320000Y-116840000D03*
X144780000Y-187960000D03*
X117475000Y-156210000D03*
X109220000Y-149860000D03*
X149860000Y-167640000D03*
X138430000Y-144145000D03*
X119380000Y-185420000D03*
X149860000Y-165100000D03*
X152400000Y-175260000D03*
X104140000Y-119380000D03*
X134620000Y-165100000D03*
X127000000Y-185420000D03*
X146685000Y-154940000D03*
X139700000Y-187960000D03*
X144780000Y-101600000D03*
X152400000Y-142240000D03*
X111760000Y-109220000D03*
X149860000Y-162560000D03*
X113665000Y-121920000D03*
X142240000Y-182880000D03*
X109220000Y-182880000D03*
X147320000Y-114300000D03*
X104140000Y-162560000D03*
X152400000Y-154940000D03*
X144780000Y-154940000D03*
X144780000Y-170180000D03*
X137160000Y-175260000D03*
X147320000Y-175260000D03*
X139700000Y-185420000D03*
X149860000Y-152400000D03*
X114300000Y-185420000D03*
X139700000Y-165100000D03*
X117024501Y-136489807D03*
X135890000Y-121920000D03*
X144780000Y-175260000D03*
X144780000Y-167640000D03*
X127000000Y-175260000D03*
X134620000Y-101600000D03*
X111760000Y-167640000D03*
X109220000Y-164465000D03*
X109220000Y-162560000D03*
X149860000Y-154940000D03*
X137795000Y-149860000D03*
X137795000Y-154940000D03*
X137160000Y-172720000D03*
X129540000Y-175260000D03*
X138400856Y-122025000D03*
X144780000Y-172720000D03*
X121285000Y-121920000D03*
X149860000Y-149860000D03*
X149860000Y-144780000D03*
X132080000Y-153035000D03*
X114300000Y-187960000D03*
X129540000Y-167640000D03*
X116840000Y-116840000D03*
X137160000Y-182880000D03*
X142240000Y-104140000D03*
X121285000Y-127000000D03*
X106680000Y-175260000D03*
X147320000Y-109220000D03*
X152400000Y-162560000D03*
X142240000Y-165100000D03*
X106680000Y-109220000D03*
X132080000Y-182880000D03*
X144780000Y-149860000D03*
X137160000Y-187960000D03*
X129540000Y-172720000D03*
X147320000Y-167640000D03*
X134620000Y-185420000D03*
X147320000Y-101600000D03*
X137160000Y-185420000D03*
X119380000Y-116840000D03*
X137160000Y-111760000D03*
X149860000Y-172720000D03*
X107950000Y-141605000D03*
X134620000Y-104140000D03*
X127000000Y-187960000D03*
X114300000Y-182880000D03*
X152400000Y-144780000D03*
X109220000Y-187960000D03*
X139700000Y-167640000D03*
X129540000Y-182880000D03*
X124460000Y-187960000D03*
X127000000Y-165100000D03*
X124460000Y-182880000D03*
X132080000Y-165100000D03*
X142240000Y-172720000D03*
X116840000Y-119380000D03*
X137160000Y-104140000D03*
X149860000Y-147320000D03*
X149860000Y-170180000D03*
X119380000Y-182880000D03*
X111760000Y-182880000D03*
X137795000Y-139065000D03*
X139700000Y-101600000D03*
X121920000Y-187960000D03*
X134620000Y-172720000D03*
X144780000Y-185420000D03*
X102670000Y-145080000D03*
X142240000Y-187960000D03*
X152400000Y-152400000D03*
X146685000Y-147320000D03*
X109220000Y-175260000D03*
X140335000Y-140970000D03*
X116840000Y-164465000D03*
X140335000Y-137160000D03*
X116840000Y-162560000D03*
X101600000Y-106680000D03*
X116840000Y-187960000D03*
X144780000Y-104140000D03*
X109220000Y-106680000D03*
X114710000Y-107070000D03*
X149860000Y-114300000D03*
X139700000Y-172720000D03*
X144780000Y-111760000D03*
X147320000Y-172720000D03*
X106680000Y-116840000D03*
X109855000Y-111760000D03*
X129540000Y-162560000D03*
X106045000Y-153670000D03*
X124460000Y-111760000D03*
X121920000Y-182880000D03*
X114300000Y-169545000D03*
X135890000Y-119380000D03*
X106680000Y-101600000D03*
X142240000Y-170180000D03*
X131200000Y-109200000D03*
X139700000Y-114300000D03*
X144780000Y-165100000D03*
X134620000Y-170180000D03*
X142240000Y-175260000D03*
X132080000Y-170180000D03*
X104140000Y-121920000D03*
X110744000Y-125222000D03*
X109220000Y-169545000D03*
X127000000Y-172720000D03*
X106680000Y-121920000D03*
X119380000Y-164465000D03*
X116840000Y-182880000D03*
X116840000Y-167640000D03*
X137795000Y-140970000D03*
X147320000Y-162560000D03*
X111760000Y-185420000D03*
X129540000Y-187960000D03*
X142240000Y-101600000D03*
X124460000Y-175260000D03*
X124460000Y-149860000D03*
X112395000Y-144145000D03*
X149860000Y-116840000D03*
X105660000Y-132730000D03*
X139700000Y-175260000D03*
X152400000Y-147320000D03*
X111760000Y-162560000D03*
X132080000Y-167640000D03*
X144780000Y-147320000D03*
X104140000Y-164465000D03*
X121285000Y-132080000D03*
X144780000Y-106680000D03*
X119380000Y-187960000D03*
X132080000Y-185420000D03*
X142240000Y-116840000D03*
X109220000Y-167640000D03*
X144780000Y-152400000D03*
X149860000Y-175260000D03*
X139700000Y-182880000D03*
X116880000Y-107040000D03*
X132080000Y-187960000D03*
X135255000Y-139065000D03*
X137160000Y-101600000D03*
X139700000Y-135345000D03*
X112120000Y-137460000D03*
X138430000Y-123825000D03*
X121920000Y-185420000D03*
X142240000Y-185420000D03*
X129540000Y-185420000D03*
X109220000Y-104140000D03*
X134620000Y-167640000D03*
X142361624Y-118525000D03*
X147320000Y-170180000D03*
X127000000Y-111760000D03*
X106426000Y-125222000D03*
X101600000Y-109220000D03*
X134620000Y-182880000D03*
X114300000Y-167640000D03*
X109220000Y-101600000D03*
X111290000Y-150580000D03*
X135255000Y-140970000D03*
X146685000Y-152400000D03*
X146685000Y-149860000D03*
X147320000Y-165100000D03*
X106680000Y-114300000D03*
X137160000Y-165100000D03*
X142240000Y-111760000D03*
X123520000Y-142330000D03*
X137795000Y-152400000D03*
X124460000Y-167640000D03*
X114300000Y-164465000D03*
X152400000Y-149860000D03*
X137548171Y-114746088D03*
X139821041Y-116718959D03*
X139700000Y-162560000D03*
X139700000Y-170180000D03*
X152400000Y-109220000D03*
X116840000Y-169545000D03*
X104140000Y-109220000D03*
X129540000Y-170180000D03*
X124460000Y-185420000D03*
X121920000Y-170180000D03*
X116840000Y-185420000D03*
X101600000Y-111760000D03*
X134620000Y-175260000D03*
X144780000Y-182880000D03*
X145712221Y-120987778D03*
X109855000Y-114300000D03*
X140335000Y-139065000D03*
X142240000Y-167640000D03*
X129355500Y-153035000D03*
X137795000Y-155939503D03*
X146400000Y-143400000D03*
X142900000Y-143400000D03*
D23*
X148900000Y-142300000D02*
X142820032Y-142300000D01*
X142820032Y-142300000D02*
X142792000Y-142271968D01*
D24*
X113700000Y-150000000D02*
X115269623Y-151569623D01*
X144144999Y-122555000D02*
X145712221Y-120987778D01*
X138430000Y-123190000D02*
X139065000Y-122555000D01*
X138430000Y-126275500D02*
X138430000Y-123825000D01*
X139065000Y-122555000D02*
X144144999Y-122555000D01*
X138430000Y-123825000D02*
X138430000Y-123190000D01*
X132260003Y-155939503D02*
X129355500Y-153035000D01*
X137795000Y-155939503D02*
X132260003Y-155939503D01*
D23*
X142900000Y-143400000D02*
X146400000Y-143400000D01*
G04 #@! TA.AperFunction,Conductor*
G36*
X111822581Y-100350185D02*
G01*
X111868336Y-100402989D01*
X111878280Y-100472147D01*
X111871724Y-100497833D01*
X111830403Y-100608620D01*
X111830401Y-100608627D01*
X111824000Y-100668155D01*
X111824000Y-102566000D01*
X114174000Y-102566000D01*
X114174000Y-100668172D01*
X114173999Y-100668155D01*
X114167598Y-100608627D01*
X114167596Y-100608620D01*
X114126276Y-100497833D01*
X114121292Y-100428141D01*
X114154777Y-100366818D01*
X114216101Y-100333334D01*
X114242458Y-100330500D01*
X117405542Y-100330500D01*
X117472581Y-100350185D01*
X117518336Y-100402989D01*
X117528280Y-100472147D01*
X117521724Y-100497833D01*
X117480403Y-100608620D01*
X117480401Y-100608627D01*
X117474000Y-100668155D01*
X117474000Y-102566000D01*
X119824000Y-102566000D01*
X119824000Y-100668172D01*
X119823999Y-100668155D01*
X119817598Y-100608627D01*
X119817596Y-100608620D01*
X119776276Y-100497833D01*
X119771292Y-100428141D01*
X119804777Y-100366818D01*
X119866101Y-100333334D01*
X119892458Y-100330500D01*
X146685014Y-100330500D01*
X146965074Y-100332890D01*
X146968741Y-100333032D01*
X147113339Y-100342922D01*
X147527287Y-100371238D01*
X147531474Y-100371668D01*
X148085875Y-100447869D01*
X148089991Y-100448578D01*
X148637891Y-100562434D01*
X148641974Y-100563430D01*
X149180801Y-100714402D01*
X149184821Y-100715678D01*
X149599598Y-100863090D01*
X149712082Y-100903067D01*
X149716016Y-100904617D01*
X150229266Y-101127553D01*
X150233083Y-101129369D01*
X150481502Y-101258089D01*
X150729931Y-101386815D01*
X150733601Y-101388879D01*
X151211727Y-101679633D01*
X151215257Y-101681949D01*
X151288150Y-101733403D01*
X151331568Y-101788145D01*
X151338497Y-101857670D01*
X151306738Y-101919905D01*
X151246375Y-101955090D01*
X151176571Y-101952054D01*
X151172204Y-101950471D01*
X151004936Y-101886262D01*
X150630330Y-101785887D01*
X150630323Y-101785886D01*
X150247287Y-101725219D01*
X149860001Y-101704922D01*
X149859999Y-101704922D01*
X149472712Y-101725219D01*
X149089676Y-101785886D01*
X149089669Y-101785887D01*
X148715063Y-101886262D01*
X148353005Y-102025244D01*
X148007456Y-102201310D01*
X147682206Y-102412531D01*
X147424648Y-102621095D01*
X147424648Y-102621096D01*
X148915819Y-104112266D01*
X148725130Y-104275130D01*
X148562267Y-104465818D01*
X147071096Y-102974648D01*
X147071095Y-102974648D01*
X146862531Y-103232206D01*
X146651310Y-103557456D01*
X146475244Y-103903005D01*
X146336262Y-104265063D01*
X146235887Y-104639669D01*
X146235886Y-104639676D01*
X146175219Y-105022712D01*
X146154922Y-105409999D01*
X146154922Y-105410000D01*
X146175219Y-105797287D01*
X146235886Y-106180323D01*
X146235887Y-106180330D01*
X146336262Y-106554936D01*
X146475244Y-106916994D01*
X146651310Y-107262543D01*
X146862531Y-107587793D01*
X147071095Y-107845350D01*
X147071096Y-107845350D01*
X148562266Y-106354180D01*
X148725130Y-106544870D01*
X148915818Y-106707732D01*
X147424648Y-108198903D01*
X147424649Y-108198904D01*
X147682206Y-108407468D01*
X148007456Y-108618689D01*
X148353005Y-108794755D01*
X148715063Y-108933737D01*
X149089669Y-109034112D01*
X149089676Y-109034113D01*
X149472712Y-109094780D01*
X149859999Y-109115078D01*
X149860001Y-109115078D01*
X150247287Y-109094780D01*
X150630323Y-109034113D01*
X150630330Y-109034112D01*
X151004936Y-108933737D01*
X151366994Y-108794755D01*
X151712543Y-108618689D01*
X152037783Y-108407476D01*
X152037785Y-108407475D01*
X152295350Y-108198902D01*
X150804181Y-106707732D01*
X150994870Y-106544870D01*
X151157733Y-106354180D01*
X152648902Y-107845349D01*
X152857475Y-107587785D01*
X152857476Y-107587783D01*
X153068689Y-107262543D01*
X153244755Y-106916994D01*
X153383737Y-106554936D01*
X153484112Y-106180330D01*
X153484113Y-106180323D01*
X153544780Y-105797287D01*
X153565078Y-105410000D01*
X153565078Y-105409999D01*
X153544780Y-105022712D01*
X153484113Y-104639676D01*
X153484112Y-104639669D01*
X153383737Y-104265063D01*
X153319528Y-104097796D01*
X153313880Y-104028155D01*
X153346779Y-103966516D01*
X153407781Y-103932448D01*
X153477517Y-103936769D01*
X153533847Y-103978105D01*
X153536596Y-103981849D01*
X153588049Y-104054741D01*
X153590370Y-104058279D01*
X153875655Y-104527411D01*
X153881119Y-104536395D01*
X153883189Y-104540075D01*
X153934794Y-104639669D01*
X154140629Y-105036915D01*
X154142448Y-105040739D01*
X154365380Y-105553980D01*
X154366933Y-105557920D01*
X154554314Y-106085156D01*
X154555596Y-106089192D01*
X154706568Y-106628024D01*
X154707568Y-106632128D01*
X154750769Y-106840019D01*
X154821414Y-107179977D01*
X154822134Y-107184151D01*
X154898327Y-107738510D01*
X154898760Y-107742722D01*
X154936966Y-108301256D01*
X154937108Y-108304955D01*
X154937668Y-108370429D01*
X154939500Y-108584985D01*
X154939500Y-181610014D01*
X154937109Y-181890039D01*
X154936966Y-181893742D01*
X154898760Y-182452276D01*
X154898327Y-182456488D01*
X154822134Y-183010847D01*
X154821414Y-183015021D01*
X154707571Y-183562860D01*
X154706568Y-183566974D01*
X154555596Y-184105806D01*
X154554314Y-184109842D01*
X154366933Y-184637078D01*
X154365380Y-184641018D01*
X154142448Y-185154259D01*
X154140629Y-185158083D01*
X153883195Y-185654912D01*
X153881119Y-185658603D01*
X153590372Y-186136716D01*
X153588049Y-186140257D01*
X153536597Y-186213147D01*
X153481855Y-186256565D01*
X153412330Y-186263494D01*
X153350095Y-186231735D01*
X153314910Y-186171372D01*
X153317946Y-186101568D01*
X153319529Y-186097200D01*
X153383738Y-185929933D01*
X153484112Y-185555330D01*
X153484113Y-185555323D01*
X153544780Y-185172287D01*
X153565078Y-184785000D01*
X153565078Y-184784999D01*
X153544780Y-184397712D01*
X153484113Y-184014676D01*
X153484112Y-184014669D01*
X153383737Y-183640063D01*
X153244755Y-183278005D01*
X153068689Y-182932456D01*
X152857468Y-182607206D01*
X152648904Y-182349649D01*
X152648903Y-182349648D01*
X151157733Y-183840818D01*
X150994870Y-183650130D01*
X150804179Y-183487265D01*
X152295350Y-181996096D01*
X152295350Y-181996095D01*
X152037793Y-181787531D01*
X151712543Y-181576310D01*
X151366994Y-181400244D01*
X151004936Y-181261262D01*
X150630330Y-181160887D01*
X150630323Y-181160886D01*
X150247287Y-181100219D01*
X149860001Y-181079922D01*
X149859999Y-181079922D01*
X149472712Y-181100219D01*
X149089676Y-181160886D01*
X149089669Y-181160887D01*
X148715063Y-181261262D01*
X148353005Y-181400244D01*
X148007456Y-181576310D01*
X147682206Y-181787531D01*
X147424648Y-181996095D01*
X147424648Y-181996096D01*
X148915819Y-183487266D01*
X148725130Y-183650130D01*
X148562267Y-183840818D01*
X147071096Y-182349648D01*
X147071095Y-182349648D01*
X146862531Y-182607206D01*
X146651310Y-182932456D01*
X146475244Y-183278005D01*
X146336262Y-183640063D01*
X146235887Y-184014669D01*
X146235886Y-184014676D01*
X146175219Y-184397712D01*
X146154922Y-184784999D01*
X146154922Y-184785000D01*
X146175219Y-185172287D01*
X146235886Y-185555323D01*
X146235887Y-185555330D01*
X146336262Y-185929936D01*
X146475244Y-186291994D01*
X146651310Y-186637543D01*
X146862531Y-186962793D01*
X147071095Y-187220350D01*
X147071096Y-187220350D01*
X148562266Y-185729179D01*
X148725130Y-185919870D01*
X148915819Y-186082733D01*
X147424648Y-187573903D01*
X147424649Y-187573904D01*
X147682206Y-187782468D01*
X148007456Y-187993689D01*
X148353005Y-188169755D01*
X148715063Y-188308737D01*
X149089669Y-188409112D01*
X149089676Y-188409113D01*
X149472712Y-188469780D01*
X149859999Y-188490078D01*
X149860001Y-188490078D01*
X150247287Y-188469780D01*
X150630323Y-188409113D01*
X150630330Y-188409112D01*
X151004933Y-188308738D01*
X151172200Y-188244529D01*
X151241841Y-188238881D01*
X151303481Y-188271780D01*
X151337549Y-188332782D01*
X151333228Y-188402518D01*
X151291892Y-188458848D01*
X151288147Y-188461597D01*
X151215257Y-188513049D01*
X151211716Y-188515372D01*
X150733613Y-188806112D01*
X150729922Y-188808188D01*
X150233083Y-189065629D01*
X150229259Y-189067448D01*
X149716022Y-189290378D01*
X149712082Y-189291931D01*
X149184837Y-189479315D01*
X149180801Y-189480596D01*
X148641974Y-189631568D01*
X148637864Y-189632570D01*
X148090020Y-189746414D01*
X148085847Y-189747133D01*
X148080833Y-189747823D01*
X147531489Y-189823328D01*
X147527276Y-189823761D01*
X146968741Y-189861966D01*
X146965041Y-189862108D01*
X146685014Y-189864500D01*
X108584986Y-189864500D01*
X108304955Y-189862108D01*
X108301256Y-189861966D01*
X107742722Y-189823760D01*
X107738510Y-189823327D01*
X107184151Y-189747134D01*
X107179977Y-189746414D01*
X106992903Y-189707539D01*
X106632128Y-189632568D01*
X106628024Y-189631568D01*
X106225030Y-189518655D01*
X106089186Y-189480594D01*
X106085156Y-189479314D01*
X105557920Y-189291933D01*
X105553980Y-189290380D01*
X105040739Y-189067448D01*
X105036915Y-189065629D01*
X104706958Y-188894660D01*
X104540075Y-188808189D01*
X104536402Y-188806123D01*
X104058279Y-188515370D01*
X104054741Y-188513049D01*
X103981849Y-188461596D01*
X103938432Y-188406854D01*
X103931503Y-188337329D01*
X103963262Y-188275094D01*
X104023626Y-188239909D01*
X104093429Y-188242945D01*
X104097796Y-188244528D01*
X104265063Y-188308737D01*
X104639669Y-188409112D01*
X104639676Y-188409113D01*
X105022712Y-188469780D01*
X105409999Y-188490078D01*
X105410001Y-188490078D01*
X105797287Y-188469780D01*
X106180323Y-188409113D01*
X106180330Y-188409112D01*
X106554936Y-188308737D01*
X106916994Y-188169755D01*
X107262543Y-187993689D01*
X107587783Y-187782476D01*
X107587785Y-187782475D01*
X107845349Y-187573902D01*
X106354180Y-186082733D01*
X106544870Y-185919870D01*
X106707733Y-185729180D01*
X108198902Y-187220349D01*
X108407475Y-186962785D01*
X108407476Y-186962783D01*
X108618689Y-186637543D01*
X108794755Y-186291994D01*
X108933737Y-185929936D01*
X109034112Y-185555330D01*
X109034113Y-185555323D01*
X109094780Y-185172287D01*
X109115078Y-184785000D01*
X109115078Y-184784999D01*
X109094780Y-184397712D01*
X109034113Y-184014676D01*
X109034112Y-184014669D01*
X108933737Y-183640063D01*
X108794755Y-183278005D01*
X108618689Y-182932456D01*
X108407468Y-182607206D01*
X108198904Y-182349649D01*
X108198903Y-182349648D01*
X106707732Y-183840818D01*
X106544870Y-183650130D01*
X106354179Y-183487266D01*
X107845350Y-181996096D01*
X107845350Y-181996095D01*
X107587793Y-181787531D01*
X107262543Y-181576310D01*
X106916994Y-181400244D01*
X106554936Y-181261262D01*
X106180330Y-181160887D01*
X106180323Y-181160886D01*
X105797287Y-181100219D01*
X105410001Y-181079922D01*
X105409999Y-181079922D01*
X105022712Y-181100219D01*
X104639676Y-181160886D01*
X104639669Y-181160887D01*
X104265063Y-181261262D01*
X103903005Y-181400244D01*
X103557456Y-181576310D01*
X103232206Y-181787531D01*
X102974648Y-181996095D01*
X102974648Y-181996096D01*
X104465818Y-183487267D01*
X104275130Y-183650130D01*
X104112266Y-183840819D01*
X102621096Y-182349648D01*
X102621095Y-182349648D01*
X102412531Y-182607206D01*
X102201310Y-182932456D01*
X102025244Y-183278005D01*
X101886262Y-183640063D01*
X101785887Y-184014669D01*
X101785886Y-184014676D01*
X101725219Y-184397712D01*
X101704922Y-184784999D01*
X101704922Y-184785000D01*
X101725219Y-185172287D01*
X101785886Y-185555323D01*
X101785887Y-185555330D01*
X101886262Y-185929936D01*
X101950471Y-186097204D01*
X101956119Y-186166845D01*
X101923219Y-186228484D01*
X101862218Y-186262552D01*
X101792482Y-186258231D01*
X101736152Y-186216894D01*
X101733403Y-186213150D01*
X101681949Y-186140257D01*
X101679633Y-186136727D01*
X101388880Y-185658603D01*
X101386810Y-185654922D01*
X101129369Y-185158083D01*
X101127550Y-185154259D01*
X100967158Y-184785000D01*
X100904617Y-184641016D01*
X100903067Y-184637082D01*
X100829984Y-184431446D01*
X100715678Y-184109821D01*
X100714402Y-184105801D01*
X100563430Y-183566974D01*
X100562434Y-183562891D01*
X100448578Y-183014991D01*
X100447869Y-183010875D01*
X100371668Y-182456474D01*
X100371237Y-182452276D01*
X100333032Y-181893741D01*
X100332890Y-181890074D01*
X100330500Y-181610014D01*
X100330500Y-177800000D01*
X102149341Y-177800000D01*
X102169936Y-178035403D01*
X102169938Y-178035413D01*
X102231094Y-178263655D01*
X102231096Y-178263659D01*
X102231097Y-178263663D01*
X102311004Y-178435023D01*
X102330965Y-178477830D01*
X102330967Y-178477834D01*
X102439281Y-178632521D01*
X102466505Y-178671401D01*
X102633599Y-178838495D01*
X102710135Y-178892086D01*
X102827165Y-178974032D01*
X102827167Y-178974033D01*
X102827170Y-178974035D01*
X103041337Y-179073903D01*
X103269592Y-179135063D01*
X103440319Y-179150000D01*
X103504999Y-179155659D01*
X103505000Y-179155659D01*
X103505001Y-179155659D01*
X103569681Y-179150000D01*
X103740408Y-179135063D01*
X103968663Y-179073903D01*
X104182830Y-178974035D01*
X104376401Y-178838495D01*
X104543495Y-178671401D01*
X104673424Y-178485842D01*
X104728002Y-178442217D01*
X104797500Y-178435023D01*
X104859855Y-178466546D01*
X104876575Y-178485842D01*
X105006500Y-178671395D01*
X105006505Y-178671401D01*
X105173599Y-178838495D01*
X105250135Y-178892086D01*
X105367165Y-178974032D01*
X105367167Y-178974033D01*
X105367170Y-178974035D01*
X105581337Y-179073903D01*
X105809592Y-179135063D01*
X105980319Y-179150000D01*
X106044999Y-179155659D01*
X106045000Y-179155659D01*
X106045001Y-179155659D01*
X106109681Y-179150000D01*
X106280408Y-179135063D01*
X106508663Y-179073903D01*
X106722830Y-178974035D01*
X106916401Y-178838495D01*
X107038717Y-178716178D01*
X107100036Y-178682696D01*
X107169728Y-178687680D01*
X107225662Y-178729551D01*
X107242577Y-178760529D01*
X107250275Y-178781168D01*
X107250276Y-178781169D01*
X108093866Y-177937579D01*
X108116318Y-178014040D01*
X108195605Y-178137413D01*
X108306438Y-178233451D01*
X108439839Y-178294373D01*
X108443634Y-178294918D01*
X107603829Y-179134722D01*
X107603829Y-179134723D01*
X107627624Y-179143598D01*
X107687155Y-179149999D01*
X107687172Y-179150000D01*
X109482828Y-179150000D01*
X109482844Y-179149999D01*
X109542372Y-179143598D01*
X109542378Y-179143597D01*
X109566168Y-179134723D01*
X109566168Y-179134722D01*
X108726366Y-178294918D01*
X108730161Y-178294373D01*
X108863562Y-178233451D01*
X108974395Y-178137413D01*
X109053682Y-178014040D01*
X109076133Y-177937580D01*
X109919722Y-178781168D01*
X109919723Y-178781168D01*
X109927423Y-178760526D01*
X109969296Y-178704593D01*
X110034761Y-178680178D01*
X110103033Y-178695031D01*
X110131285Y-178716181D01*
X110253599Y-178838495D01*
X110330135Y-178892086D01*
X110447165Y-178974032D01*
X110447167Y-178974033D01*
X110447170Y-178974035D01*
X110661337Y-179073903D01*
X110889592Y-179135063D01*
X111060319Y-179150000D01*
X111124999Y-179155659D01*
X111125000Y-179155659D01*
X111125001Y-179155659D01*
X111189681Y-179150000D01*
X111360408Y-179135063D01*
X111588663Y-179073903D01*
X111802830Y-178974035D01*
X111996401Y-178838495D01*
X112163495Y-178671401D01*
X112293424Y-178485842D01*
X112348002Y-178442217D01*
X112417500Y-178435023D01*
X112479855Y-178466546D01*
X112496575Y-178485842D01*
X112626500Y-178671395D01*
X112626505Y-178671401D01*
X112793599Y-178838495D01*
X112870135Y-178892086D01*
X112987165Y-178974032D01*
X112987167Y-178974033D01*
X112987170Y-178974035D01*
X113201337Y-179073903D01*
X113429592Y-179135063D01*
X113600319Y-179150000D01*
X113664999Y-179155659D01*
X113665000Y-179155659D01*
X113665001Y-179155659D01*
X113729681Y-179150000D01*
X113900408Y-179135063D01*
X114128663Y-179073903D01*
X114342830Y-178974035D01*
X114536401Y-178838495D01*
X114703495Y-178671401D01*
X114833424Y-178485842D01*
X114888002Y-178442217D01*
X114957500Y-178435023D01*
X115019855Y-178466546D01*
X115036575Y-178485842D01*
X115166500Y-178671395D01*
X115166505Y-178671401D01*
X115333599Y-178838495D01*
X115410135Y-178892086D01*
X115527165Y-178974032D01*
X115527167Y-178974033D01*
X115527170Y-178974035D01*
X115741337Y-179073903D01*
X115969592Y-179135063D01*
X116140319Y-179150000D01*
X116204999Y-179155659D01*
X116205000Y-179155659D01*
X116205001Y-179155659D01*
X116269681Y-179150000D01*
X116440408Y-179135063D01*
X116668663Y-179073903D01*
X116882830Y-178974035D01*
X117076401Y-178838495D01*
X117243495Y-178671401D01*
X117373424Y-178485842D01*
X117428002Y-178442217D01*
X117497500Y-178435023D01*
X117559855Y-178466546D01*
X117576575Y-178485842D01*
X117706500Y-178671395D01*
X117706505Y-178671401D01*
X117873599Y-178838495D01*
X117950135Y-178892086D01*
X118067165Y-178974032D01*
X118067167Y-178974033D01*
X118067170Y-178974035D01*
X118281337Y-179073903D01*
X118509592Y-179135063D01*
X118680319Y-179150000D01*
X118744999Y-179155659D01*
X118745000Y-179155659D01*
X118745001Y-179155659D01*
X118809681Y-179150000D01*
X118980408Y-179135063D01*
X119208663Y-179073903D01*
X119422830Y-178974035D01*
X119616401Y-178838495D01*
X119738717Y-178716178D01*
X119800036Y-178682696D01*
X119869728Y-178687680D01*
X119925662Y-178729551D01*
X119942577Y-178760529D01*
X119950275Y-178781168D01*
X119950276Y-178781169D01*
X120793866Y-177937579D01*
X120816318Y-178014040D01*
X120895605Y-178137413D01*
X121006438Y-178233451D01*
X121139839Y-178294373D01*
X121143634Y-178294918D01*
X120303829Y-179134722D01*
X120303829Y-179134723D01*
X120327624Y-179143598D01*
X120387155Y-179149999D01*
X120387172Y-179150000D01*
X122182828Y-179150000D01*
X122182844Y-179149999D01*
X122242372Y-179143598D01*
X122242378Y-179143597D01*
X122266168Y-179134723D01*
X122266168Y-179134722D01*
X121426366Y-178294918D01*
X121430161Y-178294373D01*
X121563562Y-178233451D01*
X121674395Y-178137413D01*
X121753682Y-178014040D01*
X121776133Y-177937580D01*
X122619722Y-178781168D01*
X122619723Y-178781168D01*
X122627423Y-178760526D01*
X122669296Y-178704593D01*
X122734761Y-178680178D01*
X122803033Y-178695031D01*
X122831285Y-178716181D01*
X122953599Y-178838495D01*
X123030135Y-178892086D01*
X123147165Y-178974032D01*
X123147167Y-178974033D01*
X123147170Y-178974035D01*
X123361337Y-179073903D01*
X123589592Y-179135063D01*
X123760319Y-179150000D01*
X123824999Y-179155659D01*
X123825000Y-179155659D01*
X123825001Y-179155659D01*
X123889681Y-179150000D01*
X124060408Y-179135063D01*
X124288663Y-179073903D01*
X124502830Y-178974035D01*
X124696401Y-178838495D01*
X124863495Y-178671401D01*
X124993424Y-178485842D01*
X125048002Y-178442217D01*
X125117500Y-178435023D01*
X125179855Y-178466546D01*
X125196575Y-178485842D01*
X125326500Y-178671395D01*
X125326505Y-178671401D01*
X125493599Y-178838495D01*
X125570135Y-178892086D01*
X125687165Y-178974032D01*
X125687167Y-178974033D01*
X125687170Y-178974035D01*
X125901337Y-179073903D01*
X126129592Y-179135063D01*
X126300319Y-179150000D01*
X126364999Y-179155659D01*
X126365000Y-179155659D01*
X126365001Y-179155659D01*
X126429681Y-179150000D01*
X126600408Y-179135063D01*
X126828663Y-179073903D01*
X127042830Y-178974035D01*
X127236401Y-178838495D01*
X127403495Y-178671401D01*
X127533424Y-178485842D01*
X127588002Y-178442217D01*
X127657500Y-178435023D01*
X127719855Y-178466546D01*
X127736575Y-178485842D01*
X127866500Y-178671395D01*
X127866505Y-178671401D01*
X128033599Y-178838495D01*
X128110135Y-178892086D01*
X128227165Y-178974032D01*
X128227167Y-178974033D01*
X128227170Y-178974035D01*
X128441337Y-179073903D01*
X128669592Y-179135063D01*
X128840319Y-179150000D01*
X128904999Y-179155659D01*
X128905000Y-179155659D01*
X128905001Y-179155659D01*
X128969681Y-179150000D01*
X129140408Y-179135063D01*
X129368663Y-179073903D01*
X129582830Y-178974035D01*
X129776401Y-178838495D01*
X129943495Y-178671401D01*
X130073424Y-178485842D01*
X130128002Y-178442217D01*
X130197500Y-178435023D01*
X130259855Y-178466546D01*
X130276575Y-178485842D01*
X130406500Y-178671395D01*
X130406505Y-178671401D01*
X130573599Y-178838495D01*
X130650135Y-178892086D01*
X130767165Y-178974032D01*
X130767167Y-178974033D01*
X130767170Y-178974035D01*
X130981337Y-179073903D01*
X131209592Y-179135063D01*
X131380319Y-179150000D01*
X131444999Y-179155659D01*
X131445000Y-179155659D01*
X131445001Y-179155659D01*
X131509681Y-179150000D01*
X131680408Y-179135063D01*
X131908663Y-179073903D01*
X132122830Y-178974035D01*
X132316401Y-178838495D01*
X132438717Y-178716178D01*
X132500036Y-178682696D01*
X132569728Y-178687680D01*
X132625662Y-178729551D01*
X132642577Y-178760528D01*
X132691646Y-178892088D01*
X132691649Y-178892093D01*
X132777809Y-179007187D01*
X132777812Y-179007190D01*
X132892906Y-179093350D01*
X132892913Y-179093354D01*
X133027620Y-179143596D01*
X133027627Y-179143598D01*
X133087155Y-179149999D01*
X133087172Y-179150000D01*
X133735000Y-179150000D01*
X133735000Y-178246494D01*
X133839839Y-178294373D01*
X133948527Y-178310000D01*
X134021473Y-178310000D01*
X134130161Y-178294373D01*
X134235000Y-178246494D01*
X134235000Y-179150000D01*
X134882828Y-179150000D01*
X134882844Y-179149999D01*
X134942372Y-179143598D01*
X134942379Y-179143596D01*
X135077086Y-179093354D01*
X135077093Y-179093350D01*
X135192187Y-179007190D01*
X135192190Y-179007187D01*
X135278350Y-178892093D01*
X135278354Y-178892086D01*
X135327422Y-178760529D01*
X135369293Y-178704595D01*
X135434757Y-178680178D01*
X135503030Y-178695030D01*
X135531285Y-178716181D01*
X135653599Y-178838495D01*
X135730135Y-178892086D01*
X135847165Y-178974032D01*
X135847167Y-178974033D01*
X135847170Y-178974035D01*
X136061337Y-179073903D01*
X136289592Y-179135063D01*
X136460319Y-179150000D01*
X136524999Y-179155659D01*
X136525000Y-179155659D01*
X136525001Y-179155659D01*
X136589681Y-179150000D01*
X136760408Y-179135063D01*
X136988663Y-179073903D01*
X137202830Y-178974035D01*
X137396401Y-178838495D01*
X137563495Y-178671401D01*
X137693424Y-178485842D01*
X137748002Y-178442217D01*
X137817500Y-178435023D01*
X137879855Y-178466546D01*
X137896575Y-178485842D01*
X138026500Y-178671395D01*
X138026505Y-178671401D01*
X138193599Y-178838495D01*
X138270135Y-178892086D01*
X138387165Y-178974032D01*
X138387167Y-178974033D01*
X138387170Y-178974035D01*
X138601337Y-179073903D01*
X138829592Y-179135063D01*
X139000319Y-179150000D01*
X139064999Y-179155659D01*
X139065000Y-179155659D01*
X139065001Y-179155659D01*
X139129681Y-179150000D01*
X139300408Y-179135063D01*
X139528663Y-179073903D01*
X139742830Y-178974035D01*
X139936401Y-178838495D01*
X140103495Y-178671401D01*
X140233424Y-178485842D01*
X140288002Y-178442217D01*
X140357500Y-178435023D01*
X140419855Y-178466546D01*
X140436575Y-178485842D01*
X140566500Y-178671395D01*
X140566505Y-178671401D01*
X140733599Y-178838495D01*
X140810135Y-178892086D01*
X140927165Y-178974032D01*
X140927167Y-178974033D01*
X140927170Y-178974035D01*
X141141337Y-179073903D01*
X141369592Y-179135063D01*
X141540319Y-179150000D01*
X141604999Y-179155659D01*
X141605000Y-179155659D01*
X141605001Y-179155659D01*
X141669681Y-179150000D01*
X141840408Y-179135063D01*
X142068663Y-179073903D01*
X142282830Y-178974035D01*
X142476401Y-178838495D01*
X142643495Y-178671401D01*
X142773424Y-178485842D01*
X142828002Y-178442217D01*
X142897500Y-178435023D01*
X142959855Y-178466546D01*
X142976575Y-178485842D01*
X143106500Y-178671395D01*
X143106505Y-178671401D01*
X143273599Y-178838495D01*
X143350135Y-178892086D01*
X143467165Y-178974032D01*
X143467167Y-178974033D01*
X143467170Y-178974035D01*
X143681337Y-179073903D01*
X143909592Y-179135063D01*
X144080319Y-179150000D01*
X144144999Y-179155659D01*
X144145000Y-179155659D01*
X144145001Y-179155659D01*
X144209681Y-179150000D01*
X144380408Y-179135063D01*
X144608663Y-179073903D01*
X144822830Y-178974035D01*
X145016401Y-178838495D01*
X145138717Y-178716178D01*
X145200036Y-178682696D01*
X145269728Y-178687680D01*
X145325662Y-178729551D01*
X145342577Y-178760528D01*
X145391646Y-178892088D01*
X145391649Y-178892093D01*
X145477809Y-179007187D01*
X145477812Y-179007190D01*
X145592906Y-179093350D01*
X145592913Y-179093354D01*
X145727620Y-179143596D01*
X145727627Y-179143598D01*
X145787155Y-179149999D01*
X145787172Y-179150000D01*
X146435000Y-179150000D01*
X146435000Y-178246494D01*
X146539839Y-178294373D01*
X146648527Y-178310000D01*
X146721473Y-178310000D01*
X146830161Y-178294373D01*
X146935000Y-178246494D01*
X146935000Y-179150000D01*
X147582828Y-179150000D01*
X147582844Y-179149999D01*
X147642372Y-179143598D01*
X147642379Y-179143596D01*
X147777086Y-179093354D01*
X147777093Y-179093350D01*
X147892187Y-179007190D01*
X147892190Y-179007187D01*
X147978350Y-178892093D01*
X147978354Y-178892086D01*
X148027422Y-178760529D01*
X148069293Y-178704595D01*
X148134757Y-178680178D01*
X148203030Y-178695030D01*
X148231285Y-178716181D01*
X148353599Y-178838495D01*
X148430135Y-178892086D01*
X148547165Y-178974032D01*
X148547167Y-178974033D01*
X148547170Y-178974035D01*
X148761337Y-179073903D01*
X148989592Y-179135063D01*
X149160319Y-179150000D01*
X149224999Y-179155659D01*
X149225000Y-179155659D01*
X149225001Y-179155659D01*
X149289681Y-179150000D01*
X149460408Y-179135063D01*
X149688663Y-179073903D01*
X149902830Y-178974035D01*
X150096401Y-178838495D01*
X150263495Y-178671401D01*
X150393424Y-178485842D01*
X150448002Y-178442217D01*
X150517500Y-178435023D01*
X150579855Y-178466546D01*
X150596575Y-178485842D01*
X150726500Y-178671395D01*
X150726505Y-178671401D01*
X150893599Y-178838495D01*
X150970135Y-178892086D01*
X151087165Y-178974032D01*
X151087167Y-178974033D01*
X151087170Y-178974035D01*
X151301337Y-179073903D01*
X151529592Y-179135063D01*
X151700319Y-179150000D01*
X151764999Y-179155659D01*
X151765000Y-179155659D01*
X151765001Y-179155659D01*
X151829681Y-179150000D01*
X152000408Y-179135063D01*
X152228663Y-179073903D01*
X152442830Y-178974035D01*
X152636401Y-178838495D01*
X152803495Y-178671401D01*
X152939035Y-178477830D01*
X153038903Y-178263663D01*
X153100063Y-178035408D01*
X153120659Y-177800000D01*
X153100063Y-177564592D01*
X153038903Y-177336337D01*
X152939035Y-177122171D01*
X152933425Y-177114158D01*
X152803494Y-176928597D01*
X152636402Y-176761506D01*
X152636395Y-176761501D01*
X152442834Y-176625967D01*
X152442830Y-176625965D01*
X152371727Y-176592809D01*
X152228663Y-176526097D01*
X152228659Y-176526096D01*
X152228655Y-176526094D01*
X152000413Y-176464938D01*
X152000403Y-176464936D01*
X151765001Y-176444341D01*
X151764999Y-176444341D01*
X151529596Y-176464936D01*
X151529586Y-176464938D01*
X151301344Y-176526094D01*
X151301335Y-176526098D01*
X151087171Y-176625964D01*
X151087169Y-176625965D01*
X150893597Y-176761505D01*
X150726505Y-176928597D01*
X150596575Y-177114158D01*
X150541998Y-177157783D01*
X150472500Y-177164977D01*
X150410145Y-177133454D01*
X150393425Y-177114158D01*
X150263494Y-176928597D01*
X150096402Y-176761506D01*
X150096395Y-176761501D01*
X149902834Y-176625967D01*
X149902830Y-176625965D01*
X149831727Y-176592809D01*
X149688663Y-176526097D01*
X149688659Y-176526096D01*
X149688655Y-176526094D01*
X149460413Y-176464938D01*
X149460403Y-176464936D01*
X149225001Y-176444341D01*
X149224999Y-176444341D01*
X148989596Y-176464936D01*
X148989586Y-176464938D01*
X148761344Y-176526094D01*
X148761335Y-176526098D01*
X148547171Y-176625964D01*
X148547169Y-176625965D01*
X148353600Y-176761503D01*
X148231284Y-176883819D01*
X148169961Y-176917303D01*
X148100269Y-176912319D01*
X148044336Y-176870447D01*
X148027421Y-176839470D01*
X147978354Y-176707913D01*
X147978350Y-176707906D01*
X147892190Y-176592812D01*
X147892187Y-176592809D01*
X147777093Y-176506649D01*
X147777086Y-176506645D01*
X147642379Y-176456403D01*
X147642372Y-176456401D01*
X147582844Y-176450000D01*
X146935000Y-176450000D01*
X146935000Y-177353505D01*
X146830161Y-177305627D01*
X146721473Y-177290000D01*
X146648527Y-177290000D01*
X146539839Y-177305627D01*
X146435000Y-177353505D01*
X146435000Y-176450000D01*
X145787155Y-176450000D01*
X145727627Y-176456401D01*
X145727620Y-176456403D01*
X145592913Y-176506645D01*
X145592906Y-176506649D01*
X145477812Y-176592809D01*
X145477809Y-176592812D01*
X145391649Y-176707906D01*
X145391645Y-176707913D01*
X145342578Y-176839470D01*
X145300707Y-176895404D01*
X145235242Y-176919821D01*
X145166969Y-176904969D01*
X145138715Y-176883819D01*
X145094364Y-176839468D01*
X145016401Y-176761505D01*
X145016397Y-176761502D01*
X145016396Y-176761501D01*
X144822834Y-176625967D01*
X144822830Y-176625965D01*
X144751727Y-176592809D01*
X144608663Y-176526097D01*
X144608659Y-176526096D01*
X144608655Y-176526094D01*
X144380413Y-176464938D01*
X144380403Y-176464936D01*
X144145001Y-176444341D01*
X144144999Y-176444341D01*
X143909596Y-176464936D01*
X143909586Y-176464938D01*
X143681344Y-176526094D01*
X143681335Y-176526098D01*
X143467171Y-176625964D01*
X143467169Y-176625965D01*
X143273597Y-176761505D01*
X143106505Y-176928597D01*
X142976575Y-177114158D01*
X142921998Y-177157783D01*
X142852500Y-177164977D01*
X142790145Y-177133454D01*
X142773425Y-177114158D01*
X142643494Y-176928597D01*
X142476402Y-176761506D01*
X142476395Y-176761501D01*
X142282834Y-176625967D01*
X142282830Y-176625965D01*
X142211727Y-176592809D01*
X142068663Y-176526097D01*
X142068659Y-176526096D01*
X142068655Y-176526094D01*
X141840413Y-176464938D01*
X141840403Y-176464936D01*
X141605001Y-176444341D01*
X141604999Y-176444341D01*
X141369596Y-176464936D01*
X141369586Y-176464938D01*
X141141344Y-176526094D01*
X141141335Y-176526098D01*
X140927171Y-176625964D01*
X140927169Y-176625965D01*
X140733597Y-176761505D01*
X140566505Y-176928597D01*
X140436575Y-177114158D01*
X140381998Y-177157783D01*
X140312500Y-177164977D01*
X140250145Y-177133454D01*
X140233425Y-177114158D01*
X140103494Y-176928597D01*
X139936402Y-176761506D01*
X139936395Y-176761501D01*
X139742834Y-176625967D01*
X139742830Y-176625965D01*
X139671727Y-176592809D01*
X139528663Y-176526097D01*
X139528659Y-176526096D01*
X139528655Y-176526094D01*
X139300413Y-176464938D01*
X139300403Y-176464936D01*
X139065001Y-176444341D01*
X139064999Y-176444341D01*
X138829596Y-176464936D01*
X138829586Y-176464938D01*
X138601344Y-176526094D01*
X138601335Y-176526098D01*
X138387171Y-176625964D01*
X138387169Y-176625965D01*
X138193597Y-176761505D01*
X138026505Y-176928597D01*
X137896575Y-177114158D01*
X137841998Y-177157783D01*
X137772500Y-177164977D01*
X137710145Y-177133454D01*
X137693425Y-177114158D01*
X137563494Y-176928597D01*
X137396402Y-176761506D01*
X137396395Y-176761501D01*
X137202834Y-176625967D01*
X137202830Y-176625965D01*
X137131727Y-176592809D01*
X136988663Y-176526097D01*
X136988659Y-176526096D01*
X136988655Y-176526094D01*
X136760413Y-176464938D01*
X136760403Y-176464936D01*
X136525001Y-176444341D01*
X136524999Y-176444341D01*
X136289596Y-176464936D01*
X136289586Y-176464938D01*
X136061344Y-176526094D01*
X136061335Y-176526098D01*
X135847171Y-176625964D01*
X135847169Y-176625965D01*
X135653600Y-176761503D01*
X135531284Y-176883819D01*
X135469961Y-176917303D01*
X135400269Y-176912319D01*
X135344336Y-176870447D01*
X135327421Y-176839470D01*
X135278354Y-176707913D01*
X135278350Y-176707906D01*
X135192190Y-176592812D01*
X135192187Y-176592809D01*
X135077093Y-176506649D01*
X135077086Y-176506645D01*
X134942379Y-176456403D01*
X134942372Y-176456401D01*
X134882844Y-176450000D01*
X134235000Y-176450000D01*
X134235000Y-177353505D01*
X134130161Y-177305627D01*
X134021473Y-177290000D01*
X133948527Y-177290000D01*
X133839839Y-177305627D01*
X133735000Y-177353505D01*
X133735000Y-176450000D01*
X133087155Y-176450000D01*
X133027627Y-176456401D01*
X133027620Y-176456403D01*
X132892913Y-176506645D01*
X132892906Y-176506649D01*
X132777812Y-176592809D01*
X132777809Y-176592812D01*
X132691649Y-176707906D01*
X132691645Y-176707913D01*
X132642578Y-176839470D01*
X132600707Y-176895404D01*
X132535242Y-176919821D01*
X132466969Y-176904969D01*
X132438715Y-176883819D01*
X132394364Y-176839468D01*
X132316401Y-176761505D01*
X132316397Y-176761502D01*
X132316396Y-176761501D01*
X132122834Y-176625967D01*
X132122830Y-176625965D01*
X132051727Y-176592809D01*
X131908663Y-176526097D01*
X131908659Y-176526096D01*
X131908655Y-176526094D01*
X131680413Y-176464938D01*
X131680403Y-176464936D01*
X131445001Y-176444341D01*
X131444999Y-176444341D01*
X131209596Y-176464936D01*
X131209586Y-176464938D01*
X130981344Y-176526094D01*
X130981335Y-176526098D01*
X130767171Y-176625964D01*
X130767169Y-176625965D01*
X130573597Y-176761505D01*
X130406505Y-176928597D01*
X130276575Y-177114158D01*
X130221998Y-177157783D01*
X130152500Y-177164977D01*
X130090145Y-177133454D01*
X130073425Y-177114158D01*
X129943494Y-176928597D01*
X129776402Y-176761506D01*
X129776395Y-176761501D01*
X129582834Y-176625967D01*
X129582830Y-176625965D01*
X129511727Y-176592809D01*
X129368663Y-176526097D01*
X129368659Y-176526096D01*
X129368655Y-176526094D01*
X129140413Y-176464938D01*
X129140403Y-176464936D01*
X128905001Y-176444341D01*
X128904999Y-176444341D01*
X128669596Y-176464936D01*
X128669586Y-176464938D01*
X128441344Y-176526094D01*
X128441335Y-176526098D01*
X128227171Y-176625964D01*
X128227169Y-176625965D01*
X128033597Y-176761505D01*
X127866505Y-176928597D01*
X127736575Y-177114158D01*
X127681998Y-177157783D01*
X127612500Y-177164977D01*
X127550145Y-177133454D01*
X127533425Y-177114158D01*
X127403494Y-176928597D01*
X127236402Y-176761506D01*
X127236395Y-176761501D01*
X127042834Y-176625967D01*
X127042830Y-176625965D01*
X126971727Y-176592809D01*
X126828663Y-176526097D01*
X126828659Y-176526096D01*
X126828655Y-176526094D01*
X126600413Y-176464938D01*
X126600403Y-176464936D01*
X126365001Y-176444341D01*
X126364999Y-176444341D01*
X126129596Y-176464936D01*
X126129586Y-176464938D01*
X125901344Y-176526094D01*
X125901335Y-176526098D01*
X125687171Y-176625964D01*
X125687169Y-176625965D01*
X125493597Y-176761505D01*
X125326505Y-176928597D01*
X125196575Y-177114158D01*
X125141998Y-177157783D01*
X125072500Y-177164977D01*
X125010145Y-177133454D01*
X124993425Y-177114158D01*
X124863494Y-176928597D01*
X124696402Y-176761506D01*
X124696395Y-176761501D01*
X124502834Y-176625967D01*
X124502830Y-176625965D01*
X124431727Y-176592809D01*
X124288663Y-176526097D01*
X124288659Y-176526096D01*
X124288655Y-176526094D01*
X124060413Y-176464938D01*
X124060403Y-176464936D01*
X123825001Y-176444341D01*
X123824999Y-176444341D01*
X123589596Y-176464936D01*
X123589586Y-176464938D01*
X123361344Y-176526094D01*
X123361335Y-176526098D01*
X123147171Y-176625964D01*
X123147169Y-176625965D01*
X122953600Y-176761503D01*
X122831284Y-176883819D01*
X122769961Y-176917303D01*
X122700269Y-176912319D01*
X122644336Y-176870447D01*
X122627421Y-176839471D01*
X122619721Y-176818829D01*
X121776132Y-177662418D01*
X121753682Y-177585960D01*
X121674395Y-177462587D01*
X121563562Y-177366549D01*
X121430161Y-177305627D01*
X121426365Y-177305081D01*
X122266169Y-176465276D01*
X122266168Y-176465275D01*
X122242382Y-176456403D01*
X122242372Y-176456401D01*
X122182844Y-176450000D01*
X120387155Y-176450000D01*
X120327626Y-176456401D01*
X120303829Y-176465276D01*
X121143635Y-177305081D01*
X121139839Y-177305627D01*
X121006438Y-177366549D01*
X120895605Y-177462587D01*
X120816318Y-177585960D01*
X120793866Y-177662419D01*
X119950276Y-176818829D01*
X119950276Y-176818830D01*
X119942579Y-176839468D01*
X119900708Y-176895403D01*
X119835244Y-176919821D01*
X119766971Y-176904970D01*
X119738715Y-176883819D01*
X119694364Y-176839468D01*
X119616401Y-176761505D01*
X119616397Y-176761502D01*
X119616396Y-176761501D01*
X119422834Y-176625967D01*
X119422830Y-176625965D01*
X119351727Y-176592809D01*
X119208663Y-176526097D01*
X119208659Y-176526096D01*
X119208655Y-176526094D01*
X118980413Y-176464938D01*
X118980403Y-176464936D01*
X118745001Y-176444341D01*
X118744999Y-176444341D01*
X118509596Y-176464936D01*
X118509586Y-176464938D01*
X118281344Y-176526094D01*
X118281335Y-176526098D01*
X118067171Y-176625964D01*
X118067169Y-176625965D01*
X117873597Y-176761505D01*
X117706505Y-176928597D01*
X117576575Y-177114158D01*
X117521998Y-177157783D01*
X117452500Y-177164977D01*
X117390145Y-177133454D01*
X117373425Y-177114158D01*
X117243494Y-176928597D01*
X117076402Y-176761506D01*
X117076395Y-176761501D01*
X116882834Y-176625967D01*
X116882830Y-176625965D01*
X116811727Y-176592809D01*
X116668663Y-176526097D01*
X116668659Y-176526096D01*
X116668655Y-176526094D01*
X116440413Y-176464938D01*
X116440403Y-176464936D01*
X116205001Y-176444341D01*
X116204999Y-176444341D01*
X115969596Y-176464936D01*
X115969586Y-176464938D01*
X115741344Y-176526094D01*
X115741335Y-176526098D01*
X115527171Y-176625964D01*
X115527169Y-176625965D01*
X115333597Y-176761505D01*
X115166505Y-176928597D01*
X115036575Y-177114158D01*
X114981998Y-177157783D01*
X114912500Y-177164977D01*
X114850145Y-177133454D01*
X114833425Y-177114158D01*
X114703494Y-176928597D01*
X114536402Y-176761506D01*
X114536395Y-176761501D01*
X114342834Y-176625967D01*
X114342830Y-176625965D01*
X114271727Y-176592809D01*
X114128663Y-176526097D01*
X114128659Y-176526096D01*
X114128655Y-176526094D01*
X113900413Y-176464938D01*
X113900403Y-176464936D01*
X113665001Y-176444341D01*
X113664999Y-176444341D01*
X113429596Y-176464936D01*
X113429586Y-176464938D01*
X113201344Y-176526094D01*
X113201335Y-176526098D01*
X112987171Y-176625964D01*
X112987169Y-176625965D01*
X112793597Y-176761505D01*
X112626505Y-176928597D01*
X112496575Y-177114158D01*
X112441998Y-177157783D01*
X112372500Y-177164977D01*
X112310145Y-177133454D01*
X112293425Y-177114158D01*
X112163494Y-176928597D01*
X111996402Y-176761506D01*
X111996395Y-176761501D01*
X111802834Y-176625967D01*
X111802830Y-176625965D01*
X111731727Y-176592809D01*
X111588663Y-176526097D01*
X111588659Y-176526096D01*
X111588655Y-176526094D01*
X111360413Y-176464938D01*
X111360403Y-176464936D01*
X111125001Y-176444341D01*
X111124999Y-176444341D01*
X110889596Y-176464936D01*
X110889586Y-176464938D01*
X110661344Y-176526094D01*
X110661335Y-176526098D01*
X110447171Y-176625964D01*
X110447169Y-176625965D01*
X110253600Y-176761503D01*
X110131284Y-176883819D01*
X110069961Y-176917303D01*
X110000269Y-176912319D01*
X109944336Y-176870447D01*
X109927421Y-176839471D01*
X109919721Y-176818829D01*
X109076132Y-177662418D01*
X109053682Y-177585960D01*
X108974395Y-177462587D01*
X108863562Y-177366549D01*
X108730161Y-177305627D01*
X108726365Y-177305081D01*
X109566169Y-176465276D01*
X109566168Y-176465275D01*
X109542382Y-176456403D01*
X109542372Y-176456401D01*
X109482844Y-176450000D01*
X107687155Y-176450000D01*
X107627626Y-176456401D01*
X107603829Y-176465276D01*
X108443635Y-177305081D01*
X108439839Y-177305627D01*
X108306438Y-177366549D01*
X108195605Y-177462587D01*
X108116318Y-177585960D01*
X108093866Y-177662419D01*
X107250276Y-176818829D01*
X107250276Y-176818830D01*
X107242579Y-176839468D01*
X107200708Y-176895403D01*
X107135244Y-176919821D01*
X107066971Y-176904970D01*
X107038715Y-176883819D01*
X106994364Y-176839468D01*
X106916401Y-176761505D01*
X106916397Y-176761502D01*
X106916396Y-176761501D01*
X106722834Y-176625967D01*
X106722830Y-176625965D01*
X106651727Y-176592809D01*
X106508663Y-176526097D01*
X106508659Y-176526096D01*
X106508655Y-176526094D01*
X106280413Y-176464938D01*
X106280403Y-176464936D01*
X106045001Y-176444341D01*
X106044999Y-176444341D01*
X105809596Y-176464936D01*
X105809586Y-176464938D01*
X105581344Y-176526094D01*
X105581335Y-176526098D01*
X105367171Y-176625964D01*
X105367169Y-176625965D01*
X105173597Y-176761505D01*
X105006508Y-176928594D01*
X104876574Y-177114159D01*
X104821997Y-177157784D01*
X104752498Y-177164976D01*
X104690144Y-177133454D01*
X104673424Y-177114158D01*
X104543494Y-176928597D01*
X104376402Y-176761506D01*
X104376395Y-176761501D01*
X104182834Y-176625967D01*
X104182830Y-176625965D01*
X104111727Y-176592809D01*
X103968663Y-176526097D01*
X103968659Y-176526096D01*
X103968655Y-176526094D01*
X103740413Y-176464938D01*
X103740403Y-176464936D01*
X103505001Y-176444341D01*
X103504999Y-176444341D01*
X103269596Y-176464936D01*
X103269586Y-176464938D01*
X103041344Y-176526094D01*
X103041335Y-176526098D01*
X102827171Y-176625964D01*
X102827169Y-176625965D01*
X102633597Y-176761505D01*
X102466505Y-176928597D01*
X102330965Y-177122169D01*
X102330964Y-177122171D01*
X102231098Y-177336335D01*
X102231094Y-177336344D01*
X102169938Y-177564586D01*
X102169936Y-177564596D01*
X102149341Y-177799999D01*
X102149341Y-177800000D01*
X100330500Y-177800000D01*
X100330500Y-171635000D01*
X102229700Y-171635000D01*
X102232359Y-171667097D01*
X102236955Y-171722567D01*
X102240819Y-171813523D01*
X102240820Y-171813534D01*
X102245939Y-171837284D01*
X102247120Y-171845233D01*
X102248865Y-171866301D01*
X102248865Y-171866304D01*
X102248866Y-171866305D01*
X102271205Y-171954520D01*
X102278677Y-171989191D01*
X102291046Y-172046582D01*
X102298883Y-172066084D01*
X102301458Y-172073987D01*
X102305844Y-172091303D01*
X102343655Y-172177504D01*
X102379934Y-172267787D01*
X102379935Y-172267788D01*
X102389232Y-172282888D01*
X102393218Y-172290495D01*
X102399076Y-172303850D01*
X102452275Y-172385277D01*
X102504930Y-172470794D01*
X102511543Y-172478308D01*
X102522263Y-172492402D01*
X102524738Y-172496189D01*
X102526021Y-172498153D01*
X102594027Y-172572028D01*
X102662436Y-172649755D01*
X102667564Y-172653895D01*
X102680882Y-172666377D01*
X102683216Y-172668913D01*
X102764933Y-172732515D01*
X102847920Y-172799523D01*
X102847922Y-172799524D01*
X102850678Y-172801064D01*
X102866360Y-172811460D01*
X102866367Y-172811465D01*
X102866371Y-172811467D01*
X102866374Y-172811470D01*
X102959885Y-172862075D01*
X102960162Y-172862225D01*
X103056046Y-172915790D01*
X103058849Y-172917058D01*
X103065695Y-172920097D01*
X103065794Y-172919873D01*
X103070490Y-172921932D01*
X103070497Y-172921936D01*
X103174276Y-172957563D01*
X103280829Y-172995211D01*
X103281398Y-172995308D01*
X103286129Y-172996312D01*
X103290007Y-172997294D01*
X103290019Y-172997298D01*
X103401324Y-173015870D01*
X103401324Y-173015871D01*
X103515791Y-173035499D01*
X103515800Y-173035500D01*
X103751044Y-173035500D01*
X103751049Y-173035500D01*
X103784073Y-173029988D01*
X103807469Y-173026085D01*
X103812407Y-173025463D01*
X103872541Y-173020346D01*
X103924615Y-173006786D01*
X103930017Y-173005634D01*
X103979981Y-172997298D01*
X104037186Y-172977658D01*
X104041663Y-172976309D01*
X104103249Y-172960275D01*
X104109249Y-172957563D01*
X104114262Y-172955296D01*
X104149297Y-172939459D01*
X104154681Y-172937322D01*
X104199503Y-172921936D01*
X104255554Y-172891601D01*
X104259527Y-172889632D01*
X104268156Y-172885730D01*
X104320486Y-172862077D01*
X104359647Y-172835608D01*
X104364820Y-172832469D01*
X104403626Y-172811470D01*
X104456532Y-172770290D01*
X104459850Y-172767881D01*
X104518003Y-172728579D01*
X104549770Y-172698131D01*
X104554548Y-172694002D01*
X104586784Y-172668913D01*
X104589109Y-172666388D01*
X104604420Y-172649755D01*
X104634389Y-172617198D01*
X104637101Y-172614432D01*
X104690118Y-172563621D01*
X104714329Y-172530883D01*
X104718540Y-172525785D01*
X104743979Y-172498153D01*
X104784206Y-172436578D01*
X104786241Y-172433652D01*
X104831879Y-172371947D01*
X104848733Y-172338517D01*
X104852170Y-172332552D01*
X104870924Y-172303849D01*
X104901805Y-172233445D01*
X104903174Y-172230538D01*
X104939207Y-172159074D01*
X104949208Y-172126413D01*
X104951701Y-172119694D01*
X104964157Y-172091300D01*
X104983827Y-172013621D01*
X104984635Y-172010732D01*
X105009016Y-171931123D01*
X105012936Y-171900508D01*
X105014330Y-171893170D01*
X105021134Y-171866305D01*
X105028132Y-171781845D01*
X105039298Y-171694654D01*
X105038126Y-171667079D01*
X105038281Y-171659355D01*
X105040300Y-171635000D01*
X105038592Y-171614392D01*
X105033044Y-171547432D01*
X105029180Y-171456474D01*
X105029180Y-171456468D01*
X105024059Y-171432709D01*
X105022879Y-171424762D01*
X105022286Y-171417602D01*
X105021134Y-171403695D01*
X105021133Y-171403692D01*
X105021133Y-171403688D01*
X105003739Y-171335003D01*
X105409723Y-171335003D01*
X105411688Y-171357470D01*
X105411862Y-171365660D01*
X105410709Y-171391324D01*
X105410710Y-171391328D01*
X105421641Y-171472031D01*
X105421966Y-171474949D01*
X105428792Y-171552972D01*
X105428795Y-171552987D01*
X105435482Y-171577941D01*
X105437034Y-171585670D01*
X105440924Y-171614381D01*
X105440926Y-171614392D01*
X105465075Y-171688713D01*
X105465997Y-171691825D01*
X105485423Y-171764324D01*
X105485427Y-171764336D01*
X105497736Y-171790732D01*
X105500512Y-171797779D01*
X105510483Y-171828464D01*
X105545970Y-171894411D01*
X105547558Y-171897576D01*
X105577898Y-171962639D01*
X105596490Y-171989191D01*
X105600303Y-171995378D01*
X105617146Y-172026678D01*
X105617152Y-172026687D01*
X105661792Y-172082663D01*
X105664106Y-172085758D01*
X105687854Y-172119672D01*
X105703402Y-172141877D01*
X105703405Y-172141880D01*
X105728646Y-172167121D01*
X105733283Y-172172309D01*
X105757492Y-172202666D01*
X105808959Y-172247632D01*
X105812008Y-172250483D01*
X105858116Y-172296592D01*
X105858122Y-172296597D01*
X105858123Y-172296598D01*
X105868479Y-172303849D01*
X105890055Y-172318957D01*
X105895290Y-172323057D01*
X105927004Y-172350765D01*
X105927013Y-172350771D01*
X105982849Y-172384131D01*
X105986613Y-172386568D01*
X106037359Y-172422101D01*
X106037364Y-172422104D01*
X106059917Y-172432620D01*
X106075677Y-172439969D01*
X106081271Y-172442935D01*
X106118349Y-172465088D01*
X106120236Y-172466215D01*
X106132437Y-172470794D01*
X106178083Y-172487925D01*
X106182503Y-172489782D01*
X106235670Y-172514575D01*
X106235674Y-172514577D01*
X106266069Y-172522720D01*
X106279677Y-172526366D01*
X106285413Y-172528207D01*
X106292581Y-172530897D01*
X106330976Y-172545307D01*
X106388545Y-172555754D01*
X106393511Y-172556868D01*
X106447023Y-172571207D01*
X106495689Y-172575464D01*
X106501306Y-172576218D01*
X106552453Y-172585500D01*
X106607691Y-172585500D01*
X106613092Y-172585735D01*
X106641548Y-172588225D01*
X106664998Y-172590277D01*
X106665000Y-172590277D01*
X106717992Y-172585640D01*
X106721121Y-172585500D01*
X106721155Y-172585500D01*
X106775172Y-172580638D01*
X106882977Y-172571207D01*
X106883000Y-172571200D01*
X106883475Y-172571117D01*
X106888713Y-172570419D01*
X106889188Y-172570377D01*
X106992997Y-172541726D01*
X107094330Y-172514575D01*
X107094337Y-172514571D01*
X107101254Y-172512053D01*
X107105948Y-172510554D01*
X107106170Y-172510493D01*
X107106181Y-172510487D01*
X107106183Y-172510487D01*
X107200454Y-172465088D01*
X107200454Y-172465087D01*
X107292639Y-172422102D01*
X107292644Y-172422097D01*
X107297327Y-172419395D01*
X107297400Y-172419522D01*
X107308164Y-172413218D01*
X107308973Y-172412829D01*
X107391156Y-172353118D01*
X107471877Y-172296598D01*
X107472747Y-172295727D01*
X107487550Y-172283084D01*
X107491078Y-172280522D01*
X107559131Y-172209343D01*
X107626598Y-172141877D01*
X107629285Y-172138039D01*
X107641239Y-172123465D01*
X107646629Y-172117828D01*
X107646628Y-172117828D01*
X107646632Y-172117825D01*
X107699164Y-172038241D01*
X107752102Y-171962639D01*
X107755543Y-171955259D01*
X107764432Y-171939364D01*
X107770635Y-171929968D01*
X107806889Y-171845146D01*
X107844575Y-171764330D01*
X107847570Y-171753148D01*
X107853325Y-171736505D01*
X107859103Y-171722988D01*
X107878936Y-171636092D01*
X107901207Y-171552977D01*
X107902887Y-171533766D01*
X107904206Y-171525377D01*
X107904445Y-171524325D01*
X107909191Y-171503537D01*
X107911595Y-171450000D01*
X150179341Y-171450000D01*
X150199936Y-171685403D01*
X150199938Y-171685413D01*
X150261094Y-171913655D01*
X150261096Y-171913659D01*
X150261097Y-171913663D01*
X150343930Y-172091299D01*
X150360965Y-172127830D01*
X150360967Y-172127834D01*
X150458964Y-172267787D01*
X150496505Y-172321401D01*
X150663599Y-172488495D01*
X150744735Y-172545307D01*
X150857165Y-172624032D01*
X150857167Y-172624033D01*
X150857170Y-172624035D01*
X151071337Y-172723903D01*
X151071343Y-172723904D01*
X151071344Y-172723905D01*
X151088788Y-172728579D01*
X151299592Y-172785063D01*
X151482480Y-172801064D01*
X151534999Y-172805659D01*
X151535000Y-172805659D01*
X151535001Y-172805659D01*
X151587520Y-172801064D01*
X151770408Y-172785063D01*
X151998663Y-172723903D01*
X152212830Y-172624035D01*
X152406401Y-172488495D01*
X152573495Y-172321401D01*
X152709035Y-172127830D01*
X152808903Y-171913663D01*
X152870063Y-171685408D01*
X152890659Y-171450000D01*
X152887824Y-171417602D01*
X152884257Y-171376830D01*
X152870063Y-171214592D01*
X152808903Y-170986337D01*
X152709035Y-170772171D01*
X152708808Y-170771847D01*
X152573496Y-170578600D01*
X152523016Y-170528120D01*
X152451567Y-170456671D01*
X152418084Y-170395351D01*
X152423068Y-170325659D01*
X152464939Y-170269725D01*
X152495915Y-170252810D01*
X152627331Y-170203796D01*
X152742546Y-170117546D01*
X152828796Y-170002331D01*
X152879091Y-169867483D01*
X152885500Y-169807873D01*
X152885499Y-168012128D01*
X152879091Y-167952517D01*
X152828796Y-167817669D01*
X152828795Y-167817668D01*
X152828793Y-167817664D01*
X152742547Y-167702455D01*
X152742544Y-167702452D01*
X152627335Y-167616206D01*
X152627328Y-167616202D01*
X152495917Y-167567189D01*
X152439983Y-167525318D01*
X152415566Y-167459853D01*
X152430418Y-167391580D01*
X152451563Y-167363332D01*
X152573495Y-167241401D01*
X152709035Y-167047830D01*
X152808903Y-166833663D01*
X152870063Y-166605408D01*
X152890659Y-166370000D01*
X152870063Y-166134592D01*
X152808903Y-165906337D01*
X152709035Y-165692171D01*
X152707304Y-165689698D01*
X152573494Y-165498597D01*
X152406402Y-165331506D01*
X152406395Y-165331501D01*
X152212834Y-165195967D01*
X152212830Y-165195965D01*
X152212828Y-165195964D01*
X151998663Y-165096097D01*
X151998659Y-165096096D01*
X151998655Y-165096094D01*
X151770413Y-165034938D01*
X151770403Y-165034936D01*
X151535001Y-165014341D01*
X151534999Y-165014341D01*
X151299596Y-165034936D01*
X151299586Y-165034938D01*
X151071344Y-165096094D01*
X151071335Y-165096098D01*
X150857171Y-165195964D01*
X150857169Y-165195965D01*
X150663597Y-165331505D01*
X150496505Y-165498597D01*
X150360965Y-165692169D01*
X150360964Y-165692171D01*
X150261098Y-165906335D01*
X150261094Y-165906344D01*
X150199938Y-166134586D01*
X150199936Y-166134596D01*
X150179341Y-166369999D01*
X150179341Y-166370000D01*
X150199936Y-166605403D01*
X150199938Y-166605413D01*
X150261094Y-166833655D01*
X150261096Y-166833659D01*
X150261097Y-166833663D01*
X150328619Y-166978464D01*
X150360965Y-167047830D01*
X150360967Y-167047834D01*
X150451192Y-167176687D01*
X150496501Y-167241396D01*
X150496506Y-167241402D01*
X150618430Y-167363326D01*
X150651915Y-167424649D01*
X150646931Y-167494341D01*
X150605059Y-167550274D01*
X150574083Y-167567189D01*
X150442669Y-167616203D01*
X150442664Y-167616206D01*
X150327455Y-167702452D01*
X150327452Y-167702455D01*
X150241206Y-167817664D01*
X150241202Y-167817671D01*
X150190908Y-167952517D01*
X150184501Y-168012116D01*
X150184501Y-168012123D01*
X150184500Y-168012135D01*
X150184500Y-169807870D01*
X150184501Y-169807876D01*
X150190908Y-169867483D01*
X150241202Y-170002328D01*
X150241206Y-170002335D01*
X150327452Y-170117544D01*
X150327455Y-170117547D01*
X150442664Y-170203793D01*
X150442671Y-170203797D01*
X150574081Y-170252810D01*
X150630015Y-170294681D01*
X150654432Y-170360145D01*
X150639580Y-170428418D01*
X150618430Y-170456673D01*
X150496503Y-170578600D01*
X150360965Y-170772169D01*
X150360964Y-170772171D01*
X150261098Y-170986335D01*
X150261094Y-170986344D01*
X150199938Y-171214586D01*
X150199936Y-171214596D01*
X150179341Y-171449999D01*
X150179341Y-171450000D01*
X107911595Y-171450000D01*
X107913050Y-171417602D01*
X107920277Y-171335000D01*
X107918310Y-171312528D01*
X107918137Y-171304334D01*
X107919290Y-171278670D01*
X107908353Y-171197939D01*
X107908034Y-171195067D01*
X107901207Y-171117023D01*
X107894515Y-171092053D01*
X107892963Y-171084322D01*
X107889076Y-171055618D01*
X107889075Y-171055616D01*
X107889075Y-171055613D01*
X107866817Y-170987112D01*
X107864921Y-170981276D01*
X107863998Y-170978161D01*
X107844576Y-170905673D01*
X107844574Y-170905669D01*
X107832266Y-170879274D01*
X107829488Y-170872222D01*
X107819519Y-170841541D01*
X107819517Y-170841537D01*
X107819517Y-170841536D01*
X107806988Y-170818253D01*
X107784027Y-170775583D01*
X107782432Y-170772405D01*
X107781315Y-170770010D01*
X107752102Y-170707362D01*
X107733512Y-170680813D01*
X107729698Y-170674625D01*
X107718718Y-170654221D01*
X107712852Y-170643319D01*
X107668192Y-170587318D01*
X107665896Y-170584247D01*
X107626598Y-170528123D01*
X107601353Y-170502878D01*
X107596715Y-170497689D01*
X107572506Y-170467332D01*
X107521039Y-170422366D01*
X107517990Y-170419515D01*
X107471878Y-170373402D01*
X107439940Y-170351039D01*
X107434705Y-170346939D01*
X107402996Y-170319235D01*
X107402994Y-170319233D01*
X107402992Y-170319232D01*
X107347149Y-170285868D01*
X107343386Y-170283431D01*
X107292641Y-170247899D01*
X107254333Y-170230035D01*
X107248735Y-170227067D01*
X107209769Y-170203787D01*
X107209767Y-170203786D01*
X107151928Y-170182079D01*
X107147515Y-170180226D01*
X107094330Y-170155425D01*
X107094329Y-170155425D01*
X107050321Y-170143632D01*
X107044581Y-170141790D01*
X106999025Y-170124692D01*
X106941456Y-170114245D01*
X106936480Y-170113128D01*
X106882977Y-170098793D01*
X106834327Y-170094536D01*
X106828659Y-170093775D01*
X106777551Y-170084500D01*
X106777547Y-170084500D01*
X106722309Y-170084500D01*
X106716907Y-170084264D01*
X106688451Y-170081774D01*
X106665002Y-170079723D01*
X106664997Y-170079723D01*
X106612050Y-170084355D01*
X106608862Y-170084499D01*
X106608851Y-170084500D01*
X106608845Y-170084500D01*
X106562671Y-170088655D01*
X106554826Y-170089361D01*
X106447020Y-170098793D01*
X106446468Y-170098891D01*
X106441275Y-170099581D01*
X106440812Y-170099622D01*
X106440809Y-170099623D01*
X106337002Y-170128273D01*
X106235659Y-170155428D01*
X106228739Y-170157946D01*
X106224050Y-170159444D01*
X106223849Y-170159499D01*
X106223832Y-170159505D01*
X106129528Y-170204919D01*
X106037358Y-170247899D01*
X106032670Y-170250606D01*
X106032598Y-170250481D01*
X106021871Y-170256764D01*
X106021030Y-170257168D01*
X105938831Y-170316889D01*
X105858123Y-170373401D01*
X105857241Y-170374284D01*
X105842461Y-170386906D01*
X105838928Y-170389472D01*
X105838916Y-170389483D01*
X105807477Y-170422366D01*
X105770868Y-170460656D01*
X105748379Y-170483144D01*
X105703403Y-170528120D01*
X105703402Y-170528121D01*
X105700711Y-170531965D01*
X105688773Y-170546521D01*
X105683368Y-170552174D01*
X105665925Y-170578599D01*
X105630828Y-170631768D01*
X105578587Y-170706378D01*
X105577898Y-170707362D01*
X105577891Y-170707374D01*
X105574457Y-170714738D01*
X105565572Y-170730628D01*
X105559362Y-170740035D01*
X105559362Y-170740036D01*
X105532129Y-170803752D01*
X105523108Y-170824858D01*
X105515331Y-170841536D01*
X105485425Y-170905669D01*
X105485424Y-170905671D01*
X105482425Y-170916860D01*
X105476681Y-170933475D01*
X105470899Y-170947005D01*
X105470896Y-170947016D01*
X105451063Y-171033907D01*
X105428793Y-171117022D01*
X105428793Y-171117023D01*
X105427112Y-171136226D01*
X105425793Y-171144619D01*
X105424492Y-171150323D01*
X105420809Y-171166459D01*
X105420809Y-171166464D01*
X105416949Y-171252397D01*
X105409723Y-171334996D01*
X105409723Y-171335003D01*
X105003739Y-171335003D01*
X105003738Y-171335000D01*
X104998794Y-171315479D01*
X104978954Y-171223419D01*
X104971115Y-171203912D01*
X104968541Y-171196015D01*
X104964157Y-171178700D01*
X104926344Y-171092495D01*
X104890064Y-171002210D01*
X104880768Y-170987112D01*
X104876779Y-170979500D01*
X104870924Y-170966151D01*
X104817724Y-170884721D01*
X104765071Y-170799208D01*
X104765070Y-170799207D01*
X104765069Y-170799205D01*
X104758451Y-170791686D01*
X104747727Y-170777584D01*
X104743978Y-170771845D01*
X104675972Y-170697971D01*
X104607565Y-170620246D01*
X104602439Y-170616107D01*
X104589117Y-170603621D01*
X104586785Y-170601088D01*
X104586783Y-170601086D01*
X104505066Y-170537484D01*
X104422080Y-170470477D01*
X104422073Y-170470472D01*
X104419311Y-170468929D01*
X104403643Y-170458542D01*
X104403634Y-170458535D01*
X104403628Y-170458532D01*
X104403626Y-170458530D01*
X104309837Y-170407774D01*
X104213954Y-170354210D01*
X104213953Y-170354209D01*
X104213952Y-170354209D01*
X104211381Y-170353047D01*
X104204284Y-170349898D01*
X104204188Y-170350119D01*
X104199506Y-170348065D01*
X104095723Y-170312436D01*
X103989168Y-170274788D01*
X103989160Y-170274786D01*
X103988612Y-170274692D01*
X103983889Y-170273691D01*
X103979989Y-170272703D01*
X103868675Y-170254128D01*
X103754209Y-170234500D01*
X103754200Y-170234500D01*
X103751049Y-170234500D01*
X103518951Y-170234500D01*
X103518950Y-170234500D01*
X103462533Y-170243913D01*
X103457587Y-170244535D01*
X103455099Y-170244747D01*
X103397469Y-170249652D01*
X103397461Y-170249653D01*
X103345397Y-170263208D01*
X103339981Y-170264363D01*
X103290013Y-170272703D01*
X103232840Y-170292331D01*
X103228330Y-170293690D01*
X103166749Y-170309725D01*
X103166744Y-170309727D01*
X103120711Y-170330535D01*
X103115304Y-170332680D01*
X103070503Y-170348060D01*
X103070498Y-170348063D01*
X103014448Y-170378395D01*
X103010478Y-170380363D01*
X102949514Y-170407922D01*
X102910359Y-170434385D01*
X102905149Y-170437544D01*
X102866379Y-170458526D01*
X102866367Y-170458533D01*
X102813487Y-170499692D01*
X102810124Y-170502133D01*
X102752001Y-170541417D01*
X102751994Y-170541422D01*
X102720248Y-170571847D01*
X102715430Y-170576011D01*
X102683218Y-170601085D01*
X102683209Y-170601093D01*
X102635613Y-170652795D01*
X102632900Y-170655564D01*
X102579882Y-170706378D01*
X102579880Y-170706380D01*
X102555681Y-170739098D01*
X102551448Y-170744223D01*
X102526022Y-170771845D01*
X102485797Y-170833412D01*
X102483741Y-170836367D01*
X102438124Y-170898047D01*
X102438120Y-170898054D01*
X102421268Y-170931475D01*
X102417811Y-170937472D01*
X102399076Y-170966149D01*
X102368219Y-171036496D01*
X102366803Y-171039503D01*
X102330790Y-171110931D01*
X102320792Y-171143573D01*
X102318288Y-171150323D01*
X102305845Y-171178691D01*
X102305845Y-171178692D01*
X102286178Y-171256347D01*
X102285358Y-171259279D01*
X102260984Y-171338876D01*
X102260983Y-171338879D01*
X102257063Y-171369485D01*
X102255668Y-171376830D01*
X102248867Y-171403688D01*
X102248864Y-171403705D01*
X102241867Y-171488154D01*
X102230702Y-171575344D01*
X102230701Y-171575344D01*
X102231872Y-171602900D01*
X102231716Y-171610655D01*
X102229700Y-171634995D01*
X102229700Y-171635000D01*
X100330500Y-171635000D01*
X100330500Y-166185000D01*
X102229700Y-166185000D01*
X102234642Y-166244653D01*
X102236955Y-166272567D01*
X102240819Y-166363523D01*
X102240820Y-166363534D01*
X102245939Y-166387284D01*
X102247120Y-166395233D01*
X102248865Y-166416301D01*
X102271205Y-166504519D01*
X102291046Y-166596582D01*
X102298883Y-166616084D01*
X102301458Y-166623987D01*
X102305844Y-166641303D01*
X102343655Y-166727504D01*
X102379934Y-166817787D01*
X102379935Y-166817788D01*
X102389232Y-166832888D01*
X102393218Y-166840495D01*
X102399076Y-166853850D01*
X102452275Y-166935277D01*
X102504930Y-167020794D01*
X102511543Y-167028308D01*
X102522263Y-167042402D01*
X102523576Y-167044411D01*
X102526021Y-167048153D01*
X102594027Y-167122028D01*
X102662436Y-167199755D01*
X102667564Y-167203895D01*
X102680882Y-167216377D01*
X102683216Y-167218913D01*
X102764933Y-167282515D01*
X102847920Y-167349523D01*
X102847922Y-167349524D01*
X102850678Y-167351064D01*
X102866360Y-167361460D01*
X102866367Y-167361465D01*
X102866371Y-167361467D01*
X102866374Y-167361470D01*
X102959885Y-167412075D01*
X102960162Y-167412225D01*
X103056046Y-167465790D01*
X103058849Y-167467058D01*
X103065695Y-167470097D01*
X103065794Y-167469873D01*
X103070490Y-167471932D01*
X103070497Y-167471936D01*
X103174276Y-167507563D01*
X103280829Y-167545211D01*
X103281398Y-167545308D01*
X103286129Y-167546312D01*
X103290007Y-167547294D01*
X103290019Y-167547298D01*
X103401324Y-167565870D01*
X103401324Y-167565871D01*
X103515791Y-167585499D01*
X103515800Y-167585500D01*
X103751044Y-167585500D01*
X103751049Y-167585500D01*
X103784073Y-167579988D01*
X103807469Y-167576085D01*
X103812407Y-167575463D01*
X103872541Y-167570346D01*
X103924615Y-167556786D01*
X103930017Y-167555634D01*
X103979981Y-167547298D01*
X104037186Y-167527658D01*
X104041663Y-167526309D01*
X104103249Y-167510275D01*
X104109249Y-167507563D01*
X104119082Y-167503118D01*
X104149297Y-167489459D01*
X104154681Y-167487322D01*
X104199503Y-167471936D01*
X104255554Y-167441601D01*
X104259527Y-167439632D01*
X104268156Y-167435730D01*
X104320486Y-167412077D01*
X104359647Y-167385608D01*
X104364820Y-167382469D01*
X104403626Y-167361470D01*
X104456532Y-167320290D01*
X104459850Y-167317881D01*
X104518003Y-167278579D01*
X104549770Y-167248131D01*
X104554548Y-167244002D01*
X104586784Y-167218913D01*
X104589109Y-167216388D01*
X104604420Y-167199755D01*
X104634389Y-167167198D01*
X104637101Y-167164432D01*
X104690118Y-167113621D01*
X104714329Y-167080883D01*
X104718540Y-167075785D01*
X104743979Y-167048153D01*
X104744348Y-167047589D01*
X104784205Y-166986581D01*
X104786241Y-166983652D01*
X104831879Y-166921947D01*
X104848733Y-166888517D01*
X104852170Y-166882552D01*
X104870924Y-166853849D01*
X104901805Y-166783445D01*
X104903174Y-166780538D01*
X104939207Y-166709074D01*
X104949208Y-166676413D01*
X104951701Y-166669694D01*
X104964157Y-166641300D01*
X104983827Y-166563621D01*
X104984635Y-166560732D01*
X105007828Y-166485003D01*
X105409723Y-166485003D01*
X105411688Y-166507470D01*
X105411862Y-166515660D01*
X105410709Y-166541324D01*
X105410710Y-166541328D01*
X105421641Y-166622031D01*
X105421966Y-166624949D01*
X105428792Y-166702972D01*
X105428795Y-166702987D01*
X105435482Y-166727941D01*
X105437034Y-166735670D01*
X105440924Y-166764381D01*
X105440926Y-166764392D01*
X105465075Y-166838713D01*
X105465997Y-166841825D01*
X105485423Y-166914324D01*
X105485427Y-166914336D01*
X105497736Y-166940732D01*
X105500512Y-166947779D01*
X105510483Y-166978464D01*
X105545970Y-167044411D01*
X105547558Y-167047576D01*
X105577898Y-167112639D01*
X105596490Y-167139191D01*
X105600303Y-167145378D01*
X105617146Y-167176678D01*
X105617152Y-167176687D01*
X105661792Y-167232663D01*
X105664106Y-167235758D01*
X105695296Y-167280301D01*
X105703402Y-167291877D01*
X105703405Y-167291880D01*
X105728646Y-167317121D01*
X105733283Y-167322309D01*
X105757492Y-167352666D01*
X105808959Y-167397632D01*
X105812008Y-167400483D01*
X105858116Y-167446592D01*
X105858122Y-167446597D01*
X105858123Y-167446598D01*
X105869802Y-167454775D01*
X105890055Y-167468957D01*
X105895290Y-167473057D01*
X105927004Y-167500765D01*
X105927013Y-167500771D01*
X105982849Y-167534131D01*
X105986613Y-167536568D01*
X106037359Y-167572101D01*
X106037364Y-167572104D01*
X106045902Y-167576085D01*
X106075677Y-167589969D01*
X106081271Y-167592935D01*
X106120217Y-167616204D01*
X106120236Y-167616215D01*
X106138828Y-167623192D01*
X106178083Y-167637925D01*
X106182503Y-167639782D01*
X106235670Y-167664575D01*
X106235674Y-167664577D01*
X106266069Y-167672720D01*
X106279677Y-167676366D01*
X106285413Y-167678207D01*
X106302264Y-167684531D01*
X106330976Y-167695307D01*
X106388545Y-167705754D01*
X106393511Y-167706868D01*
X106447023Y-167721207D01*
X106495689Y-167725464D01*
X106501306Y-167726218D01*
X106552453Y-167735500D01*
X106607691Y-167735500D01*
X106613092Y-167735735D01*
X106641548Y-167738225D01*
X106664998Y-167740277D01*
X106665000Y-167740277D01*
X106717992Y-167735640D01*
X106721121Y-167735500D01*
X106721155Y-167735500D01*
X106775172Y-167730638D01*
X106882977Y-167721207D01*
X106883000Y-167721200D01*
X106883475Y-167721117D01*
X106888713Y-167720419D01*
X106889188Y-167720377D01*
X106992997Y-167691726D01*
X107094330Y-167664575D01*
X107094337Y-167664571D01*
X107101254Y-167662053D01*
X107105948Y-167660554D01*
X107106170Y-167660493D01*
X107106181Y-167660487D01*
X107106183Y-167660487D01*
X107200454Y-167615088D01*
X107292639Y-167572102D01*
X107292644Y-167572097D01*
X107297327Y-167569395D01*
X107297400Y-167569522D01*
X107308164Y-167563218D01*
X107308973Y-167562829D01*
X107391156Y-167503118D01*
X107471877Y-167446598D01*
X107472747Y-167445727D01*
X107487550Y-167433084D01*
X107491078Y-167430522D01*
X107508572Y-167412225D01*
X107559131Y-167359343D01*
X107626592Y-167291883D01*
X107626592Y-167291882D01*
X107626598Y-167291877D01*
X107629285Y-167288039D01*
X107641239Y-167273465D01*
X107646629Y-167267828D01*
X107646628Y-167267828D01*
X107646632Y-167267825D01*
X107699164Y-167188241D01*
X107752102Y-167112639D01*
X107755543Y-167105259D01*
X107764432Y-167089364D01*
X107770635Y-167079968D01*
X107806889Y-166995146D01*
X107844575Y-166914330D01*
X107847570Y-166903148D01*
X107853325Y-166886505D01*
X107855024Y-166882531D01*
X107859103Y-166872988D01*
X107878936Y-166786092D01*
X107901207Y-166702977D01*
X107902887Y-166683766D01*
X107904206Y-166675377D01*
X107905508Y-166669672D01*
X107909191Y-166653537D01*
X107913050Y-166567602D01*
X107920277Y-166485000D01*
X107918310Y-166462528D01*
X107918137Y-166454334D01*
X107919290Y-166428670D01*
X107908353Y-166347939D01*
X107908034Y-166345067D01*
X107901207Y-166267023D01*
X107894515Y-166242053D01*
X107892963Y-166234322D01*
X107889076Y-166205618D01*
X107889075Y-166205616D01*
X107889075Y-166205613D01*
X107871947Y-166152900D01*
X107864921Y-166131276D01*
X107863998Y-166128161D01*
X107844576Y-166055673D01*
X107844574Y-166055669D01*
X107832266Y-166029274D01*
X107829488Y-166022222D01*
X107819519Y-165991541D01*
X107819517Y-165991537D01*
X107819517Y-165991536D01*
X107806988Y-165968253D01*
X107784027Y-165925583D01*
X107782432Y-165922405D01*
X107767338Y-165890036D01*
X107752102Y-165857362D01*
X107733512Y-165830813D01*
X107729698Y-165824625D01*
X107719862Y-165806347D01*
X107712852Y-165793319D01*
X107668192Y-165737318D01*
X107665896Y-165734247D01*
X107626598Y-165678123D01*
X107601353Y-165652878D01*
X107596715Y-165647689D01*
X107572506Y-165617332D01*
X107521039Y-165572366D01*
X107517990Y-165569515D01*
X107471878Y-165523402D01*
X107439940Y-165501039D01*
X107434705Y-165496939D01*
X107420542Y-165484565D01*
X107402996Y-165469235D01*
X107402994Y-165469233D01*
X107402992Y-165469232D01*
X107347149Y-165435868D01*
X107343386Y-165433431D01*
X107292641Y-165397899D01*
X107267911Y-165386367D01*
X107254332Y-165380034D01*
X107248735Y-165377067D01*
X107209769Y-165353787D01*
X107209767Y-165353786D01*
X107151928Y-165332079D01*
X107147515Y-165330226D01*
X107094330Y-165305425D01*
X107094329Y-165305425D01*
X107050321Y-165293632D01*
X107044581Y-165291790D01*
X106999025Y-165274692D01*
X106941456Y-165264245D01*
X106936480Y-165263128D01*
X106882977Y-165248793D01*
X106834327Y-165244536D01*
X106828659Y-165243775D01*
X106777551Y-165234500D01*
X106777547Y-165234500D01*
X106722309Y-165234500D01*
X106716907Y-165234264D01*
X106688451Y-165231774D01*
X106665002Y-165229723D01*
X106664997Y-165229723D01*
X106612050Y-165234355D01*
X106608862Y-165234499D01*
X106608851Y-165234500D01*
X106608845Y-165234500D01*
X106562671Y-165238655D01*
X106554826Y-165239361D01*
X106447020Y-165248793D01*
X106446468Y-165248891D01*
X106441275Y-165249581D01*
X106440812Y-165249622D01*
X106440809Y-165249623D01*
X106337002Y-165278273D01*
X106235659Y-165305428D01*
X106228739Y-165307946D01*
X106224050Y-165309444D01*
X106223849Y-165309499D01*
X106223832Y-165309505D01*
X106129528Y-165354919D01*
X106037358Y-165397899D01*
X106032670Y-165400606D01*
X106032598Y-165400481D01*
X106021871Y-165406764D01*
X106021030Y-165407168D01*
X105938831Y-165466889D01*
X105858123Y-165523401D01*
X105857241Y-165524284D01*
X105842461Y-165536906D01*
X105838928Y-165539472D01*
X105838916Y-165539483D01*
X105807477Y-165572366D01*
X105770868Y-165610656D01*
X105748379Y-165633144D01*
X105703403Y-165678120D01*
X105703402Y-165678121D01*
X105700711Y-165681965D01*
X105688773Y-165696521D01*
X105683368Y-165702174D01*
X105665864Y-165728692D01*
X105630828Y-165781768D01*
X105577898Y-165857362D01*
X105577891Y-165857374D01*
X105574457Y-165864738D01*
X105565572Y-165880628D01*
X105559362Y-165890035D01*
X105559362Y-165890036D01*
X105532157Y-165953688D01*
X105523108Y-165974858D01*
X105519445Y-165982714D01*
X105485425Y-166055669D01*
X105485424Y-166055671D01*
X105482425Y-166066860D01*
X105476681Y-166083475D01*
X105470899Y-166097005D01*
X105470896Y-166097016D01*
X105451063Y-166183907D01*
X105428793Y-166267022D01*
X105428793Y-166267023D01*
X105427112Y-166286226D01*
X105425793Y-166294625D01*
X105420809Y-166316459D01*
X105420809Y-166316464D01*
X105416949Y-166402397D01*
X105409723Y-166484996D01*
X105409723Y-166485003D01*
X105007828Y-166485003D01*
X105009016Y-166481123D01*
X105012936Y-166450508D01*
X105014330Y-166443170D01*
X105021134Y-166416305D01*
X105028132Y-166331845D01*
X105039298Y-166244654D01*
X105038126Y-166217079D01*
X105038281Y-166209355D01*
X105040300Y-166185000D01*
X105040209Y-166183907D01*
X105033044Y-166097432D01*
X105029180Y-166006474D01*
X105029180Y-166006468D01*
X105024059Y-165982709D01*
X105022879Y-165974762D01*
X105021134Y-165953695D01*
X105021133Y-165953692D01*
X105021133Y-165953688D01*
X104998794Y-165865480D01*
X104997045Y-165857363D01*
X104978954Y-165773419D01*
X104971115Y-165753912D01*
X104968541Y-165746015D01*
X104964157Y-165728700D01*
X104926344Y-165642495D01*
X104890064Y-165552210D01*
X104880768Y-165537112D01*
X104876779Y-165529500D01*
X104870924Y-165516151D01*
X104817724Y-165434721D01*
X104765071Y-165349208D01*
X104765070Y-165349207D01*
X104765069Y-165349205D01*
X104758451Y-165341686D01*
X104747727Y-165327584D01*
X104743978Y-165321845D01*
X104675972Y-165247971D01*
X104607565Y-165170246D01*
X104602439Y-165166107D01*
X104589117Y-165153621D01*
X104586785Y-165151088D01*
X104586783Y-165151086D01*
X104505066Y-165087484D01*
X104422080Y-165020477D01*
X104422073Y-165020472D01*
X104419311Y-165018929D01*
X104403643Y-165008542D01*
X104403634Y-165008535D01*
X104403628Y-165008532D01*
X104403626Y-165008530D01*
X104309837Y-164957774D01*
X104213954Y-164904210D01*
X104213953Y-164904209D01*
X104213952Y-164904209D01*
X104211381Y-164903047D01*
X104204284Y-164899898D01*
X104204188Y-164900119D01*
X104199506Y-164898065D01*
X104095723Y-164862436D01*
X103989168Y-164824788D01*
X103989160Y-164824786D01*
X103988612Y-164824692D01*
X103983889Y-164823691D01*
X103979989Y-164822703D01*
X103868675Y-164804128D01*
X103754209Y-164784500D01*
X103754200Y-164784500D01*
X103751049Y-164784500D01*
X103518951Y-164784500D01*
X103518950Y-164784500D01*
X103462533Y-164793913D01*
X103457587Y-164794535D01*
X103455099Y-164794747D01*
X103397469Y-164799652D01*
X103397461Y-164799653D01*
X103345397Y-164813208D01*
X103339981Y-164814363D01*
X103290013Y-164822703D01*
X103232840Y-164842331D01*
X103228330Y-164843690D01*
X103166749Y-164859725D01*
X103166744Y-164859727D01*
X103120711Y-164880535D01*
X103115304Y-164882680D01*
X103070503Y-164898060D01*
X103070498Y-164898063D01*
X103014448Y-164928395D01*
X103010478Y-164930363D01*
X102949514Y-164957922D01*
X102910359Y-164984385D01*
X102905149Y-164987544D01*
X102866379Y-165008526D01*
X102866367Y-165008533D01*
X102813487Y-165049692D01*
X102810124Y-165052133D01*
X102752001Y-165091417D01*
X102751994Y-165091422D01*
X102720248Y-165121847D01*
X102715430Y-165126011D01*
X102683218Y-165151085D01*
X102683209Y-165151093D01*
X102635613Y-165202795D01*
X102632900Y-165205564D01*
X102579882Y-165256378D01*
X102579880Y-165256380D01*
X102555681Y-165289098D01*
X102551448Y-165294223D01*
X102526022Y-165321845D01*
X102485797Y-165383412D01*
X102483741Y-165386367D01*
X102438124Y-165448047D01*
X102438120Y-165448054D01*
X102421268Y-165481475D01*
X102417811Y-165487472D01*
X102399076Y-165516149D01*
X102368219Y-165586496D01*
X102366803Y-165589503D01*
X102330790Y-165660931D01*
X102320792Y-165693573D01*
X102318288Y-165700323D01*
X102305845Y-165728691D01*
X102305845Y-165728692D01*
X102286178Y-165806347D01*
X102285358Y-165809279D01*
X102260984Y-165888876D01*
X102260983Y-165888879D01*
X102257063Y-165919485D01*
X102255668Y-165926830D01*
X102248867Y-165953688D01*
X102248864Y-165953705D01*
X102241867Y-166038154D01*
X102230702Y-166125344D01*
X102230701Y-166125344D01*
X102231872Y-166152900D01*
X102231716Y-166160655D01*
X102229700Y-166184995D01*
X102229700Y-166185000D01*
X100330500Y-166185000D01*
X100330500Y-160020000D01*
X102149341Y-160020000D01*
X102169936Y-160255403D01*
X102169938Y-160255413D01*
X102231094Y-160483655D01*
X102231096Y-160483659D01*
X102231097Y-160483663D01*
X102311004Y-160655023D01*
X102330965Y-160697830D01*
X102330967Y-160697834D01*
X102439281Y-160852521D01*
X102466505Y-160891401D01*
X102633599Y-161058495D01*
X102730384Y-161126265D01*
X102827165Y-161194032D01*
X102827167Y-161194033D01*
X102827170Y-161194035D01*
X103041337Y-161293903D01*
X103269592Y-161355063D01*
X103446034Y-161370500D01*
X103504999Y-161375659D01*
X103505000Y-161375659D01*
X103505001Y-161375659D01*
X103563966Y-161370500D01*
X103740408Y-161355063D01*
X103968663Y-161293903D01*
X104182830Y-161194035D01*
X104376401Y-161058495D01*
X104543495Y-160891401D01*
X104673424Y-160705842D01*
X104728002Y-160662217D01*
X104797500Y-160655023D01*
X104859855Y-160686546D01*
X104876575Y-160705842D01*
X105006500Y-160891395D01*
X105006505Y-160891401D01*
X105173599Y-161058495D01*
X105270384Y-161126264D01*
X105367165Y-161194032D01*
X105367167Y-161194033D01*
X105367170Y-161194035D01*
X105581337Y-161293903D01*
X105809592Y-161355063D01*
X105986034Y-161370500D01*
X106044999Y-161375659D01*
X106045000Y-161375659D01*
X106045001Y-161375659D01*
X106103966Y-161370500D01*
X106280408Y-161355063D01*
X106508663Y-161293903D01*
X106722830Y-161194035D01*
X106916401Y-161058495D01*
X107038717Y-160936178D01*
X107100036Y-160902696D01*
X107169728Y-160907680D01*
X107225662Y-160949551D01*
X107242577Y-160980529D01*
X107250275Y-161001168D01*
X107250276Y-161001169D01*
X108093866Y-160157579D01*
X108116318Y-160234040D01*
X108195605Y-160357413D01*
X108306438Y-160453451D01*
X108439839Y-160514373D01*
X108443634Y-160514918D01*
X107603829Y-161354722D01*
X107603829Y-161354723D01*
X107627624Y-161363598D01*
X107687155Y-161369999D01*
X107687172Y-161370000D01*
X109482828Y-161370000D01*
X109482844Y-161369999D01*
X109542372Y-161363598D01*
X109542378Y-161363597D01*
X109566168Y-161354723D01*
X109566168Y-161354722D01*
X108726366Y-160514918D01*
X108730161Y-160514373D01*
X108863562Y-160453451D01*
X108974395Y-160357413D01*
X109053682Y-160234040D01*
X109076133Y-160157580D01*
X109919722Y-161001168D01*
X109919723Y-161001168D01*
X109927423Y-160980526D01*
X109969296Y-160924593D01*
X110034761Y-160900178D01*
X110103033Y-160915031D01*
X110131285Y-160936181D01*
X110253599Y-161058495D01*
X110350384Y-161126264D01*
X110447165Y-161194032D01*
X110447167Y-161194033D01*
X110447170Y-161194035D01*
X110661337Y-161293903D01*
X110889592Y-161355063D01*
X111066034Y-161370500D01*
X111124999Y-161375659D01*
X111125000Y-161375659D01*
X111125001Y-161375659D01*
X111183966Y-161370500D01*
X111360408Y-161355063D01*
X111588663Y-161293903D01*
X111802830Y-161194035D01*
X111996401Y-161058495D01*
X112163495Y-160891401D01*
X112293424Y-160705842D01*
X112348002Y-160662217D01*
X112417500Y-160655023D01*
X112479855Y-160686546D01*
X112496575Y-160705842D01*
X112626500Y-160891395D01*
X112626505Y-160891401D01*
X112793599Y-161058495D01*
X112890384Y-161126264D01*
X112987165Y-161194032D01*
X112987167Y-161194033D01*
X112987170Y-161194035D01*
X113201337Y-161293903D01*
X113429592Y-161355063D01*
X113606034Y-161370500D01*
X113664999Y-161375659D01*
X113665000Y-161375659D01*
X113665001Y-161375659D01*
X113723966Y-161370500D01*
X113900408Y-161355063D01*
X114128663Y-161293903D01*
X114342830Y-161194035D01*
X114536401Y-161058495D01*
X114703495Y-160891401D01*
X114833424Y-160705842D01*
X114888002Y-160662217D01*
X114957500Y-160655023D01*
X115019855Y-160686546D01*
X115036575Y-160705842D01*
X115166500Y-160891395D01*
X115166505Y-160891401D01*
X115333599Y-161058495D01*
X115430384Y-161126264D01*
X115527165Y-161194032D01*
X115527167Y-161194033D01*
X115527170Y-161194035D01*
X115741337Y-161293903D01*
X115969592Y-161355063D01*
X116146034Y-161370500D01*
X116204999Y-161375659D01*
X116205000Y-161375659D01*
X116205001Y-161375659D01*
X116263966Y-161370500D01*
X116440408Y-161355063D01*
X116668663Y-161293903D01*
X116882830Y-161194035D01*
X117076401Y-161058495D01*
X117243495Y-160891401D01*
X117373424Y-160705842D01*
X117428002Y-160662217D01*
X117497500Y-160655023D01*
X117559855Y-160686546D01*
X117576575Y-160705842D01*
X117706500Y-160891395D01*
X117706505Y-160891401D01*
X117873599Y-161058495D01*
X117970384Y-161126264D01*
X118067165Y-161194032D01*
X118067167Y-161194033D01*
X118067170Y-161194035D01*
X118281337Y-161293903D01*
X118509592Y-161355063D01*
X118686034Y-161370500D01*
X118744999Y-161375659D01*
X118745000Y-161375659D01*
X118745001Y-161375659D01*
X118803966Y-161370500D01*
X118980408Y-161355063D01*
X119208663Y-161293903D01*
X119422830Y-161194035D01*
X119616401Y-161058495D01*
X119738329Y-160936566D01*
X119799648Y-160903084D01*
X119869340Y-160908068D01*
X119925274Y-160949939D01*
X119942189Y-160980917D01*
X119991202Y-161112328D01*
X119991206Y-161112335D01*
X120077452Y-161227544D01*
X120077455Y-161227547D01*
X120192664Y-161313793D01*
X120192671Y-161313797D01*
X120327517Y-161364091D01*
X120327516Y-161364091D01*
X120334444Y-161364835D01*
X120387127Y-161370500D01*
X122182872Y-161370499D01*
X122242483Y-161364091D01*
X122377331Y-161313796D01*
X122492546Y-161227546D01*
X122578796Y-161112331D01*
X122627810Y-160980916D01*
X122669681Y-160924984D01*
X122735145Y-160900566D01*
X122803418Y-160915417D01*
X122831673Y-160936569D01*
X122953599Y-161058495D01*
X123050384Y-161126264D01*
X123147165Y-161194032D01*
X123147167Y-161194033D01*
X123147170Y-161194035D01*
X123361337Y-161293903D01*
X123589592Y-161355063D01*
X123766034Y-161370500D01*
X123824999Y-161375659D01*
X123825000Y-161375659D01*
X123825001Y-161375659D01*
X123883966Y-161370500D01*
X124060408Y-161355063D01*
X124288663Y-161293903D01*
X124502830Y-161194035D01*
X124696401Y-161058495D01*
X124863495Y-160891401D01*
X124993424Y-160705842D01*
X125048002Y-160662217D01*
X125117500Y-160655023D01*
X125179855Y-160686546D01*
X125196575Y-160705842D01*
X125326500Y-160891395D01*
X125326505Y-160891401D01*
X125493599Y-161058495D01*
X125590384Y-161126264D01*
X125687165Y-161194032D01*
X125687167Y-161194033D01*
X125687170Y-161194035D01*
X125901337Y-161293903D01*
X126129592Y-161355063D01*
X126306034Y-161370500D01*
X126364999Y-161375659D01*
X126365000Y-161375659D01*
X126365001Y-161375659D01*
X126423966Y-161370500D01*
X126600408Y-161355063D01*
X126828663Y-161293903D01*
X127042830Y-161194035D01*
X127236401Y-161058495D01*
X127403495Y-160891401D01*
X127533424Y-160705842D01*
X127588002Y-160662217D01*
X127657500Y-160655023D01*
X127719855Y-160686546D01*
X127736575Y-160705842D01*
X127866500Y-160891395D01*
X127866505Y-160891401D01*
X128033599Y-161058495D01*
X128130384Y-161126264D01*
X128227165Y-161194032D01*
X128227167Y-161194033D01*
X128227170Y-161194035D01*
X128441337Y-161293903D01*
X128669592Y-161355063D01*
X128846034Y-161370500D01*
X128904999Y-161375659D01*
X128905000Y-161375659D01*
X128905001Y-161375659D01*
X128963966Y-161370500D01*
X129140408Y-161355063D01*
X129368663Y-161293903D01*
X129582830Y-161194035D01*
X129776401Y-161058495D01*
X129943495Y-160891401D01*
X130073424Y-160705842D01*
X130128002Y-160662217D01*
X130197500Y-160655023D01*
X130259855Y-160686546D01*
X130276575Y-160705842D01*
X130406500Y-160891395D01*
X130406505Y-160891401D01*
X130573599Y-161058495D01*
X130670384Y-161126264D01*
X130767165Y-161194032D01*
X130767167Y-161194033D01*
X130767170Y-161194035D01*
X130981337Y-161293903D01*
X131209592Y-161355063D01*
X131386034Y-161370500D01*
X131444999Y-161375659D01*
X131445000Y-161375659D01*
X131445001Y-161375659D01*
X131503966Y-161370500D01*
X131680408Y-161355063D01*
X131908663Y-161293903D01*
X132122830Y-161194035D01*
X132316401Y-161058495D01*
X132438717Y-160936178D01*
X132500036Y-160902696D01*
X132569728Y-160907680D01*
X132625662Y-160949551D01*
X132642577Y-160980528D01*
X132691646Y-161112088D01*
X132691649Y-161112093D01*
X132777809Y-161227187D01*
X132777812Y-161227190D01*
X132892906Y-161313350D01*
X132892913Y-161313354D01*
X133027620Y-161363596D01*
X133027627Y-161363598D01*
X133087155Y-161369999D01*
X133087172Y-161370000D01*
X133735000Y-161370000D01*
X133735000Y-160466494D01*
X133839839Y-160514373D01*
X133948527Y-160530000D01*
X134021473Y-160530000D01*
X134130161Y-160514373D01*
X134235000Y-160466494D01*
X134235000Y-161370000D01*
X134882828Y-161370000D01*
X134882844Y-161369999D01*
X134942372Y-161363598D01*
X134942379Y-161363596D01*
X135077086Y-161313354D01*
X135077093Y-161313350D01*
X135192187Y-161227190D01*
X135192190Y-161227187D01*
X135278350Y-161112093D01*
X135278354Y-161112086D01*
X135327422Y-160980529D01*
X135369293Y-160924595D01*
X135434757Y-160900178D01*
X135503030Y-160915030D01*
X135531285Y-160936181D01*
X135653599Y-161058495D01*
X135750384Y-161126264D01*
X135847165Y-161194032D01*
X135847167Y-161194033D01*
X135847170Y-161194035D01*
X136061337Y-161293903D01*
X136289592Y-161355063D01*
X136466034Y-161370500D01*
X136524999Y-161375659D01*
X136525000Y-161375659D01*
X136525001Y-161375659D01*
X136583966Y-161370500D01*
X136760408Y-161355063D01*
X136988663Y-161293903D01*
X137202830Y-161194035D01*
X137396401Y-161058495D01*
X137563495Y-160891401D01*
X137693424Y-160705842D01*
X137748002Y-160662217D01*
X137817500Y-160655023D01*
X137879855Y-160686546D01*
X137896575Y-160705842D01*
X138026500Y-160891395D01*
X138026505Y-160891401D01*
X138193599Y-161058495D01*
X138290384Y-161126264D01*
X138387165Y-161194032D01*
X138387167Y-161194033D01*
X138387170Y-161194035D01*
X138601337Y-161293903D01*
X138829592Y-161355063D01*
X139006034Y-161370500D01*
X139064999Y-161375659D01*
X139065000Y-161375659D01*
X139065001Y-161375659D01*
X139123966Y-161370500D01*
X139300408Y-161355063D01*
X139528663Y-161293903D01*
X139742830Y-161194035D01*
X139936401Y-161058495D01*
X140103495Y-160891401D01*
X140233424Y-160705842D01*
X140288002Y-160662217D01*
X140357500Y-160655023D01*
X140419855Y-160686546D01*
X140436575Y-160705842D01*
X140566500Y-160891395D01*
X140566505Y-160891401D01*
X140733599Y-161058495D01*
X140830384Y-161126264D01*
X140927165Y-161194032D01*
X140927167Y-161194033D01*
X140927170Y-161194035D01*
X141141337Y-161293903D01*
X141369592Y-161355063D01*
X141546034Y-161370500D01*
X141604999Y-161375659D01*
X141605000Y-161375659D01*
X141605001Y-161375659D01*
X141663966Y-161370500D01*
X141840408Y-161355063D01*
X142068663Y-161293903D01*
X142282830Y-161194035D01*
X142476401Y-161058495D01*
X142643495Y-160891401D01*
X142773424Y-160705842D01*
X142828002Y-160662217D01*
X142897500Y-160655023D01*
X142959855Y-160686546D01*
X142976575Y-160705842D01*
X143106500Y-160891395D01*
X143106505Y-160891401D01*
X143273599Y-161058495D01*
X143370384Y-161126264D01*
X143467165Y-161194032D01*
X143467167Y-161194033D01*
X143467170Y-161194035D01*
X143681337Y-161293903D01*
X143909592Y-161355063D01*
X144086034Y-161370500D01*
X144144999Y-161375659D01*
X144145000Y-161375659D01*
X144145001Y-161375659D01*
X144203966Y-161370500D01*
X144380408Y-161355063D01*
X144608663Y-161293903D01*
X144822830Y-161194035D01*
X145016401Y-161058495D01*
X145138717Y-160936178D01*
X145200036Y-160902696D01*
X145269728Y-160907680D01*
X145325662Y-160949551D01*
X145342577Y-160980529D01*
X145350275Y-161001168D01*
X145350276Y-161001169D01*
X146193866Y-160157579D01*
X146216318Y-160234040D01*
X146295605Y-160357413D01*
X146406438Y-160453451D01*
X146539839Y-160514373D01*
X146543634Y-160514918D01*
X145703829Y-161354722D01*
X145703829Y-161354723D01*
X145727624Y-161363598D01*
X145787155Y-161369999D01*
X145787172Y-161370000D01*
X147582828Y-161370000D01*
X147582844Y-161369999D01*
X147642372Y-161363598D01*
X147642378Y-161363597D01*
X147666168Y-161354723D01*
X147666168Y-161354722D01*
X146826366Y-160514918D01*
X146830161Y-160514373D01*
X146963562Y-160453451D01*
X147074395Y-160357413D01*
X147153682Y-160234040D01*
X147176133Y-160157580D01*
X148019722Y-161001168D01*
X148019723Y-161001168D01*
X148027423Y-160980526D01*
X148069296Y-160924593D01*
X148134761Y-160900178D01*
X148203033Y-160915031D01*
X148231285Y-160936181D01*
X148353599Y-161058495D01*
X148450384Y-161126264D01*
X148547165Y-161194032D01*
X148547167Y-161194033D01*
X148547170Y-161194035D01*
X148761337Y-161293903D01*
X148989592Y-161355063D01*
X149166034Y-161370500D01*
X149224999Y-161375659D01*
X149225000Y-161375659D01*
X149225001Y-161375659D01*
X149283966Y-161370500D01*
X149460408Y-161355063D01*
X149688663Y-161293903D01*
X149902830Y-161194035D01*
X150096401Y-161058495D01*
X150263495Y-160891401D01*
X150393424Y-160705842D01*
X150448002Y-160662217D01*
X150517500Y-160655023D01*
X150579855Y-160686546D01*
X150596575Y-160705842D01*
X150726500Y-160891395D01*
X150726505Y-160891401D01*
X150893599Y-161058495D01*
X150990384Y-161126264D01*
X151087165Y-161194032D01*
X151087167Y-161194033D01*
X151087170Y-161194035D01*
X151301337Y-161293903D01*
X151529592Y-161355063D01*
X151706034Y-161370500D01*
X151764999Y-161375659D01*
X151765000Y-161375659D01*
X151765001Y-161375659D01*
X151823966Y-161370500D01*
X152000408Y-161355063D01*
X152228663Y-161293903D01*
X152442830Y-161194035D01*
X152636401Y-161058495D01*
X152803495Y-160891401D01*
X152939035Y-160697830D01*
X153038903Y-160483663D01*
X153100063Y-160255408D01*
X153120659Y-160020000D01*
X153100063Y-159784592D01*
X153038903Y-159556337D01*
X152939035Y-159342171D01*
X152933425Y-159334158D01*
X152803494Y-159148597D01*
X152636402Y-158981506D01*
X152636395Y-158981501D01*
X152442834Y-158845967D01*
X152442830Y-158845965D01*
X152371727Y-158812809D01*
X152228663Y-158746097D01*
X152228659Y-158746096D01*
X152228655Y-158746094D01*
X152000413Y-158684938D01*
X152000403Y-158684936D01*
X151765001Y-158664341D01*
X151764999Y-158664341D01*
X151529596Y-158684936D01*
X151529586Y-158684938D01*
X151301344Y-158746094D01*
X151301335Y-158746098D01*
X151087171Y-158845964D01*
X151087169Y-158845965D01*
X150893597Y-158981505D01*
X150726505Y-159148597D01*
X150596575Y-159334158D01*
X150541998Y-159377783D01*
X150472500Y-159384977D01*
X150410145Y-159353454D01*
X150393425Y-159334158D01*
X150263494Y-159148597D01*
X150096402Y-158981506D01*
X150096395Y-158981501D01*
X149902834Y-158845967D01*
X149902830Y-158845965D01*
X149831727Y-158812809D01*
X149688663Y-158746097D01*
X149688659Y-158746096D01*
X149688655Y-158746094D01*
X149460413Y-158684938D01*
X149460403Y-158684936D01*
X149225001Y-158664341D01*
X149224999Y-158664341D01*
X148989596Y-158684936D01*
X148989586Y-158684938D01*
X148761344Y-158746094D01*
X148761335Y-158746098D01*
X148547171Y-158845964D01*
X148547169Y-158845965D01*
X148353600Y-158981503D01*
X148231284Y-159103819D01*
X148169961Y-159137303D01*
X148100269Y-159132319D01*
X148044336Y-159090447D01*
X148027421Y-159059471D01*
X148019721Y-159038829D01*
X147176132Y-159882418D01*
X147153682Y-159805960D01*
X147074395Y-159682587D01*
X146963562Y-159586549D01*
X146830161Y-159525627D01*
X146826365Y-159525081D01*
X147666169Y-158685276D01*
X147666168Y-158685275D01*
X147642382Y-158676403D01*
X147642372Y-158676401D01*
X147582844Y-158670000D01*
X145787155Y-158670000D01*
X145727626Y-158676401D01*
X145703829Y-158685276D01*
X146543635Y-159525081D01*
X146539839Y-159525627D01*
X146406438Y-159586549D01*
X146295605Y-159682587D01*
X146216318Y-159805960D01*
X146193866Y-159882419D01*
X145350276Y-159038829D01*
X145350276Y-159038830D01*
X145342579Y-159059468D01*
X145300708Y-159115403D01*
X145235244Y-159139821D01*
X145166971Y-159124970D01*
X145138715Y-159103819D01*
X145093977Y-159059081D01*
X145016401Y-158981505D01*
X145016397Y-158981502D01*
X145016396Y-158981501D01*
X144822834Y-158845967D01*
X144822830Y-158845965D01*
X144751727Y-158812809D01*
X144608663Y-158746097D01*
X144608659Y-158746096D01*
X144608655Y-158746094D01*
X144380413Y-158684938D01*
X144380403Y-158684936D01*
X144145001Y-158664341D01*
X144144999Y-158664341D01*
X143909596Y-158684936D01*
X143909586Y-158684938D01*
X143681344Y-158746094D01*
X143681335Y-158746098D01*
X143467171Y-158845964D01*
X143467169Y-158845965D01*
X143273597Y-158981505D01*
X143106505Y-159148597D01*
X142976575Y-159334158D01*
X142921998Y-159377783D01*
X142852500Y-159384977D01*
X142790145Y-159353454D01*
X142773425Y-159334158D01*
X142643494Y-159148597D01*
X142476402Y-158981506D01*
X142476395Y-158981501D01*
X142282834Y-158845967D01*
X142282830Y-158845965D01*
X142211727Y-158812809D01*
X142068663Y-158746097D01*
X142068659Y-158746096D01*
X142068655Y-158746094D01*
X141840413Y-158684938D01*
X141840403Y-158684936D01*
X141605001Y-158664341D01*
X141604999Y-158664341D01*
X141369596Y-158684936D01*
X141369586Y-158684938D01*
X141141344Y-158746094D01*
X141141335Y-158746098D01*
X140927171Y-158845964D01*
X140927169Y-158845965D01*
X140733597Y-158981505D01*
X140566505Y-159148597D01*
X140436575Y-159334158D01*
X140381998Y-159377783D01*
X140312500Y-159384977D01*
X140250145Y-159353454D01*
X140233425Y-159334158D01*
X140103494Y-159148597D01*
X139936402Y-158981506D01*
X139936395Y-158981501D01*
X139742834Y-158845967D01*
X139742830Y-158845965D01*
X139671727Y-158812809D01*
X139528663Y-158746097D01*
X139528659Y-158746096D01*
X139528655Y-158746094D01*
X139300413Y-158684938D01*
X139300403Y-158684936D01*
X139065001Y-158664341D01*
X139064999Y-158664341D01*
X138829596Y-158684936D01*
X138829586Y-158684938D01*
X138601344Y-158746094D01*
X138601335Y-158746098D01*
X138387171Y-158845964D01*
X138387169Y-158845965D01*
X138193597Y-158981505D01*
X138026505Y-159148597D01*
X137896575Y-159334158D01*
X137841998Y-159377783D01*
X137772500Y-159384977D01*
X137710145Y-159353454D01*
X137693425Y-159334158D01*
X137563494Y-159148597D01*
X137396402Y-158981506D01*
X137396395Y-158981501D01*
X137202834Y-158845967D01*
X137202830Y-158845965D01*
X137131727Y-158812809D01*
X136988663Y-158746097D01*
X136988659Y-158746096D01*
X136988655Y-158746094D01*
X136760413Y-158684938D01*
X136760403Y-158684936D01*
X136525001Y-158664341D01*
X136524999Y-158664341D01*
X136289596Y-158684936D01*
X136289586Y-158684938D01*
X136061344Y-158746094D01*
X136061335Y-158746098D01*
X135847171Y-158845964D01*
X135847169Y-158845965D01*
X135653600Y-158981503D01*
X135531284Y-159103819D01*
X135469961Y-159137303D01*
X135400269Y-159132319D01*
X135344336Y-159090447D01*
X135327421Y-159059470D01*
X135278354Y-158927913D01*
X135278350Y-158927906D01*
X135192190Y-158812812D01*
X135192187Y-158812809D01*
X135077093Y-158726649D01*
X135077086Y-158726645D01*
X134942379Y-158676403D01*
X134942372Y-158676401D01*
X134882844Y-158670000D01*
X134235000Y-158670000D01*
X134235000Y-159573505D01*
X134130161Y-159525627D01*
X134021473Y-159510000D01*
X133948527Y-159510000D01*
X133839839Y-159525627D01*
X133735000Y-159573505D01*
X133735000Y-158670000D01*
X133087155Y-158670000D01*
X133027627Y-158676401D01*
X133027620Y-158676403D01*
X132892913Y-158726645D01*
X132892906Y-158726649D01*
X132777812Y-158812809D01*
X132777809Y-158812812D01*
X132691649Y-158927906D01*
X132691645Y-158927913D01*
X132642578Y-159059470D01*
X132600707Y-159115404D01*
X132535242Y-159139821D01*
X132466969Y-159124969D01*
X132438715Y-159103819D01*
X132393977Y-159059081D01*
X132316401Y-158981505D01*
X132316397Y-158981502D01*
X132316396Y-158981501D01*
X132122834Y-158845967D01*
X132122830Y-158845965D01*
X132051727Y-158812809D01*
X131908663Y-158746097D01*
X131908659Y-158746096D01*
X131908655Y-158746094D01*
X131680413Y-158684938D01*
X131680403Y-158684936D01*
X131445001Y-158664341D01*
X131444999Y-158664341D01*
X131209596Y-158684936D01*
X131209586Y-158684938D01*
X130981344Y-158746094D01*
X130981335Y-158746098D01*
X130767171Y-158845964D01*
X130767169Y-158845965D01*
X130573597Y-158981505D01*
X130406508Y-159148594D01*
X130276574Y-159334159D01*
X130221997Y-159377784D01*
X130152498Y-159384976D01*
X130090144Y-159353454D01*
X130073424Y-159334158D01*
X129943494Y-159148597D01*
X129776402Y-158981506D01*
X129776395Y-158981501D01*
X129582834Y-158845967D01*
X129582830Y-158845965D01*
X129511727Y-158812809D01*
X129368663Y-158746097D01*
X129368659Y-158746096D01*
X129368655Y-158746094D01*
X129140413Y-158684938D01*
X129140403Y-158684936D01*
X128905001Y-158664341D01*
X128904999Y-158664341D01*
X128669596Y-158684936D01*
X128669586Y-158684938D01*
X128441344Y-158746094D01*
X128441335Y-158746098D01*
X128227171Y-158845964D01*
X128227169Y-158845965D01*
X128033597Y-158981505D01*
X127866505Y-159148597D01*
X127736575Y-159334158D01*
X127681998Y-159377783D01*
X127612500Y-159384977D01*
X127550145Y-159353454D01*
X127533425Y-159334158D01*
X127403494Y-159148597D01*
X127236402Y-158981506D01*
X127236395Y-158981501D01*
X127042834Y-158845967D01*
X127042830Y-158845965D01*
X126971727Y-158812809D01*
X126828663Y-158746097D01*
X126828659Y-158746096D01*
X126828655Y-158746094D01*
X126600413Y-158684938D01*
X126600403Y-158684936D01*
X126365001Y-158664341D01*
X126364999Y-158664341D01*
X126129596Y-158684936D01*
X126129586Y-158684938D01*
X125901344Y-158746094D01*
X125901335Y-158746098D01*
X125687171Y-158845964D01*
X125687169Y-158845965D01*
X125493597Y-158981505D01*
X125326505Y-159148597D01*
X125196575Y-159334158D01*
X125141998Y-159377783D01*
X125072500Y-159384977D01*
X125010145Y-159353454D01*
X124993425Y-159334158D01*
X124863494Y-159148597D01*
X124696402Y-158981506D01*
X124696395Y-158981501D01*
X124502834Y-158845967D01*
X124502830Y-158845965D01*
X124431727Y-158812809D01*
X124288663Y-158746097D01*
X124288659Y-158746096D01*
X124288655Y-158746094D01*
X124060413Y-158684938D01*
X124060403Y-158684936D01*
X123825001Y-158664341D01*
X123824999Y-158664341D01*
X123589596Y-158684936D01*
X123589586Y-158684938D01*
X123361344Y-158746094D01*
X123361335Y-158746098D01*
X123147171Y-158845964D01*
X123147169Y-158845965D01*
X122953600Y-158981503D01*
X122831673Y-159103430D01*
X122770350Y-159136914D01*
X122700658Y-159131930D01*
X122644725Y-159090058D01*
X122627810Y-159059081D01*
X122578797Y-158927671D01*
X122578793Y-158927664D01*
X122492547Y-158812455D01*
X122492544Y-158812452D01*
X122377335Y-158726206D01*
X122377328Y-158726202D01*
X122242482Y-158675908D01*
X122242483Y-158675908D01*
X122182883Y-158669501D01*
X122182881Y-158669500D01*
X122182873Y-158669500D01*
X122182864Y-158669500D01*
X120387129Y-158669500D01*
X120387123Y-158669501D01*
X120327516Y-158675908D01*
X120192671Y-158726202D01*
X120192664Y-158726206D01*
X120077455Y-158812452D01*
X120077452Y-158812455D01*
X119991206Y-158927664D01*
X119991203Y-158927669D01*
X119942189Y-159059083D01*
X119900317Y-159115016D01*
X119834853Y-159139433D01*
X119766580Y-159124581D01*
X119738326Y-159103430D01*
X119616402Y-158981506D01*
X119616395Y-158981501D01*
X119422834Y-158845967D01*
X119422830Y-158845965D01*
X119351727Y-158812809D01*
X119208663Y-158746097D01*
X119208659Y-158746096D01*
X119208655Y-158746094D01*
X118980413Y-158684938D01*
X118980403Y-158684936D01*
X118745001Y-158664341D01*
X118744999Y-158664341D01*
X118509596Y-158684936D01*
X118509586Y-158684938D01*
X118281344Y-158746094D01*
X118281335Y-158746098D01*
X118067171Y-158845964D01*
X118067169Y-158845965D01*
X117873597Y-158981505D01*
X117706508Y-159148594D01*
X117576574Y-159334159D01*
X117521997Y-159377784D01*
X117452498Y-159384976D01*
X117390144Y-159353454D01*
X117373424Y-159334158D01*
X117243494Y-159148597D01*
X117076402Y-158981506D01*
X117076395Y-158981501D01*
X116882834Y-158845967D01*
X116882830Y-158845965D01*
X116811727Y-158812809D01*
X116668663Y-158746097D01*
X116668659Y-158746096D01*
X116668655Y-158746094D01*
X116440413Y-158684938D01*
X116440403Y-158684936D01*
X116205001Y-158664341D01*
X116204999Y-158664341D01*
X115969596Y-158684936D01*
X115969586Y-158684938D01*
X115741344Y-158746094D01*
X115741335Y-158746098D01*
X115527171Y-158845964D01*
X115527169Y-158845965D01*
X115333597Y-158981505D01*
X115166505Y-159148597D01*
X115036575Y-159334158D01*
X114981998Y-159377783D01*
X114912500Y-159384977D01*
X114850145Y-159353454D01*
X114833425Y-159334158D01*
X114703494Y-159148597D01*
X114536402Y-158981506D01*
X114536395Y-158981501D01*
X114342834Y-158845967D01*
X114342830Y-158845965D01*
X114271727Y-158812809D01*
X114128663Y-158746097D01*
X114128659Y-158746096D01*
X114128655Y-158746094D01*
X113900413Y-158684938D01*
X113900403Y-158684936D01*
X113665001Y-158664341D01*
X113664999Y-158664341D01*
X113429596Y-158684936D01*
X113429586Y-158684938D01*
X113201344Y-158746094D01*
X113201335Y-158746098D01*
X112987171Y-158845964D01*
X112987169Y-158845965D01*
X112793597Y-158981505D01*
X112626505Y-159148597D01*
X112496575Y-159334158D01*
X112441998Y-159377783D01*
X112372500Y-159384977D01*
X112310145Y-159353454D01*
X112293425Y-159334158D01*
X112163494Y-159148597D01*
X111996402Y-158981506D01*
X111996395Y-158981501D01*
X111802834Y-158845967D01*
X111802830Y-158845965D01*
X111731727Y-158812809D01*
X111588663Y-158746097D01*
X111588659Y-158746096D01*
X111588655Y-158746094D01*
X111360413Y-158684938D01*
X111360403Y-158684936D01*
X111125001Y-158664341D01*
X111124999Y-158664341D01*
X110889596Y-158684936D01*
X110889586Y-158684938D01*
X110661344Y-158746094D01*
X110661335Y-158746098D01*
X110447171Y-158845964D01*
X110447169Y-158845965D01*
X110253600Y-158981503D01*
X110131284Y-159103819D01*
X110069961Y-159137303D01*
X110000269Y-159132319D01*
X109944336Y-159090447D01*
X109927421Y-159059471D01*
X109919721Y-159038829D01*
X109076132Y-159882418D01*
X109053682Y-159805960D01*
X108974395Y-159682587D01*
X108863562Y-159586549D01*
X108730161Y-159525627D01*
X108726365Y-159525081D01*
X109566169Y-158685276D01*
X109566168Y-158685275D01*
X109542382Y-158676403D01*
X109542372Y-158676401D01*
X109482844Y-158670000D01*
X107687155Y-158670000D01*
X107627626Y-158676401D01*
X107603829Y-158685276D01*
X108443635Y-159525081D01*
X108439839Y-159525627D01*
X108306438Y-159586549D01*
X108195605Y-159682587D01*
X108116318Y-159805960D01*
X108093866Y-159882419D01*
X107250276Y-159038829D01*
X107250276Y-159038830D01*
X107242579Y-159059468D01*
X107200708Y-159115403D01*
X107135244Y-159139821D01*
X107066971Y-159124970D01*
X107038715Y-159103819D01*
X106993977Y-159059081D01*
X106916401Y-158981505D01*
X106916397Y-158981502D01*
X106916396Y-158981501D01*
X106722834Y-158845967D01*
X106722830Y-158845965D01*
X106651727Y-158812809D01*
X106508663Y-158746097D01*
X106508659Y-158746096D01*
X106508655Y-158746094D01*
X106280413Y-158684938D01*
X106280403Y-158684936D01*
X106045001Y-158664341D01*
X106044999Y-158664341D01*
X105809596Y-158684936D01*
X105809586Y-158684938D01*
X105581344Y-158746094D01*
X105581335Y-158746098D01*
X105367171Y-158845964D01*
X105367169Y-158845965D01*
X105173597Y-158981505D01*
X105006508Y-159148594D01*
X104876574Y-159334159D01*
X104821997Y-159377784D01*
X104752498Y-159384976D01*
X104690144Y-159353454D01*
X104673424Y-159334158D01*
X104543494Y-159148597D01*
X104376402Y-158981506D01*
X104376395Y-158981501D01*
X104182834Y-158845967D01*
X104182830Y-158845965D01*
X104111727Y-158812809D01*
X103968663Y-158746097D01*
X103968659Y-158746096D01*
X103968655Y-158746094D01*
X103740413Y-158684938D01*
X103740403Y-158684936D01*
X103505001Y-158664341D01*
X103504999Y-158664341D01*
X103269596Y-158684936D01*
X103269586Y-158684938D01*
X103041344Y-158746094D01*
X103041335Y-158746098D01*
X102827171Y-158845964D01*
X102827169Y-158845965D01*
X102633597Y-158981505D01*
X102466505Y-159148597D01*
X102330965Y-159342169D01*
X102330964Y-159342171D01*
X102231098Y-159556335D01*
X102231094Y-159556344D01*
X102169938Y-159784586D01*
X102169936Y-159784596D01*
X102149341Y-160019999D01*
X102149341Y-160020000D01*
X100330500Y-160020000D01*
X100330500Y-155872870D01*
X125527500Y-155872870D01*
X125527501Y-155872876D01*
X125533908Y-155932483D01*
X125584202Y-156067328D01*
X125584206Y-156067335D01*
X125670452Y-156182544D01*
X125670455Y-156182547D01*
X125785664Y-156268793D01*
X125785671Y-156268797D01*
X125920517Y-156319091D01*
X125920516Y-156319091D01*
X125927444Y-156319835D01*
X125980127Y-156325500D01*
X129275872Y-156325499D01*
X129335483Y-156319091D01*
X129470331Y-156268796D01*
X129585546Y-156182546D01*
X129671796Y-156067331D01*
X129722091Y-155932483D01*
X129728500Y-155872873D01*
X129728499Y-154591950D01*
X129748184Y-154524912D01*
X129800987Y-154479157D01*
X129870146Y-154469213D01*
X129933702Y-154498238D01*
X129940180Y-154504270D01*
X131759197Y-156323287D01*
X131769022Y-156335551D01*
X131769243Y-156335369D01*
X131774213Y-156341376D01*
X131774216Y-156341379D01*
X131774217Y-156341380D01*
X131824654Y-156388744D01*
X131845533Y-156409623D01*
X131851007Y-156413869D01*
X131855445Y-156417659D01*
X131889421Y-156449565D01*
X131889425Y-156449567D01*
X131906976Y-156459216D01*
X131923234Y-156469895D01*
X131939067Y-156482177D01*
X131961018Y-156491675D01*
X131981840Y-156500686D01*
X131987084Y-156503255D01*
X132027911Y-156525700D01*
X132047315Y-156530682D01*
X132065713Y-156536981D01*
X132084108Y-156544941D01*
X132130132Y-156552229D01*
X132135835Y-156553410D01*
X132180984Y-156565003D01*
X132201019Y-156565003D01*
X132220416Y-156566529D01*
X132240199Y-156569663D01*
X132286586Y-156565278D01*
X132292425Y-156565003D01*
X137091252Y-156565003D01*
X137158291Y-156584688D01*
X137183400Y-156606029D01*
X137189126Y-156612388D01*
X137189130Y-156612392D01*
X137342265Y-156723651D01*
X137342270Y-156723654D01*
X137515192Y-156800645D01*
X137515197Y-156800647D01*
X137700354Y-156840003D01*
X137700355Y-156840003D01*
X137889644Y-156840003D01*
X137889646Y-156840003D01*
X138074803Y-156800647D01*
X138247730Y-156723654D01*
X138400871Y-156612391D01*
X138527533Y-156471719D01*
X138622179Y-156307787D01*
X138680674Y-156127759D01*
X138700460Y-155939503D01*
X138680674Y-155751247D01*
X138622179Y-155571219D01*
X138527533Y-155407287D01*
X138400871Y-155266615D01*
X138400870Y-155266614D01*
X138247734Y-155155354D01*
X138247729Y-155155351D01*
X138074807Y-155078360D01*
X138074802Y-155078358D01*
X137929000Y-155047368D01*
X137889646Y-155039003D01*
X137700354Y-155039003D01*
X137667897Y-155045901D01*
X137515197Y-155078358D01*
X137515192Y-155078360D01*
X137342270Y-155155351D01*
X137342265Y-155155354D01*
X137189130Y-155266613D01*
X137189126Y-155266617D01*
X137183400Y-155272977D01*
X137123913Y-155309624D01*
X137091252Y-155314003D01*
X132570455Y-155314003D01*
X132503416Y-155294318D01*
X132482774Y-155277684D01*
X130294460Y-153089369D01*
X130260975Y-153028046D01*
X130258823Y-153014668D01*
X130241174Y-152846744D01*
X130182679Y-152666716D01*
X130088033Y-152502784D01*
X129961371Y-152362112D01*
X129949891Y-152353771D01*
X129808234Y-152250851D01*
X129808229Y-152250848D01*
X129635307Y-152173857D01*
X129635302Y-152173855D01*
X129489500Y-152142865D01*
X129450146Y-152134500D01*
X129260854Y-152134500D01*
X129228397Y-152141398D01*
X129075697Y-152173855D01*
X129075692Y-152173857D01*
X128902770Y-152250848D01*
X128902765Y-152250851D01*
X128749629Y-152362111D01*
X128622966Y-152502785D01*
X128528321Y-152666715D01*
X128528318Y-152666722D01*
X128469827Y-152846740D01*
X128469826Y-152846744D01*
X128457152Y-152967331D01*
X128450040Y-153035000D01*
X128466072Y-153187539D01*
X128453502Y-153256269D01*
X128405770Y-153307292D01*
X128342751Y-153324500D01*
X125980129Y-153324500D01*
X125980123Y-153324501D01*
X125920516Y-153330908D01*
X125785671Y-153381202D01*
X125785664Y-153381206D01*
X125670455Y-153467452D01*
X125670452Y-153467455D01*
X125584206Y-153582664D01*
X125584202Y-153582671D01*
X125533908Y-153717517D01*
X125527501Y-153777116D01*
X125527500Y-153777135D01*
X125527500Y-155872870D01*
X100330500Y-155872870D01*
X100330500Y-150000000D01*
X112794540Y-150000000D01*
X112814326Y-150188256D01*
X112814327Y-150188259D01*
X112872818Y-150368277D01*
X112872821Y-150368284D01*
X112967467Y-150532216D01*
X113090739Y-150669123D01*
X113094129Y-150672888D01*
X113247265Y-150784148D01*
X113247270Y-150784151D01*
X113420192Y-150861142D01*
X113420197Y-150861144D01*
X113605354Y-150900500D01*
X113664548Y-150900500D01*
X113731587Y-150920185D01*
X113752229Y-150936819D01*
X114330661Y-151515252D01*
X114364146Y-151576575D01*
X114366301Y-151589971D01*
X114372938Y-151653111D01*
X114383949Y-151757879D01*
X114383950Y-151757882D01*
X114442441Y-151937900D01*
X114442444Y-151937907D01*
X114537090Y-152101839D01*
X114634191Y-152209680D01*
X114663752Y-152242511D01*
X114816888Y-152353771D01*
X114816893Y-152353774D01*
X114989815Y-152430765D01*
X114989820Y-152430767D01*
X115174977Y-152470123D01*
X115174978Y-152470123D01*
X115364267Y-152470123D01*
X115364269Y-152470123D01*
X115549426Y-152430767D01*
X115722353Y-152353774D01*
X115875494Y-152242511D01*
X116002156Y-152101839D01*
X116096802Y-151937907D01*
X116155297Y-151757879D01*
X116158752Y-151725005D01*
X119122858Y-151725005D01*
X119143385Y-151972729D01*
X119143387Y-151972738D01*
X119204412Y-152213717D01*
X119304266Y-152441364D01*
X119404564Y-152594882D01*
X120144923Y-151854523D01*
X120168507Y-151934844D01*
X120246239Y-152055798D01*
X120354900Y-152149952D01*
X120485685Y-152209680D01*
X120495466Y-152211086D01*
X119757942Y-152948609D01*
X119804768Y-152985055D01*
X119804770Y-152985056D01*
X120023385Y-153103364D01*
X120023396Y-153103369D01*
X120258506Y-153184083D01*
X120503707Y-153225000D01*
X120752293Y-153225000D01*
X120997493Y-153184083D01*
X121232603Y-153103369D01*
X121232614Y-153103364D01*
X121451228Y-152985057D01*
X121451231Y-152985055D01*
X121498056Y-152948609D01*
X120760533Y-152211086D01*
X120770315Y-152209680D01*
X120901100Y-152149952D01*
X121009761Y-152055798D01*
X121087493Y-151934844D01*
X121111076Y-151854524D01*
X121851434Y-152594882D01*
X121951731Y-152441369D01*
X122051587Y-152213717D01*
X122112612Y-151972738D01*
X122112614Y-151972729D01*
X122133141Y-151725005D01*
X122133141Y-151724994D01*
X122112614Y-151477270D01*
X122112612Y-151477261D01*
X122051587Y-151236282D01*
X121951731Y-151008630D01*
X121851434Y-150855116D01*
X121111076Y-151595475D01*
X121087493Y-151515156D01*
X121009761Y-151394202D01*
X120901100Y-151300048D01*
X120770315Y-151240320D01*
X120760532Y-151238913D01*
X121498056Y-150501389D01*
X121451229Y-150464943D01*
X121232614Y-150346635D01*
X121232603Y-150346630D01*
X120997493Y-150265916D01*
X120752293Y-150225000D01*
X120503707Y-150225000D01*
X120258506Y-150265916D01*
X120023396Y-150346630D01*
X120023390Y-150346632D01*
X119804761Y-150464949D01*
X119757942Y-150501388D01*
X119757942Y-150501390D01*
X120495464Y-151238913D01*
X120485685Y-151240320D01*
X120354900Y-151300048D01*
X120246239Y-151394202D01*
X120168507Y-151515156D01*
X120144923Y-151595475D01*
X119404564Y-150855116D01*
X119304267Y-151008632D01*
X119204412Y-151236282D01*
X119143387Y-151477261D01*
X119143385Y-151477270D01*
X119122858Y-151724994D01*
X119122858Y-151725005D01*
X116158752Y-151725005D01*
X116175083Y-151569623D01*
X116155297Y-151381367D01*
X116096802Y-151201339D01*
X116002156Y-151037407D01*
X115875494Y-150896735D01*
X115875493Y-150896734D01*
X115722357Y-150785474D01*
X115722352Y-150785471D01*
X115549430Y-150708480D01*
X115549425Y-150708478D01*
X115381982Y-150672888D01*
X115364269Y-150669123D01*
X115364268Y-150669123D01*
X115305076Y-150669123D01*
X115238037Y-150649438D01*
X115217395Y-150632804D01*
X114638960Y-150054369D01*
X114605475Y-149993046D01*
X114603323Y-149979668D01*
X114585674Y-149811744D01*
X114527179Y-149631716D01*
X114432533Y-149467784D01*
X114305871Y-149327112D01*
X114305870Y-149327111D01*
X114152734Y-149215851D01*
X114152729Y-149215848D01*
X113979807Y-149138857D01*
X113979802Y-149138855D01*
X113834001Y-149107865D01*
X113794646Y-149099500D01*
X113605354Y-149099500D01*
X113572897Y-149106398D01*
X113420197Y-149138855D01*
X113420192Y-149138857D01*
X113247270Y-149215848D01*
X113247265Y-149215851D01*
X113094129Y-149327111D01*
X112967466Y-149467785D01*
X112872821Y-149631715D01*
X112872818Y-149631722D01*
X112814327Y-149811740D01*
X112814326Y-149811744D01*
X112794540Y-150000000D01*
X100330500Y-150000000D01*
X100330500Y-146725005D01*
X119122357Y-146725005D01*
X119142890Y-146972812D01*
X119142892Y-146972824D01*
X119203936Y-147213881D01*
X119303826Y-147441606D01*
X119439833Y-147649782D01*
X119439836Y-147649785D01*
X119608256Y-147832738D01*
X119804491Y-147985474D01*
X120023190Y-148103828D01*
X120258386Y-148184571D01*
X120503665Y-148225500D01*
X120752335Y-148225500D01*
X120997614Y-148184571D01*
X121232810Y-148103828D01*
X121451509Y-147985474D01*
X121647744Y-147832738D01*
X121816164Y-147649785D01*
X121952173Y-147441607D01*
X122052063Y-147213881D01*
X122113108Y-146972821D01*
X122133643Y-146725005D01*
X133622357Y-146725005D01*
X133642890Y-146972812D01*
X133642892Y-146972824D01*
X133703936Y-147213881D01*
X133803826Y-147441606D01*
X133939833Y-147649782D01*
X133939836Y-147649785D01*
X134108256Y-147832738D01*
X134108259Y-147832740D01*
X134108262Y-147832743D01*
X134209374Y-147911442D01*
X134250187Y-147968152D01*
X134254300Y-147997748D01*
X134995466Y-148738913D01*
X134985685Y-148740320D01*
X134854900Y-148800048D01*
X134746239Y-148894202D01*
X134668507Y-149015156D01*
X134644923Y-149095475D01*
X133904564Y-148355116D01*
X133804267Y-148508632D01*
X133704412Y-148736282D01*
X133643387Y-148977261D01*
X133643385Y-148977270D01*
X133622858Y-149224994D01*
X133622858Y-149225005D01*
X133643385Y-149472729D01*
X133643387Y-149472738D01*
X133704412Y-149713717D01*
X133804267Y-149941367D01*
X133916484Y-150113129D01*
X133936672Y-150180018D01*
X133917491Y-150247204D01*
X133886987Y-150280216D01*
X133770452Y-150367455D01*
X133684206Y-150482664D01*
X133684202Y-150482671D01*
X133633908Y-150617517D01*
X133627956Y-150672888D01*
X133627501Y-150677123D01*
X133627500Y-150677135D01*
X133627500Y-152772870D01*
X133627501Y-152772876D01*
X133633908Y-152832483D01*
X133684202Y-152967328D01*
X133684206Y-152967335D01*
X133770452Y-153082544D01*
X133770455Y-153082547D01*
X133885664Y-153168793D01*
X133885671Y-153168797D01*
X134020517Y-153219091D01*
X134020516Y-153219091D01*
X134027444Y-153219835D01*
X134080127Y-153225500D01*
X136175872Y-153225499D01*
X136235483Y-153219091D01*
X136370331Y-153168796D01*
X136485546Y-153082546D01*
X136571796Y-152967331D01*
X136622091Y-152832483D01*
X136628500Y-152772873D01*
X136628499Y-150677128D01*
X136622091Y-150617517D01*
X136578778Y-150501390D01*
X136571797Y-150482671D01*
X136571793Y-150482664D01*
X136485547Y-150367456D01*
X136485548Y-150367456D01*
X136485546Y-150367454D01*
X136370331Y-150281204D01*
X136370329Y-150281203D01*
X136369012Y-150280217D01*
X136327141Y-150224283D01*
X136322157Y-150154591D01*
X136339515Y-150113128D01*
X136451731Y-149941369D01*
X136551587Y-149713717D01*
X136612612Y-149472738D01*
X136612614Y-149472729D01*
X136633141Y-149225005D01*
X136633141Y-149224994D01*
X136612614Y-148977270D01*
X136612612Y-148977261D01*
X136551587Y-148736282D01*
X136451731Y-148508630D01*
X136351434Y-148355116D01*
X135611076Y-149095474D01*
X135587493Y-149015156D01*
X135509761Y-148894202D01*
X135401100Y-148800048D01*
X135270315Y-148740320D01*
X135260534Y-148738913D01*
X136003898Y-147995548D01*
X136014515Y-147948852D01*
X136046621Y-147911444D01*
X136147744Y-147832738D01*
X136316164Y-147649785D01*
X136452173Y-147441607D01*
X136552063Y-147213881D01*
X136613108Y-146972821D01*
X136633643Y-146725000D01*
X136613108Y-146477179D01*
X136552063Y-146236119D01*
X136452173Y-146008393D01*
X136452172Y-146008393D01*
X136316166Y-145800217D01*
X136294557Y-145776744D01*
X136147744Y-145617262D01*
X135951509Y-145464526D01*
X135951507Y-145464525D01*
X135951506Y-145464524D01*
X135732811Y-145346172D01*
X135732802Y-145346169D01*
X135497616Y-145265429D01*
X135252335Y-145224500D01*
X135003665Y-145224500D01*
X134758383Y-145265429D01*
X134523197Y-145346169D01*
X134523188Y-145346172D01*
X134304493Y-145464524D01*
X134108257Y-145617261D01*
X133939833Y-145800217D01*
X133803826Y-146008393D01*
X133703936Y-146236118D01*
X133642892Y-146477175D01*
X133642890Y-146477187D01*
X133622357Y-146724994D01*
X133622357Y-146725005D01*
X122133643Y-146725005D01*
X122133643Y-146725000D01*
X122113108Y-146477179D01*
X122052063Y-146236119D01*
X121952173Y-146008393D01*
X121816166Y-145800217D01*
X121794557Y-145776744D01*
X121647744Y-145617262D01*
X121451509Y-145464526D01*
X121451507Y-145464525D01*
X121451506Y-145464524D01*
X121232811Y-145346172D01*
X121232802Y-145346169D01*
X120997616Y-145265429D01*
X120752335Y-145224500D01*
X120503665Y-145224500D01*
X120258383Y-145265429D01*
X120023197Y-145346169D01*
X120023188Y-145346172D01*
X119804493Y-145464524D01*
X119608257Y-145617261D01*
X119439833Y-145800217D01*
X119303826Y-146008393D01*
X119203936Y-146236118D01*
X119142892Y-146477175D01*
X119142890Y-146477187D01*
X119122357Y-146724994D01*
X119122357Y-146725005D01*
X100330500Y-146725005D01*
X100330500Y-144672870D01*
X125527500Y-144672870D01*
X125527501Y-144672876D01*
X125533908Y-144732483D01*
X125584202Y-144867328D01*
X125584206Y-144867335D01*
X125670452Y-144982544D01*
X125670455Y-144982547D01*
X125785664Y-145068793D01*
X125785671Y-145068797D01*
X125920517Y-145119091D01*
X125920516Y-145119091D01*
X125927444Y-145119835D01*
X125980127Y-145125500D01*
X129275872Y-145125499D01*
X129335483Y-145119091D01*
X129470331Y-145068796D01*
X129585546Y-144982546D01*
X129671796Y-144867331D01*
X129722091Y-144732483D01*
X129728500Y-144672873D01*
X129728499Y-142577128D01*
X129722091Y-142517517D01*
X129711178Y-142488259D01*
X129671797Y-142382671D01*
X129671793Y-142382664D01*
X129588925Y-142271968D01*
X141886540Y-142271968D01*
X141906326Y-142460224D01*
X141906327Y-142460227D01*
X141964818Y-142640245D01*
X141964821Y-142640252D01*
X142059467Y-142804184D01*
X142084705Y-142832214D01*
X142087361Y-142835163D01*
X142117592Y-142898155D01*
X142108967Y-142967490D01*
X142102600Y-142980135D01*
X142072820Y-143031715D01*
X142014328Y-143211738D01*
X142014326Y-143211744D01*
X141994540Y-143400000D01*
X142014326Y-143588256D01*
X142014327Y-143588259D01*
X142072818Y-143768277D01*
X142072821Y-143768284D01*
X142167467Y-143932216D01*
X142294129Y-144072888D01*
X142447265Y-144184148D01*
X142447270Y-144184151D01*
X142620192Y-144261142D01*
X142620197Y-144261144D01*
X142805354Y-144300500D01*
X142805355Y-144300500D01*
X142994644Y-144300500D01*
X142994646Y-144300500D01*
X143179803Y-144261144D01*
X143352730Y-144184151D01*
X143354776Y-144182664D01*
X143366452Y-144174182D01*
X143432258Y-144150702D01*
X143439337Y-144150500D01*
X145860663Y-144150500D01*
X145927702Y-144170185D01*
X145933548Y-144174182D01*
X145947265Y-144184148D01*
X145947270Y-144184151D01*
X146120192Y-144261142D01*
X146120197Y-144261144D01*
X146305354Y-144300500D01*
X146305355Y-144300500D01*
X146494644Y-144300500D01*
X146494646Y-144300500D01*
X146679803Y-144261144D01*
X146852730Y-144184151D01*
X147005871Y-144072888D01*
X147132533Y-143932216D01*
X147227179Y-143768284D01*
X147285674Y-143588256D01*
X147305460Y-143400000D01*
X147285674Y-143211744D01*
X147285671Y-143211737D01*
X147284322Y-143205383D01*
X147285801Y-143205068D01*
X147284028Y-143142976D01*
X147320109Y-143083144D01*
X147382810Y-143052316D01*
X147403954Y-143050500D01*
X148360663Y-143050500D01*
X148427702Y-143070185D01*
X148433548Y-143074182D01*
X148447265Y-143084148D01*
X148447270Y-143084151D01*
X148620192Y-143161142D01*
X148620197Y-143161144D01*
X148805354Y-143200500D01*
X148805355Y-143200500D01*
X148994644Y-143200500D01*
X148994646Y-143200500D01*
X149179803Y-143161144D01*
X149352730Y-143084151D01*
X149505871Y-142972888D01*
X149632533Y-142832216D01*
X149727179Y-142668284D01*
X149785674Y-142488256D01*
X149805460Y-142300000D01*
X149785674Y-142111744D01*
X149727179Y-141931716D01*
X149632533Y-141767784D01*
X149505871Y-141627112D01*
X149505870Y-141627111D01*
X149352734Y-141515851D01*
X149352729Y-141515848D01*
X149179807Y-141438857D01*
X149179802Y-141438855D01*
X149034000Y-141407865D01*
X148994646Y-141399500D01*
X148805354Y-141399500D01*
X148772897Y-141406398D01*
X148620197Y-141438855D01*
X148620192Y-141438857D01*
X148447270Y-141515848D01*
X148447265Y-141515851D01*
X148433548Y-141525818D01*
X148367742Y-141549298D01*
X148360663Y-141549500D01*
X143369920Y-141549500D01*
X143302881Y-141529815D01*
X143297035Y-141525818D01*
X143244734Y-141487819D01*
X143244729Y-141487816D01*
X143071807Y-141410825D01*
X143071802Y-141410823D01*
X142926000Y-141379833D01*
X142886646Y-141371468D01*
X142697354Y-141371468D01*
X142664897Y-141378366D01*
X142512197Y-141410823D01*
X142512192Y-141410825D01*
X142339270Y-141487816D01*
X142339265Y-141487819D01*
X142186129Y-141599079D01*
X142059466Y-141739753D01*
X141964821Y-141903683D01*
X141964818Y-141903690D01*
X141906327Y-142083708D01*
X141906326Y-142083712D01*
X141886540Y-142271968D01*
X129588925Y-142271968D01*
X129585547Y-142267455D01*
X129585544Y-142267452D01*
X129470335Y-142181206D01*
X129470328Y-142181202D01*
X129335482Y-142130908D01*
X129335483Y-142130908D01*
X129275883Y-142124501D01*
X129275881Y-142124500D01*
X129275873Y-142124500D01*
X129275864Y-142124500D01*
X125980129Y-142124500D01*
X125980123Y-142124501D01*
X125920516Y-142130908D01*
X125785671Y-142181202D01*
X125785664Y-142181206D01*
X125670455Y-142267452D01*
X125670452Y-142267455D01*
X125584206Y-142382664D01*
X125584202Y-142382671D01*
X125533908Y-142517517D01*
X125527501Y-142577116D01*
X125527501Y-142577123D01*
X125527500Y-142577135D01*
X125527500Y-144672870D01*
X100330500Y-144672870D01*
X100330500Y-135517870D01*
X150414500Y-135517870D01*
X150414501Y-135517876D01*
X150420908Y-135577483D01*
X150471202Y-135712328D01*
X150471206Y-135712335D01*
X150557452Y-135827544D01*
X150557455Y-135827547D01*
X150672664Y-135913793D01*
X150672671Y-135913797D01*
X150672674Y-135913798D01*
X150804598Y-135963002D01*
X150860531Y-136004873D01*
X150884949Y-136070337D01*
X150870098Y-136138610D01*
X150848947Y-136166865D01*
X150726886Y-136288926D01*
X150591400Y-136482420D01*
X150591399Y-136482422D01*
X150491570Y-136696507D01*
X150491567Y-136696513D01*
X150434364Y-136909999D01*
X150434364Y-136910000D01*
X151331314Y-136910000D01*
X151305507Y-136950156D01*
X151265000Y-137088111D01*
X151265000Y-137231889D01*
X151305507Y-137369844D01*
X151331314Y-137410000D01*
X150434364Y-137410000D01*
X150491567Y-137623486D01*
X150491570Y-137623492D01*
X150591399Y-137837578D01*
X150726894Y-138031082D01*
X150893917Y-138198105D01*
X151087421Y-138333600D01*
X151301507Y-138433429D01*
X151301516Y-138433433D01*
X151515000Y-138490634D01*
X151515000Y-137595501D01*
X151622685Y-137644680D01*
X151729237Y-137660000D01*
X151800763Y-137660000D01*
X151907315Y-137644680D01*
X152015000Y-137595501D01*
X152015000Y-138490633D01*
X152228483Y-138433433D01*
X152228492Y-138433429D01*
X152442578Y-138333600D01*
X152636082Y-138198105D01*
X152803105Y-138031082D01*
X152938600Y-137837578D01*
X153038429Y-137623492D01*
X153038432Y-137623486D01*
X153095636Y-137410000D01*
X152198686Y-137410000D01*
X152224493Y-137369844D01*
X152265000Y-137231889D01*
X152265000Y-137088111D01*
X152224493Y-136950156D01*
X152198686Y-136910000D01*
X153095636Y-136910000D01*
X153095635Y-136909999D01*
X153038432Y-136696513D01*
X153038429Y-136696507D01*
X152938600Y-136482422D01*
X152938599Y-136482420D01*
X152803113Y-136288926D01*
X152803108Y-136288920D01*
X152681053Y-136166865D01*
X152647568Y-136105542D01*
X152652552Y-136035850D01*
X152694424Y-135979917D01*
X152725400Y-135963002D01*
X152857331Y-135913796D01*
X152972546Y-135827546D01*
X153058796Y-135712331D01*
X153109091Y-135577483D01*
X153115500Y-135517873D01*
X153115499Y-133722128D01*
X153109091Y-133662517D01*
X153058796Y-133527669D01*
X153058795Y-133527668D01*
X153058793Y-133527664D01*
X152972547Y-133412455D01*
X152972544Y-133412452D01*
X152857335Y-133326206D01*
X152857328Y-133326202D01*
X152722482Y-133275908D01*
X152722483Y-133275908D01*
X152662883Y-133269501D01*
X152662881Y-133269500D01*
X152662873Y-133269500D01*
X152662864Y-133269500D01*
X150867129Y-133269500D01*
X150867123Y-133269501D01*
X150807516Y-133275908D01*
X150672671Y-133326202D01*
X150672664Y-133326206D01*
X150557455Y-133412452D01*
X150557452Y-133412455D01*
X150471206Y-133527664D01*
X150471202Y-133527671D01*
X150420908Y-133662517D01*
X150414501Y-133722116D01*
X150414501Y-133722123D01*
X150414500Y-133722135D01*
X150414500Y-135517870D01*
X100330500Y-135517870D01*
X100330500Y-131005000D01*
X149509551Y-131005000D01*
X149529317Y-131256151D01*
X149588126Y-131501110D01*
X149684533Y-131733859D01*
X149816160Y-131948653D01*
X149816161Y-131948656D01*
X149816164Y-131948659D01*
X149979776Y-132140224D01*
X150128066Y-132266875D01*
X150171343Y-132303838D01*
X150171346Y-132303839D01*
X150386140Y-132435466D01*
X150618888Y-132531873D01*
X150618889Y-132531873D01*
X150863852Y-132590683D01*
X151019950Y-132602968D01*
X151052116Y-132605500D01*
X151052118Y-132605500D01*
X152477884Y-132605500D01*
X152507518Y-132603167D01*
X152666148Y-132590683D01*
X152911111Y-132531873D01*
X153143859Y-132435466D01*
X153358659Y-132303836D01*
X153550224Y-132140224D01*
X153713836Y-131948659D01*
X153845466Y-131733859D01*
X153941873Y-131501111D01*
X154000683Y-131256148D01*
X154020449Y-131005000D01*
X154000683Y-130753852D01*
X153941873Y-130508889D01*
X153845466Y-130276141D01*
X153845466Y-130276140D01*
X153713839Y-130061346D01*
X153713838Y-130061343D01*
X153676875Y-130018066D01*
X153550224Y-129869776D01*
X153362593Y-129709524D01*
X153324401Y-129651018D01*
X153323903Y-129581150D01*
X153339638Y-129546925D01*
X153370635Y-129499968D01*
X153459103Y-129292988D01*
X153509191Y-129073537D01*
X153519290Y-128848670D01*
X153489075Y-128625613D01*
X153419517Y-128411536D01*
X153312852Y-128213319D01*
X153172508Y-128037334D01*
X153172507Y-128037333D01*
X153128489Y-127998875D01*
X153090955Y-127939943D01*
X153091241Y-127870074D01*
X153120448Y-127819803D01*
X153128747Y-127811123D01*
X153246632Y-127687825D01*
X153370635Y-127499968D01*
X153459103Y-127292988D01*
X153509191Y-127073537D01*
X153519290Y-126848670D01*
X153489075Y-126625613D01*
X153419517Y-126411536D01*
X153312852Y-126213319D01*
X153312850Y-126213316D01*
X153309786Y-126208675D01*
X153311388Y-126207616D01*
X153288214Y-126150853D01*
X153300971Y-126082157D01*
X153337257Y-126038962D01*
X153372546Y-126012546D01*
X153458796Y-125897331D01*
X153509091Y-125762483D01*
X153515500Y-125702873D01*
X153515499Y-124107128D01*
X153509091Y-124047517D01*
X153508979Y-124046474D01*
X153521386Y-123977715D01*
X153547486Y-123944365D01*
X153546784Y-123943663D01*
X153550220Y-123940227D01*
X153550224Y-123940224D01*
X153713836Y-123748659D01*
X153845466Y-123533859D01*
X153941873Y-123301111D01*
X154000683Y-123056148D01*
X154020449Y-122805000D01*
X154000683Y-122553852D01*
X153941873Y-122308889D01*
X153845466Y-122076141D01*
X153845466Y-122076140D01*
X153713839Y-121861346D01*
X153713838Y-121861343D01*
X153676875Y-121818066D01*
X153550224Y-121669776D01*
X153423571Y-121561604D01*
X153358656Y-121506161D01*
X153358653Y-121506160D01*
X153143859Y-121374533D01*
X152911110Y-121278126D01*
X152666150Y-121219317D01*
X152477884Y-121204500D01*
X152477882Y-121204500D01*
X151052118Y-121204500D01*
X151052116Y-121204500D01*
X150863849Y-121219317D01*
X150618889Y-121278126D01*
X150386140Y-121374533D01*
X150171346Y-121506160D01*
X150171343Y-121506161D01*
X149979776Y-121669776D01*
X149816161Y-121861343D01*
X149816160Y-121861346D01*
X149684533Y-122076140D01*
X149588126Y-122308889D01*
X149529317Y-122553848D01*
X149509551Y-122805000D01*
X149529317Y-123056151D01*
X149588126Y-123301110D01*
X149684533Y-123533859D01*
X149816160Y-123748653D01*
X149816161Y-123748656D01*
X149979779Y-123940227D01*
X149983221Y-123943669D01*
X149982090Y-123944799D01*
X150016453Y-123997428D01*
X150021021Y-124046475D01*
X150020908Y-124047517D01*
X150020909Y-124047517D01*
X150014500Y-124107127D01*
X150014500Y-124107128D01*
X150014500Y-124107132D01*
X150014500Y-125702870D01*
X150014501Y-125702876D01*
X150020908Y-125762483D01*
X150071202Y-125897328D01*
X150071206Y-125897335D01*
X150157452Y-126012544D01*
X150157455Y-126012547D01*
X150196597Y-126041849D01*
X150238468Y-126097783D01*
X150243452Y-126167474D01*
X150225773Y-126209426D01*
X150159363Y-126310033D01*
X150070899Y-126517004D01*
X150070895Y-126517017D01*
X150020810Y-126736457D01*
X150020808Y-126736468D01*
X150015769Y-126848674D01*
X150010710Y-126961330D01*
X150040925Y-127184387D01*
X150040926Y-127184390D01*
X150110483Y-127398465D01*
X150217146Y-127596678D01*
X150217148Y-127596681D01*
X150357489Y-127772663D01*
X150357491Y-127772664D01*
X150357492Y-127772666D01*
X150401510Y-127811124D01*
X150439044Y-127870055D01*
X150438758Y-127939924D01*
X150409552Y-127990195D01*
X150283369Y-128122173D01*
X150159363Y-128310033D01*
X150070899Y-128517004D01*
X150070895Y-128517017D01*
X150020810Y-128736457D01*
X150020808Y-128736468D01*
X150015769Y-128848674D01*
X150010710Y-128961330D01*
X150040925Y-129184387D01*
X150040926Y-129184390D01*
X150110483Y-129398465D01*
X150195687Y-129556800D01*
X150210121Y-129625163D01*
X150185303Y-129690477D01*
X150167025Y-129709850D01*
X149979776Y-129869776D01*
X149816161Y-130061343D01*
X149816160Y-130061346D01*
X149684533Y-130276140D01*
X149588126Y-130508889D01*
X149529317Y-130753848D01*
X149509551Y-131005000D01*
X100330500Y-131005000D01*
X100330500Y-117845006D01*
X102122788Y-117845006D01*
X102141603Y-118072085D01*
X102141605Y-118072093D01*
X102197545Y-118292993D01*
X102289077Y-118501664D01*
X102289079Y-118501668D01*
X102369374Y-118624570D01*
X103023450Y-117970493D01*
X103047602Y-118052745D01*
X103124557Y-118172489D01*
X103232131Y-118265702D01*
X103361608Y-118324833D01*
X103374382Y-118326669D01*
X102721515Y-118979536D01*
X102721516Y-118979537D01*
X102747866Y-119000046D01*
X102747872Y-119000050D01*
X102948269Y-119108499D01*
X102948280Y-119108504D01*
X103163798Y-119182492D01*
X103388565Y-119220000D01*
X103616435Y-119220000D01*
X103841201Y-119182492D01*
X104056719Y-119108504D01*
X104056730Y-119108499D01*
X104255006Y-119001199D01*
X104323334Y-118986604D01*
X104388706Y-119011267D01*
X104430367Y-119067358D01*
X104437640Y-119100523D01*
X104438269Y-119108504D01*
X104456353Y-119338297D01*
X104456353Y-119338300D01*
X104456354Y-119338302D01*
X104503726Y-119535619D01*
X104513330Y-119575619D01*
X104606722Y-119801089D01*
X104734237Y-120009173D01*
X104734238Y-120009176D01*
X104734241Y-120009179D01*
X104892741Y-120194759D01*
X105031487Y-120313259D01*
X105078323Y-120353261D01*
X105078326Y-120353262D01*
X105286410Y-120480777D01*
X105511881Y-120574169D01*
X105511878Y-120574169D01*
X105511884Y-120574170D01*
X105511888Y-120574172D01*
X105749198Y-120631146D01*
X105992500Y-120650294D01*
X106235802Y-120631146D01*
X106473112Y-120574172D01*
X106698589Y-120480777D01*
X106906679Y-120353259D01*
X107092259Y-120194759D01*
X107250759Y-120009179D01*
X107378277Y-119801089D01*
X107471672Y-119575612D01*
X107528646Y-119338302D01*
X107547794Y-119095000D01*
X107528646Y-118851698D01*
X107471672Y-118614388D01*
X107471669Y-118614380D01*
X107378277Y-118388910D01*
X107250762Y-118180826D01*
X107250761Y-118180823D01*
X107214953Y-118138897D01*
X107092259Y-117995241D01*
X106928058Y-117855000D01*
X106906676Y-117836738D01*
X106906673Y-117836737D01*
X106698589Y-117709222D01*
X106473118Y-117615830D01*
X106473121Y-117615830D01*
X106306511Y-117575830D01*
X106235802Y-117558854D01*
X106235800Y-117558853D01*
X106235797Y-117558853D01*
X106020443Y-117541905D01*
X105992500Y-117539706D01*
X105992499Y-117539706D01*
X105749202Y-117558853D01*
X105511880Y-117615830D01*
X105286410Y-117709222D01*
X105078326Y-117836737D01*
X105074385Y-117839601D01*
X105073714Y-117838677D01*
X105014863Y-117865035D01*
X104945780Y-117854585D01*
X104893312Y-117808444D01*
X104874539Y-117752410D01*
X104863394Y-117617905D01*
X104807454Y-117397006D01*
X104715920Y-117188330D01*
X104635624Y-117065427D01*
X103981548Y-117719503D01*
X103957398Y-117637255D01*
X103880443Y-117517511D01*
X103772869Y-117424298D01*
X103643392Y-117365167D01*
X103630616Y-117363330D01*
X104283483Y-116710462D01*
X104283483Y-116710461D01*
X104257132Y-116689952D01*
X104257127Y-116689949D01*
X104056730Y-116581500D01*
X104056719Y-116581495D01*
X103841201Y-116507507D01*
X103616435Y-116470000D01*
X103388565Y-116470000D01*
X103163798Y-116507507D01*
X102948280Y-116581495D01*
X102948269Y-116581500D01*
X102747873Y-116689948D01*
X102721516Y-116710462D01*
X103374384Y-117363330D01*
X103361608Y-117365167D01*
X103232131Y-117424298D01*
X103124557Y-117517511D01*
X103047602Y-117637255D01*
X103023451Y-117719503D01*
X102369373Y-117065427D01*
X102289078Y-117188333D01*
X102289077Y-117188335D01*
X102197545Y-117397006D01*
X102141605Y-117617906D01*
X102141603Y-117617914D01*
X102122788Y-117844993D01*
X102122788Y-117845006D01*
X100330500Y-117845006D01*
X100330500Y-116462870D01*
X143429500Y-116462870D01*
X143429501Y-116462876D01*
X143435908Y-116522483D01*
X143486202Y-116657328D01*
X143486206Y-116657335D01*
X143572452Y-116772544D01*
X143572455Y-116772547D01*
X143687664Y-116858793D01*
X143687671Y-116858797D01*
X143687674Y-116858798D01*
X143819598Y-116908002D01*
X143875531Y-116949873D01*
X143899949Y-117015337D01*
X143885098Y-117083610D01*
X143863947Y-117111865D01*
X143741886Y-117233926D01*
X143606400Y-117427420D01*
X143606399Y-117427422D01*
X143506570Y-117641507D01*
X143506567Y-117641513D01*
X143449364Y-117854999D01*
X143449364Y-117855000D01*
X144346314Y-117855000D01*
X144320507Y-117895156D01*
X144280000Y-118033111D01*
X144280000Y-118176889D01*
X144320507Y-118314844D01*
X144346314Y-118355000D01*
X143449364Y-118355000D01*
X143506567Y-118568486D01*
X143506570Y-118568492D01*
X143606399Y-118782578D01*
X143741894Y-118976082D01*
X143908917Y-119143105D01*
X144102421Y-119278600D01*
X144316507Y-119378429D01*
X144316516Y-119378433D01*
X144530000Y-119435634D01*
X144530000Y-118540501D01*
X144637685Y-118589680D01*
X144744237Y-118605000D01*
X144815763Y-118605000D01*
X144922315Y-118589680D01*
X145030000Y-118540501D01*
X145030000Y-119435633D01*
X145243483Y-119378433D01*
X145243492Y-119378429D01*
X145457578Y-119278600D01*
X145651082Y-119143105D01*
X145739187Y-119055000D01*
X147722206Y-119055000D01*
X147741353Y-119298297D01*
X147741353Y-119298300D01*
X147741354Y-119298302D01*
X147750957Y-119338302D01*
X147798330Y-119535619D01*
X147891722Y-119761089D01*
X148019237Y-119969173D01*
X148019238Y-119969176D01*
X148053404Y-120009179D01*
X148177741Y-120154759D01*
X148321397Y-120277453D01*
X148363323Y-120313261D01*
X148363326Y-120313262D01*
X148571410Y-120440777D01*
X148796881Y-120534169D01*
X148796878Y-120534169D01*
X148796884Y-120534170D01*
X148796888Y-120534172D01*
X149034198Y-120591146D01*
X149277500Y-120610294D01*
X149520802Y-120591146D01*
X149758112Y-120534172D01*
X149983589Y-120440777D01*
X150191679Y-120313259D01*
X150377259Y-120154759D01*
X150535759Y-119969179D01*
X150663277Y-119761089D01*
X150756672Y-119535612D01*
X150813646Y-119298302D01*
X150832794Y-119055000D01*
X150832793Y-119054993D01*
X150833070Y-119051480D01*
X150857953Y-118986191D01*
X150914184Y-118944720D01*
X150983910Y-118940233D01*
X151015705Y-118952153D01*
X151104212Y-119000050D01*
X151213074Y-119058963D01*
X151318046Y-119095000D01*
X151428673Y-119132979D01*
X151428675Y-119132979D01*
X151428677Y-119132980D01*
X151653523Y-119170500D01*
X151653524Y-119170500D01*
X151881476Y-119170500D01*
X151881477Y-119170500D01*
X152106323Y-119132980D01*
X152321926Y-119058963D01*
X152522406Y-118950469D01*
X152702294Y-118810456D01*
X152856683Y-118642745D01*
X152981362Y-118451909D01*
X153072930Y-118243155D01*
X153128890Y-118022176D01*
X153131122Y-117995241D01*
X153147714Y-117795006D01*
X153147714Y-117794993D01*
X153128891Y-117567831D01*
X153128889Y-117567820D01*
X153072930Y-117346844D01*
X152981362Y-117138091D01*
X152856685Y-116947257D01*
X152794927Y-116880170D01*
X152702294Y-116779544D01*
X152702293Y-116779543D01*
X152702291Y-116779541D01*
X152702287Y-116779538D01*
X152522409Y-116639533D01*
X152522400Y-116639527D01*
X152321932Y-116531040D01*
X152321929Y-116531039D01*
X152321926Y-116531037D01*
X152321920Y-116531035D01*
X152321918Y-116531034D01*
X152106326Y-116457020D01*
X151937688Y-116428880D01*
X151881477Y-116419500D01*
X151653523Y-116419500D01*
X151608553Y-116427003D01*
X151428673Y-116457020D01*
X151213081Y-116531034D01*
X151213067Y-116531040D01*
X151012599Y-116639527D01*
X151012590Y-116639533D01*
X150832712Y-116779538D01*
X150832708Y-116779541D01*
X150678314Y-116947257D01*
X150553637Y-117138091D01*
X150462069Y-117346844D01*
X150406110Y-117567820D01*
X150406108Y-117567832D01*
X150394216Y-117711350D01*
X150369063Y-117776535D01*
X150312661Y-117817773D01*
X150242917Y-117821971D01*
X150196377Y-117798551D01*
X150195615Y-117799601D01*
X150191673Y-117796737D01*
X149983589Y-117669222D01*
X149758118Y-117575830D01*
X149758121Y-117575830D01*
X149607655Y-117539706D01*
X149520802Y-117518854D01*
X149520800Y-117518853D01*
X149520797Y-117518853D01*
X149277500Y-117499706D01*
X149034202Y-117518853D01*
X149034197Y-117518854D01*
X149034198Y-117518854D01*
X148830198Y-117567831D01*
X148796880Y-117575830D01*
X148571410Y-117669222D01*
X148363326Y-117796737D01*
X148363323Y-117796738D01*
X148177741Y-117955241D01*
X148019238Y-118140823D01*
X148019237Y-118140826D01*
X147891722Y-118348910D01*
X147798330Y-118574380D01*
X147741353Y-118811702D01*
X147722206Y-119055000D01*
X145739187Y-119055000D01*
X145818105Y-118976082D01*
X145953600Y-118782578D01*
X146053429Y-118568492D01*
X146053432Y-118568486D01*
X146110636Y-118355000D01*
X145213686Y-118355000D01*
X145239493Y-118314844D01*
X145280000Y-118176889D01*
X145280000Y-118033111D01*
X145239493Y-117895156D01*
X145213686Y-117855000D01*
X146110636Y-117855000D01*
X146110635Y-117854999D01*
X146053432Y-117641513D01*
X146053429Y-117641507D01*
X145953600Y-117427422D01*
X145953599Y-117427420D01*
X145818113Y-117233926D01*
X145818108Y-117233920D01*
X145696053Y-117111865D01*
X145662568Y-117050542D01*
X145667552Y-116980850D01*
X145709424Y-116924917D01*
X145740400Y-116908002D01*
X145872331Y-116858796D01*
X145987546Y-116772546D01*
X146073796Y-116657331D01*
X146124091Y-116522483D01*
X146130500Y-116462873D01*
X146130499Y-114667128D01*
X146124247Y-114608965D01*
X146124091Y-114607516D01*
X146073797Y-114472671D01*
X146073793Y-114472664D01*
X145987547Y-114357455D01*
X145987544Y-114357452D01*
X145872335Y-114271206D01*
X145872328Y-114271202D01*
X145737482Y-114220908D01*
X145737483Y-114220908D01*
X145677883Y-114214501D01*
X145677881Y-114214500D01*
X145677873Y-114214500D01*
X145677864Y-114214500D01*
X143882129Y-114214500D01*
X143882123Y-114214501D01*
X143822516Y-114220908D01*
X143687671Y-114271202D01*
X143687664Y-114271206D01*
X143572455Y-114357452D01*
X143572452Y-114357455D01*
X143486206Y-114472664D01*
X143486202Y-114472671D01*
X143435908Y-114607517D01*
X143429501Y-114667116D01*
X143429501Y-114667123D01*
X143429500Y-114667135D01*
X143429500Y-116462870D01*
X100330500Y-116462870D01*
X100330500Y-115832870D01*
X122474500Y-115832870D01*
X122474501Y-115832876D01*
X122480908Y-115892483D01*
X122531202Y-116027328D01*
X122531206Y-116027335D01*
X122617452Y-116142544D01*
X122617455Y-116142547D01*
X122732664Y-116228793D01*
X122732671Y-116228797D01*
X122867517Y-116279091D01*
X122867516Y-116279091D01*
X122874444Y-116279835D01*
X122927127Y-116285500D01*
X124722872Y-116285499D01*
X124782483Y-116279091D01*
X124917331Y-116228796D01*
X125032546Y-116142546D01*
X125118796Y-116027331D01*
X125169091Y-115892483D01*
X125175500Y-115832873D01*
X125175499Y-115822314D01*
X125195179Y-115755277D01*
X125211818Y-115734628D01*
X125881922Y-115064523D01*
X125905507Y-115144844D01*
X125983239Y-115265798D01*
X126091900Y-115359952D01*
X126222685Y-115419680D01*
X126232466Y-115421086D01*
X125603625Y-116049925D01*
X125687421Y-116108599D01*
X125901507Y-116208429D01*
X125901516Y-116208433D01*
X126129673Y-116269567D01*
X126129684Y-116269569D01*
X126364998Y-116290157D01*
X126365002Y-116290157D01*
X126600315Y-116269569D01*
X126600326Y-116269567D01*
X126828483Y-116208433D01*
X126828492Y-116208429D01*
X127042578Y-116108600D01*
X127042582Y-116108598D01*
X127126373Y-116049926D01*
X127126373Y-116049925D01*
X126497533Y-115421086D01*
X126507315Y-115419680D01*
X126638100Y-115359952D01*
X126746761Y-115265798D01*
X126824493Y-115144844D01*
X126848076Y-115064524D01*
X127479925Y-115696373D01*
X127533119Y-115620405D01*
X127587696Y-115576781D01*
X127657195Y-115569588D01*
X127719549Y-115601110D01*
X127736269Y-115620405D01*
X127866505Y-115806401D01*
X128033599Y-115973495D01*
X128130384Y-116041265D01*
X128227165Y-116109032D01*
X128227167Y-116109033D01*
X128227170Y-116109035D01*
X128441337Y-116208903D01*
X128669592Y-116270063D01*
X128846034Y-116285500D01*
X128904999Y-116290659D01*
X128905000Y-116290659D01*
X128905001Y-116290659D01*
X128963966Y-116285500D01*
X129140408Y-116270063D01*
X129368663Y-116208903D01*
X129582830Y-116109035D01*
X129776401Y-115973495D01*
X129943495Y-115806401D01*
X130073424Y-115620842D01*
X130128002Y-115577217D01*
X130197500Y-115570023D01*
X130259855Y-115601546D01*
X130276575Y-115620842D01*
X130406500Y-115806395D01*
X130406505Y-115806401D01*
X130573599Y-115973495D01*
X130670384Y-116041265D01*
X130767165Y-116109032D01*
X130767167Y-116109033D01*
X130767170Y-116109035D01*
X130981337Y-116208903D01*
X131209592Y-116270063D01*
X131386034Y-116285500D01*
X131444999Y-116290659D01*
X131445000Y-116290659D01*
X131445001Y-116290659D01*
X131503966Y-116285500D01*
X131680408Y-116270063D01*
X131908663Y-116208903D01*
X132122830Y-116109035D01*
X132316401Y-115973495D01*
X132483495Y-115806401D01*
X132619035Y-115612830D01*
X132718903Y-115398663D01*
X132780063Y-115170408D01*
X132800659Y-114935000D01*
X132780063Y-114699592D01*
X132726708Y-114500466D01*
X132718905Y-114471344D01*
X132718904Y-114471343D01*
X132718903Y-114471337D01*
X132619035Y-114257171D01*
X132613731Y-114249595D01*
X132483494Y-114063597D01*
X132316402Y-113896506D01*
X132316395Y-113896501D01*
X132122834Y-113760967D01*
X132122830Y-113760965D01*
X132084289Y-113742993D01*
X131908663Y-113661097D01*
X131908659Y-113661096D01*
X131908655Y-113661094D01*
X131680413Y-113599938D01*
X131680403Y-113599936D01*
X131445001Y-113579341D01*
X131444999Y-113579341D01*
X131209596Y-113599936D01*
X131209586Y-113599938D01*
X130981344Y-113661094D01*
X130981335Y-113661098D01*
X130767171Y-113760964D01*
X130767169Y-113760965D01*
X130573597Y-113896505D01*
X130406508Y-114063594D01*
X130276574Y-114249159D01*
X130221997Y-114292784D01*
X130152498Y-114299976D01*
X130090144Y-114268454D01*
X130073424Y-114249158D01*
X130049156Y-114214500D01*
X130020536Y-114173625D01*
X129943494Y-114063597D01*
X129776402Y-113896506D01*
X129776395Y-113896501D01*
X129582834Y-113760967D01*
X129582830Y-113760965D01*
X129544289Y-113742993D01*
X129368663Y-113661097D01*
X129368659Y-113661096D01*
X129368655Y-113661094D01*
X129140413Y-113599938D01*
X129140403Y-113599936D01*
X128905001Y-113579341D01*
X128904999Y-113579341D01*
X128669596Y-113599936D01*
X128669586Y-113599938D01*
X128441344Y-113661094D01*
X128441335Y-113661098D01*
X128227171Y-113760964D01*
X128227169Y-113760965D01*
X128033597Y-113896505D01*
X127866505Y-114063597D01*
X127736269Y-114249595D01*
X127681692Y-114293220D01*
X127612194Y-114300414D01*
X127549839Y-114268891D01*
X127533119Y-114249595D01*
X127479925Y-114173626D01*
X127479925Y-114173625D01*
X126848076Y-114805474D01*
X126824493Y-114725156D01*
X126746761Y-114604202D01*
X126638100Y-114510048D01*
X126507315Y-114450320D01*
X126497533Y-114448913D01*
X127126373Y-113820073D01*
X127126373Y-113820072D01*
X127042583Y-113761402D01*
X127042579Y-113761400D01*
X126828492Y-113661570D01*
X126828483Y-113661566D01*
X126600326Y-113600432D01*
X126600315Y-113600430D01*
X126365002Y-113579843D01*
X126364998Y-113579843D01*
X126129684Y-113600430D01*
X126129673Y-113600432D01*
X125901516Y-113661566D01*
X125901507Y-113661570D01*
X125687419Y-113761401D01*
X125603625Y-113820072D01*
X126232466Y-114448913D01*
X126222685Y-114450320D01*
X126091900Y-114510048D01*
X125983239Y-114604202D01*
X125905507Y-114725156D01*
X125881923Y-114805474D01*
X125211818Y-114135370D01*
X125178333Y-114074047D01*
X125175499Y-114047689D01*
X125175499Y-114037129D01*
X125175498Y-114037123D01*
X125175497Y-114037116D01*
X125169091Y-113977517D01*
X125159450Y-113951669D01*
X125118797Y-113842671D01*
X125118793Y-113842664D01*
X125032547Y-113727455D01*
X125032544Y-113727452D01*
X124917335Y-113641206D01*
X124917328Y-113641202D01*
X124782482Y-113590908D01*
X124782483Y-113590908D01*
X124722883Y-113584501D01*
X124722881Y-113584500D01*
X124722873Y-113584500D01*
X124722864Y-113584500D01*
X122927129Y-113584500D01*
X122927123Y-113584501D01*
X122867516Y-113590908D01*
X122732671Y-113641202D01*
X122732664Y-113641206D01*
X122617455Y-113727452D01*
X122617452Y-113727455D01*
X122531206Y-113842664D01*
X122531202Y-113842671D01*
X122480908Y-113977517D01*
X122478286Y-114001909D01*
X122474501Y-114037123D01*
X122474500Y-114037135D01*
X122474500Y-115832870D01*
X100330500Y-115832870D01*
X100330500Y-113345006D01*
X102122286Y-113345006D01*
X102141108Y-113572168D01*
X102141110Y-113572179D01*
X102197069Y-113793155D01*
X102288637Y-114001908D01*
X102413314Y-114192742D01*
X102505409Y-114292784D01*
X102564943Y-114357455D01*
X102567708Y-114360458D01*
X102567712Y-114360461D01*
X102711879Y-114472671D01*
X102747594Y-114500469D01*
X102747596Y-114500470D01*
X102747599Y-114500472D01*
X102765294Y-114510048D01*
X102948074Y-114608963D01*
X103060029Y-114647397D01*
X103163673Y-114682979D01*
X103163675Y-114682979D01*
X103163677Y-114682980D01*
X103388523Y-114720500D01*
X103388524Y-114720500D01*
X103616476Y-114720500D01*
X103616477Y-114720500D01*
X103841323Y-114682980D01*
X104056926Y-114608963D01*
X104257406Y-114500469D01*
X104437294Y-114360456D01*
X104591683Y-114192745D01*
X104716362Y-114001909D01*
X104807930Y-113793155D01*
X104863890Y-113572176D01*
X104875782Y-113428647D01*
X104900936Y-113363465D01*
X104957338Y-113322226D01*
X105027081Y-113318028D01*
X105073622Y-113341448D01*
X105074385Y-113340399D01*
X105078316Y-113343254D01*
X105078321Y-113343259D01*
X105078326Y-113343262D01*
X105286410Y-113470777D01*
X105511881Y-113564169D01*
X105511878Y-113564169D01*
X105511884Y-113564170D01*
X105511888Y-113564172D01*
X105749198Y-113621146D01*
X105992500Y-113640294D01*
X106235802Y-113621146D01*
X106473112Y-113564172D01*
X106698589Y-113470777D01*
X106906679Y-113343259D01*
X107092259Y-113184759D01*
X107250759Y-112999179D01*
X107378277Y-112791089D01*
X107471672Y-112565612D01*
X107528646Y-112328302D01*
X107547794Y-112085000D01*
X107544646Y-112045000D01*
X147722206Y-112045000D01*
X147741353Y-112288297D01*
X147741353Y-112288300D01*
X147741354Y-112288302D01*
X147791520Y-112497257D01*
X147798330Y-112525619D01*
X147891722Y-112751089D01*
X148019237Y-112959173D01*
X148019238Y-112959176D01*
X148053404Y-112999179D01*
X148177741Y-113144759D01*
X148321397Y-113267453D01*
X148363323Y-113303261D01*
X148363326Y-113303262D01*
X148571410Y-113430777D01*
X148796881Y-113524169D01*
X148796878Y-113524169D01*
X148796884Y-113524170D01*
X148796888Y-113524172D01*
X149034198Y-113581146D01*
X149277500Y-113600294D01*
X149520802Y-113581146D01*
X149758112Y-113524172D01*
X149983589Y-113430777D01*
X150191679Y-113303259D01*
X150191689Y-113303249D01*
X150195615Y-113300399D01*
X150196290Y-113301328D01*
X150255097Y-113274969D01*
X150324184Y-113285397D01*
X150376666Y-113331521D01*
X150395459Y-113387588D01*
X150406603Y-113522084D01*
X150406605Y-113522093D01*
X150462545Y-113742993D01*
X150554077Y-113951664D01*
X150554079Y-113951668D01*
X150634374Y-114074570D01*
X151288451Y-113420494D01*
X151312602Y-113502745D01*
X151389557Y-113622489D01*
X151497131Y-113715702D01*
X151626608Y-113774833D01*
X151639382Y-113776669D01*
X150986515Y-114429536D01*
X150986516Y-114429537D01*
X151012866Y-114450046D01*
X151012872Y-114450050D01*
X151213269Y-114558499D01*
X151213280Y-114558504D01*
X151428798Y-114632492D01*
X151653565Y-114670000D01*
X151881435Y-114670000D01*
X152106201Y-114632492D01*
X152321719Y-114558504D01*
X152321730Y-114558499D01*
X152522133Y-114450047D01*
X152548482Y-114429537D01*
X152548482Y-114429536D01*
X151895617Y-113776669D01*
X151908392Y-113774833D01*
X152037869Y-113715702D01*
X152145443Y-113622489D01*
X152222398Y-113502745D01*
X152246548Y-113420495D01*
X152900625Y-114074571D01*
X152980920Y-113951669D01*
X153072454Y-113742993D01*
X153128394Y-113522093D01*
X153128396Y-113522085D01*
X153147212Y-113295006D01*
X153147212Y-113294993D01*
X153128396Y-113067914D01*
X153128394Y-113067906D01*
X153072454Y-112847006D01*
X152980920Y-112638330D01*
X152900624Y-112515427D01*
X152246548Y-113169504D01*
X152222398Y-113087255D01*
X152145443Y-112967511D01*
X152037869Y-112874298D01*
X151908392Y-112815167D01*
X151895616Y-112813330D01*
X152548483Y-112160462D01*
X152548483Y-112160461D01*
X152522132Y-112139952D01*
X152522127Y-112139949D01*
X152321730Y-112031500D01*
X152321719Y-112031495D01*
X152106201Y-111957507D01*
X151881435Y-111920000D01*
X151653565Y-111920000D01*
X151428798Y-111957507D01*
X151213280Y-112031495D01*
X151213268Y-112031500D01*
X151014993Y-112138800D01*
X150946664Y-112153395D01*
X150881292Y-112128732D01*
X150839632Y-112072641D01*
X150832359Y-112039480D01*
X150813646Y-111801698D01*
X150756672Y-111564388D01*
X150756669Y-111564380D01*
X150663277Y-111338910D01*
X150535762Y-111130826D01*
X150535761Y-111130823D01*
X150499953Y-111088897D01*
X150377259Y-110945241D01*
X150238510Y-110826738D01*
X150191676Y-110786738D01*
X150191673Y-110786737D01*
X149983589Y-110659222D01*
X149758118Y-110565830D01*
X149758121Y-110565830D01*
X149607655Y-110529706D01*
X149520802Y-110508854D01*
X149520800Y-110508853D01*
X149520797Y-110508853D01*
X149277500Y-110489706D01*
X149034202Y-110508853D01*
X148796880Y-110565830D01*
X148571410Y-110659222D01*
X148363326Y-110786737D01*
X148363323Y-110786738D01*
X148177741Y-110945241D01*
X148019238Y-111130823D01*
X148019237Y-111130826D01*
X147891722Y-111338910D01*
X147798330Y-111564380D01*
X147741353Y-111801702D01*
X147722206Y-112045000D01*
X107544646Y-112045000D01*
X107528646Y-111841698D01*
X107471672Y-111604388D01*
X107455104Y-111564388D01*
X107378277Y-111378910D01*
X107250762Y-111170826D01*
X107250761Y-111170823D01*
X107182136Y-111090474D01*
X107092259Y-110985241D01*
X106969563Y-110880449D01*
X106906676Y-110826738D01*
X106906673Y-110826737D01*
X106698589Y-110699222D01*
X106473118Y-110605830D01*
X106473121Y-110605830D01*
X106306511Y-110565830D01*
X106235802Y-110548854D01*
X106235800Y-110548853D01*
X106235797Y-110548853D01*
X106020443Y-110531905D01*
X105992500Y-110529706D01*
X105992499Y-110529706D01*
X105749202Y-110548853D01*
X105511880Y-110605830D01*
X105286410Y-110699222D01*
X105078326Y-110826737D01*
X105078323Y-110826738D01*
X104892741Y-110985241D01*
X104734238Y-111170823D01*
X104734237Y-111170826D01*
X104606722Y-111378910D01*
X104513330Y-111604380D01*
X104456353Y-111841702D01*
X104436929Y-112088520D01*
X104412045Y-112153808D01*
X104355814Y-112195279D01*
X104286089Y-112199766D01*
X104254294Y-112187846D01*
X104056932Y-112081040D01*
X104056929Y-112081039D01*
X104056926Y-112081037D01*
X104056920Y-112081035D01*
X104056918Y-112081034D01*
X103841326Y-112007020D01*
X103672688Y-111978880D01*
X103616477Y-111969500D01*
X103388523Y-111969500D01*
X103343553Y-111977003D01*
X103163673Y-112007020D01*
X102948081Y-112081034D01*
X102948067Y-112081040D01*
X102747599Y-112189527D01*
X102747590Y-112189533D01*
X102567712Y-112329538D01*
X102567708Y-112329541D01*
X102413314Y-112497257D01*
X102288637Y-112688091D01*
X102197069Y-112896844D01*
X102141110Y-113117820D01*
X102141108Y-113117831D01*
X102122286Y-113344993D01*
X102122286Y-113345006D01*
X100330500Y-113345006D01*
X100330500Y-109830005D01*
X132559357Y-109830005D01*
X132579890Y-110077812D01*
X132579892Y-110077824D01*
X132640936Y-110318881D01*
X132740826Y-110546606D01*
X132876833Y-110754782D01*
X132876836Y-110754785D01*
X133045256Y-110937738D01*
X133241491Y-111090474D01*
X133460190Y-111208828D01*
X133695386Y-111289571D01*
X133940665Y-111330500D01*
X134189335Y-111330500D01*
X134434614Y-111289571D01*
X134669810Y-111208828D01*
X134888509Y-111090474D01*
X135084744Y-110937738D01*
X135253164Y-110754785D01*
X135389173Y-110546607D01*
X135451443Y-110404644D01*
X135496400Y-110351158D01*
X135563136Y-110330468D01*
X135630464Y-110349143D01*
X135677007Y-110401253D01*
X135678556Y-110404644D01*
X135740826Y-110546606D01*
X135876833Y-110754782D01*
X135876836Y-110754785D01*
X136045256Y-110937738D01*
X136241491Y-111090474D01*
X136460190Y-111208828D01*
X136695386Y-111289571D01*
X136940665Y-111330500D01*
X137189335Y-111330500D01*
X137434614Y-111289571D01*
X137669810Y-111208828D01*
X137888509Y-111090474D01*
X138084744Y-110937738D01*
X138253164Y-110754785D01*
X138389173Y-110546607D01*
X138489063Y-110318881D01*
X138550108Y-110077821D01*
X138570643Y-109830005D01*
X139559357Y-109830005D01*
X139579890Y-110077812D01*
X139579892Y-110077824D01*
X139640936Y-110318881D01*
X139740826Y-110546606D01*
X139876833Y-110754782D01*
X139876836Y-110754785D01*
X140045256Y-110937738D01*
X140241491Y-111090474D01*
X140460190Y-111208828D01*
X140695386Y-111289571D01*
X140940665Y-111330500D01*
X141189335Y-111330500D01*
X141434614Y-111289571D01*
X141669810Y-111208828D01*
X141888509Y-111090474D01*
X142084744Y-110937738D01*
X142253164Y-110754785D01*
X142389173Y-110546607D01*
X142451443Y-110404644D01*
X142496400Y-110351158D01*
X142563136Y-110330468D01*
X142630464Y-110349143D01*
X142677007Y-110401253D01*
X142678556Y-110404644D01*
X142740826Y-110546606D01*
X142876833Y-110754782D01*
X142876836Y-110754785D01*
X143045256Y-110937738D01*
X143241491Y-111090474D01*
X143460190Y-111208828D01*
X143695386Y-111289571D01*
X143940665Y-111330500D01*
X144189335Y-111330500D01*
X144434614Y-111289571D01*
X144669810Y-111208828D01*
X144888509Y-111090474D01*
X145084744Y-110937738D01*
X145253164Y-110754785D01*
X145389173Y-110546607D01*
X145489063Y-110318881D01*
X145550108Y-110077821D01*
X145570643Y-109830000D01*
X145550108Y-109582179D01*
X145489063Y-109341119D01*
X145475788Y-109310856D01*
X145389173Y-109113393D01*
X145253166Y-108905217D01*
X145151478Y-108794755D01*
X145084744Y-108722262D01*
X144888509Y-108569526D01*
X144888507Y-108569525D01*
X144888506Y-108569524D01*
X144669811Y-108451172D01*
X144669802Y-108451169D01*
X144434616Y-108370429D01*
X144189335Y-108329500D01*
X143940665Y-108329500D01*
X143695383Y-108370429D01*
X143460197Y-108451169D01*
X143460188Y-108451172D01*
X143241493Y-108569524D01*
X143045257Y-108722261D01*
X142876833Y-108905217D01*
X142740826Y-109113393D01*
X142678556Y-109255355D01*
X142633600Y-109308841D01*
X142566864Y-109329531D01*
X142499536Y-109310856D01*
X142452993Y-109258746D01*
X142451444Y-109255355D01*
X142389173Y-109113393D01*
X142253166Y-108905217D01*
X142151478Y-108794755D01*
X142084744Y-108722262D01*
X141888509Y-108569526D01*
X141888507Y-108569525D01*
X141888506Y-108569524D01*
X141669811Y-108451172D01*
X141669802Y-108451169D01*
X141434616Y-108370429D01*
X141189335Y-108329500D01*
X140940665Y-108329500D01*
X140695383Y-108370429D01*
X140460197Y-108451169D01*
X140460188Y-108451172D01*
X140241493Y-108569524D01*
X140045257Y-108722261D01*
X139876833Y-108905217D01*
X139740826Y-109113393D01*
X139640936Y-109341118D01*
X139579892Y-109582175D01*
X139579890Y-109582187D01*
X139559357Y-109829994D01*
X139559357Y-109830005D01*
X138570643Y-109830005D01*
X138570643Y-109830000D01*
X138550108Y-109582179D01*
X138489063Y-109341119D01*
X138475788Y-109310856D01*
X138389173Y-109113393D01*
X138253166Y-108905217D01*
X138151478Y-108794755D01*
X138084744Y-108722262D01*
X137888509Y-108569526D01*
X137888507Y-108569525D01*
X137888506Y-108569524D01*
X137669811Y-108451172D01*
X137669802Y-108451169D01*
X137434616Y-108370429D01*
X137189335Y-108329500D01*
X136940665Y-108329500D01*
X136695383Y-108370429D01*
X136460197Y-108451169D01*
X136460188Y-108451172D01*
X136241493Y-108569524D01*
X136045257Y-108722261D01*
X135876833Y-108905217D01*
X135740826Y-109113393D01*
X135678556Y-109255355D01*
X135633600Y-109308841D01*
X135566864Y-109329531D01*
X135499536Y-109310856D01*
X135452993Y-109258746D01*
X135451444Y-109255355D01*
X135389173Y-109113393D01*
X135253166Y-108905217D01*
X135151478Y-108794755D01*
X135084744Y-108722262D01*
X134888509Y-108569526D01*
X134888507Y-108569525D01*
X134888506Y-108569524D01*
X134669811Y-108451172D01*
X134669802Y-108451169D01*
X134434616Y-108370429D01*
X134189335Y-108329500D01*
X133940665Y-108329500D01*
X133695383Y-108370429D01*
X133460197Y-108451169D01*
X133460188Y-108451172D01*
X133241493Y-108569524D01*
X133045257Y-108722261D01*
X132876833Y-108905217D01*
X132740826Y-109113393D01*
X132640936Y-109341118D01*
X132579892Y-109582175D01*
X132579890Y-109582187D01*
X132559357Y-109829994D01*
X132559357Y-109830005D01*
X100330500Y-109830005D01*
X100330500Y-108584985D01*
X100332890Y-108304923D01*
X100333032Y-108301257D01*
X100371237Y-107742722D01*
X100371668Y-107738527D01*
X100447869Y-107184118D01*
X100448577Y-107180012D01*
X100562436Y-106632100D01*
X100563430Y-106628024D01*
X100583909Y-106554936D01*
X100714403Y-106089191D01*
X100715675Y-106085185D01*
X100903069Y-105557910D01*
X100904613Y-105553992D01*
X101127558Y-105040721D01*
X101129369Y-105036915D01*
X101136383Y-105023379D01*
X101386821Y-104540054D01*
X101388877Y-104536400D01*
X101679641Y-104058258D01*
X101681935Y-104054760D01*
X101733406Y-103981844D01*
X101788146Y-103938429D01*
X101857671Y-103931500D01*
X101919906Y-103963259D01*
X101955091Y-104023623D01*
X101952055Y-104093426D01*
X101950472Y-104097793D01*
X101886262Y-104265063D01*
X101785887Y-104639669D01*
X101785886Y-104639676D01*
X101725219Y-105022712D01*
X101704922Y-105409999D01*
X101704922Y-105410000D01*
X101725219Y-105797287D01*
X101785886Y-106180323D01*
X101785887Y-106180330D01*
X101886262Y-106554936D01*
X102025244Y-106916994D01*
X102201310Y-107262543D01*
X102412531Y-107587793D01*
X102621095Y-107845350D01*
X102621096Y-107845350D01*
X104112266Y-106354179D01*
X104275130Y-106544870D01*
X104465819Y-106707733D01*
X102974648Y-108198903D01*
X102974649Y-108198904D01*
X103232206Y-108407468D01*
X103557456Y-108618689D01*
X103903005Y-108794755D01*
X104265063Y-108933737D01*
X104639669Y-109034112D01*
X104639676Y-109034113D01*
X105022712Y-109094780D01*
X105409999Y-109115078D01*
X105410001Y-109115078D01*
X105797287Y-109094780D01*
X106180323Y-109034113D01*
X106180330Y-109034112D01*
X106554936Y-108933737D01*
X106916994Y-108794755D01*
X107262543Y-108618689D01*
X107587783Y-108407476D01*
X107587785Y-108407475D01*
X107845349Y-108198902D01*
X106354180Y-106707733D01*
X106544870Y-106544870D01*
X106707733Y-106354180D01*
X108198902Y-107845349D01*
X108407475Y-107587785D01*
X108407476Y-107587783D01*
X108618689Y-107262543D01*
X108794755Y-106916994D01*
X108933737Y-106554936D01*
X109034112Y-106180330D01*
X109034113Y-106180323D01*
X109094780Y-105797287D01*
X109115078Y-105410000D01*
X109115078Y-105409999D01*
X109094780Y-105022712D01*
X109034113Y-104639676D01*
X109034112Y-104639669D01*
X108933737Y-104265063D01*
X108794755Y-103903005D01*
X108618689Y-103557456D01*
X108407468Y-103232206D01*
X108272878Y-103066000D01*
X111824000Y-103066000D01*
X111824000Y-104963844D01*
X111830401Y-105023372D01*
X111830403Y-105023379D01*
X111880645Y-105158086D01*
X111880649Y-105158093D01*
X111966809Y-105273187D01*
X111966812Y-105273190D01*
X112081906Y-105359350D01*
X112081913Y-105359354D01*
X112216620Y-105409596D01*
X112216627Y-105409598D01*
X112276155Y-105415999D01*
X112276172Y-105416000D01*
X112749000Y-105416000D01*
X112749000Y-103066000D01*
X113249000Y-103066000D01*
X113249000Y-105416000D01*
X113721828Y-105416000D01*
X113721844Y-105415999D01*
X113781372Y-105409598D01*
X113781379Y-105409596D01*
X113916086Y-105359354D01*
X113916093Y-105359350D01*
X114031187Y-105273190D01*
X114031190Y-105273187D01*
X114117350Y-105158093D01*
X114117354Y-105158086D01*
X114167596Y-105023379D01*
X114167598Y-105023372D01*
X114173999Y-104963844D01*
X114174000Y-104963827D01*
X114174000Y-103066000D01*
X117474000Y-103066000D01*
X117474000Y-104963844D01*
X117480401Y-105023372D01*
X117480403Y-105023379D01*
X117530645Y-105158086D01*
X117530649Y-105158093D01*
X117616809Y-105273187D01*
X117616812Y-105273190D01*
X117731906Y-105359350D01*
X117731913Y-105359354D01*
X117866620Y-105409596D01*
X117866627Y-105409598D01*
X117926155Y-105415999D01*
X117926172Y-105416000D01*
X118399000Y-105416000D01*
X118898999Y-105416000D01*
X119371828Y-105416000D01*
X119371844Y-105415999D01*
X119431372Y-105409598D01*
X119431379Y-105409596D01*
X119566086Y-105359354D01*
X119566093Y-105359350D01*
X119681187Y-105273190D01*
X119681190Y-105273187D01*
X119767350Y-105158093D01*
X119767354Y-105158086D01*
X119817596Y-105023379D01*
X119817598Y-105023372D01*
X119823999Y-104963844D01*
X119824000Y-104963827D01*
X119824000Y-104830005D01*
X137559859Y-104830005D01*
X137580385Y-105077729D01*
X137580387Y-105077738D01*
X137641412Y-105318717D01*
X137741266Y-105546364D01*
X137841564Y-105699882D01*
X138502226Y-105039219D01*
X138540901Y-105132588D01*
X138637075Y-105257925D01*
X138762412Y-105354099D01*
X138855779Y-105392772D01*
X138194942Y-106053609D01*
X138241768Y-106090055D01*
X138241770Y-106090056D01*
X138460385Y-106208364D01*
X138460396Y-106208369D01*
X138695506Y-106289083D01*
X138940707Y-106330000D01*
X139189293Y-106330000D01*
X139434493Y-106289083D01*
X139669603Y-106208369D01*
X139669614Y-106208364D01*
X139888228Y-106090057D01*
X139888231Y-106090055D01*
X139935056Y-106053609D01*
X139274220Y-105392773D01*
X139367588Y-105354099D01*
X139492925Y-105257925D01*
X139589099Y-105132589D01*
X139627773Y-105039219D01*
X140288434Y-105699882D01*
X140388731Y-105546369D01*
X140488587Y-105318717D01*
X140549612Y-105077738D01*
X140549614Y-105077729D01*
X140570141Y-104830005D01*
X140570141Y-104829994D01*
X140549614Y-104582270D01*
X140549612Y-104582261D01*
X140488587Y-104341282D01*
X140388731Y-104113630D01*
X140288434Y-103960116D01*
X139627772Y-104620778D01*
X139589099Y-104527412D01*
X139492925Y-104402075D01*
X139367588Y-104305901D01*
X139274220Y-104267227D01*
X139935057Y-103606390D01*
X139935056Y-103606389D01*
X139888229Y-103569943D01*
X139669614Y-103451635D01*
X139669603Y-103451630D01*
X139434493Y-103370916D01*
X139189293Y-103330000D01*
X138940707Y-103330000D01*
X138695506Y-103370916D01*
X138460396Y-103451630D01*
X138460390Y-103451632D01*
X138241761Y-103569949D01*
X138194942Y-103606388D01*
X138194942Y-103606390D01*
X138855779Y-104267227D01*
X138762412Y-104305901D01*
X138637075Y-104402075D01*
X138540901Y-104527411D01*
X138502227Y-104620779D01*
X137841564Y-103960116D01*
X137741267Y-104113632D01*
X137641412Y-104341282D01*
X137580387Y-104582261D01*
X137580385Y-104582270D01*
X137559859Y-104829994D01*
X137559859Y-104830005D01*
X119824000Y-104830005D01*
X119824000Y-103066000D01*
X118899000Y-103066000D01*
X118898999Y-105416000D01*
X118399000Y-105416000D01*
X118399000Y-103066000D01*
X117474000Y-103066000D01*
X114174000Y-103066000D01*
X113249000Y-103066000D01*
X112749000Y-103066000D01*
X111824000Y-103066000D01*
X108272878Y-103066000D01*
X108198904Y-102974649D01*
X108198903Y-102974648D01*
X106707732Y-104465818D01*
X106544870Y-104275130D01*
X106354179Y-104112266D01*
X107845350Y-102621096D01*
X107845350Y-102621095D01*
X107587793Y-102412531D01*
X107262543Y-102201310D01*
X106916994Y-102025244D01*
X106554936Y-101886262D01*
X106180330Y-101785887D01*
X106180323Y-101785886D01*
X105797287Y-101725219D01*
X105410001Y-101704922D01*
X105409999Y-101704922D01*
X105022712Y-101725219D01*
X104639676Y-101785886D01*
X104639669Y-101785887D01*
X104265063Y-101886262D01*
X104097793Y-101950472D01*
X104028152Y-101956120D01*
X103966513Y-101923220D01*
X103932445Y-101862219D01*
X103936766Y-101792483D01*
X103978103Y-101736153D01*
X103981810Y-101733430D01*
X104054760Y-101681935D01*
X104058258Y-101679641D01*
X104536424Y-101388862D01*
X104540053Y-101386821D01*
X105036917Y-101129367D01*
X105040721Y-101127558D01*
X105553996Y-100904611D01*
X105557914Y-100903067D01*
X106085180Y-100715676D01*
X106089159Y-100714412D01*
X106628033Y-100563427D01*
X106632100Y-100562436D01*
X107180000Y-100448580D01*
X107184124Y-100447868D01*
X107688800Y-100378503D01*
X107738510Y-100371671D01*
X107742722Y-100371238D01*
X108301256Y-100333032D01*
X108304922Y-100332890D01*
X108584986Y-100330500D01*
X111755542Y-100330500D01*
X111822581Y-100350185D01*
G37*
G04 #@! TD.AperFunction*
M02*
